<?xml version="1.0" encoding="UTF-8"?>
<svg xmlns="http://www.w3.org/2000/svg" xmlns:xlink="http://www.w3.org/1999/xlink" width="577.357" height="427.020" viewBox="0 0 262.435 194.1">
<defs>
<g>
<g id="glyph-0-0">
<path d="M 5.71875 -1.71875 C 5.71875 -2.3125 5.234375 -2.75 4.546875 -2.828125 C 5.359375 -3 6.15625 -3.59375 6.15625 -4.328125 C 6.15625 -4.953125 5.59375 -5.421875 4.71875 -5.421875 L 2.140625 -5.421875 C 2.015625 -5.421875 1.90625 -5.421875 1.90625 -5.265625 C 1.90625 -5.15625 2.015625 -5.15625 2.140625 -5.15625 C 2.359375 -5.15625 2.578125 -5.15625 2.578125 -5.046875 C 2.578125 -5 2.578125 -4.984375 2.546875 -4.859375 L 1.484375 -0.609375 C 1.40625 -0.328125 1.359375 -0.265625 0.875 -0.265625 C 0.703125 -0.265625 0.625 -0.265625 0.625 -0.109375 C 0.625 0 0.71875 0 0.84375 0 L 3.578125 0 C 4.75 0 5.71875 -0.90625 5.71875 -1.71875 Z M 5.484375 -4.34375 C 5.484375 -3.703125 4.796875 -2.921875 3.828125 -2.921875 L 2.671875 -2.921875 L 3.15625 -4.875 C 3.21875 -5.15625 3.28125 -5.15625 3.53125 -5.15625 L 4.609375 -5.15625 C 5.46875 -5.15625 5.484375 -4.4375 5.484375 -4.34375 Z M 5.015625 -1.796875 C 5.015625 -1.015625 4.28125 -0.265625 3.390625 -0.265625 L 2.25 -0.265625 C 2.171875 -0.265625 2.09375 -0.265625 2.03125 -0.28125 C 2.03125 -0.359375 2.03125 -0.390625 2.0625 -0.484375 L 2.609375 -2.703125 L 4.109375 -2.703125 C 4.984375 -2.703125 5.015625 -1.90625 5.015625 -1.796875 Z M 5.015625 -1.796875 "/>
</g>
<g id="glyph-0-1">
<path d="M 4.78125 -1.140625 C 4.78125 -1.234375 4.671875 -1.234375 4.625 -1.234375 C 4.5 -1.234375 4.5 -1.21875 4.4375 -1.015625 C 4.296875 -0.40625 4.125 -0.140625 3.90625 -0.140625 C 3.6875 -0.140625 3.6875 -0.390625 3.6875 -0.484375 C 3.6875 -0.546875 3.6875 -0.625 3.71875 -0.71875 L 4.28125 -3.046875 C 4.3125 -3.15625 4.3125 -3.171875 4.3125 -3.1875 C 4.3125 -3.34375 4.21875 -3.421875 4.078125 -3.421875 C 3.828125 -3.421875 3.765625 -3.171875 3.75 -3.109375 L 3.203125 -0.921875 C 3.171875 -0.765625 2.828125 -0.140625 2.296875 -0.140625 C 1.828125 -0.140625 1.828125 -0.625 1.828125 -0.765625 C 1.828125 -1.203125 2.03125 -1.75 2.28125 -2.4375 C 2.34375 -2.609375 2.375 -2.6875 2.375 -2.84375 C 2.375 -3.28125 2.0625 -3.5 1.71875 -3.5 C 0.953125 -3.5 0.640625 -2.390625 0.640625 -2.28125 C 0.640625 -2.1875 0.734375 -2.1875 0.78125 -2.1875 C 0.90625 -2.1875 0.921875 -2.203125 0.953125 -2.34375 C 1.09375 -2.84375 1.359375 -3.28125 1.703125 -3.28125 C 1.84375 -3.28125 1.875 -3.171875 1.875 -3.03125 C 1.875 -2.84375 1.8125 -2.6875 1.75 -2.5 C 1.53125 -1.890625 1.296875 -1.3125 1.296875 -0.875 C 1.296875 -0.15625 1.8125 0.078125 2.265625 0.078125 C 2.453125 0.078125 2.8125 0.0625 3.203125 -0.40625 C 3.328125 -0.015625 3.6875 0.078125 3.890625 0.078125 C 4.1875 0.078125 4.375 -0.09375 4.515625 -0.34375 C 4.671875 -0.65625 4.78125 -1.140625 4.78125 -1.140625 Z M 4.78125 -1.140625 "/>
</g>
<g id="glyph-0-2">
<path d="M 2.8125 -1.140625 C 2.8125 -1.234375 2.703125 -1.234375 2.671875 -1.234375 C 2.546875 -1.234375 2.53125 -1.203125 2.5 -1.078125 C 2.34375 -0.5625 2.09375 -0.140625 1.75 -0.140625 C 1.609375 -0.140625 1.578125 -0.25 1.578125 -0.390625 C 1.578125 -0.578125 1.625 -0.71875 1.75 -1.046875 L 2.28125 -2.421875 C 2.34375 -2.609375 2.375 -2.6875 2.375 -2.84375 C 2.375 -3.28125 2.046875 -3.5 1.71875 -3.5 C 0.953125 -3.5 0.640625 -2.390625 0.640625 -2.28125 C 0.640625 -2.1875 0.734375 -2.1875 0.78125 -2.1875 C 0.90625 -2.1875 0.921875 -2.203125 0.953125 -2.34375 C 1.078125 -2.765625 1.3125 -3.28125 1.703125 -3.28125 C 1.84375 -3.28125 1.875 -3.171875 1.875 -3.03125 C 1.875 -2.84375 1.8125 -2.703125 1.71875 -2.421875 L 1.15625 -0.9375 C 1.125 -0.859375 1.078125 -0.71875 1.078125 -0.578125 C 1.078125 -0.21875 1.328125 0.078125 1.734375 0.078125 C 2.5 0.078125 2.8125 -1.046875 2.8125 -1.140625 Z M 2.9375 -4.828125 C 2.9375 -5.109375 2.71875 -5.1875 2.578125 -5.1875 C 2.3125 -5.1875 2.046875 -4.9375 2.046875 -4.671875 C 2.046875 -4.4375 2.234375 -4.3125 2.40625 -4.3125 C 2.671875 -4.3125 2.9375 -4.546875 2.9375 -4.828125 Z M 2.9375 -4.828125 "/>
</g>
<g id="glyph-0-3">
<path d="M 2.375 -1.140625 C 2.375 -1.234375 2.265625 -1.234375 2.234375 -1.234375 C 2.109375 -1.234375 2.09375 -1.203125 2.0625 -1.078125 C 1.953125 -0.671875 1.8125 -0.140625 1.53125 -0.140625 C 1.3125 -0.140625 1.3125 -0.390625 1.3125 -0.484375 C 1.3125 -0.546875 1.3125 -0.625 1.328125 -0.71875 L 2.46875 -5.28125 C 2.46875 -5.3125 2.5 -5.359375 2.5 -5.390625 C 2.5 -5.515625 2.359375 -5.515625 2.28125 -5.5 L 1.453125 -5.421875 C 1.34375 -5.421875 1.25 -5.40625 1.25 -5.265625 C 1.25 -5.15625 1.34375 -5.15625 1.453125 -5.15625 C 1.84375 -5.15625 1.84375 -5.109375 1.84375 -5.046875 C 1.84375 -5 1.8125 -4.90625 1.8125 -4.859375 L 0.828125 -0.9375 C 0.78125 -0.78125 0.78125 -0.734375 0.78125 -0.65625 C 0.78125 -0.171875 1.15625 0.078125 1.515625 0.078125 C 1.6875 0.078125 1.921875 0.03125 2.125 -0.359375 C 2.265625 -0.640625 2.375 -1.109375 2.375 -1.140625 Z M 2.375 -1.140625 "/>
</g>
<g id="glyph-0-4">
<path d="M 3.03125 -1.140625 C 3.03125 -1.234375 2.921875 -1.234375 2.890625 -1.234375 C 2.765625 -1.234375 2.765625 -1.21875 2.71875 -1.109375 C 2.375 -0.296875 2 -0.140625 1.75 -0.140625 C 1.5625 -0.140625 1.53125 -0.3125 1.53125 -0.484375 C 1.53125 -0.546875 1.53125 -0.625 1.546875 -0.71875 L 2.15625 -3.15625 L 2.875 -3.15625 C 3.015625 -3.15625 3.109375 -3.15625 3.109375 -3.3125 C 3.109375 -3.421875 3.015625 -3.421875 2.875 -3.421875 L 2.21875 -3.421875 L 2.5 -4.5625 C 2.53125 -4.6875 2.53125 -4.703125 2.53125 -4.734375 C 2.53125 -4.921875 2.375 -4.953125 2.296875 -4.953125 C 2.046875 -4.953125 1.984375 -4.71875 1.96875 -4.65625 L 1.65625 -3.421875 L 0.9375 -3.421875 C 0.796875 -3.421875 0.703125 -3.421875 0.703125 -3.265625 C 0.703125 -3.15625 0.8125 -3.15625 0.921875 -3.15625 L 1.59375 -3.15625 L 1.046875 -0.9375 C 1 -0.78125 1 -0.734375 1 -0.65625 C 1 -0.1875 1.34375 0.078125 1.734375 0.078125 C 2.578125 0.078125 3.03125 -1.03125 3.03125 -1.140625 Z M 3.03125 -1.140625 "/>
</g>
<g id="glyph-0-5">
<path d="M 5 -1.140625 C 5 -1.234375 4.875 -1.234375 4.84375 -1.234375 C 4.71875 -1.234375 4.703125 -1.203125 4.671875 -1.078125 C 4.53125 -0.5625 4.265625 -0.140625 3.921875 -0.140625 C 3.765625 -0.140625 3.75 -0.25 3.75 -0.390625 C 3.75 -0.578125 3.8125 -0.75 3.859375 -0.90625 C 4.03125 -1.328125 4.34375 -2.1875 4.34375 -2.640625 C 4.34375 -3.328125 3.875 -3.5 3.4375 -3.5 C 2.765625 -3.5 2.390625 -3.046875 2.25 -2.859375 C 2.203125 -3.234375 1.90625 -3.5 1.515625 -3.5 C 1.25 -3.5 1.0625 -3.34375 0.890625 -3.078125 C 0.75 -2.796875 0.640625 -2.328125 0.640625 -2.28125 C 0.640625 -2.1875 0.734375 -2.1875 0.78125 -2.1875 C 0.90625 -2.1875 0.921875 -2.203125 0.96875 -2.390625 C 1.09375 -2.859375 1.234375 -3.28125 1.5 -3.28125 C 1.71875 -3.28125 1.71875 -3 1.71875 -2.921875 C 1.71875 -2.8125 1.703125 -2.6875 1.671875 -2.578125 L 1.09375 -0.265625 C 1.078125 -0.1875 1.078125 -0.171875 1.078125 -0.140625 C 1.078125 -0.015625 1.171875 0.078125 1.3125 0.078125 C 1.5625 0.078125 1.609375 -0.109375 1.6875 -0.40625 L 1.859375 -1.09375 C 1.890625 -1.265625 1.890625 -1.28125 1.984375 -1.609375 L 2.109375 -2.125 C 2.15625 -2.25 2.390625 -2.71875 2.640625 -2.953125 C 2.890625 -3.171875 3.140625 -3.28125 3.421875 -3.28125 C 3.734375 -3.28125 3.828125 -3.0625 3.828125 -2.75 C 3.828125 -2.296875 3.5 -1.390625 3.34375 -0.984375 C 3.28125 -0.84375 3.234375 -0.71875 3.234375 -0.578125 C 3.234375 -0.21875 3.5 0.078125 3.90625 0.078125 C 4.65625 0.078125 5 -1.03125 5 -1.140625 Z M 5 -1.140625 "/>
</g>
<g id="glyph-0-6">
<path d="M 3.328125 -1.234375 C 3.328125 -1.9375 2.625 -2.09375 2.359375 -2.140625 C 2.015625 -2.21875 1.75 -2.265625 1.75 -2.59375 C 1.75 -2.8125 1.9375 -3.28125 2.5625 -3.28125 C 2.8125 -3.28125 3.09375 -3.1875 3.1875 -2.9375 C 2.90625 -2.875 2.90625 -2.625 2.90625 -2.625 C 2.90625 -2.46875 3.015625 -2.375 3.15625 -2.375 C 3.1875 -2.375 3.5 -2.375 3.5 -2.8125 C 3.5 -3.28125 3.03125 -3.5 2.578125 -3.5 C 1.515625 -3.5 1.25 -2.640625 1.25 -2.328125 C 1.25 -2.125 1.34375 -1.90625 1.515625 -1.765625 C 1.6875 -1.625 1.765625 -1.609375 2.234375 -1.5 C 2.40625 -1.46875 2.828125 -1.375 2.828125 -0.96875 C 2.828125 -0.734375 2.625 -0.140625 1.75 -0.140625 C 1.59375 -0.140625 1.125 -0.171875 0.953125 -0.53125 C 1.3125 -0.59375 1.3125 -0.890625 1.3125 -0.921875 C 1.3125 -1.078125 1.203125 -1.1875 1.03125 -1.1875 C 0.8125 -1.1875 0.625 -1.03125 0.625 -0.6875 C 0.625 -0.25 1.0625 0.078125 1.75 0.078125 C 3 0.078125 3.328125 -0.859375 3.328125 -1.234375 Z M 3.328125 -1.234375 "/>
</g>
<g id="glyph-0-7">
<path d="M 2.5 -3.0625 C 2.5 -3.296875 2.3125 -3.421875 2.125 -3.421875 C 1.875 -3.421875 1.59375 -3.203125 1.59375 -2.890625 C 1.59375 -2.65625 1.765625 -2.546875 1.953125 -2.546875 C 2.21875 -2.546875 2.5 -2.765625 2.5 -3.0625 Z M 1.859375 -0.53125 C 1.859375 -0.765625 1.671875 -0.875 1.5 -0.875 C 1.25 -0.875 0.953125 -0.65625 0.953125 -0.359375 C 0.953125 -0.125 1.140625 0 1.328125 0 C 1.578125 0 1.859375 -0.234375 1.859375 -0.53125 Z M 1.859375 -0.53125 "/>
</g>
<g id="glyph-0-8">
<path d="M 1.875 -0.375 C 1.875 -0.703125 1.75 -0.875 1.5 -0.875 C 1.15625 -0.875 0.953125 -0.578125 0.953125 -0.34375 C 0.953125 -0.1875 1.046875 0 1.328125 0 C 1.5 0 1.5625 -0.046875 1.625 -0.09375 C 1.421875 0.703125 0.890625 1.15625 0.6875 1.328125 C 0.640625 1.359375 0.625 1.375 0.625 1.421875 C 0.625 1.46875 0.671875 1.546875 0.734375 1.546875 C 0.875 1.546875 1.875 0.59375 1.875 -0.375 Z M 1.875 -0.375 "/>
</g>
<g id="glyph-0-9">
<path d="M 1.859375 -0.53125 C 1.859375 -0.765625 1.671875 -0.875 1.5 -0.875 C 1.25 -0.875 0.953125 -0.65625 0.953125 -0.359375 C 0.953125 -0.125 1.140625 0 1.328125 0 C 1.578125 0 1.859375 -0.234375 1.859375 -0.53125 Z M 1.859375 -0.53125 "/>
</g>
<g id="glyph-0-10">
<path d="M 6.5 -2.078125 C 6.5 -2.125 6.453125 -2.1875 6.375 -2.1875 C 6.296875 -2.1875 6.28125 -2.171875 5.53125 -2.171875 C 5.1875 -2.171875 4.8125 -2.1875 4.484375 -2.1875 C 4.421875 -2.1875 4.3125 -2.1875 4.3125 -2.046875 C 4.3125 -1.921875 4.40625 -1.921875 4.53125 -1.921875 L 4.609375 -1.921875 L 4.984375 -1.90625 C 5.171875 -1.890625 5.203125 -1.875 5.203125 -1.765625 C 5.203125 -1.71875 5.03125 -0.9375 4.953125 -0.8125 C 4.671875 -0.265625 3.9375 -0.09375 3.484375 -0.09375 C 2.65625 -0.09375 1.9375 -0.625 1.9375 -1.734375 C 1.9375 -2.234375 2.140625 -3.40625 2.796875 -4.25 C 3.328125 -4.9375 4.109375 -5.328125 4.78125 -5.328125 C 5.609375 -5.328125 6.015625 -4.640625 6.015625 -3.828125 C 6.015625 -3.625 5.984375 -3.4375 5.984375 -3.40625 C 5.984375 -3.3125 6.078125 -3.3125 6.125 -3.3125 C 6.234375 -3.3125 6.265625 -3.3125 6.296875 -3.46875 L 6.78125 -5.375 C 6.78125 -5.40625 6.796875 -5.46875 6.796875 -5.5 C 6.796875 -5.53125 6.765625 -5.59375 6.6875 -5.59375 C 6.65625 -5.59375 6.625 -5.59375 6.546875 -5.5 L 6.03125 -4.890625 C 5.6875 -5.40625 5.21875 -5.59375 4.71875 -5.59375 C 3 -5.59375 1.234375 -3.84375 1.234375 -2 C 1.234375 -0.703125 2.125 0.171875 3.359375 0.171875 C 3.734375 0.171875 4.515625 0.09375 5.046875 -0.4375 C 5.09375 -0.296875 5.25 0 5.359375 0 C 5.359375 0 5.40625 0 5.4375 -0.0625 C 5.46875 -0.109375 5.6875 -1.046875 5.734375 -1.203125 C 5.796875 -1.5 5.859375 -1.75 5.90625 -1.8125 C 5.984375 -1.921875 6.109375 -1.921875 6.34375 -1.921875 C 6.4375 -1.921875 6.5 -1.984375 6.5 -2.078125 Z M 6.5 -2.078125 "/>
</g>
<g id="glyph-0-11">
<path d="M 4.28125 -2.15625 C 4.28125 -2.984375 3.734375 -3.5 3.015625 -3.5 C 2 -3.5 0.90625 -2.421875 0.90625 -1.265625 C 0.90625 -0.390625 1.515625 0.078125 2.171875 0.078125 C 3.234375 0.078125 4.28125 -1.015625 4.28125 -2.15625 Z M 3.6875 -2.4375 C 3.6875 -2.1875 3.578125 -1.40625 3.25 -0.875 C 3 -0.4375 2.5625 -0.140625 2.1875 -0.140625 C 1.875 -0.140625 1.515625 -0.34375 1.515625 -0.984375 C 1.515625 -1.34375 1.671875 -2.09375 1.921875 -2.53125 C 2.265625 -3.09375 2.734375 -3.28125 3.015625 -3.28125 C 3.390625 -3.28125 3.6875 -3 3.6875 -2.4375 Z M 3.6875 -2.4375 "/>
</g>
<g id="glyph-0-12">
<path d="M 3.859375 -2.234375 C 3.859375 -3.09375 3.328125 -3.5 2.8125 -3.5 C 2.4375 -3.5 2.140625 -3.28125 1.921875 -3.09375 L 2.46875 -5.28125 C 2.46875 -5.3125 2.5 -5.359375 2.5 -5.390625 C 2.5 -5.515625 2.359375 -5.515625 2.28125 -5.5 L 1.453125 -5.421875 C 1.34375 -5.421875 1.25 -5.40625 1.25 -5.265625 C 1.25 -5.15625 1.34375 -5.15625 1.453125 -5.15625 C 1.84375 -5.15625 1.84375 -5.109375 1.84375 -5.046875 C 1.84375 -5 1.8125 -4.90625 1.8125 -4.859375 L 1.03125 -1.765625 C 1.03125 -1.75 0.953125 -1.453125 0.953125 -1.171875 C 0.953125 -0.421875 1.359375 0.078125 1.953125 0.078125 C 2.875 0.078125 3.859375 -1.046875 3.859375 -2.234375 Z M 2.890625 -0.9375 C 2.640625 -0.421875 2.265625 -0.140625 1.96875 -0.140625 C 1.59375 -0.140625 1.4375 -0.546875 1.4375 -0.921875 C 1.4375 -1.234375 1.53125 -1.578125 1.734375 -2.34375 C 1.796875 -2.59375 1.953125 -2.78125 2.140625 -2.953125 C 2.234375 -3.046875 2.5 -3.28125 2.796875 -3.28125 C 3.03125 -3.28125 3.28125 -3.09375 3.28125 -2.546875 C 3.28125 -2.125 3.046875 -1.28125 2.890625 -0.9375 Z M 2.890625 -0.9375 "/>
</g>
<g id="glyph-0-13">
<path d="M 4.484375 -1.140625 C 4.484375 -1.234375 4.375 -1.234375 4.328125 -1.234375 C 4.203125 -1.234375 4.203125 -1.21875 4.15625 -1.015625 C 4 -0.40625 3.828125 -0.140625 3.625 -0.140625 C 3.390625 -0.140625 3.390625 -0.390625 3.390625 -0.484375 C 3.390625 -0.546875 3.390625 -0.625 3.421875 -0.71875 L 3.984375 -2.953125 C 3.984375 -3 4.015625 -3.09375 4.015625 -3.125 C 4.015625 -3.25 3.90625 -3.34375 3.765625 -3.34375 C 3.65625 -3.34375 3.484375 -3.28125 3.4375 -3.0625 C 3.28125 -3.328125 3.046875 -3.5 2.71875 -3.5 C 1.78125 -3.5 0.8125 -2.328125 0.8125 -1.1875 C 0.8125 -0.421875 1.265625 0.078125 1.859375 0.078125 C 2.328125 0.078125 2.71875 -0.265625 2.890625 -0.453125 C 2.953125 -0.171875 3.21875 0.078125 3.609375 0.078125 C 3.890625 0.078125 4.078125 -0.09375 4.21875 -0.34375 C 4.375 -0.65625 4.484375 -1.140625 4.484375 -1.140625 Z M 2.9375 -1.0625 C 2.875 -0.78125 2.359375 -0.140625 1.890625 -0.140625 C 1.515625 -0.140625 1.390625 -0.546875 1.390625 -0.859375 C 1.390625 -1.234375 1.625 -2.171875 1.828125 -2.546875 C 2.140625 -3.125 2.5 -3.28125 2.71875 -3.28125 C 3.21875 -3.28125 3.296875 -2.609375 3.296875 -2.53125 L 3.28125 -2.40625 Z M 2.9375 -1.0625 "/>
</g>
<g id="glyph-0-14">
<path d="M 2.34375 1.890625 C 2.34375 1.859375 2.328125 1.84375 2.28125 1.78125 C 1.921875 1.296875 1.703125 0.671875 1.703125 -0.21875 C 1.703125 -1.46875 2.28125 -4.203125 4.125 -5.6875 C 4.25 -5.78125 4.25 -5.796875 4.265625 -5.8125 C 4.28125 -5.8125 4.28125 -5.859375 4.28125 -5.859375 C 4.28125 -5.921875 4.21875 -5.953125 4.171875 -5.953125 C 4.078125 -5.953125 2.984375 -5.25 2.21875 -3.875 C 1.453125 -2.546875 1.265625 -1.21875 1.265625 -0.46875 C 1.265625 0.09375 1.359375 0.59375 1.515625 0.96875 C 1.71875 1.5 2.109375 1.984375 2.234375 1.984375 C 2.28125 1.984375 2.34375 1.953125 2.34375 1.890625 Z M 2.34375 1.890625 "/>
</g>
<g id="glyph-0-15">
<path d="M 7.171875 -1.140625 C 7.171875 -1.234375 7.0625 -1.234375 7.03125 -1.234375 C 6.890625 -1.234375 6.890625 -1.203125 6.84375 -1.078125 C 6.703125 -0.5625 6.4375 -0.140625 6.109375 -0.140625 C 5.953125 -0.140625 5.921875 -0.25 5.921875 -0.390625 C 5.921875 -0.578125 6 -0.75 6.046875 -0.90625 C 6.203125 -1.328125 6.53125 -2.1875 6.53125 -2.640625 C 6.53125 -3.328125 6.0625 -3.5 5.625 -3.5 C 5.078125 -3.5 4.65625 -3.203125 4.359375 -2.78125 C 4.296875 -3.359375 3.828125 -3.5 3.453125 -3.5 C 2.78125 -3.5 2.390625 -3.046875 2.25 -2.859375 C 2.203125 -3.234375 1.90625 -3.5 1.515625 -3.5 C 1.25 -3.5 1.0625 -3.34375 0.890625 -3.078125 C 0.75 -2.796875 0.640625 -2.328125 0.640625 -2.28125 C 0.640625 -2.1875 0.734375 -2.1875 0.78125 -2.1875 C 0.90625 -2.1875 0.921875 -2.203125 0.96875 -2.390625 C 1.09375 -2.859375 1.234375 -3.28125 1.5 -3.28125 C 1.71875 -3.28125 1.71875 -3 1.71875 -2.921875 C 1.71875 -2.8125 1.703125 -2.6875 1.671875 -2.578125 L 1.09375 -0.265625 C 1.078125 -0.1875 1.078125 -0.171875 1.078125 -0.140625 C 1.078125 -0.015625 1.171875 0.078125 1.3125 0.078125 C 1.5625 0.078125 1.609375 -0.109375 1.6875 -0.40625 L 1.859375 -1.09375 L 2.125 -2.171875 C 2.125 -2.171875 2.5625 -3.28125 3.421875 -3.28125 C 3.734375 -3.28125 3.84375 -3.078125 3.84375 -2.75 C 3.84375 -2.6875 3.84375 -2.546875 3.78125 -2.296875 L 3.28125 -0.3125 C 3.265625 -0.265625 3.25 -0.1875 3.25 -0.140625 C 3.25 -0.015625 3.34375 0.078125 3.484375 0.078125 C 3.734375 0.078125 3.78125 -0.109375 3.859375 -0.40625 L 4.03125 -1.09375 C 4.078125 -1.265625 4.078125 -1.28125 4.15625 -1.609375 L 4.28125 -2.125 C 4.3125 -2.203125 4.53125 -2.6875 4.875 -3 C 5.015625 -3.125 5.28125 -3.28125 5.609375 -3.28125 C 5.921875 -3.28125 6.015625 -3.03125 6.015625 -2.75 C 6.015625 -2.296875 5.671875 -1.390625 5.53125 -0.984375 C 5.46875 -0.84375 5.421875 -0.71875 5.421875 -0.578125 C 5.421875 -0.21875 5.6875 0.078125 6.09375 0.078125 C 6.84375 0.078125 7.171875 -1.03125 7.171875 -1.140625 Z M 7.171875 -1.140625 "/>
</g>
<g id="glyph-0-16">
<path d="M 4.28125 -2.15625 C 4.28125 -2.984375 3.734375 -3.5 3.015625 -3.5 C 2 -3.5 0.90625 -2.421875 0.90625 -1.265625 C 0.90625 -0.390625 1.515625 0.078125 2.171875 0.078125 C 3.234375 0.078125 4.28125 -1.015625 4.28125 -2.15625 Z M 3.6875 -2.4375 C 3.6875 -2.1875 3.578125 -1.40625 3.25 -0.875 C 3 -0.4375 2.5625 -0.140625 2.1875 -0.140625 C 1.875 -0.140625 1.515625 -0.34375 1.515625 -0.984375 C 1.515625 -1.34375 1.671875 -2.09375 1.921875 -2.53125 C 2.265625 -3.09375 2.734375 -3.28125 3.015625 -3.28125 C 3.390625 -3.28125 3.6875 -3 3.6875 -2.4375 Z M 4.5 -5.28125 C 4.5 -5.4375 4.359375 -5.53125 4.25 -5.53125 C 4.140625 -5.53125 4.03125 -5.421875 4.03125 -5.421875 L 2.796875 -4.28125 C 2.78125 -4.265625 2.71875 -4.203125 2.71875 -4.140625 C 2.71875 -4.09375 2.78125 -3.984375 2.859375 -3.984375 C 2.890625 -3.984375 2.921875 -4 2.96875 -4.03125 L 4.3125 -5 C 4.484375 -5.109375 4.5 -5.203125 4.5 -5.28125 Z M 4.5 -5.28125 "/>
</g>
<g id="glyph-0-17">
<path d="M 4.5625 -1.140625 C 4.5625 -1.234375 4.453125 -1.234375 4.40625 -1.234375 C 4.28125 -1.234375 4.28125 -1.21875 4.234375 -1.015625 C 4.078125 -0.40625 3.90625 -0.140625 3.703125 -0.140625 C 3.484375 -0.140625 3.484375 -0.390625 3.484375 -0.484375 C 3.484375 -0.546875 3.484375 -0.625 3.5 -0.71875 L 4.640625 -5.28125 C 4.640625 -5.3125 4.65625 -5.359375 4.65625 -5.390625 C 4.65625 -5.515625 4.53125 -5.515625 4.4375 -5.5 L 3.625 -5.421875 C 3.515625 -5.421875 3.421875 -5.40625 3.421875 -5.265625 C 3.421875 -5.15625 3.515625 -5.15625 3.625 -5.15625 C 4.015625 -5.15625 4.015625 -5.109375 4.015625 -5.046875 C 4.015625 -5 3.984375 -4.90625 3.984375 -4.859375 L 3.53125 -3.0625 C 3.359375 -3.328125 3.125 -3.5 2.796875 -3.5 C 1.859375 -3.5 0.890625 -2.328125 0.890625 -1.1875 C 0.890625 -0.421875 1.34375 0.078125 1.9375 0.078125 C 2.40625 0.078125 2.796875 -0.265625 2.96875 -0.453125 C 3.046875 -0.171875 3.296875 0.078125 3.6875 0.078125 C 3.96875 0.078125 4.15625 -0.09375 4.296875 -0.34375 C 4.453125 -0.65625 4.5625 -1.140625 4.5625 -1.140625 Z M 3.03125 -1.0625 C 2.953125 -0.78125 2.4375 -0.140625 1.96875 -0.140625 C 1.59375 -0.140625 1.46875 -0.546875 1.46875 -0.859375 C 1.46875 -1.234375 1.703125 -2.171875 1.90625 -2.546875 C 2.21875 -3.125 2.578125 -3.28125 2.796875 -3.28125 C 3.296875 -3.28125 3.375 -2.609375 3.375 -2.53125 L 3.359375 -2.40625 Z M 3.03125 -1.0625 "/>
</g>
<g id="glyph-0-18">
<path d="M 3.203125 -3.5 C 3.203125 -4.0625 3.09375 -4.5625 2.953125 -4.9375 C 2.734375 -5.46875 2.359375 -5.953125 2.234375 -5.953125 C 2.15625 -5.953125 2.125 -5.921875 2.125 -5.859375 C 2.125 -5.8125 2.125 -5.8125 2.15625 -5.765625 C 2.34375 -5.515625 2.75 -4.9375 2.75 -3.75 C 2.75 -2.5 2.1875 0.234375 0.34375 1.71875 L 0.203125 1.84375 C 0.1875 1.859375 0.1875 1.890625 0.1875 1.890625 C 0.1875 1.953125 0.21875 1.984375 0.296875 1.984375 C 0.375 1.984375 1.46875 1.28125 2.25 -0.09375 C 3.015625 -1.421875 3.203125 -2.75 3.203125 -3.5 Z M 3.203125 -3.5 "/>
</g>
<g id="glyph-0-19">
<path d="M 3.984375 -0.796875 C 3.984375 -0.859375 3.875 -0.953125 3.828125 -0.953125 C 3.78125 -0.953125 3.765625 -0.9375 3.703125 -0.859375 C 3.265625 -0.34375 2.640625 -0.140625 2.203125 -0.140625 C 1.78125 -0.140625 1.515625 -0.4375 1.515625 -0.984375 C 1.515625 -1.375 1.6875 -2.09375 1.890625 -2.453125 C 2.25 -3.125 2.75 -3.28125 3.015625 -3.28125 C 3.109375 -3.28125 3.453125 -3.265625 3.59375 -3 C 3.25 -2.921875 3.25 -2.625 3.25 -2.609375 C 3.25 -2.46875 3.34375 -2.34375 3.546875 -2.34375 C 3.734375 -2.34375 3.9375 -2.5 3.9375 -2.8125 C 3.9375 -3.21875 3.578125 -3.5 3.015625 -3.5 C 1.984375 -3.5 0.90625 -2.421875 0.90625 -1.265625 C 0.90625 -0.453125 1.4375 0.078125 2.203125 0.078125 C 3.34375 0.078125 3.984375 -0.6875 3.984375 -0.796875 Z M 3.984375 -0.796875 "/>
</g>
<g id="glyph-0-20">
<path d="M 3.984375 -0.796875 C 3.984375 -0.859375 3.875 -0.953125 3.828125 -0.953125 C 3.78125 -0.953125 3.765625 -0.9375 3.703125 -0.859375 C 3.265625 -0.34375 2.640625 -0.140625 2.203125 -0.140625 C 1.65625 -0.140625 1.53125 -0.6875 1.53125 -1.046875 C 1.53125 -1.234375 1.59375 -1.578125 1.640625 -1.8125 L 2.09375 -1.8125 C 2.40625 -1.8125 3.890625 -1.8125 3.890625 -2.8125 C 3.890625 -3.203125 3.546875 -3.5 3.015625 -3.5 C 2.15625 -3.5 0.9375 -2.75 0.9375 -1.34375 C 0.9375 -0.625 1.359375 0.078125 2.203125 0.078125 C 3.34375 0.078125 3.984375 -0.6875 3.984375 -0.796875 Z M 3.546875 -2.8125 C 3.546875 -2.03125 2.328125 -2.03125 2.03125 -2.03125 L 1.703125 -2.03125 C 1.96875 -3.015625 2.65625 -3.28125 3.015625 -3.28125 C 3.28125 -3.28125 3.546875 -3.125 3.546875 -2.8125 Z M 3.546875 -2.8125 "/>
</g>
<g id="glyph-0-21">
<path d="M 3.75 -5.0625 C 3.75 -5.40625 3.390625 -5.59375 3.03125 -5.59375 C 2.203125 -5.59375 2.015625 -4.59375 1.953125 -4.28125 L 1.78125 -3.421875 L 1.234375 -3.421875 C 1.09375 -3.421875 1 -3.421875 1 -3.265625 C 1 -3.15625 1.109375 -3.15625 1.21875 -3.15625 L 1.734375 -3.15625 L 1.203125 -0.296875 C 1.109375 0.21875 1.09375 0.296875 0.953125 0.765625 C 0.90625 0.953125 0.78125 1.390625 0.515625 1.390625 C 0.328125 1.390625 0.21875 1.296875 0.21875 1.296875 C 0.359375 1.234375 0.484375 1.09375 0.484375 0.921875 C 0.484375 0.6875 0.296875 0.65625 0.203125 0.65625 C -0.03125 0.65625 -0.203125 0.84375 -0.203125 1.09375 C -0.203125 1.453125 0.1875 1.625 0.484375 1.625 C 1.328125 1.625 1.65625 0.25 1.828125 -0.6875 L 2.296875 -3.15625 L 2.984375 -3.15625 C 3.125 -3.15625 3.21875 -3.15625 3.21875 -3.3125 C 3.21875 -3.421875 3.109375 -3.421875 3 -3.421875 L 2.34375 -3.421875 C 2.453125 -4.046875 2.4375 -3.984375 2.578125 -4.609375 C 2.65625 -4.984375 2.734375 -5.359375 3.03125 -5.359375 C 3.046875 -5.359375 3.21875 -5.359375 3.328125 -5.265625 C 3.203125 -5.21875 3.0625 -5.078125 3.0625 -4.890625 C 3.0625 -4.65625 3.25 -4.625 3.34375 -4.625 C 3.578125 -4.625 3.75 -4.8125 3.75 -5.0625 Z M 3.75 -5.0625 "/>
</g>
<g id="glyph-0-22">
<path d="M 4.296875 -2.234375 C 4.296875 -3.09375 3.765625 -3.5 3.25 -3.5 C 2.8125 -3.5 2.421875 -3.1875 2.21875 -2.953125 C 2.125 -3.34375 1.796875 -3.5 1.515625 -3.5 C 1.25 -3.5 1.0625 -3.34375 0.890625 -3.078125 C 0.75 -2.796875 0.640625 -2.328125 0.640625 -2.28125 C 0.640625 -2.1875 0.734375 -2.1875 0.78125 -2.1875 C 0.90625 -2.1875 0.921875 -2.203125 0.96875 -2.390625 C 1.09375 -2.859375 1.234375 -3.28125 1.5 -3.28125 C 1.71875 -3.28125 1.71875 -3 1.71875 -2.921875 C 1.71875 -2.8125 1.703125 -2.75 1.703125 -2.71875 L 0.78125 0.96875 C 0.71875 1.234375 0.671875 1.28125 0.375 1.28125 C 0.28125 1.28125 0.1875 1.28125 0.1875 1.421875 C 0.1875 1.453125 0.203125 1.546875 0.296875 1.546875 C 0.359375 1.546875 0.40625 1.515625 0.96875 1.515625 C 1.546875 1.515625 1.671875 1.546875 1.734375 1.546875 C 1.78125 1.546875 1.890625 1.546875 1.890625 1.390625 C 1.890625 1.28125 1.78125 1.28125 1.6875 1.28125 C 1.46875 1.28125 1.296875 1.28125 1.296875 1.171875 C 1.296875 1.125 1.359375 0.90625 1.390625 0.78125 L 1.671875 -0.359375 C 1.84375 -0.0625 2.109375 0.078125 2.40625 0.078125 C 3.296875 0.078125 4.296875 -1.03125 4.296875 -2.234375 Z M 3.328125 -0.9375 C 3.078125 -0.421875 2.703125 -0.140625 2.40625 -0.140625 C 1.890625 -0.140625 1.8125 -0.84375 1.8125 -0.890625 C 1.8125 -0.921875 1.828125 -0.953125 1.828125 -1 L 2.171875 -2.359375 C 2.203125 -2.5 2.21875 -2.515625 2.328125 -2.671875 C 2.6875 -3.140625 3.015625 -3.28125 3.234375 -3.28125 C 3.46875 -3.28125 3.71875 -3.09375 3.71875 -2.546875 C 3.71875 -2.125 3.484375 -1.28125 3.328125 -0.9375 Z M 3.328125 -0.9375 "/>
</g>
<g id="glyph-0-23">
<path d="M 2.78125 -1.578125 C 2.796875 -1.640625 2.84375 -1.796875 2.84375 -1.84375 C 2.84375 -1.953125 2.734375 -1.953125 2.625 -1.953125 L 0.984375 -1.953125 C 0.828125 -1.953125 0.78125 -1.953125 0.765625 -1.84375 C 0.75 -1.796875 0.703125 -1.625 0.703125 -1.59375 C 0.703125 -1.46875 0.78125 -1.46875 0.90625 -1.46875 L 2.5625 -1.46875 C 2.703125 -1.46875 2.75 -1.46875 2.78125 -1.578125 Z M 2.78125 -1.578125 "/>
</g>
<g id="glyph-0-24">
<path d="M 4.140625 -2.921875 C 4.140625 -3.421875 3.890625 -3.5 3.78125 -3.5 C 3.609375 -3.5 3.390625 -3.34375 3.390625 -3.125 C 3.390625 -3.015625 3.4375 -2.953125 3.5 -2.90625 C 3.65625 -2.734375 3.703125 -2.515625 3.703125 -2.296875 C 3.703125 -2 3.296875 -0.140625 2.390625 -0.140625 C 1.84375 -0.140625 1.84375 -0.6875 1.84375 -0.8125 C 1.84375 -1.15625 1.953125 -1.5625 2.234375 -2.265625 C 2.296875 -2.453125 2.375 -2.6875 2.375 -2.84375 C 2.375 -3.28125 2.0625 -3.5 1.71875 -3.5 C 0.953125 -3.5 0.640625 -2.390625 0.640625 -2.28125 C 0.640625 -2.1875 0.734375 -2.1875 0.78125 -2.1875 C 0.90625 -2.1875 0.921875 -2.203125 0.953125 -2.34375 C 1.09375 -2.84375 1.359375 -3.28125 1.703125 -3.28125 C 1.84375 -3.28125 1.875 -3.171875 1.875 -3.03125 C 1.875 -2.84375 1.8125 -2.6875 1.75 -2.5 C 1.515625 -1.84375 1.3125 -1.3125 1.3125 -0.90625 C 1.3125 -0.140625 1.890625 0.078125 2.375 0.078125 C 3.703125 0.078125 4.140625 -2.515625 4.140625 -2.921875 Z M 4.140625 -2.921875 "/>
</g>
<g id="glyph-0-25">
<path d="M 5.8125 -1.953125 C 5.8125 -2.0625 5.703125 -2.0625 5.65625 -2.0625 C 5.546875 -2.0625 5.546875 -2.046875 5.46875 -1.875 C 5 -0.78125 4.6875 -0.265625 3.40625 -0.265625 L 2.28125 -0.265625 C 2.203125 -0.265625 2.125 -0.265625 2.0625 -0.28125 C 2.0625 -0.359375 2.0625 -0.390625 2.09375 -0.484375 L 2.640625 -2.671875 L 3.40625 -2.671875 C 3.96875 -2.671875 4.03125 -2.546875 4.03125 -2.34375 C 4.03125 -2.203125 3.984375 -2 3.96875 -1.96875 C 3.953125 -1.921875 3.9375 -1.875 3.9375 -1.859375 C 3.9375 -1.75 4.0625 -1.75 4.09375 -1.75 C 4.21875 -1.75 4.234375 -1.78125 4.265625 -1.90625 L 4.6875 -3.609375 C 4.703125 -3.703125 4.71875 -3.71875 4.71875 -3.75 C 4.71875 -3.859375 4.609375 -3.859375 4.5625 -3.859375 C 4.4375 -3.859375 4.421875 -3.828125 4.390625 -3.671875 C 4.234375 -3.0625 4.046875 -2.9375 3.40625 -2.9375 L 2.703125 -2.9375 L 3.171875 -4.84375 C 3.25 -5.140625 3.296875 -5.140625 3.546875 -5.140625 L 4.65625 -5.140625 C 5.546875 -5.140625 5.78125 -4.921875 5.78125 -4.296875 C 5.78125 -4.140625 5.765625 -4 5.734375 -3.84375 C 5.734375 -3.796875 5.734375 -3.765625 5.734375 -3.71875 C 5.734375 -3.59375 5.828125 -3.59375 5.875 -3.59375 C 6.015625 -3.59375 6.03125 -3.65625 6.046875 -3.78125 L 6.203125 -5.171875 L 6.203125 -5.28125 C 6.203125 -5.390625 6.109375 -5.390625 5.984375 -5.390625 L 2.109375 -5.390625 C 1.96875 -5.390625 1.875 -5.390625 1.875 -5.25 C 1.875 -5.140625 1.953125 -5.140625 2.109375 -5.140625 C 2.359375 -5.140625 2.546875 -5.140625 2.546875 -5.015625 C 2.546875 -4.953125 2.53125 -4.890625 2.515625 -4.828125 L 1.453125 -0.609375 C 1.390625 -0.328125 1.34375 -0.265625 0.859375 -0.265625 C 0.6875 -0.265625 0.59375 -0.265625 0.59375 -0.109375 C 0.59375 0 0.6875 0 0.8125 0 L 4.796875 0 C 4.984375 0 4.984375 -0.015625 5.046875 -0.140625 L 5.765625 -1.8125 C 5.78125 -1.84375 5.8125 -1.90625 5.8125 -1.953125 Z M 5.8125 -1.953125 "/>
</g>
<g id="glyph-0-26">
<path d="M 4.0625 -2.953125 C 4.0625 -3 4.09375 -3.09375 4.09375 -3.125 C 4.09375 -3.25 3.984375 -3.34375 3.84375 -3.34375 C 3.6875 -3.34375 3.5625 -3.234375 3.515625 -3.078125 C 3.421875 -3.234375 3.203125 -3.5 2.796875 -3.5 C 1.875 -3.5 0.90625 -2.375 0.90625 -1.25 C 0.90625 -0.453125 1.390625 0 1.96875 0 C 2.265625 0 2.5625 -0.140625 2.859375 -0.390625 L 2.6875 0.265625 C 2.609375 0.609375 2.5625 0.796875 2.328125 1.046875 C 2 1.390625 1.640625 1.390625 1.5 1.390625 C 1.375 1.390625 1.171875 1.390625 0.953125 1.328125 C 1.140625 1.21875 1.15625 1 1.15625 1 C 1.15625 0.84375 1.046875 0.734375 0.875 0.734375 C 0.671875 0.734375 0.46875 0.890625 0.46875 1.15625 C 0.46875 1.578125 0.984375 1.625 1.484375 1.625 C 2.5 1.625 3.0625 1.046875 3.1875 0.53125 Z M 3.046875 -1.125 C 2.96875 -0.828125 2.453125 -0.21875 1.984375 -0.21875 C 1.640625 -0.21875 1.5 -0.578125 1.5 -0.9375 C 1.5 -1.28125 1.703125 -2.125 1.875 -2.5 C 2.125 -3 2.5 -3.28125 2.796875 -3.28125 C 3.28125 -3.28125 3.390625 -2.640625 3.390625 -2.546875 C 3.390625 -2.515625 3.375 -2.5 3.359375 -2.421875 Z M 3.046875 -1.125 "/>
</g>
<g id="glyph-1-0">
<path d="M 3.796875 -1.140625 C 3.796875 -1.171875 3.796875 -1.359375 3.53125 -1.359375 C 3.328125 -1.359375 3.28125 -1.265625 3.25 -1.15625 C 3.203125 -0.984375 3.046875 -0.4375 2.703125 -0.4375 C 2.65625 -0.4375 2.265625 -0.453125 2.265625 -0.734375 C 2.265625 -0.765625 2.265625 -0.78125 2.296875 -0.890625 L 3.203125 -4.5 C 3.21875 -4.53125 3.234375 -4.578125 3.234375 -4.625 C 3.234375 -4.84375 3.015625 -4.84375 2.90625 -4.84375 L 1.890625 -4.84375 C 1.78125 -4.84375 1.5625 -4.84375 1.5625 -4.59375 C 1.5625 -4.359375 1.78125 -4.359375 1.875 -4.359375 L 2.609375 -4.359375 L 1.75 -0.953125 C 1.71875 -0.828125 1.71875 -0.765625 1.71875 -0.71875 C 1.71875 -0.171875 2.28125 0.046875 2.703125 0.046875 C 3.515625 0.046875 3.796875 -1.015625 3.796875 -1.140625 Z M 3.796875 -1.140625 "/>
</g>
<g id="glyph-1-1">
<path d="M 4.203125 -0.59375 C 4.203125 -0.71875 4.046875 -0.875 3.921875 -0.875 C 3.828125 -0.875 3.78125 -0.828125 3.75 -0.796875 C 3.59375 -0.65625 3.328125 -0.4375 2.453125 -0.4375 C 2.296875 -0.4375 1.640625 -0.4375 1.640625 -1.296875 C 1.640625 -1.5 1.65625 -1.5 1.796875 -1.5 L 2.0625 -1.5 C 2.625 -1.5 3.109375 -1.578125 3.40625 -1.703125 C 4.046875 -1.96875 4.09375 -2.46875 4.09375 -2.640625 C 4.09375 -3.109375 3.6875 -3.46875 3.109375 -3.46875 C 2.125 -3.46875 1.09375 -2.453125 1.09375 -1.3125 C 1.09375 -0.84375 1.25 -0.53125 1.46875 -0.3125 C 1.828125 0.046875 2.1875 0.046875 2.484375 0.046875 C 2.765625 0.046875 3.171875 0.046875 3.515625 -0.078125 C 3.640625 -0.109375 4.203125 -0.328125 4.203125 -0.59375 Z M 3.546875 -2.640625 C 3.546875 -2.078125 2.71875 -1.984375 2.03125 -1.984375 L 1.796875 -1.984375 C 2.078125 -2.609375 2.640625 -2.984375 3.09375 -2.984375 C 3.359375 -2.984375 3.546875 -2.84375 3.546875 -2.640625 Z M 3.546875 -2.640625 "/>
</g>
<g id="glyph-1-2">
<path d="M 4.390625 -1.140625 C 4.390625 -1.171875 4.375 -1.359375 4.109375 -1.359375 C 3.890625 -1.359375 3.859375 -1.25 3.828125 -1.109375 C 3.71875 -0.71875 3.546875 -0.4375 3.375 -0.4375 C 3.328125 -0.4375 3.296875 -0.484375 3.296875 -0.5625 C 3.296875 -0.671875 3.375 -0.875 3.4375 -1.046875 C 3.5 -1.21875 3.84375 -2.21875 3.84375 -2.640625 C 3.84375 -3.15625 3.546875 -3.46875 3.0625 -3.46875 C 2.71875 -3.46875 2.390625 -3.328125 2.109375 -3.03125 C 1.984375 -3.375 1.6875 -3.46875 1.5 -3.46875 C 1.21875 -3.46875 1.015625 -3.296875 0.875 -3.046875 C 0.75 -2.796875 0.640625 -2.34375 0.640625 -2.28125 C 0.640625 -2.21875 0.671875 -2.0625 0.90625 -2.0625 C 1.140625 -2.0625 1.15625 -2.15625 1.21875 -2.375 C 1.234375 -2.5 1.359375 -2.96875 1.5 -2.96875 C 1.59375 -2.96875 1.609375 -2.84375 1.609375 -2.78125 C 1.609375 -2.6875 1.59375 -2.65625 1.578125 -2.59375 L 1.03125 -0.375 C 0.984375 -0.265625 0.984375 -0.25 0.984375 -0.21875 C 0.984375 -0.0625 1.125 0.046875 1.25 0.046875 C 1.46875 0.046875 1.515625 -0.09375 1.609375 -0.484375 C 1.765625 -1.09375 1.953125 -1.765625 2.203125 -2.265625 C 2.375 -2.578125 2.65625 -2.984375 3.046875 -2.984375 C 3.203125 -2.984375 3.296875 -2.90625 3.296875 -2.65625 C 3.296875 -2.296875 2.96875 -1.359375 2.84375 -1.03125 C 2.796875 -0.875 2.765625 -0.765625 2.765625 -0.59375 C 2.765625 -0.21875 3 0.046875 3.359375 0.046875 C 4.09375 0.046875 4.390625 -1.015625 4.390625 -1.140625 Z M 4.390625 -1.140625 "/>
</g>
<g id="glyph-1-3">
<path d="M 4.03125 -2.25 C 4.03125 -2.953125 3.65625 -3.46875 3.09375 -3.46875 C 2.71875 -3.46875 2.40625 -3.25 2.1875 -3.046875 C 2 -3.453125 1.640625 -3.46875 1.546875 -3.46875 C 1.203125 -3.46875 1.015625 -3.25 0.890625 -3.046875 C 0.75 -2.78125 0.640625 -2.359375 0.640625 -2.28125 C 0.640625 -2.21875 0.671875 -2.0625 0.90625 -2.0625 C 1.140625 -2.0625 1.15625 -2.15625 1.21875 -2.375 C 1.265625 -2.5625 1.359375 -2.984375 1.53125 -2.984375 C 1.6875 -2.984375 1.703125 -2.78125 1.703125 -2.75 C 1.703125 -2.71875 1.6875 -2.625 1.671875 -2.59375 L 0.703125 1.28125 L 0.421875 1.28125 C 0.3125 1.28125 0.09375 1.28125 0.09375 1.546875 C 0.09375 1.765625 0.3125 1.765625 0.40625 1.765625 L 1.609375 1.765625 C 1.734375 1.765625 1.9375 1.765625 1.9375 1.5 C 1.9375 1.28125 1.734375 1.28125 1.625 1.28125 L 1.265625 1.28125 L 1.65625 -0.265625 C 1.65625 -0.25 1.90625 0.046875 2.328125 0.046875 C 3.1875 0.046875 4.03125 -1.140625 4.03125 -2.25 Z M 3.484375 -2.265625 C 3.484375 -1.359375 2.8125 -0.4375 2.328125 -0.4375 C 1.984375 -0.4375 1.921875 -0.96875 1.921875 -1.140625 C 1.921875 -2.046875 2.59375 -2.984375 3.078125 -2.984375 C 3.359375 -2.984375 3.484375 -2.625 3.484375 -2.265625 Z M 3.484375 -2.265625 "/>
</g>
<g id="glyph-1-4">
<path d="M 4.59375 -2.671875 C 4.59375 -3.203125 4.03125 -3.46875 3.453125 -3.46875 C 3.3125 -3.46875 2.859375 -3.46875 2.421875 -3.015625 C 2.328125 -3.25 2.0625 -3.46875 1.703125 -3.46875 C 0.9375 -3.46875 0.75 -2.3125 0.75 -2.28125 C 0.75 -2.21875 0.78125 -2.0625 1.015625 -2.0625 C 1.25 -2.0625 1.265625 -2.15625 1.3125 -2.328125 C 1.390625 -2.625 1.46875 -2.984375 1.703125 -2.984375 C 1.765625 -2.984375 1.921875 -2.953125 1.921875 -2.734375 C 1.921875 -2.6875 1.921875 -2.671875 1.890625 -2.546875 L 1.359375 -0.375 C 1.328125 -0.25 1.328125 -0.234375 1.328125 -0.21875 C 1.328125 -0.0625 1.453125 0.046875 1.59375 0.046875 C 1.8125 0.046875 1.84375 -0.09375 1.9375 -0.484375 C 2.15625 -1.34375 2.359375 -1.921875 2.578125 -2.328125 C 2.78125 -2.6875 3.046875 -2.984375 3.4375 -2.984375 C 3.546875 -2.984375 3.84375 -2.96875 4.015625 -2.796875 C 3.953125 -2.75 3.859375 -2.6875 3.859375 -2.5 C 3.859375 -2.296875 4.015625 -2.171875 4.1875 -2.171875 C 4.328125 -2.171875 4.59375 -2.265625 4.59375 -2.671875 Z M 4.59375 -2.671875 "/>
</g>
<g id="glyph-1-5">
<path d="M 3.890625 -1.140625 C 3.890625 -1.171875 3.875 -1.359375 3.609375 -1.359375 C 3.390625 -1.359375 3.359375 -1.25 3.328125 -1.15625 C 3.203125 -0.6875 2.875 -0.4375 2.640625 -0.4375 C 2.53125 -0.4375 2.40625 -0.484375 2.40625 -0.65625 C 2.40625 -0.703125 2.515625 -0.984375 2.578125 -1.15625 L 2.828125 -1.796875 L 3.03125 -2.265625 C 3.15625 -2.59375 3.171875 -2.640625 3.171875 -2.765625 C 3.171875 -3.1875 2.828125 -3.46875 2.390625 -3.46875 C 1.59375 -3.46875 1.140625 -2.546875 1.140625 -2.28125 C 1.140625 -2.21875 1.171875 -2.0625 1.40625 -2.0625 C 1.609375 -2.0625 1.640625 -2.140625 1.6875 -2.25 C 1.875 -2.84375 2.21875 -2.984375 2.375 -2.984375 C 2.53125 -2.984375 2.625 -2.90625 2.625 -2.765625 C 2.625 -2.703125 2.59375 -2.625 2.578125 -2.609375 L 1.921875 -0.96875 C 1.875 -0.859375 1.859375 -0.8125 1.859375 -0.65625 C 1.859375 -0.234375 2.203125 0.046875 2.625 0.046875 C 3.4375 0.046875 3.890625 -0.890625 3.890625 -1.140625 Z M 3.546875 -4.4375 C 3.546875 -4.640625 3.390625 -4.765625 3.21875 -4.765625 C 3 -4.765625 2.828125 -4.5625 2.828125 -4.375 C 2.828125 -4.234375 2.9375 -4.0625 3.15625 -4.0625 C 3.328125 -4.0625 3.546875 -4.203125 3.546875 -4.4375 Z M 3.546875 -4.4375 "/>
</g>
<g id="glyph-1-6">
<path d="M 3.921875 -1.140625 C 3.921875 -1.171875 3.90625 -1.359375 3.640625 -1.359375 C 3.453125 -1.359375 3.421875 -1.28125 3.359375 -1.140625 C 3.1875 -0.765625 2.84375 -0.4375 2.5 -0.4375 C 2.375 -0.4375 2.203125 -0.484375 2.203125 -0.703125 C 2.203125 -0.75 2.203125 -0.765625 2.234375 -0.890625 L 2.75 -2.9375 L 3.484375 -2.9375 C 3.609375 -2.9375 3.8125 -2.9375 3.8125 -3.203125 C 3.8125 -3.421875 3.59375 -3.421875 3.5 -3.421875 L 2.875 -3.421875 L 3.140625 -4.484375 C 3.171875 -4.59375 3.171875 -4.609375 3.171875 -4.640625 C 3.171875 -4.78125 3.046875 -4.890625 2.90625 -4.890625 C 2.671875 -4.890625 2.625 -4.6875 2.609375 -4.609375 L 2.3125 -3.421875 L 1.578125 -3.421875 C 1.46875 -3.421875 1.234375 -3.421875 1.234375 -3.15625 C 1.234375 -2.9375 1.453125 -2.9375 1.5625 -2.9375 L 2.1875 -2.9375 L 1.65625 -0.703125 C 1.65625 -0.296875 1.96875 0.046875 2.484375 0.046875 C 3.359375 0.046875 3.921875 -0.921875 3.921875 -1.140625 Z M 3.921875 -1.140625 "/>
</g>
<g id="glyph-1-7">
<path d="M 4.3125 -1.140625 C 4.3125 -1.171875 4.296875 -1.359375 4.03125 -1.359375 C 3.8125 -1.359375 3.78125 -1.265625 3.71875 -1.03125 C 3.6875 -0.875 3.578125 -0.4375 3.40625 -0.4375 C 3.25 -0.4375 3.25 -0.625 3.25 -0.671875 C 3.25 -0.734375 3.265625 -0.796875 3.28125 -0.859375 L 3.796875 -2.921875 C 3.828125 -3.046875 3.828125 -3.0625 3.828125 -3.09375 C 3.828125 -3.25 3.703125 -3.34375 3.5625 -3.34375 C 3.40625 -3.34375 3.3125 -3.21875 3.28125 -3.15625 C 3.03125 -3.4375 2.765625 -3.46875 2.625 -3.46875 C 1.765625 -3.46875 0.921875 -2.28125 0.921875 -1.171875 C 0.921875 -0.40625 1.328125 0.046875 1.859375 0.046875 C 2.3125 0.046875 2.671875 -0.296875 2.75 -0.375 C 2.796875 -0.28125 2.96875 0.046875 3.40625 0.046875 C 3.796875 0.046875 3.984375 -0.28125 4.046875 -0.375 C 4.203125 -0.640625 4.3125 -1.078125 4.3125 -1.140625 Z M 3.015625 -2.265625 C 3.015625 -1.359375 2.34375 -0.4375 1.859375 -0.4375 C 1.515625 -0.4375 1.453125 -0.96875 1.453125 -1.140625 C 1.453125 -2.046875 2.125 -2.984375 2.609375 -2.984375 C 2.890625 -2.984375 3.015625 -2.625 3.015625 -2.265625 Z M 3.015625 -2.265625 "/>
</g>
<g id="glyph-1-8">
<path d="M 3.3125 0.625 L 4.1875 -2.921875 C 4.21875 -3.046875 4.21875 -3.0625 4.21875 -3.09375 C 4.21875 -3.25 4.09375 -3.34375 3.953125 -3.34375 C 3.8125 -3.34375 3.703125 -3.234375 3.671875 -3.09375 C 3.40625 -3.40625 3.09375 -3.46875 2.890625 -3.46875 C 1.984375 -3.46875 1.09375 -2.359375 1.09375 -1.265625 C 1.09375 -0.46875 1.5625 0 2.140625 0 C 2.40625 0 2.703125 -0.109375 2.96875 -0.296875 L 2.75 0.609375 C 2.71875 0.703125 2.453125 1.328125 1.59375 1.328125 C 1.46875 1.328125 1.375 1.328125 1.25 1.3125 C 1.25 1.28125 1.265625 1.265625 1.265625 1.203125 C 1.265625 1.046875 1.140625 0.875 0.9375 0.875 C 0.71875 0.875 0.546875 1.0625 0.546875 1.296875 C 0.546875 1.8125 1.234375 1.8125 1.578125 1.8125 C 2.734375 1.8125 3.203125 1.03125 3.3125 0.625 Z M 3.40625 -2.21875 C 3.40625 -1.375 2.71875 -0.484375 2.15625 -0.484375 C 1.796875 -0.484375 1.640625 -0.84375 1.640625 -1.25 C 1.640625 -2.109375 2.3125 -2.984375 2.875 -2.984375 C 3.28125 -2.984375 3.40625 -2.546875 3.40625 -2.21875 Z M 3.40625 -2.21875 "/>
</g>
<g id="glyph-2-0">
<path d="M 5.328125 -2.296875 L 5.078125 -2.296875 C 4.984375 -1.40625 4.859375 -0.28125 3.265625 -0.28125 L 2.484375 -0.28125 C 2.0625 -0.28125 2.046875 -0.34375 2.046875 -0.640625 L 2.046875 -5.375 C 2.046875 -5.703125 2.09375 -5.8125 2.90625 -5.8125 L 3.1875 -5.8125 L 3.1875 -6.09375 C 2.875 -6.0625 2.0625 -6.0625 1.703125 -6.0625 C 1.296875 -6.0625 0.734375 -6.0625 0.34375 -6.09375 L 0.34375 -5.8125 L 0.546875 -5.8125 C 1.234375 -5.8125 1.25 -5.71875 1.25 -5.390625 L 1.25 -0.703125 C 1.25 -0.375 1.234375 -0.28125 0.546875 -0.28125 L 0.34375 -0.28125 L 0.34375 0 L 5.078125 0 Z M 5.328125 -2.296875 "/>
</g>
<g id="glyph-2-1">
<path d="M 4.3125 -1.90625 C 4.3125 -3.0625 3.390625 -4 2.296875 -4 C 1.15625 -4 0.265625 -3.046875 0.265625 -1.90625 C 0.265625 -0.78125 1.1875 0.09375 2.28125 0.09375 C 3.421875 0.09375 4.3125 -0.796875 4.3125 -1.90625 Z M 3.546875 -1.984375 C 3.546875 -1.65625 3.546875 -1.140625 3.328125 -0.734375 C 3.078125 -0.328125 2.671875 -0.15625 2.296875 -0.15625 C 1.84375 -0.15625 1.46875 -0.375 1.265625 -0.71875 C 1.03125 -1.09375 1.03125 -1.5625 1.03125 -1.984375 C 1.03125 -2.3125 1.03125 -2.8125 1.25 -3.1875 C 1.515625 -3.640625 1.96875 -3.78125 2.28125 -3.78125 C 2.796875 -3.78125 3.15625 -3.484375 3.34375 -3.1875 C 3.546875 -2.8125 3.546875 -2.359375 3.546875 -1.984375 Z M 3.546875 -1.984375 "/>
</g>
<g id="glyph-2-2">
<path d="M 3.8125 -1.0625 C 3.8125 -1.171875 3.71875 -1.171875 3.6875 -1.171875 C 3.59375 -1.171875 3.59375 -1.15625 3.53125 -1 C 3.328125 -0.390625 2.828125 -0.15625 2.375 -0.15625 C 1.796875 -0.15625 1.078125 -0.609375 1.078125 -1.9375 C 1.078125 -3.328125 1.78125 -3.75 2.3125 -3.75 C 2.4375 -3.75 2.921875 -3.734375 3.25 -3.5 C 3.0625 -3.46875 2.875 -3.34375 2.875 -3.09375 C 2.875 -2.859375 3.0625 -2.671875 3.296875 -2.671875 C 3.53125 -2.671875 3.71875 -2.828125 3.71875 -3.109375 C 3.71875 -3.65625 3.09375 -4 2.296875 -4 C 1.15625 -4 0.296875 -3.046875 0.296875 -1.921875 C 0.296875 -0.78125 1.234375 0.09375 2.28125 0.09375 C 3.53125 0.09375 3.8125 -0.984375 3.8125 -1.0625 Z M 3.8125 -1.0625 "/>
</g>
<g id="glyph-2-3">
<path d="M 4.4375 -0.796875 L 4.4375 -1.296875 L 4.1875 -1.296875 L 4.1875 -0.796875 C 4.1875 -0.703125 4.1875 -0.265625 3.859375 -0.265625 C 3.546875 -0.265625 3.546875 -0.6875 3.546875 -0.828125 L 3.546875 -2.390625 C 3.546875 -2.90625 3.546875 -3.203125 3.140625 -3.5625 C 2.8125 -3.859375 2.375 -4 1.9375 -4 C 1.1875 -4 0.5625 -3.625 0.5625 -3.046875 C 0.5625 -2.78125 0.75 -2.625 0.984375 -2.625 C 1.21875 -2.625 1.390625 -2.796875 1.390625 -3.03125 C 1.390625 -3.421875 0.984375 -3.46875 0.984375 -3.46875 C 1.234375 -3.6875 1.65625 -3.78125 1.921875 -3.78125 C 2.375 -3.78125 2.875 -3.4375 2.875 -2.65625 L 2.875 -2.359375 C 2.40625 -2.34375 1.734375 -2.296875 1.140625 -2 C 0.484375 -1.6875 0.296875 -1.234375 0.296875 -0.875 C 0.296875 -0.140625 1.15625 0.09375 1.75 0.09375 C 2.5 0.09375 2.84375 -0.390625 2.96875 -0.640625 C 3 -0.265625 3.265625 0.046875 3.65625 0.046875 C 3.875 0.046875 4.4375 -0.078125 4.4375 -0.796875 Z M 2.875 -1.265625 C 2.875 -0.390625 2.21875 -0.125 1.8125 -0.125 C 1.40625 -0.125 1.015625 -0.421875 1.015625 -0.875 C 1.015625 -1.46875 1.515625 -2.09375 2.875 -2.140625 Z M 2.875 -1.265625 "/>
</g>
<g id="glyph-2-4">
<path d="M 2.328125 0 L 2.328125 -0.28125 C 1.734375 -0.28125 1.640625 -0.28125 1.640625 -0.6875 L 1.640625 -6.1875 L 0.328125 -6.09375 L 0.328125 -5.8125 C 0.921875 -5.8125 1.015625 -5.75 1.015625 -5.3125 L 1.015625 -0.6875 C 1.015625 -0.28125 0.90625 -0.28125 0.328125 -0.28125 L 0.328125 0 C 0.734375 -0.015625 0.90625 -0.03125 1.328125 -0.03125 C 1.734375 -0.03125 1.890625 -0.015625 2.328125 0 Z M 2.328125 0 "/>
</g>
<g id="glyph-3-0">
<path d="M 5.453125 -2.03125 C 5.453125 -2.171875 5.296875 -2.171875 5.234375 -2.171875 C 5.109375 -2.171875 5.046875 -2.171875 5.015625 -2.046875 C 4.78125 -1.453125 4.375 -0.375 3.15625 -0.375 L 2.703125 -0.375 C 2.625 -0.375 2.578125 -0.375 2.515625 -0.375 L 3.640625 -4.921875 C 3.671875 -5.03125 3.6875 -5.046875 3.890625 -5.0625 C 3.96875 -5.0625 4.15625 -5.078125 4.25 -5.078125 L 4.546875 -5.078125 C 4.6875 -5.078125 4.8125 -5.078125 4.8125 -5.296875 C 4.8125 -5.421875 4.6875 -5.4375 4.625 -5.4375 C 4.171875 -5.4375 3.71875 -5.421875 3.265625 -5.421875 C 2.84375 -5.421875 2.421875 -5.4375 2.015625 -5.4375 C 1.921875 -5.4375 1.78125 -5.4375 1.78125 -5.21875 C 1.78125 -5.078125 1.90625 -5.078125 2.03125 -5.078125 L 2.203125 -5.078125 C 2.296875 -5.078125 2.5 -5.0625 2.59375 -5.0625 L 1.453125 -0.515625 C 1.421875 -0.40625 1.421875 -0.390625 1.28125 -0.390625 C 1.1875 -0.375 1.0625 -0.375 0.953125 -0.375 L 0.78125 -0.375 C 0.65625 -0.375 0.515625 -0.375 0.515625 -0.140625 C 0.515625 0 0.640625 0 0.765625 0 L 4.515625 0 C 4.6875 0 4.71875 0 4.78125 -0.171875 L 5.40625 -1.890625 C 5.4375 -1.953125 5.453125 -2 5.453125 -2.03125 Z M 5.453125 -2.03125 "/>
</g>
<g id="glyph-3-1">
<path d="M 4.71875 -2.25 C 4.71875 -3.078125 4.15625 -3.59375 3.21875 -3.59375 C 1.640625 -3.59375 0.84375 -2.265625 0.84375 -1.265625 C 0.84375 -0.453125 1.40625 0.0625 2.359375 0.0625 C 3.921875 0.0625 4.71875 -1.25 4.71875 -2.25 Z M 3.453125 -0.984375 C 3.21875 -0.484375 2.78125 -0.21875 2.375 -0.21875 C 2.09375 -0.21875 1.71875 -0.359375 1.71875 -0.921875 C 1.71875 -1.234375 1.921875 -2.125 2.125 -2.546875 C 2.34375 -3.046875 2.796875 -3.296875 3.203125 -3.296875 C 3.484375 -3.296875 3.859375 -3.171875 3.859375 -2.609375 C 3.859375 -2.296875 3.65625 -1.40625 3.453125 -0.984375 Z M 3.453125 -0.984375 "/>
</g>
<g id="glyph-3-2">
<path d="M 4.25 -0.6875 C 4.25 -0.75 4.09375 -0.9375 4.015625 -0.9375 C 4 -0.9375 3.953125 -0.9375 3.90625 -0.875 C 3.3125 -0.21875 2.515625 -0.21875 2.390625 -0.21875 C 1.953125 -0.21875 1.71875 -0.46875 1.71875 -0.921875 C 1.71875 -1.234375 1.9375 -2.203125 2.15625 -2.609375 C 2.453125 -3.1875 2.953125 -3.296875 3.1875 -3.296875 C 3.28125 -3.296875 3.5 -3.296875 3.640625 -3.140625 C 3.25 -3 3.234375 -2.625 3.234375 -2.609375 C 3.234375 -2.484375 3.296875 -2.234375 3.640625 -2.234375 C 3.96875 -2.234375 4.203125 -2.515625 4.203125 -2.859375 C 4.203125 -3.25 3.859375 -3.59375 3.203125 -3.59375 C 1.6875 -3.59375 0.84375 -2.296875 0.84375 -1.265625 C 0.84375 -0.625 1.21875 0.0625 2.390625 0.0625 C 2.59375 0.0625 3.09375 0.046875 3.515625 -0.109375 C 3.9375 -0.28125 4.25 -0.59375 4.25 -0.6875 Z M 4.25 -0.6875 "/>
</g>
<g id="glyph-3-3">
<path d="M 4.875 -1.171875 C 4.875 -1.28125 4.78125 -1.28125 4.65625 -1.28125 C 4.46875 -1.28125 4.453125 -1.28125 4.40625 -1.078125 C 4.34375 -0.8125 4.203125 -0.21875 3.921875 -0.21875 C 3.828125 -0.21875 3.78125 -0.28125 3.78125 -0.46875 C 3.78125 -0.625 3.796875 -0.6875 3.828125 -0.8125 L 4.359375 -2.953125 C 4.390625 -3.078125 4.390625 -3.09375 4.390625 -3.125 C 4.390625 -3.296875 4.25 -3.453125 4.03125 -3.453125 C 3.890625 -3.453125 3.765625 -3.390625 3.65625 -3.28125 C 3.40625 -3.546875 3.09375 -3.59375 2.890625 -3.59375 C 1.5625 -3.59375 0.765625 -2.265625 0.765625 -1.203125 C 0.765625 -0.265625 1.421875 0.0625 2.03125 0.0625 C 2.515625 0.0625 2.890625 -0.1875 3.078125 -0.34375 C 3.234375 -0.0625 3.59375 0.0625 3.890625 0.0625 C 4.265625 0.0625 4.46875 -0.203125 4.578125 -0.359375 C 4.78125 -0.703125 4.875 -1.140625 4.875 -1.171875 Z M 2.984375 -0.796875 C 2.640625 -0.34375 2.3125 -0.21875 2.0625 -0.21875 C 1.875 -0.21875 1.609375 -0.328125 1.609375 -0.78125 C 1.609375 -1.21875 1.890625 -2.1875 1.96875 -2.40625 C 2.25 -3.1875 2.6875 -3.296875 2.890625 -3.296875 C 3.171875 -3.296875 3.390625 -3.125 3.484375 -2.8125 L 3.015625 -0.9375 C 3 -0.875 3 -0.859375 2.984375 -0.796875 Z M 2.984375 -0.796875 "/>
</g>
<g id="glyph-3-4">
<path d="M 2.625 -1.171875 C 2.625 -1.28125 2.53125 -1.28125 2.40625 -1.28125 C 2.21875 -1.28125 2.203125 -1.28125 2.15625 -1.078125 C 2.09375 -0.8125 1.9375 -0.21875 1.671875 -0.21875 C 1.578125 -0.21875 1.53125 -0.28125 1.53125 -0.46875 C 1.53125 -0.625 1.546875 -0.6875 1.578125 -0.8125 L 2.6875 -5.234375 C 2.6875 -5.28125 2.703125 -5.328125 2.703125 -5.359375 C 2.703125 -5.515625 2.5625 -5.515625 2.453125 -5.5 L 1.46875 -5.453125 C 1.390625 -5.4375 1.234375 -5.4375 1.234375 -5.21875 C 1.234375 -5.078125 1.375 -5.078125 1.4375 -5.078125 C 1.546875 -5.078125 1.6875 -5.0625 1.78125 -5.0625 L 0.75 -0.9375 C 0.71875 -0.8125 0.71875 -0.75 0.71875 -0.703125 C 0.71875 -0.203125 1.203125 0.0625 1.640625 0.0625 C 2.015625 0.0625 2.21875 -0.203125 2.3125 -0.359375 C 2.53125 -0.703125 2.625 -1.140625 2.625 -1.171875 Z M 2.625 -1.171875 "/>
</g>
<g id="glyph-3-5">
<path d="M 6.046875 -2.03125 C 6.046875 -2.171875 5.890625 -2.171875 5.8125 -2.171875 C 5.640625 -2.171875 5.640625 -2.171875 5.546875 -1.953125 C 5.125 -0.984375 4.78125 -0.375 3.5 -0.375 L 2.703125 -0.375 C 2.625 -0.375 2.578125 -0.375 2.515625 -0.375 L 3.078125 -2.609375 L 3.484375 -2.609375 C 3.90625 -2.609375 4.03125 -2.53125 4.03125 -2.296875 C 4.03125 -2.234375 4 -2.078125 3.96875 -1.9375 C 3.953125 -1.875 3.9375 -1.828125 3.9375 -1.828125 C 3.9375 -1.6875 4.09375 -1.6875 4.171875 -1.6875 C 4.296875 -1.6875 4.359375 -1.6875 4.40625 -1.875 L 4.84375 -3.671875 C 4.859375 -3.71875 4.875 -3.75 4.875 -3.765625 C 4.875 -3.90625 4.734375 -3.90625 4.65625 -3.90625 C 4.484375 -3.90625 4.453125 -3.890625 4.40625 -3.734375 C 4.265625 -3.1875 4.125 -2.984375 3.5 -2.984375 L 3.171875 -2.984375 L 3.671875 -5.015625 C 3.78125 -5.03125 4.109375 -5.03125 4.3125 -5.03125 C 5.28125 -5.03125 5.796875 -5.03125 5.796875 -4.1875 C 5.796875 -4.03125 5.796875 -4.015625 5.78125 -3.796875 C 5.765625 -3.765625 5.75 -3.671875 5.75 -3.640625 C 5.75 -3.484375 5.890625 -3.484375 5.984375 -3.484375 C 6.1875 -3.484375 6.1875 -3.546875 6.203125 -3.6875 L 6.390625 -5.265625 C 6.375 -5.390625 6.25 -5.390625 6.140625 -5.390625 L 2.046875 -5.390625 C 1.90625 -5.390625 1.765625 -5.390625 1.765625 -5.171875 C 1.765625 -5.03125 1.90625 -5.03125 2.015625 -5.03125 L 2.1875 -5.03125 C 2.265625 -5.03125 2.53125 -5.015625 2.578125 -5.015625 L 1.453125 -0.515625 C 1.421875 -0.40625 1.421875 -0.390625 1.28125 -0.390625 C 1.1875 -0.375 1.0625 -0.375 0.953125 -0.375 L 0.78125 -0.375 C 0.65625 -0.375 0.515625 -0.375 0.515625 -0.140625 C 0.515625 0 0.640625 0 0.765625 0 L 4.984375 0 C 5.15625 0 5.1875 0 5.25 -0.140625 L 6 -1.890625 C 6.015625 -1.9375 6.046875 -1.984375 6.046875 -2.03125 Z M 6.046875 -2.03125 "/>
</g>
<g id="glyph-3-6">
<path d="M 5.421875 -1.171875 C 5.421875 -1.28125 5.328125 -1.28125 5.203125 -1.28125 C 5.0625 -1.28125 5.015625 -1.28125 4.984375 -1.1875 C 4.921875 -0.96875 4.703125 -0.21875 4.25 -0.21875 C 4.21875 -0.21875 4.140625 -0.21875 4.140625 -0.359375 C 4.140625 -0.53125 4.21875 -0.734375 4.328125 -1.015625 C 4.4375 -1.296875 4.796875 -2.234375 4.796875 -2.6875 C 4.796875 -3.34375 4.328125 -3.59375 3.703125 -3.59375 C 3.53125 -3.59375 3.015625 -3.59375 2.484375 -3.046875 C 2.328125 -3.5 1.84375 -3.59375 1.59375 -3.59375 C 1.21875 -3.59375 1.03125 -3.3125 0.921875 -3.15625 C 0.71875 -2.828125 0.609375 -2.375 0.609375 -2.34375 C 0.609375 -2.234375 0.71875 -2.234375 0.828125 -2.234375 C 1.03125 -2.234375 1.03125 -2.25 1.09375 -2.4375 C 1.15625 -2.703125 1.296875 -3.296875 1.5625 -3.296875 C 1.65625 -3.296875 1.71875 -3.234375 1.71875 -3.0625 C 1.71875 -2.90625 1.703125 -2.84375 1.671875 -2.71875 L 1.109375 -0.453125 C 1.078125 -0.328125 1.078125 -0.3125 1.078125 -0.28125 C 1.078125 -0.03125 1.265625 0.0625 1.421875 0.0625 C 1.484375 0.0625 1.828125 0.046875 1.921875 -0.359375 L 2.421875 -2.328125 C 2.46875 -2.5625 2.921875 -3.296875 3.640625 -3.296875 C 3.984375 -3.296875 3.984375 -3 3.984375 -2.84375 C 3.984375 -2.375 3.625 -1.390625 3.484375 -1.046875 C 3.40625 -0.84375 3.375 -0.765625 3.375 -0.640625 C 3.375 -0.203125 3.78125 0.0625 4.21875 0.0625 C 5.046875 0.0625 5.421875 -1.015625 5.421875 -1.171875 Z M 5.421875 -1.171875 "/>
</g>
<g id="glyph-3-7">
<path d="M 4.40625 -2.890625 C 4.40625 -3.484375 4.046875 -3.59375 3.890625 -3.59375 C 3.625 -3.59375 3.328125 -3.3125 3.328125 -3.03125 C 3.328125 -2.828125 3.4375 -2.75 3.515625 -2.6875 C 3.671875 -2.578125 3.828125 -2.40625 3.828125 -2.171875 C 3.828125 -2.140625 3.5 -0.21875 2.609375 -0.21875 C 2.15625 -0.21875 2.09375 -0.578125 2.09375 -0.8125 C 2.09375 -1.265625 2.34375 -1.9375 2.546875 -2.453125 C 2.625 -2.65625 2.65625 -2.75 2.65625 -2.875 C 2.65625 -3.328125 2.25 -3.59375 1.828125 -3.59375 C 1 -3.59375 0.609375 -2.515625 0.609375 -2.34375 C 0.609375 -2.234375 0.71875 -2.234375 0.828125 -2.234375 C 0.984375 -2.234375 1.03125 -2.234375 1.0625 -2.34375 C 1.125 -2.546875 1.328125 -3.296875 1.78125 -3.296875 C 1.828125 -3.296875 1.890625 -3.296875 1.890625 -3.15625 C 1.890625 -3 1.796875 -2.75 1.75 -2.640625 C 1.453125 -1.828125 1.28125 -1.375 1.28125 -0.96875 C 1.28125 -0.078125 2.0625 0.0625 2.546875 0.0625 C 3.953125 0.0625 4.40625 -2.484375 4.40625 -2.890625 Z M 4.40625 -2.890625 "/>
</g>
<g id="glyph-3-8">
<path d="M 4.25 -0.6875 C 4.25 -0.75 4.09375 -0.9375 4.015625 -0.9375 C 4 -0.9375 3.953125 -0.9375 3.90625 -0.875 C 3.3125 -0.21875 2.515625 -0.21875 2.40625 -0.21875 C 1.953125 -0.21875 1.734375 -0.484375 1.734375 -0.953125 C 1.734375 -1.15625 1.78125 -1.453125 1.859375 -1.734375 L 2.171875 -1.734375 C 2.65625 -1.734375 4.21875 -1.734375 4.21875 -2.828125 C 4.21875 -3.296875 3.78125 -3.59375 3.1875 -3.59375 C 1.8125 -3.59375 0.875 -2.546875 0.875 -1.328125 C 0.875 -0.46875 1.40625 0.0625 2.390625 0.0625 C 2.640625 0.0625 3.109375 0.046875 3.515625 -0.109375 C 3.9375 -0.28125 4.25 -0.59375 4.25 -0.6875 Z M 3.703125 -2.828125 C 3.703125 -2.015625 2.40625 -2.015625 1.921875 -2.015625 C 2.046875 -2.40625 2.125 -2.65625 2.34375 -2.90625 C 2.578125 -3.171875 2.921875 -3.296875 3.1875 -3.296875 C 3.53125 -3.296875 3.703125 -3.09375 3.703125 -2.828125 Z M 3.703125 -2.828125 "/>
</g>
<g id="glyph-3-9">
<path d="M 3.328125 -1.171875 C 3.328125 -1.28125 3.21875 -1.28125 3.109375 -1.28125 C 2.921875 -1.28125 2.921875 -1.28125 2.859375 -1.15625 C 2.53125 -0.359375 2.140625 -0.21875 1.921875 -0.21875 C 1.859375 -0.21875 1.765625 -0.234375 1.765625 -0.46875 C 1.765625 -0.625 1.78125 -0.6875 1.8125 -0.8125 L 2.390625 -3.15625 L 3.03125 -3.15625 C 3.171875 -3.15625 3.296875 -3.15625 3.296875 -3.375 C 3.296875 -3.53125 3.171875 -3.53125 3.0625 -3.53125 L 2.5 -3.53125 L 2.640625 -4.15625 C 2.703125 -4.359375 2.78125 -4.703125 2.78125 -4.765625 C 2.78125 -4.953125 2.65625 -5.109375 2.421875 -5.109375 C 2.328125 -5.109375 2.03125 -5.0625 1.921875 -4.6875 L 1.640625 -3.53125 L 1 -3.53125 C 0.859375 -3.53125 0.71875 -3.53125 0.71875 -3.296875 C 0.71875 -3.15625 0.859375 -3.15625 0.96875 -3.15625 L 1.546875 -3.15625 L 0.984375 -0.9375 C 0.953125 -0.8125 0.953125 -0.75 0.953125 -0.703125 C 0.953125 -0.203125 1.40625 0.0625 1.890625 0.0625 C 2.796875 0.0625 3.328125 -1.046875 3.328125 -1.171875 Z M 3.328125 -1.171875 "/>
</g>
<g id="glyph-3-10">
<path d="M 6.9375 -2.046875 C 6.9375 -2.09375 6.90625 -2.1875 6.78125 -2.1875 C 6.453125 -2.1875 6.109375 -2.171875 5.765625 -2.171875 C 5.328125 -2.171875 4.875 -2.1875 4.4375 -2.1875 C 4.34375 -2.1875 4.203125 -2.1875 4.203125 -1.953125 C 4.203125 -1.8125 4.34375 -1.8125 4.453125 -1.8125 L 4.71875 -1.8125 C 4.8125 -1.8125 5.203125 -1.8125 5.203125 -1.765625 C 5.203125 -1.734375 5.015625 -1.03125 5 -0.9375 C 4.859375 -0.5 4.34375 -0.234375 3.859375 -0.234375 C 3.375 -0.234375 2.96875 -0.40625 2.75 -0.59375 C 2.53125 -0.8125 2.359375 -1.109375 2.359375 -1.609375 C 2.359375 -1.96875 2.578125 -3.453125 3.21875 -4.296875 C 3.78125 -5.015625 4.59375 -5.203125 5.109375 -5.203125 C 5.921875 -5.203125 6.25 -4.546875 6.25 -3.84375 C 6.25 -3.59375 6.234375 -3.5625 6.234375 -3.5 C 6.234375 -3.375 6.3125 -3.375 6.484375 -3.375 C 6.671875 -3.375 6.6875 -3.375 6.734375 -3.546875 L 7.171875 -5.3125 C 7.203125 -5.4375 7.203125 -5.46875 7.203125 -5.46875 C 7.203125 -5.578125 7.109375 -5.578125 7 -5.578125 L 6.3125 -5.046875 C 5.8125 -5.578125 5.1875 -5.578125 5 -5.578125 C 2.6875 -5.578125 1.296875 -3.65625 1.296875 -1.9375 C 1.296875 -0.453125 2.421875 0.140625 3.640625 0.140625 C 4.125 0.140625 4.71875 0.015625 5.15625 -0.375 C 5.359375 -0.1875 5.703125 0 5.75 0 C 5.84375 0 5.859375 -0.078125 5.890625 -0.171875 L 6.265625 -1.6875 C 6.28125 -1.796875 6.296875 -1.796875 6.359375 -1.796875 C 6.4375 -1.8125 6.53125 -1.8125 6.625 -1.8125 C 6.8125 -1.8125 6.9375 -1.8125 6.9375 -2.046875 Z M 6.9375 -2.046875 "/>
</g>
<g id="glyph-3-11">
<path d="M 4.265625 -2.3125 C 4.265625 -3.265625 3.59375 -3.59375 3 -3.59375 C 2.640625 -3.59375 2.34375 -3.4375 2.21875 -3.359375 L 2.6875 -5.234375 C 2.6875 -5.28125 2.703125 -5.328125 2.703125 -5.359375 C 2.703125 -5.515625 2.5625 -5.515625 2.453125 -5.5 L 1.46875 -5.453125 C 1.390625 -5.4375 1.234375 -5.4375 1.234375 -5.21875 C 1.234375 -5.078125 1.375 -5.078125 1.4375 -5.078125 C 1.546875 -5.078125 1.6875 -5.0625 1.78125 -5.0625 L 0.953125 -1.765625 C 0.890625 -1.46875 0.890625 -1.265625 0.890625 -1.1875 C 0.890625 -0.234375 1.5625 0.0625 2.125 0.0625 C 3.484375 0.0625 4.265625 -1.265625 4.265625 -2.3125 Z M 3.046875 -1.109375 C 2.765625 -0.296875 2.296875 -0.21875 2.140625 -0.21875 C 1.65625 -0.21875 1.65625 -0.734375 1.65625 -0.84375 C 1.65625 -1.125 1.703125 -1.328125 1.828125 -1.8125 C 1.890625 -2.09375 1.9375 -2.296875 2 -2.546875 C 2.0625 -2.75 2.0625 -2.765625 2.140625 -2.84375 C 2.34375 -3.109375 2.65625 -3.296875 2.953125 -3.296875 C 3.140625 -3.296875 3.40625 -3.1875 3.40625 -2.734375 C 3.40625 -2.3125 3.140625 -1.328125 3.046875 -1.109375 Z M 3.046875 -1.109375 "/>
</g>
<g id="glyph-3-12">
<path d="M 6.171875 -1.78125 C 6.171875 -2.453125 5.625 -2.78125 4.984375 -2.84375 C 6.078125 -3.046875 6.59375 -3.734375 6.59375 -4.359375 C 6.59375 -5.125 5.90625 -5.4375 5.078125 -5.4375 L 2.0625 -5.4375 C 1.921875 -5.4375 1.78125 -5.4375 1.78125 -5.21875 C 1.78125 -5.078125 1.90625 -5.078125 2.03125 -5.078125 L 2.203125 -5.078125 C 2.296875 -5.078125 2.5 -5.0625 2.59375 -5.0625 L 1.453125 -0.515625 C 1.421875 -0.40625 1.421875 -0.390625 1.28125 -0.390625 C 1.1875 -0.375 1.0625 -0.375 0.953125 -0.375 L 0.78125 -0.375 C 0.65625 -0.375 0.515625 -0.375 0.515625 -0.140625 C 0.515625 0 0.640625 0 0.765625 0 L 3.9375 0 C 5.4375 0 6.171875 -1.046875 6.171875 -1.78125 Z M 5.546875 -4.421875 C 5.546875 -3.8125 5.125 -2.96875 4.171875 -2.96875 L 3.078125 -2.96875 L 3.5625 -4.9375 C 3.59375 -5.0625 3.609375 -5.078125 3.84375 -5.078125 L 4.890625 -5.078125 C 5.046875 -5.078125 5.546875 -5.078125 5.546875 -4.421875 Z M 5.109375 -1.9375 C 5.109375 -1.3125 4.734375 -0.375 3.734375 -0.375 L 2.609375 -0.375 C 2.546875 -0.375 2.484375 -0.375 2.421875 -0.375 L 3 -2.6875 L 4.375 -2.6875 C 4.5625 -2.6875 5.109375 -2.6875 5.109375 -1.9375 Z M 5.109375 -1.9375 "/>
</g>
<g id="glyph-3-13">
<path d="M 5.203125 -1.171875 C 5.203125 -1.28125 5.09375 -1.28125 4.984375 -1.28125 C 4.78125 -1.28125 4.78125 -1.28125 4.71875 -1.078125 C 4.65625 -0.8125 4.515625 -0.21875 4.25 -0.21875 C 4.15625 -0.21875 4.09375 -0.28125 4.09375 -0.46875 C 4.09375 -0.625 4.109375 -0.6875 4.140625 -0.8125 L 4.6875 -3.015625 C 4.71875 -3.125 4.71875 -3.140625 4.71875 -3.1875 C 4.71875 -3.421875 4.53125 -3.53125 4.359375 -3.53125 C 4.265625 -3.53125 3.953125 -3.484375 3.859375 -3.078125 L 3.3125 -0.84375 C 3.28125 -0.703125 3.265625 -0.671875 3.046875 -0.453125 C 2.9375 -0.34375 2.734375 -0.21875 2.5 -0.21875 C 2.109375 -0.21875 2.09375 -0.59375 2.09375 -0.765625 C 2.09375 -1.25 2.359375 -1.953125 2.546875 -2.453125 C 2.625 -2.65625 2.65625 -2.75 2.65625 -2.875 C 2.65625 -3.328125 2.25 -3.59375 1.828125 -3.59375 C 1 -3.59375 0.609375 -2.515625 0.609375 -2.34375 C 0.609375 -2.234375 0.71875 -2.234375 0.828125 -2.234375 C 0.984375 -2.234375 1.03125 -2.234375 1.0625 -2.34375 C 1.125 -2.546875 1.328125 -3.296875 1.78125 -3.296875 C 1.828125 -3.296875 1.890625 -3.296875 1.890625 -3.15625 C 1.890625 -3 1.796875 -2.75 1.75 -2.640625 C 1.5 -1.953125 1.28125 -1.375 1.28125 -0.9375 C 1.28125 -0.21875 1.796875 0.0625 2.453125 0.0625 C 2.671875 0.0625 3.015625 0.03125 3.390625 -0.34375 C 3.546875 -0.0625 3.90625 0.0625 4.21875 0.0625 C 4.59375 0.0625 4.78125 -0.203125 4.890625 -0.359375 C 5.09375 -0.703125 5.203125 -1.140625 5.203125 -1.171875 Z M 5.203125 -1.171875 "/>
</g>
<g id="glyph-3-14">
<path d="M 3.09375 -1.171875 C 3.09375 -1.28125 3 -1.28125 2.875 -1.28125 C 2.71875 -1.28125 2.6875 -1.28125 2.65625 -1.1875 C 2.59375 -0.96875 2.375 -0.21875 1.921875 -0.21875 C 1.875 -0.21875 1.8125 -0.21875 1.8125 -0.359375 C 1.8125 -0.46875 1.859375 -0.671875 1.875 -0.6875 L 2.59375 -2.578125 C 2.640625 -2.703125 2.65625 -2.765625 2.65625 -2.875 C 2.65625 -3.328125 2.25 -3.59375 1.828125 -3.59375 C 1 -3.59375 0.609375 -2.515625 0.609375 -2.34375 C 0.609375 -2.234375 0.71875 -2.234375 0.828125 -2.234375 C 0.984375 -2.234375 1.03125 -2.234375 1.0625 -2.34375 C 1.125 -2.546875 1.328125 -3.296875 1.78125 -3.296875 C 1.828125 -3.296875 1.890625 -3.296875 1.890625 -3.15625 C 1.890625 -3.0625 1.84375 -2.859375 1.828125 -2.84375 L 1.125 -0.953125 C 1.078125 -0.828125 1.046875 -0.765625 1.046875 -0.640625 C 1.046875 -0.203125 1.453125 0.0625 1.875 0.0625 C 2.703125 0.0625 3.09375 -1.015625 3.09375 -1.171875 Z M 3.203125 -4.875 C 3.203125 -5.09375 3.046875 -5.34375 2.71875 -5.34375 C 2.34375 -5.34375 2.015625 -5.015625 2.015625 -4.65625 C 2.015625 -4.40625 2.203125 -4.1875 2.5 -4.1875 C 2.875 -4.1875 3.203125 -4.53125 3.203125 -4.875 Z M 3.203125 -4.875 "/>
</g>
<g id="glyph-3-15">
<path d="M 3.6875 -1.296875 C 3.6875 -1.46875 3.640625 -1.75 3.34375 -1.96875 C 3.109375 -2.15625 2.90625 -2.203125 2.5 -2.28125 C 2.25 -2.328125 1.921875 -2.390625 1.921875 -2.6875 C 1.921875 -2.6875 1.921875 -3.296875 2.765625 -3.296875 C 2.84375 -3.296875 3.140625 -3.296875 3.3125 -3.109375 C 3.015625 -2.96875 3.015625 -2.6875 3.015625 -2.671875 C 3.015625 -2.46875 3.171875 -2.34375 3.359375 -2.34375 C 3.5625 -2.34375 3.859375 -2.5 3.859375 -2.890625 C 3.859375 -3.328125 3.40625 -3.59375 2.78125 -3.59375 C 2.171875 -3.59375 1.890625 -3.375 1.75 -3.25 C 1.484375 -3.03125 1.328125 -2.609375 1.328125 -2.359375 C 1.328125 -1.6875 2.015625 -1.5625 2.25 -1.515625 C 2.671875 -1.421875 3.09375 -1.34375 3.09375 -0.984375 C 3.09375 -0.984375 3.09375 -0.21875 1.984375 -0.21875 C 1.875 -0.21875 1.515625 -0.21875 1.25 -0.4375 C 1.296875 -0.453125 1.640625 -0.609375 1.640625 -0.96875 C 1.640625 -1.28125 1.375 -1.34375 1.25 -1.34375 C 0.953125 -1.34375 0.671875 -1.109375 0.671875 -0.71875 C 0.671875 -0.21875 1.1875 0.0625 1.953125 0.0625 C 2.1875 0.0625 2.6875 0.0625 3.125 -0.25 C 3.53125 -0.546875 3.6875 -1.046875 3.6875 -1.296875 Z M 3.6875 -1.296875 "/>
</g>
<g id="glyph-3-16">
<path d="M 4.5 -5.84375 C 4.5 -5.921875 4.421875 -5.953125 4.359375 -5.953125 C 4.1875 -5.953125 3.578125 -5.4375 3.28125 -5.15625 C 2.21875 -4.125 1.34375 -2.34375 1.34375 -0.59375 C 1.34375 -0.359375 1.34375 0.234375 1.59375 0.875 C 1.78125 1.359375 2.234375 1.96875 2.421875 1.96875 C 2.453125 1.96875 2.578125 1.96875 2.578125 1.859375 C 2.578125 1.828125 2.578125 1.8125 2.484375 1.703125 C 2.03125 1.03125 2 0.171875 2 -0.125 C 2 -1.25 2.515625 -4.09375 4.296875 -5.625 L 4.453125 -5.75 C 4.46875 -5.765625 4.5 -5.796875 4.5 -5.84375 Z M 4.5 -5.84375 "/>
</g>
<g id="glyph-3-17">
<path d="M 4.453125 -2.875 C 4.453125 -3.296875 4.03125 -3.59375 3.453125 -3.59375 C 3.15625 -3.59375 2.78125 -3.5 2.4375 -3.15625 C 2.296875 -3.40625 1.984375 -3.59375 1.59375 -3.59375 C 1.21875 -3.59375 1.03125 -3.3125 0.921875 -3.15625 C 0.71875 -2.828125 0.609375 -2.375 0.609375 -2.34375 C 0.609375 -2.234375 0.71875 -2.234375 0.828125 -2.234375 C 1.03125 -2.234375 1.03125 -2.25 1.09375 -2.4375 C 1.15625 -2.703125 1.296875 -3.296875 1.5625 -3.296875 C 1.65625 -3.296875 1.71875 -3.234375 1.71875 -3.0625 C 1.71875 -2.90625 1.703125 -2.84375 1.671875 -2.71875 L 1.109375 -0.453125 C 1.078125 -0.328125 1.078125 -0.3125 1.078125 -0.28125 C 1.078125 -0.03125 1.265625 0.0625 1.421875 0.0625 C 1.484375 0.0625 1.828125 0.046875 1.921875 -0.359375 L 2.46875 -2.53125 C 2.515625 -2.703125 2.875 -3.296875 3.421875 -3.296875 C 3.515625 -3.296875 3.703125 -3.296875 3.859375 -3.171875 C 3.5 -3 3.5 -2.671875 3.5 -2.640625 C 3.5 -2.4375 3.640625 -2.265625 3.890625 -2.265625 C 4.1875 -2.265625 4.453125 -2.53125 4.453125 -2.875 Z M 4.453125 -2.875 "/>
</g>
<g id="glyph-3-18">
<path d="M 4.953125 -1.171875 C 4.953125 -1.28125 4.859375 -1.28125 4.734375 -1.28125 C 4.546875 -1.28125 4.546875 -1.28125 4.484375 -1.078125 C 4.421875 -0.8125 4.28125 -0.21875 4.015625 -0.21875 C 3.90625 -0.21875 3.859375 -0.28125 3.859375 -0.46875 C 3.859375 -0.625 3.875 -0.6875 3.90625 -0.8125 L 5.015625 -5.234375 C 5.03125 -5.28125 5.046875 -5.328125 5.046875 -5.359375 C 5.046875 -5.515625 4.890625 -5.515625 4.78125 -5.5 L 3.8125 -5.453125 C 3.71875 -5.4375 3.5625 -5.4375 3.5625 -5.21875 C 3.5625 -5.078125 3.703125 -5.078125 3.78125 -5.078125 C 3.875 -5.078125 4.015625 -5.0625 4.109375 -5.0625 L 3.6875 -3.328125 C 3.4375 -3.5625 3.15625 -3.59375 2.96875 -3.59375 C 1.640625 -3.59375 0.84375 -2.265625 0.84375 -1.203125 C 0.84375 -0.265625 1.515625 0.0625 2.109375 0.0625 C 2.59375 0.0625 2.96875 -0.1875 3.15625 -0.34375 C 3.3125 -0.0625 3.671875 0.0625 3.984375 0.0625 C 4.34375 0.0625 4.546875 -0.203125 4.65625 -0.359375 C 4.859375 -0.703125 4.953125 -1.140625 4.953125 -1.171875 Z M 3.0625 -0.796875 C 2.71875 -0.34375 2.390625 -0.21875 2.140625 -0.21875 C 1.953125 -0.21875 1.6875 -0.328125 1.6875 -0.78125 C 1.6875 -1.21875 1.96875 -2.1875 2.0625 -2.40625 C 2.328125 -3.1875 2.765625 -3.296875 2.96875 -3.296875 C 3.25 -3.296875 3.46875 -3.125 3.5625 -2.8125 L 3.09375 -0.9375 C 3.078125 -0.875 3.078125 -0.859375 3.0625 -0.796875 Z M 3.0625 -0.796875 "/>
</g>
<g id="glyph-3-19">
<path d="M 5.203125 -1.171875 C 5.203125 -1.28125 5.09375 -1.28125 4.984375 -1.28125 C 4.78125 -1.28125 4.78125 -1.28125 4.71875 -1.078125 C 4.65625 -0.8125 4.515625 -0.21875 4.25 -0.21875 C 4.15625 -0.21875 4.09375 -0.28125 4.09375 -0.46875 C 4.09375 -0.625 4.109375 -0.6875 4.140625 -0.8125 L 4.6875 -3.015625 C 4.71875 -3.125 4.71875 -3.140625 4.71875 -3.1875 C 4.71875 -3.421875 4.53125 -3.53125 4.359375 -3.53125 C 4.265625 -3.53125 3.953125 -3.484375 3.859375 -3.078125 L 3.3125 -0.84375 C 3.28125 -0.703125 3.265625 -0.671875 3.046875 -0.453125 C 2.9375 -0.34375 2.734375 -0.21875 2.5 -0.21875 C 2.109375 -0.21875 2.09375 -0.59375 2.09375 -0.765625 C 2.09375 -1.25 2.359375 -1.953125 2.546875 -2.453125 C 2.625 -2.65625 2.65625 -2.75 2.65625 -2.875 C 2.65625 -3.328125 2.25 -3.59375 1.828125 -3.59375 C 1 -3.59375 0.609375 -2.515625 0.609375 -2.34375 C 0.609375 -2.234375 0.71875 -2.234375 0.828125 -2.234375 C 0.984375 -2.234375 1.03125 -2.234375 1.0625 -2.34375 C 1.125 -2.546875 1.328125 -3.296875 1.78125 -3.296875 C 1.828125 -3.296875 1.890625 -3.296875 1.890625 -3.15625 C 1.890625 -3 1.796875 -2.75 1.75 -2.640625 C 1.5 -1.953125 1.28125 -1.375 1.28125 -0.9375 C 1.28125 -0.21875 1.796875 0.0625 2.453125 0.0625 C 2.671875 0.0625 3.015625 0.03125 3.390625 -0.34375 C 3.546875 -0.0625 3.90625 0.0625 4.21875 0.0625 C 4.59375 0.0625 4.78125 -0.203125 4.890625 -0.359375 C 5.09375 -0.703125 5.203125 -1.140625 5.203125 -1.171875 Z M 4.84375 -5.171875 C 4.84375 -5.390625 4.671875 -5.546875 4.484375 -5.546875 C 4.296875 -5.546875 4.203125 -5.453125 4.046875 -5.296875 L 3.078125 -4.390625 C 3.03125 -4.359375 2.96875 -4.296875 2.96875 -4.25 C 2.96875 -4.203125 3.078125 -3.984375 3.203125 -3.984375 C 3.25 -3.984375 3.28125 -4.015625 3.328125 -4.03125 L 4.546875 -4.734375 C 4.65625 -4.796875 4.84375 -4.921875 4.84375 -5.171875 Z M 4.84375 -5.171875 "/>
</g>
<g id="glyph-3-20">
<path d="M 3.96875 1.3125 C 3.96875 1.171875 3.828125 1.171875 3.75 1.171875 C 3.640625 1.171875 3.515625 1.171875 3.40625 1.15625 L 4.546875 -3.328125 C 4.546875 -3.359375 4.5625 -3.40625 4.5625 -3.4375 C 4.5625 -3.484375 4.53125 -3.59375 4.40625 -3.59375 C 4.40625 -3.59375 3.96875 -3.484375 3.734375 -3.28125 C 3.484375 -3.546875 3.171875 -3.59375 2.96875 -3.59375 C 1.640625 -3.59375 0.84375 -2.265625 0.84375 -1.203125 C 0.84375 -0.265625 1.515625 0.0625 2.109375 0.0625 C 2.46875 0.0625 2.765625 -0.078125 2.890625 -0.15625 L 2.59375 1.03125 C 2.578125 1.140625 2.5625 1.15625 2.46875 1.15625 C 2.359375 1.171875 2.203125 1.171875 2.203125 1.171875 C 2.0625 1.171875 1.90625 1.171875 1.90625 1.390625 C 1.90625 1.4375 1.9375 1.546875 2.078125 1.546875 C 2.34375 1.546875 2.625 1.515625 2.890625 1.515625 C 3.1875 1.515625 3.484375 1.546875 3.75 1.546875 C 3.8125 1.546875 3.96875 1.546875 3.96875 1.3125 Z M 3.078125 -0.875 C 3 -0.59375 2.546875 -0.21875 2.140625 -0.21875 C 1.953125 -0.21875 1.6875 -0.328125 1.6875 -0.78125 C 1.6875 -1.21875 1.96875 -2.1875 2.0625 -2.40625 C 2.328125 -3.1875 2.765625 -3.296875 2.96875 -3.296875 C 3.25 -3.296875 3.46875 -3.125 3.5625 -2.8125 Z M 3.078125 -0.875 "/>
</g>
<g id="glyph-3-21">
<path d="M 3.40625 -3.390625 C 3.40625 -3.9375 3.3125 -4.484375 3.109375 -4.984375 C 2.953125 -5.3125 2.53125 -5.953125 2.3125 -5.953125 C 2.25 -5.953125 2.171875 -5.921875 2.171875 -5.84375 C 2.171875 -5.796875 2.203125 -5.78125 2.21875 -5.75 C 2.375 -5.515625 2.75 -4.953125 2.75 -3.84375 C 2.75 -2.84375 2.3125 0.078125 0.40625 1.6875 C 0.265625 1.8125 0.25 1.8125 0.25 1.859375 C 0.25 1.953125 0.34375 1.96875 0.390625 1.96875 C 0.5625 1.96875 1.15625 1.46875 1.375 1.265625 C 2.921875 -0.21875 3.40625 -2.203125 3.40625 -3.390625 Z M 3.40625 -3.390625 "/>
</g>
<g id="glyph-4-0">
<path d="M 7.953125 -1.984375 C 7.953125 -2.03125 7.90625 -2.078125 7.859375 -2.09375 C 6.984375 -2.34375 6.3125 -3.078125 6.140625 -4 C 6.140625 -4.046875 6.09375 -4.078125 6.03125 -4.078125 L 5.890625 -4.078125 C 5.828125 -4.078125 5.78125 -4.03125 5.78125 -3.9375 C 5.921875 -3.21875 6.328125 -2.59375 6.9375 -2.171875 L 0.640625 -2.171875 C 0.53125 -2.171875 0.46875 -2.078125 0.46875 -1.984375 C 0.46875 -1.890625 0.53125 -1.796875 0.640625 -1.796875 L 6.9375 -1.796875 C 6.328125 -1.375 5.921875 -0.75 5.78125 -0.03125 C 5.78125 0.0625 5.828125 0.109375 5.890625 0.109375 L 6.03125 0.109375 C 6.09375 0.109375 6.140625 0.078125 6.140625 0.03125 C 6.3125 -0.890625 6.984375 -1.625 7.859375 -1.875 C 7.90625 -1.890625 7.953125 -1.9375 7.953125 -1.984375 Z M 7.953125 -1.984375 "/>
</g>
</g>
</defs>
<path fill-rule="nonzero" fill="rgb(87.998962%, 93.363953%, 96.374512%)" fill-opacity="1" stroke-width="0.3985" stroke-linecap="butt" stroke-linejoin="miter" stroke="rgb(39.99939%, 66.822815%, 81.881714%)" stroke-opacity="1" stroke-miterlimit="10" d="M 114.228119 82.206418 L -114.22864 82.206418 C -115.331386 82.206418 -116.222216 81.315587 -116.222216 80.212842 L -116.222216 -80.215095 C -116.222216 -81.313917 -115.331386 -82.204747 -114.22864 -82.204747 L 114.228119 -82.204747 C 115.330865 -82.204747 116.221695 -81.313917 116.221695 -80.215095 L 116.221695 80.212842 C 116.221695 81.315587 115.330865 82.206418 114.228119 82.206418 Z M 114.228119 82.206418 " transform="matrix(0.995385, 0, 0, -0.995385, 130.935806, 84.998878)"/>
<g fill="rgb(0%, 0%, 0%)" fill-opacity="1">
<use xlink:href="#glyph-0-0" x="72.144409" y="11.94362"/>
<use xlink:href="#glyph-0-1" x="78.133269" y="11.94362"/>
<use xlink:href="#glyph-0-2" x="82.702858" y="11.94362"/>
<use xlink:href="#glyph-0-3" x="85.314505" y="11.94362"/>
<use xlink:href="#glyph-0-4" x="87.490614" y="11.94362"/>
<use xlink:href="#glyph-0-2" x="90.319634" y="11.94362"/>
<use xlink:href="#glyph-0-5" x="92.931281" y="11.94362"/>
<use xlink:href="#glyph-0-6" x="97.719037" y="11.94362"/>
<use xlink:href="#glyph-0-7" x="101.200968" y="11.94362"/>
</g>
<g fill="rgb(0%, 0%, 0%)" fill-opacity="1">
<use xlink:href="#glyph-1-0" x="106.858448" y="11.94362"/>
<use xlink:href="#glyph-1-1" x="111.023438" y="11.94362"/>
<use xlink:href="#glyph-1-2" x="115.188428" y="11.94362"/>
</g>
<g fill="rgb(0%, 0%, 0%)" fill-opacity="1">
<use xlink:href="#glyph-0-8" x="119.353511" y="11.94362"/>
</g>
<g fill="rgb(0%, 0%, 0%)" fill-opacity="1">
<use xlink:href="#glyph-1-3" x="125.011277" y="11.94362"/>
<use xlink:href="#glyph-1-4" x="129.176267" y="11.94362"/>
<use xlink:href="#glyph-1-5" x="133.341258" y="11.94362"/>
<use xlink:href="#glyph-1-2" x="137.506248" y="11.94362"/>
<use xlink:href="#glyph-1-6" x="141.671238" y="11.94362"/>
</g>
<g fill="rgb(0%, 0%, 0%)" fill-opacity="1">
<use xlink:href="#glyph-0-8" x="145.835718" y="11.94362"/>
</g>
<g fill="rgb(0%, 0%, 0%)" fill-opacity="1">
<use xlink:href="#glyph-1-4" x="151.49448" y="11.94362"/>
<use xlink:href="#glyph-1-7" x="155.65947" y="11.94362"/>
<use xlink:href="#glyph-1-2" x="159.824461" y="11.94362"/>
<use xlink:href="#glyph-1-8" x="163.989451" y="11.94362"/>
<use xlink:href="#glyph-1-1" x="168.154441" y="11.94362"/>
</g>
<g fill="rgb(0%, 0%, 0%)" fill-opacity="1">
<use xlink:href="#glyph-0-8" x="172.318922" y="11.94362"/>
</g>
<g fill="rgb(0%, 0%, 0%)" fill-opacity="1">
<use xlink:href="#glyph-0-9" x="177.976962" y="11.94362"/>
</g>
<g fill="rgb(0%, 0%, 0%)" fill-opacity="1">
<use xlink:href="#glyph-0-9" x="181.897606" y="11.94362"/>
</g>
<g fill="rgb(0%, 0%, 0%)" fill-opacity="1">
<use xlink:href="#glyph-0-9" x="185.810317" y="11.94362"/>
</g>
<path fill-rule="nonzero" fill="rgb(87.998962%, 93.363953%, 96.374512%)" fill-opacity="1" stroke-width="0.3985" stroke-linecap="butt" stroke-linejoin="miter" stroke="rgb(39.99939%, 66.822815%, 81.881714%)" stroke-opacity="1" stroke-miterlimit="10" d="M 85.882449 59.527527 L -85.88297 59.527527 C -86.981792 59.527527 -87.876546 58.636697 -87.876546 57.533951 L -87.876546 -57.536205 C -87.876546 -58.635026 -86.981792 -59.529781 -85.88297 -59.529781 L 85.882449 -59.529781 C 86.981271 -59.529781 87.876026 -58.635026 87.876026 -57.536205 L 87.876026 57.533951 C 87.876026 58.636697 86.981271 59.527527 85.882449 59.527527 Z M 85.882449 59.527527 " transform="matrix(0.995385, 0, 0, -0.995385, 130.935806, 84.998878)"/>
<g fill="rgb(0%, 0%, 0%)" fill-opacity="1">
<use xlink:href="#glyph-0-10" x="42.011131" y="35.000709"/>
<use xlink:href="#glyph-0-3" x="48.595782" y="35.000709"/>
<use xlink:href="#glyph-0-11" x="50.77189" y="35.000709"/>
<use xlink:href="#glyph-0-12" x="55.124107" y="35.000709"/>
</g>
<g fill="rgb(0%, 0%, 0%)" fill-opacity="1">
<use xlink:href="#glyph-0-13" x="58.604452" y="35.000709"/>
<use xlink:href="#glyph-0-3" x="62.956669" y="35.000709"/>
</g>
<g fill="rgb(0%, 0%, 0%)" fill-opacity="1">
<use xlink:href="#glyph-0-14" x="68.17917" y="35.000709"/>
<use xlink:href="#glyph-0-15" x="71.661102" y="35.000709"/>
<use xlink:href="#glyph-0-16" x="78.624966" y="35.000709"/>
</g>
<g fill="rgb(0%, 0%, 0%)" fill-opacity="1">
<use xlink:href="#glyph-0-17" x="82.54085" y="35.000709"/>
<use xlink:href="#glyph-0-1" x="86.893067" y="35.000709"/>
<use xlink:href="#glyph-0-3" x="91.462656" y="35.000709"/>
<use xlink:href="#glyph-0-11" x="93.638764" y="35.000709"/>
<use xlink:href="#glyph-0-18" x="97.990981" y="35.000709"/>
<use xlink:href="#glyph-0-7" x="101.472913" y="35.000709"/>
</g>
<g fill="rgb(0%, 0%, 0%)" fill-opacity="1">
<use xlink:href="#glyph-0-19" x="107.130953" y="35.000709"/>
</g>
<g fill="rgb(0%, 0%, 0%)" fill-opacity="1">
<use xlink:href="#glyph-0-11" x="110.619232" y="35.000709"/>
<use xlink:href="#glyph-0-5" x="114.971448" y="35.000709"/>
<use xlink:href="#glyph-0-6" x="119.759204" y="35.000709"/>
<use xlink:href="#glyph-0-4" x="123.241136" y="35.000709"/>
<use xlink:href="#glyph-0-13" x="126.070156" y="35.000709"/>
<use xlink:href="#glyph-0-5" x="130.422372" y="35.000709"/>
<use xlink:href="#glyph-0-4" x="135.210128" y="35.000709"/>
<use xlink:href="#glyph-0-20" x="138.039148" y="35.000709"/>
<use xlink:href="#glyph-0-6" x="141.955826" y="35.000709"/>
<use xlink:href="#glyph-0-8" x="145.437757" y="35.000709"/>
</g>
<g fill="rgb(0%, 0%, 0%)" fill-opacity="1">
<use xlink:href="#glyph-0-21" x="151.095798" y="35.000709"/>
<use xlink:href="#glyph-0-1" x="153.707445" y="35.000709"/>
<use xlink:href="#glyph-0-5" x="158.277034" y="35.000709"/>
<use xlink:href="#glyph-0-19" x="163.06479" y="35.000709"/>
<use xlink:href="#glyph-0-2" x="166.981467" y="35.000709"/>
<use xlink:href="#glyph-0-11" x="169.593115" y="35.000709"/>
<use xlink:href="#glyph-0-5" x="173.945331" y="35.000709"/>
<use xlink:href="#glyph-0-20" x="178.733087" y="35.000709"/>
<use xlink:href="#glyph-0-6" x="182.649764" y="35.000709"/>
</g>
<g fill="rgb(0%, 0%, 0%)" fill-opacity="1">
<use xlink:href="#glyph-0-4" x="189.178089" y="35.000709"/>
<use xlink:href="#glyph-0-11" x="192.007109" y="35.000709"/>
<use xlink:href="#glyph-0-22" x="196.359326" y="35.000709"/>
<use xlink:href="#glyph-0-23" x="200.711542" y="35.000709"/>
<use xlink:href="#glyph-0-3" x="203.757935" y="35.000709"/>
<use xlink:href="#glyph-0-20" x="205.934044" y="35.000709"/>
<use xlink:href="#glyph-0-24" x="209.850721" y="35.000709"/>
<use xlink:href="#glyph-0-20" x="213.767399" y="35.000709"/>
<use xlink:href="#glyph-0-3" x="217.684076" y="35.000709"/>
</g>
<path fill-rule="nonzero" fill="rgb(87.998962%, 93.363953%, 96.374512%)" fill-opacity="1" stroke-width="0.3985" stroke-linecap="butt" stroke-linejoin="miter" stroke="rgb(39.99939%, 66.822815%, 81.881714%)" stroke-opacity="1" stroke-miterlimit="10" d="M 60.370169 36.852561 L -60.37069 36.852561 C -61.469512 36.852561 -62.364266 35.957806 -62.364266 34.858985 L -62.364266 -34.857314 C -62.364266 -35.96006 -61.469512 -36.85089 -60.37069 -36.85089 L 60.370169 -36.85089 C 61.468991 -36.85089 62.363745 -35.96006 62.363745 -34.857314 L 62.363745 34.858985 C 62.363745 35.957806 61.468991 36.852561 60.370169 36.852561 Z M 60.370169 36.852561 " transform="matrix(0.995385, 0, 0, -0.995385, 130.935806, 84.998878)"/>
<g fill="rgb(0%, 0%, 0%)" fill-opacity="1">
<use xlink:href="#glyph-0-25" x="88.770318" y="57.574042"/>
<use xlink:href="#glyph-0-5" x="94.541012" y="57.574042"/>
<use xlink:href="#glyph-0-24" x="99.328767" y="57.574042"/>
<use xlink:href="#glyph-0-11" x="103.245445" y="57.574042"/>
<use xlink:href="#glyph-0-3" x="107.597661" y="57.574042"/>
<use xlink:href="#glyph-0-24" x="109.77377" y="57.574042"/>
<use xlink:href="#glyph-0-20" x="113.690447" y="57.574042"/>
<use xlink:href="#glyph-0-5" x="117.607125" y="57.574042"/>
<use xlink:href="#glyph-0-4" x="122.39488" y="57.574042"/>
<use xlink:href="#glyph-0-20" x="125.223901" y="57.574042"/>
</g>
<g fill="rgb(0%, 0%, 0%)" fill-opacity="1">
<use xlink:href="#glyph-0-14" x="132.186971" y="57.574042"/>
<use xlink:href="#glyph-0-20" x="135.668903" y="57.574042"/>
<use xlink:href="#glyph-0-5" x="139.585581" y="57.574042"/>
<use xlink:href="#glyph-0-19" x="144.373336" y="57.574042"/>
<use xlink:href="#glyph-0-3" x="148.290014" y="57.574042"/>
<use xlink:href="#glyph-0-11" x="150.466122" y="57.574042"/>
<use xlink:href="#glyph-0-6" x="154.818339" y="57.574042"/>
<use xlink:href="#glyph-0-2" x="158.30027" y="57.574042"/>
<use xlink:href="#glyph-0-5" x="160.911918" y="57.574042"/>
<use xlink:href="#glyph-0-26" x="165.699673" y="57.574042"/>
<use xlink:href="#glyph-0-18" x="169.616351" y="57.574042"/>
</g>
<path fill-rule="nonzero" fill="rgb(97.033691%, 88.633728%, 81.999207%)" fill-opacity="1" stroke-width="0.3985" stroke-linecap="butt" stroke-linejoin="miter" stroke="rgb(88.468933%, 55.802917%, 29.998779%)" stroke-opacity="1" stroke-miterlimit="10" d="M 34.857889 15.590365 L -34.85841 15.590365 C -35.957231 15.590365 -36.851986 14.699535 -36.851986 13.596789 L -36.851986 -13.599043 C -36.851986 -14.697864 -35.957231 -15.592619 -34.85841 -15.592619 L 34.857889 -15.592619 C 35.960635 -15.592619 36.851465 -14.697864 36.851465 -13.599043 L 36.851465 13.596789 C 36.851465 14.699535 35.960635 15.590365 34.857889 15.590365 Z M 34.857889 15.590365 " transform="matrix(0.995385, 0, 0, -0.995385, 130.935806, 84.998878)"/>
<g fill="rgb(0%, 0%, 0%)" fill-opacity="1">
<use xlink:href="#glyph-2-0" x="120.043312" y="88.072626"/>
<use xlink:href="#glyph-2-1" x="125.77585" y="88.072626"/>
</g>
<g fill="rgb(0%, 0%, 0%)" fill-opacity="1">
<use xlink:href="#glyph-2-2" x="130.621242" y="88.072626"/>
<use xlink:href="#glyph-2-3" x="134.69819" y="88.072626"/>
<use xlink:href="#glyph-2-4" x="139.284756" y="88.072626"/>
</g>
<g fill="rgb(83.529663%, 36.863708%, 0%)" fill-opacity="1">
<use xlink:href="#glyph-3-0" x="6.604305" y="184.940471"/>
</g>
<g fill="rgb(83.529663%, 36.863708%, 0%)" fill-opacity="1">
<use xlink:href="#glyph-3-1" x="11.672106" y="184.940471"/>
</g>
<g fill="rgb(83.529663%, 36.863708%, 0%)" fill-opacity="1">
<use xlink:href="#glyph-3-2" x="15.893423" y="184.940471"/>
</g>
<g fill="rgb(83.529663%, 36.863708%, 0%)" fill-opacity="1">
<use xlink:href="#glyph-3-3" x="19.647468" y="184.940471"/>
<use xlink:href="#glyph-3-4" x="24.33685" y="184.940471"/>
</g>
<g fill="rgb(83.529663%, 36.863708%, 0%)" fill-opacity="1">
<use xlink:href="#glyph-4-0" x="29.980912" y="184.940471"/>
</g>
<g fill="rgb(83.529663%, 36.863708%, 0%)" fill-opacity="1">
<use xlink:href="#glyph-3-5" x="41.69858" y="184.940471"/>
<use xlink:href="#glyph-3-6" x="47.700926" y="184.940471"/>
<use xlink:href="#glyph-3-7" x="52.857581" y="184.940471"/>
<use xlink:href="#glyph-3-1" x="57.079691" y="184.940471"/>
<use xlink:href="#glyph-3-4" x="61.769073" y="184.940471"/>
<use xlink:href="#glyph-3-7" x="64.122888" y="184.940471"/>
<use xlink:href="#glyph-3-8" x="68.344998" y="184.940471"/>
<use xlink:href="#glyph-3-6" x="72.567108" y="184.940471"/>
<use xlink:href="#glyph-3-9" x="77.723763" y="184.940471"/>
<use xlink:href="#glyph-3-8" x="80.778089" y="184.940471"/>
</g>
<g fill="rgb(83.529663%, 36.863708%, 0%)" fill-opacity="1">
<use xlink:href="#glyph-4-0" x="88.287557" y="184.940471"/>
</g>
<g fill="rgb(83.529663%, 36.863708%, 0%)" fill-opacity="1">
<use xlink:href="#glyph-3-10" x="100.005225" y="184.940471"/>
<use xlink:href="#glyph-3-4" x="107.107921" y="184.940471"/>
<use xlink:href="#glyph-3-1" x="109.461736" y="184.940471"/>
<use xlink:href="#glyph-3-11" x="114.151118" y="184.940471"/>
</g>
<g fill="rgb(83.529663%, 36.863708%, 0%)" fill-opacity="1">
<use xlink:href="#glyph-3-3" x="117.905163" y="184.940471"/>
<use xlink:href="#glyph-3-4" x="122.594546" y="184.940471"/>
</g>
<g fill="rgb(83.529663%, 36.863708%, 0%)" fill-opacity="1">
<use xlink:href="#glyph-4-0" x="128.236323" y="184.940471"/>
</g>
<g fill="rgb(83.529663%, 36.863708%, 0%)" fill-opacity="1">
<use xlink:href="#glyph-3-12" x="139.953991" y="184.940471"/>
<use xlink:href="#glyph-3-13" x="146.433129" y="184.940471"/>
<use xlink:href="#glyph-3-14" x="151.356544" y="184.940471"/>
<use xlink:href="#glyph-3-4" x="154.176838" y="184.940471"/>
<use xlink:href="#glyph-3-9" x="156.530652" y="184.940471"/>
<use xlink:href="#glyph-3-14" x="159.584979" y="184.940471"/>
<use xlink:href="#glyph-3-6" x="162.405272" y="184.940471"/>
<use xlink:href="#glyph-3-15" x="167.561927" y="184.940471"/>
</g>
<g fill="rgb(83.529663%, 36.863708%, 0%)" fill-opacity="1">
<use xlink:href="#glyph-3-16" x="174.70905" y="184.940471"/>
<use xlink:href="#glyph-3-1" x="178.463888" y="184.940471"/>
<use xlink:href="#glyph-3-17" x="183.153271" y="184.940471"/>
</g>
<g fill="rgb(83.529663%, 36.863708%, 0%)" fill-opacity="1">
<use xlink:href="#glyph-3-18" x="186.673282" y="184.940471"/>
<use xlink:href="#glyph-3-8" x="191.362665" y="184.940471"/>
<use xlink:href="#glyph-3-6" x="195.584775" y="184.940471"/>
</g>
<g fill="rgb(83.529663%, 36.863708%, 0%)" fill-opacity="1">
<use xlink:href="#glyph-3-18" x="204.025822" y="184.940471"/>
<use xlink:href="#glyph-3-8" x="208.715205" y="184.940471"/>
</g>
<g fill="rgb(83.529663%, 36.863708%, 0%)" fill-opacity="1">
<use xlink:href="#glyph-3-11" x="216.221707" y="184.940471"/>
<use xlink:href="#glyph-3-19" x="220.443817" y="184.940471"/>
<use xlink:href="#glyph-3-15" x="225.367233" y="184.940471"/>
<use xlink:href="#glyph-3-20" x="229.229964" y="184.940471"/>
<use xlink:href="#glyph-3-13" x="233.452074" y="184.940471"/>
<use xlink:href="#glyph-3-8" x="238.375489" y="184.940471"/>
</g>
<g fill="rgb(83.529663%, 36.863708%, 0%)" fill-opacity="1">
<use xlink:href="#glyph-3-18" x="242.137467" y="184.940471"/>
<use xlink:href="#glyph-3-3" x="246.826849" y="184.940471"/>
<use xlink:href="#glyph-3-21" x="251.516232" y="184.940471"/>
</g>
</svg>
