<?xml version="1.0" encoding="UTF-8"?>
<svg xmlns="http://www.w3.org/2000/svg" xmlns:xlink="http://www.w3.org/1999/xlink" width="534.981" height="298.184" viewBox="0 0 243.173 135.538">
<defs>
<g>
<g id="glyph-0-0">
<path d="M 4.171875 -0.96875 C 4.171875 -1.15625 4.03125 -1.25 3.828125 -1.25 C 3.71875 -1.25 3.59375 -1.25 3.515625 -1.046875 C 3.453125 -0.90625 3.296875 -0.53125 2.671875 -0.53125 C 1.90625 -0.53125 1.296875 -1.15625 1.296875 -1.9375 C 1.296875 -2.390625 1.578125 -3.34375 2.71875 -3.34375 C 2.875 -3.34375 3 -3.328125 3.03125 -3.328125 C 3.203125 -3.3125 3.21875 -3.3125 3.21875 -3.21875 C 3.25 -2.921875 3.5 -2.828125 3.640625 -2.828125 C 3.875 -2.828125 4.0625 -3.015625 4.0625 -3.25 C 4.0625 -3.921875 3.140625 -3.921875 2.71875 -3.921875 C 1.1875 -3.921875 0.640625 -2.71875 0.640625 -1.9375 C 0.640625 -0.84375 1.515625 0.046875 2.609375 0.046875 C 3.890625 0.046875 4.171875 -0.84375 4.171875 -0.96875 Z M 4.171875 -0.96875 "/>
</g>
<g id="glyph-0-1">
<path d="M 4.640625 -0.296875 C 4.640625 -0.578125 4.390625 -0.578125 4.25 -0.578125 C 4.125 -0.578125 3.9375 -0.578125 3.765625 -0.640625 L 3.765625 -2.53125 C 3.765625 -3.21875 3.21875 -3.921875 1.96875 -3.921875 C 1.5625 -3.921875 0.65625 -3.921875 0.65625 -3.25 C 0.65625 -3 0.859375 -2.828125 1.078125 -2.828125 C 1.21875 -2.828125 1.5 -2.890625 1.5 -3.3125 C 1.75 -3.34375 1.90625 -3.34375 1.984375 -3.34375 C 2.6875 -3.34375 3.09375 -3.046875 3.09375 -2.5 C 1.609375 -2.484375 0.421875 -2.0625 0.421875 -1.1875 C 0.421875 -0.515625 1.046875 0.046875 1.90625 0.046875 C 2.015625 0.046875 2.703125 0.046875 3.1875 -0.296875 C 3.390625 0 3.875 0 4.171875 0 C 4.421875 0 4.640625 0 4.640625 -0.296875 Z M 3.09375 -1.265625 C 3.09375 -1.046875 3.09375 -0.859375 2.75 -0.6875 C 2.421875 -0.53125 2.015625 -0.53125 1.984375 -0.53125 C 1.453125 -0.53125 1.09375 -0.828125 1.09375 -1.1875 C 1.09375 -1.625 2 -1.9375 3.09375 -1.9375 Z M 3.09375 -1.265625 "/>
</g>
<g id="glyph-0-2">
<path d="M 4.359375 -3.328125 C 4.359375 -3.5 4.25 -3.890625 3.5 -3.890625 C 3 -3.890625 2.4375 -3.6875 2 -3.203125 L 2 -3.484375 C 2 -3.765625 1.9375 -3.859375 1.625 -3.859375 L 0.625 -3.859375 C 0.484375 -3.859375 0.234375 -3.859375 0.234375 -3.5625 C 0.234375 -3.265625 0.484375 -3.265625 0.625 -3.265625 L 1.34375 -3.265625 L 1.34375 -0.578125 L 0.625 -0.578125 C 0.484375 -0.578125 0.234375 -0.578125 0.234375 -0.296875 C 0.234375 0 0.484375 0 0.625 0 L 3 0 C 3.125 0 3.375 0 3.375 -0.28125 C 3.375 -0.578125 3.125 -0.578125 3 -0.578125 L 2 -0.578125 L 2 -1.640625 C 2 -2.546875 2.59375 -3.3125 3.5625 -3.3125 C 3.59375 -2.984375 3.84375 -2.921875 3.953125 -2.921875 C 4.171875 -2.921875 4.359375 -3.078125 4.359375 -3.328125 Z M 4.359375 -3.328125 "/>
</g>
<g id="glyph-0-3">
<path d="M 4.546875 -3.4375 C 4.546875 -3.671875 4.359375 -3.953125 3.875 -3.953125 C 3.671875 -3.953125 3.28125 -3.890625 2.953125 -3.640625 C 2.703125 -3.796875 2.390625 -3.890625 2.078125 -3.890625 C 1.25 -3.890625 0.578125 -3.25 0.578125 -2.453125 C 0.578125 -2.125 0.703125 -1.84375 0.859375 -1.625 C 0.78125 -1.484375 0.6875 -1.25 0.6875 -1.015625 C 0.6875 -0.640625 0.875 -0.390625 0.890625 -0.375 C 0.28125 0 0.265625 0.578125 0.265625 0.71875 C 0.265625 1.5 1.203125 2.03125 2.34375 2.03125 C 3.46875 2.03125 4.421875 1.5 4.421875 0.71875 C 4.421875 -0.5625 2.78125 -0.5625 2.515625 -0.5625 L 1.890625 -0.5625 C 1.8125 -0.5625 1.703125 -0.5625 1.625 -0.59375 C 1.484375 -0.59375 1.453125 -0.59375 1.34375 -0.703125 C 1.265625 -0.78125 1.25 -0.890625 1.25 -1.015625 C 1.25 -1.046875 1.25 -1.15625 1.28125 -1.234375 C 1.53125 -1.09375 1.8125 -1.015625 2.078125 -1.015625 C 2.921875 -1.015625 3.578125 -1.671875 3.578125 -2.453125 C 3.578125 -2.75 3.5 -3 3.359375 -3.21875 C 3.546875 -3.328125 3.6875 -3.359375 3.8125 -3.359375 C 3.859375 -3.125 4.046875 -3.0625 4.171875 -3.0625 C 4.375 -3.0625 4.546875 -3.21875 4.546875 -3.4375 Z M 2.921875 -2.453125 C 2.921875 -1.96875 2.53125 -1.59375 2.078125 -1.59375 C 1.625 -1.59375 1.25 -1.96875 1.25 -2.453125 C 1.25 -2.9375 1.625 -3.328125 2.078125 -3.328125 C 2.53125 -3.328125 2.921875 -2.9375 2.921875 -2.453125 Z M 3.875 0.71875 C 3.875 1.078125 3.25 1.46875 2.34375 1.46875 C 1.46875 1.46875 0.8125 1.09375 0.8125 0.71875 C 0.8125 0.390625 1.09375 0.015625 1.5625 -0.015625 L 2.09375 -0.015625 C 2.890625 -0.015625 3.875 -0.015625 3.875 0.71875 Z M 3.875 0.71875 "/>
</g>
<g id="glyph-0-4">
<path d="M 4.1875 1.015625 C 4.1875 0.671875 3.859375 0.671875 3.75 0.671875 L 0.9375 0.671875 C 0.84375 0.671875 0.5 0.671875 0.5 1 C 0.5 1.34375 0.828125 1.34375 0.9375 1.34375 L 3.75 1.34375 C 3.84375 1.34375 4.1875 1.34375 4.1875 1.015625 Z M 4.1875 1.015625 "/>
</g>
<g id="glyph-0-5">
<path d="M 4.609375 -0.28125 C 4.609375 -0.578125 4.375 -0.578125 4.234375 -0.578125 L 3.84375 -0.578125 L 3.84375 -5.078125 C 3.84375 -5.375 3.765625 -5.453125 3.46875 -5.453125 L 2.78125 -5.453125 C 2.65625 -5.453125 2.40625 -5.453125 2.40625 -5.171875 C 2.40625 -4.875 2.65625 -4.875 2.78125 -4.875 L 3.1875 -4.875 L 3.1875 -3.515625 C 2.984375 -3.6875 2.625 -3.890625 2.15625 -3.890625 C 1.15625 -3.890625 0.296875 -3.03125 0.296875 -1.921875 C 0.296875 -0.828125 1.109375 0.046875 2.078125 0.046875 C 2.46875 0.046875 2.859375 -0.109375 3.1875 -0.421875 C 3.1875 -0.15625 3.1875 0 3.5625 0 L 4.234375 0 C 4.359375 0 4.609375 0 4.609375 -0.28125 Z M 3.1875 -1.75 C 3.1875 -1.265625 2.78125 -0.53125 2.109375 -0.53125 C 1.5 -0.53125 0.96875 -1.140625 0.96875 -1.921875 C 0.96875 -2.71875 1.546875 -3.3125 2.203125 -3.3125 C 2.734375 -3.3125 3.1875 -2.84375 3.1875 -2.375 Z M 3.1875 -1.75 "/>
</g>
<g id="glyph-0-6">
<path d="M 4.015625 -1.15625 C 4.015625 -1.46875 3.78125 -1.46875 3.6875 -1.46875 C 3.546875 -1.46875 3.359375 -1.453125 3.359375 -1.15625 C 3.328125 -0.734375 2.96875 -0.53125 2.671875 -0.53125 C 2.015625 -0.53125 2.015625 -1.015625 2.015625 -1.234375 L 2.015625 -3.265625 L 3.4375 -3.265625 C 3.5625 -3.265625 3.8125 -3.265625 3.8125 -3.5625 C 3.8125 -3.859375 3.5625 -3.859375 3.4375 -3.859375 L 2.015625 -3.859375 L 2.015625 -4.578125 C 2.015625 -4.75 2.015625 -4.953125 1.6875 -4.953125 C 1.34375 -4.953125 1.34375 -4.75 1.34375 -4.5625 L 1.34375 -3.859375 L 0.609375 -3.859375 C 0.46875 -3.859375 0.21875 -3.859375 0.21875 -3.5625 C 0.21875 -3.265625 0.46875 -3.265625 0.59375 -3.265625 L 1.34375 -3.265625 L 1.34375 -1.203125 C 1.34375 -0.265625 2 0.046875 2.625 0.046875 C 3.390625 0.046875 4.015625 -0.484375 4.015625 -1.15625 Z M 4.015625 -1.15625 "/>
</g>
<g id="glyph-0-7">
<path d="M 4.109375 -1.125 C 4.109375 -1.5625 3.828125 -1.84375 3.609375 -1.96875 C 3.25 -2.203125 3.03125 -2.25 2.1875 -2.375 C 1.8125 -2.4375 1.21875 -2.53125 1.21875 -2.859375 C 1.21875 -3.09375 1.515625 -3.34375 2.328125 -3.34375 C 3.140625 -3.34375 3.15625 -3.03125 3.171875 -2.84375 C 3.1875 -2.59375 3.4375 -2.59375 3.5 -2.59375 C 3.828125 -2.59375 3.828125 -2.796875 3.828125 -2.96875 L 3.828125 -3.546875 C 3.828125 -3.6875 3.828125 -3.921875 3.546875 -3.921875 C 3.34375 -3.921875 3.296875 -3.8125 3.265625 -3.75 C 2.9375 -3.921875 2.5 -3.921875 2.34375 -3.921875 C 0.78125 -3.921875 0.640625 -3.109375 0.640625 -2.859375 C 0.640625 -2.390625 1 -2.171875 1.109375 -2.09375 C 1.40625 -1.90625 1.65625 -1.875 2.578125 -1.71875 C 2.8125 -1.6875 3.515625 -1.578125 3.515625 -1.125 C 3.515625 -0.84375 3.265625 -0.53125 2.40625 -0.53125 C 1.859375 -0.53125 1.5 -0.71875 1.328125 -1.25 C 1.265625 -1.4375 1.21875 -1.53125 0.96875 -1.53125 C 0.640625 -1.53125 0.640625 -1.328125 0.640625 -1.140625 L 0.640625 -0.328125 C 0.640625 -0.203125 0.640625 0.046875 0.921875 0.046875 C 1.0625 0.046875 1.1875 -0.015625 1.265625 -0.265625 C 1.703125 0.046875 2.21875 0.046875 2.40625 0.046875 C 3.890625 0.046875 4.109375 -0.78125 4.109375 -1.125 Z M 4.109375 -1.125 "/>
</g>
<g id="glyph-0-8">
<path d="M 4.140625 -0.96875 C 4.140625 -1.15625 4.015625 -1.25 3.8125 -1.25 C 3.6875 -1.25 3.578125 -1.25 3.5 -1.046875 C 3.28125 -0.53125 2.703125 -0.53125 2.609375 -0.53125 C 2.09375 -0.53125 1.34375 -0.84375 1.15625 -1.6875 L 3.765625 -1.6875 C 3.953125 -1.6875 4.140625 -1.6875 4.140625 -2.03125 C 4.140625 -3.0625 3.5625 -3.921875 2.40625 -3.921875 C 1.328125 -3.921875 0.46875 -3.015625 0.46875 -1.953125 C 0.46875 -0.84375 1.40625 0.046875 2.546875 0.046875 C 3.75 0.046875 4.140625 -0.765625 4.140625 -0.96875 Z M 3.46875 -2.265625 L 1.171875 -2.265625 C 1.34375 -3 1.90625 -3.34375 2.40625 -3.34375 C 3.03125 -3.34375 3.40625 -2.9375 3.46875 -2.265625 Z M 3.46875 -2.265625 "/>
</g>
<g id="glyph-0-9">
<path d="M 3.90625 0.46875 C 3.90625 0.328125 3.8125 0.28125 3.734375 0.21875 C 2.5625 -0.5625 2.1875 -1.796875 2.1875 -2.71875 C 2.1875 -3.40625 2.375 -3.984375 2.578125 -4.390625 C 2.9375 -5.0625 3.375 -5.4375 3.796875 -5.71875 C 3.859375 -5.75 3.90625 -5.84375 3.90625 -5.9375 C 3.90625 -6.03125 3.859375 -6.203125 3.609375 -6.203125 C 3.40625 -6.203125 2.65625 -5.6875 2.15625 -4.90625 C 1.6875 -4.171875 1.53125 -3.375 1.53125 -2.734375 C 1.53125 -2.140625 1.65625 -1.28125 2.25 -0.4375 C 2.6875 0.203125 3.390625 0.734375 3.609375 0.734375 C 3.859375 0.734375 3.90625 0.5625 3.90625 0.46875 Z M 3.90625 0.46875 "/>
</g>
<g id="glyph-0-10">
<path d="M 3.15625 -2.71875 C 3.15625 -3.328125 3.03125 -4.171875 2.4375 -5.015625 C 2 -5.671875 1.3125 -6.203125 1.078125 -6.203125 C 0.828125 -6.203125 0.78125 -6 0.78125 -5.9375 C 0.78125 -5.796875 0.859375 -5.734375 0.953125 -5.671875 C 2.125 -4.890625 2.5 -3.671875 2.5 -2.734375 C 2.5 -2.0625 2.3125 -1.46875 2.109375 -1.078125 C 1.75 -0.390625 1.3125 -0.03125 0.890625 0.25 C 0.828125 0.296875 0.78125 0.390625 0.78125 0.46875 C 0.78125 0.546875 0.828125 0.734375 1.078125 0.734375 C 1.28125 0.734375 2.03125 0.21875 2.53125 -0.546875 C 3 -1.296875 3.15625 -2.09375 3.15625 -2.71875 Z M 3.15625 -2.71875 "/>
</g>
<g id="glyph-0-11">
<path d="M 4.203125 -0.28125 C 4.203125 -0.578125 3.984375 -0.578125 3.828125 -0.578125 L 2.671875 -0.578125 L 2.671875 -5.078125 C 2.671875 -5.375 2.59375 -5.453125 2.296875 -5.453125 L 0.84375 -5.453125 C 0.71875 -5.453125 0.46875 -5.453125 0.46875 -5.171875 C 0.46875 -4.875 0.703125 -4.875 0.84375 -4.875 L 2.015625 -4.875 L 2.015625 -0.578125 L 0.84375 -0.578125 C 0.71875 -0.578125 0.46875 -0.578125 0.46875 -0.296875 C 0.46875 0 0.703125 0 0.84375 0 L 3.828125 0 C 3.96875 0 4.203125 0 4.203125 -0.28125 Z M 4.203125 -0.28125 "/>
</g>
<g id="glyph-0-12">
<path d="M 4.46875 -3.5625 C 4.46875 -3.859375 4.234375 -3.859375 4.078125 -3.859375 L 3.03125 -3.859375 C 2.90625 -3.859375 2.640625 -3.859375 2.640625 -3.5625 C 2.640625 -3.265625 2.890625 -3.265625 3.03125 -3.265625 L 3.265625 -3.265625 L 2.34375 -0.484375 L 1.421875 -3.265625 L 1.65625 -3.265625 C 1.78125 -3.265625 2.03125 -3.265625 2.03125 -3.5625 C 2.03125 -3.859375 1.78125 -3.859375 1.65625 -3.859375 L 0.59375 -3.859375 C 0.46875 -3.859375 0.21875 -3.859375 0.21875 -3.5625 C 0.21875 -3.265625 0.453125 -3.265625 0.59375 -3.265625 L 0.859375 -3.265625 L 1.84375 -0.28125 C 1.953125 0.046875 2.15625 0.046875 2.34375 0.046875 C 2.515625 0.046875 2.734375 0.046875 2.84375 -0.28125 L 3.828125 -3.265625 L 4.078125 -3.265625 C 4.21875 -3.265625 4.46875 -3.265625 4.46875 -3.5625 Z M 4.46875 -3.5625 "/>
</g>
<g id="glyph-0-13">
<path d="M 4.1875 -1.9375 C 4.1875 -3.03125 3.359375 -3.921875 2.34375 -3.921875 C 1.328125 -3.921875 0.484375 -3.03125 0.484375 -1.9375 C 0.484375 -0.828125 1.34375 0.046875 2.34375 0.046875 C 3.34375 0.046875 4.1875 -0.828125 4.1875 -1.9375 Z M 3.53125 -2 C 3.53125 -1.1875 3 -0.53125 2.34375 -0.53125 C 1.6875 -0.53125 1.15625 -1.1875 1.15625 -2 C 1.15625 -2.78125 1.71875 -3.34375 2.34375 -3.34375 C 2.96875 -3.34375 3.53125 -2.78125 3.53125 -2 Z M 3.53125 -2 "/>
</g>
<g id="glyph-0-14">
<path d="M 4.375 -1.9375 C 4.375 -3 3.609375 -3.890625 2.609375 -3.890625 C 2.1875 -3.890625 1.8125 -3.75 1.5 -3.484375 C 1.5 -3.8125 1.390625 -3.859375 1.125 -3.859375 L 0.453125 -3.859375 C 0.328125 -3.859375 0.078125 -3.859375 0.078125 -3.5625 C 0.078125 -3.265625 0.3125 -3.265625 0.453125 -3.265625 L 0.84375 -3.265625 L 0.84375 1.40625 L 0.453125 1.40625 C 0.328125 1.40625 0.078125 1.40625 0.078125 1.6875 C 0.078125 1.984375 0.3125 1.984375 0.453125 1.984375 L 1.890625 1.984375 C 2.015625 1.984375 2.265625 1.984375 2.265625 1.703125 C 2.265625 1.40625 2.03125 1.40625 1.890625 1.40625 L 1.5 1.40625 L 1.5 -0.390625 C 1.78125 -0.109375 2.125 0.046875 2.515625 0.046875 C 3.515625 0.046875 4.375 -0.796875 4.375 -1.9375 Z M 3.71875 -1.9375 C 3.71875 -1.140625 3.140625 -0.53125 2.484375 -0.53125 C 1.84375 -0.53125 1.5 -1.265625 1.5 -1.71875 L 1.5 -2.34375 C 1.5 -2.875 2.03125 -3.3125 2.578125 -3.3125 C 3.1875 -3.3125 3.71875 -2.703125 3.71875 -1.9375 Z M 3.71875 -1.9375 "/>
</g>
<g id="glyph-0-15">
<path d="M 4.609375 -0.28125 C 4.609375 -0.578125 4.375 -0.578125 4.234375 -0.578125 L 3.84375 -0.578125 L 3.84375 -2.609375 C 3.84375 -3.5 3.40625 -3.890625 2.671875 -3.890625 C 2.25 -3.890625 1.84375 -3.75 1.5 -3.453125 C 1.5 -3.703125 1.5 -3.859375 1.125 -3.859375 L 0.453125 -3.859375 C 0.328125 -3.859375 0.078125 -3.859375 0.078125 -3.5625 C 0.078125 -3.265625 0.3125 -3.265625 0.453125 -3.265625 L 0.84375 -3.265625 L 0.84375 -0.578125 L 0.453125 -0.578125 C 0.328125 -0.578125 0.078125 -0.578125 0.078125 -0.296875 C 0.078125 0 0.3125 0 0.453125 0 L 1.890625 0 C 2.015625 0 2.265625 0 2.265625 -0.28125 C 2.265625 -0.578125 2.03125 -0.578125 1.890625 -0.578125 L 1.5 -0.578125 L 1.5 -2.125 C 1.5 -3 2.1875 -3.3125 2.625 -3.3125 C 3.0625 -3.3125 3.1875 -3.09375 3.1875 -2.578125 L 3.1875 -0.578125 L 2.890625 -0.578125 C 2.765625 -0.578125 2.515625 -0.578125 2.515625 -0.296875 C 2.515625 0 2.765625 0 2.890625 0 L 4.234375 0 C 4.359375 0 4.609375 0 4.609375 -0.28125 Z M 4.609375 -0.28125 "/>
</g>
<g id="glyph-0-16">
<path d="M 2.90625 -0.5625 C 2.90625 -0.890625 2.640625 -1.140625 2.34375 -1.140625 C 2.015625 -1.140625 1.78125 -0.859375 1.78125 -0.578125 C 1.78125 -0.234375 2.0625 0 2.34375 0 C 2.671875 0 2.90625 -0.28125 2.90625 -0.5625 Z M 2.90625 -0.5625 "/>
</g>
<g id="glyph-0-17">
<path d="M 4.421875 -0.28125 C 4.421875 -0.578125 4.1875 -0.578125 4.046875 -0.578125 L 3.6875 -0.578125 L 2.578125 -1.984375 L 3.5625 -3.265625 L 3.921875 -3.265625 C 4.046875 -3.265625 4.296875 -3.265625 4.296875 -3.5625 C 4.296875 -3.859375 4.0625 -3.859375 3.921875 -3.859375 L 2.84375 -3.859375 C 2.71875 -3.859375 2.46875 -3.859375 2.46875 -3.5625 C 2.46875 -3.265625 2.6875 -3.265625 2.90625 -3.265625 L 2.3125 -2.4375 L 1.703125 -3.265625 C 1.90625 -3.265625 2.125 -3.265625 2.125 -3.5625 C 2.125 -3.859375 1.890625 -3.859375 1.75 -3.859375 L 0.6875 -3.859375 C 0.546875 -3.859375 0.3125 -3.859375 0.3125 -3.5625 C 0.3125 -3.265625 0.546875 -3.265625 0.6875 -3.265625 L 1.046875 -3.265625 L 2.0625 -1.984375 L 0.984375 -0.578125 L 0.640625 -0.578125 C 0.484375 -0.578125 0.265625 -0.578125 0.265625 -0.28125 C 0.265625 0 0.5 0 0.640625 0 L 1.703125 0 C 1.828125 0 2.078125 0 2.078125 -0.28125 C 2.078125 -0.578125 1.875 -0.578125 1.609375 -0.578125 L 2.3125 -1.625 L 3.046875 -0.578125 C 2.8125 -0.578125 2.59375 -0.578125 2.59375 -0.28125 C 2.59375 0 2.84375 0 2.96875 0 L 4.046875 0 C 4.171875 0 4.421875 0 4.421875 -0.28125 Z M 4.421875 -0.28125 "/>
</g>
<g id="glyph-1-0">
<path d="M 3.8125 -1.0625 C 3.8125 -1.125 3.765625 -1.1875 3.6875 -1.1875 C 3.609375 -1.1875 3.578125 -1.125 3.5625 -1.078125 C 3.265625 -0.171875 2.46875 -0.15625 2.328125 -0.15625 C 1.90625 -0.15625 1.53125 -0.390625 1.328125 -0.703125 C 1.03125 -1.140625 1.03125 -1.671875 1.03125 -2.046875 L 3.578125 -2.046875 C 3.765625 -2.046875 3.8125 -2.046875 3.8125 -2.234375 C 3.8125 -3.15625 3.3125 -4 2.171875 -4 C 1.09375 -4 0.265625 -3.078125 0.265625 -1.96875 C 0.265625 -0.796875 1.203125 0.09375 2.28125 0.09375 C 3.375 0.09375 3.8125 -0.859375 3.8125 -1.0625 Z M 3.203125 -2.265625 L 1.03125 -2.265625 C 1.125 -3.640625 1.921875 -3.78125 2.171875 -3.78125 C 2.65625 -3.78125 3.203125 -3.40625 3.203125 -2.265625 Z M 3.203125 -2.265625 "/>
</g>
<g id="glyph-1-1">
<path d="M 4.890625 0 L 4.890625 -0.28125 C 4.4375 -0.28125 4.203125 -0.28125 4.203125 -0.546875 L 4.203125 -2.265625 C 4.203125 -3.015625 4.203125 -3.265625 3.953125 -3.578125 C 3.75 -3.828125 3.40625 -3.953125 2.953125 -3.953125 C 2.125 -3.953125 1.75 -3.328125 1.625 -3.078125 L 1.609375 -3.078125 L 1.609375 -3.953125 L 0.3125 -3.859375 L 0.3125 -3.578125 C 0.921875 -3.578125 1 -3.515625 1 -3.078125 L 1 -0.6875 C 1 -0.28125 0.90625 -0.28125 0.3125 -0.28125 L 0.3125 0 C 0.734375 -0.015625 0.90625 -0.03125 1.328125 -0.03125 C 1.765625 -0.03125 1.875 -0.015625 2.34375 0 L 2.34375 -0.28125 C 1.765625 -0.28125 1.65625 -0.28125 1.65625 -0.6875 L 1.65625 -2.3125 C 1.65625 -3.265625 2.328125 -3.734375 2.890625 -3.734375 C 3.421875 -3.734375 3.546875 -3.28125 3.546875 -2.75 L 3.546875 -0.6875 C 3.546875 -0.28125 3.4375 -0.28125 2.84375 -0.28125 L 2.84375 0 C 3.265625 -0.015625 3.4375 -0.03125 3.875 -0.03125 C 4.296875 -0.03125 4.421875 -0.015625 4.890625 0 Z M 4.890625 0 "/>
</g>
<g id="glyph-2-0">
<path d="M 4.3125 -0.90625 C 4.265625 -1.015625 4.1875 -1.078125 4.140625 -1.078125 C 4.09375 -1.078125 4.078125 -1.046875 4.015625 -0.96875 C 3.5 -0.328125 2.78125 -0.125 2.375 -0.125 C 1.765625 -0.125 1.671875 -0.796875 1.671875 -1.125 C 1.671875 -1.1875 1.671875 -1.46875 1.8125 -2.046875 L 2.078125 -2.046875 C 2.75 -2.046875 3.203125 -2.125 3.53125 -2.25 C 4.15625 -2.5 4.234375 -3 4.234375 -3.1875 C 4.234375 -3.578125 3.890625 -3.953125 3.28125 -3.953125 C 2.375 -3.953125 1.03125 -3.109375 1.03125 -1.5 C 1.03125 -0.484375 1.59375 0.09375 2.359375 0.09375 C 3.1875 0.09375 3.96875 -0.34375 4.3125 -0.90625 Z M 3.875 -3.1875 C 3.875 -2.265625 2.453125 -2.265625 1.875 -2.265625 C 2.28125 -3.703125 3.15625 -3.734375 3.28125 -3.734375 C 3.6875 -3.734375 3.875 -3.453125 3.875 -3.1875 Z M 3.875 -3.1875 "/>
</g>
<g id="glyph-2-1">
<path d="M 4.46875 -1.28125 C 4.46875 -1.390625 4.359375 -1.390625 4.3125 -1.390625 C 4.1875 -1.390625 4.1875 -1.34375 4.140625 -1.234375 C 3.890625 -0.421875 3.40625 -0.125 3.078125 -0.125 C 2.765625 -0.125 2.640625 -0.375 2.640625 -0.6875 C 2.640625 -0.875 2.671875 -1 2.8125 -1.609375 L 3.125 -2.828125 C 3.28125 -3.4375 3.578125 -3.734375 3.890625 -3.734375 C 4.078125 -3.734375 4.234375 -3.65625 4.296875 -3.609375 C 4.078125 -3.53125 3.96875 -3.359375 3.96875 -3.1875 C 3.96875 -3 4.109375 -2.890625 4.265625 -2.890625 C 4.5 -2.890625 4.703125 -3.09375 4.703125 -3.375 C 4.703125 -3.75 4.328125 -3.953125 3.890625 -3.953125 C 3.4375 -3.953125 3.140625 -3.578125 3.015625 -3.359375 C 2.84375 -3.796875 2.46875 -3.953125 2.140625 -3.953125 C 1.21875 -3.953125 0.71875 -2.78125 0.71875 -2.578125 C 0.71875 -2.46875 0.828125 -2.46875 0.875 -2.46875 C 1 -2.46875 1.015625 -2.5 1.046875 -2.625 C 1.25 -3.28125 1.703125 -3.734375 2.125 -3.734375 C 2.40625 -3.734375 2.546875 -3.46875 2.546875 -3.171875 C 2.546875 -2.984375 2.5 -2.78125 2.375 -2.28125 L 2.0625 -1.078125 C 1.90625 -0.453125 1.640625 -0.125 1.296875 -0.125 C 1.046875 -0.125 0.90625 -0.25 0.90625 -0.25 C 1.125 -0.328125 1.21875 -0.515625 1.21875 -0.671875 C 1.21875 -0.84375 1.078125 -0.953125 0.921875 -0.953125 C 0.703125 -0.953125 0.484375 -0.78125 0.484375 -0.484375 C 0.484375 -0.078125 0.90625 0.09375 1.28125 0.09375 C 1.71875 0.09375 2.015625 -0.234375 2.15625 -0.484375 C 2.3125 -0.140625 2.640625 0.09375 3.046875 0.09375 C 3.984375 0.09375 4.46875 -1.09375 4.46875 -1.28125 Z M 4.46875 -1.28125 "/>
</g>
<g id="glyph-2-2">
<path d="M 4.3125 -0.90625 C 4.265625 -1.015625 4.1875 -1.078125 4.140625 -1.078125 C 4.09375 -1.078125 4.078125 -1.046875 4.015625 -0.96875 C 3.5 -0.328125 2.78125 -0.125 2.375 -0.125 C 1.921875 -0.125 1.640625 -0.46875 1.640625 -1.046875 C 1.640625 -1.4375 1.828125 -2.328125 2.140625 -2.890625 C 2.40625 -3.359375 2.859375 -3.734375 3.3125 -3.734375 C 3.421875 -3.734375 3.796875 -3.703125 3.953125 -3.359375 C 3.5625 -3.3125 3.546875 -2.96875 3.546875 -2.9375 C 3.546875 -2.6875 3.78125 -2.640625 3.84375 -2.640625 C 4.015625 -2.640625 4.296875 -2.78125 4.296875 -3.1875 C 4.296875 -3.609375 3.90625 -3.953125 3.296875 -3.953125 C 2.15625 -3.953125 0.984375 -2.6875 0.984375 -1.390625 C 0.984375 -0.59375 1.46875 0.09375 2.359375 0.09375 C 3.1875 0.09375 3.96875 -0.34375 4.3125 -0.90625 Z M 4.3125 -0.90625 "/>
</g>
<g id="glyph-2-3">
<path d="M 4.671875 -2.53125 C 4.671875 -3.40625 4.1875 -3.953125 3.546875 -3.953125 C 3.0625 -3.953125 2.71875 -3.625 2.4375 -3.34375 C 2.3125 -3.828125 1.921875 -3.953125 1.671875 -3.953125 C 1.375 -3.953125 1.15625 -3.765625 0.984375 -3.4375 C 0.84375 -3.125 0.71875 -2.625 0.71875 -2.578125 C 0.71875 -2.46875 0.828125 -2.46875 0.875 -2.46875 C 1.015625 -2.46875 1.015625 -2.5 1.046875 -2.6875 C 1.234375 -3.390625 1.40625 -3.734375 1.65625 -3.734375 C 1.796875 -3.734375 1.890625 -3.640625 1.890625 -3.375 C 1.890625 -3.1875 1.828125 -2.953125 1.828125 -2.90625 L 0.8125 1.140625 C 0.734375 1.421875 0.671875 1.453125 0.328125 1.453125 C 0.25 1.453125 0.140625 1.453125 0.140625 1.625 C 0.140625 1.65625 0.15625 1.734375 0.265625 1.734375 C 0.484375 1.734375 0.765625 1.703125 1.015625 1.703125 C 1.3125 1.703125 1.625 1.734375 1.890625 1.734375 C 1.9375 1.734375 2.0625 1.734375 2.0625 1.578125 C 2.0625 1.453125 1.953125 1.453125 1.8125 1.453125 C 1.390625 1.453125 1.390625 1.390625 1.390625 1.3125 C 1.390625 1.21875 1.765625 -0.21875 1.8125 -0.390625 C 2 -0.046875 2.265625 0.09375 2.578125 0.09375 C 3.609375 0.09375 4.671875 -1.234375 4.671875 -2.53125 Z M 3.578125 -1.03125 C 3.359375 -0.546875 2.953125 -0.125 2.578125 -0.125 C 2.390625 -0.125 2.234375 -0.21875 2.125 -0.40625 C 1.984375 -0.625 1.953125 -0.953125 1.953125 -0.953125 C 1.953125 -0.953125 1.96875 -1.03125 1.96875 -1.0625 L 2.390625 -2.71875 C 2.46875 -3 2.65625 -3.203125 2.84375 -3.390625 C 3.140625 -3.671875 3.390625 -3.734375 3.515625 -3.734375 C 4.015625 -3.734375 4.046875 -3.046875 4.046875 -2.9375 C 4.046875 -2.46875 3.765625 -1.4375 3.578125 -1.03125 Z M 3.578125 -1.03125 "/>
</g>
<g id="glyph-2-4">
<path d="M 3.046875 -1.28125 C 3.046875 -1.390625 2.9375 -1.390625 2.890625 -1.390625 C 2.765625 -1.390625 2.765625 -1.359375 2.703125 -1.171875 C 2.625 -0.84375 2.375 -0.125 1.890625 -0.125 C 1.8125 -0.125 1.703125 -0.140625 1.703125 -0.375 C 1.703125 -0.53125 1.75 -0.734375 1.84375 -1.015625 C 1.96875 -1.34375 1.96875 -1.359375 2.125 -1.734375 L 2.4375 -2.578125 C 2.515625 -2.78125 2.609375 -3.046875 2.609375 -3.21875 C 2.609375 -3.65625 2.3125 -3.953125 1.90625 -3.953125 C 1.046875 -3.953125 0.71875 -2.65625 0.71875 -2.578125 C 0.71875 -2.46875 0.828125 -2.46875 0.875 -2.46875 C 1 -2.46875 1.015625 -2.515625 1.046875 -2.625 C 1.109375 -2.84375 1.34375 -3.734375 1.875 -3.734375 C 1.96875 -3.734375 2.0625 -3.703125 2.0625 -3.484375 C 2.0625 -3.265625 2 -3.078125 1.84375 -2.65625 L 1.53125 -1.828125 L 1.3125 -1.21875 C 1.25 -1.03125 1.15625 -0.8125 1.15625 -0.640625 C 1.15625 -0.15625 1.5 0.09375 1.875 0.09375 C 2.71875 0.09375 3.046875 -1.21875 3.046875 -1.28125 Z M 3.234375 -5.453125 C 3.234375 -5.703125 3.03125 -5.84375 2.828125 -5.84375 C 2.5625 -5.84375 2.25 -5.59375 2.25 -5.265625 C 2.25 -5.015625 2.453125 -4.875 2.65625 -4.875 C 2.9375 -4.875 3.234375 -5.125 3.234375 -5.453125 Z M 3.234375 -5.453125 "/>
</g>
<g id="glyph-2-5">
<path d="M 4.65625 -2.453125 C 4.65625 -3.3125 4.125 -3.953125 3.296875 -3.953125 C 2.15625 -3.953125 0.984375 -2.6875 0.984375 -1.390625 C 0.984375 -0.546875 1.515625 0.09375 2.34375 0.09375 C 3.515625 0.09375 4.65625 -1.203125 4.65625 -2.453125 Z M 4 -2.796875 C 4 -2.484375 3.828125 -1.46875 3.4375 -0.84375 C 3.140625 -0.40625 2.71875 -0.125 2.34375 -0.125 C 2.03125 -0.125 1.640625 -0.34375 1.640625 -1.0625 C 1.640625 -1.40625 1.828125 -2.34375 2.171875 -2.9375 C 2.46875 -3.4375 2.921875 -3.734375 3.296875 -3.734375 C 3.6875 -3.734375 4 -3.40625 4 -2.796875 Z M 4.90625 -5.953125 C 4.90625 -6.078125 4.8125 -6.21875 4.625 -6.21875 C 4.5 -6.21875 4.4375 -6.15625 4.359375 -6.0625 L 3.078125 -4.8125 C 2.984375 -4.71875 2.96875 -4.703125 2.96875 -4.671875 C 2.96875 -4.59375 3.0625 -4.5 3.125 -4.5 C 3.171875 -4.5 3.25 -4.5625 3.25 -4.5625 L 4.703125 -5.640625 C 4.796875 -5.71875 4.90625 -5.8125 4.90625 -5.953125 Z M 4.90625 -5.953125 "/>
</g>
<g id="glyph-2-6">
<path d="M 5.390625 -1.28125 C 5.390625 -1.390625 5.265625 -1.390625 5.234375 -1.390625 C 5.109375 -1.390625 5.109375 -1.359375 5.046875 -1.171875 C 4.953125 -0.84375 4.703125 -0.125 4.234375 -0.125 C 4.15625 -0.125 4.046875 -0.140625 4.046875 -0.375 C 4.046875 -0.59375 4.140625 -0.875 4.21875 -1.078125 C 4.375 -1.5 4.75 -2.5 4.75 -3 C 4.75 -3.609375 4.390625 -3.953125 3.765625 -3.953125 C 3.125 -3.953125 2.6875 -3.5625 2.453125 -3.265625 C 2.375 -3.71875 2.046875 -3.953125 1.671875 -3.953125 C 1.375 -3.953125 1.15625 -3.765625 0.984375 -3.4375 C 0.84375 -3.125 0.71875 -2.625 0.71875 -2.578125 C 0.71875 -2.46875 0.828125 -2.46875 0.875 -2.46875 C 1.015625 -2.46875 1.015625 -2.5 1.046875 -2.6875 C 1.234375 -3.390625 1.40625 -3.734375 1.65625 -3.734375 C 1.796875 -3.734375 1.890625 -3.640625 1.890625 -3.375 C 1.890625 -3.1875 1.828125 -2.953125 1.828125 -2.90625 L 1.1875 -0.34375 C 1.140625 -0.21875 1.140625 -0.203125 1.140625 -0.15625 C 1.140625 0.015625 1.265625 0.09375 1.40625 0.09375 C 1.6875 0.09375 1.734375 -0.078125 1.84375 -0.578125 L 2.046875 -1.34375 L 2.328125 -2.5 C 2.375 -2.625 2.625 -3.078125 2.828125 -3.296875 C 2.96875 -3.4375 3.265625 -3.734375 3.75 -3.734375 C 4.078125 -3.734375 4.171875 -3.4375 4.171875 -3.140625 C 4.171875 -2.625 3.78125 -1.578125 3.625 -1.171875 C 3.515625 -0.875 3.5 -0.828125 3.5 -0.640625 C 3.5 -0.15625 3.84375 0.09375 4.203125 0.09375 C 5.0625 0.09375 5.390625 -1.21875 5.390625 -1.28125 Z M 5.390625 -1.28125 "/>
</g>
<g id="glyph-2-7">
<path d="M 4.828125 -1.28125 C 4.828125 -1.390625 4.71875 -1.390625 4.6875 -1.390625 C 4.546875 -1.390625 4.546875 -1.34375 4.5 -1.1875 C 4.359375 -0.59375 4.1875 -0.125 3.890625 -0.125 C 3.734375 -0.125 3.671875 -0.265625 3.671875 -0.484375 C 3.671875 -0.578125 3.6875 -0.765625 3.734375 -0.953125 L 4.328125 -3.34375 C 4.375 -3.46875 4.375 -3.484375 4.375 -3.515625 C 4.375 -3.671875 4.25 -3.765625 4.109375 -3.765625 C 4 -3.765625 3.796875 -3.703125 3.75 -3.453125 C 3.65625 -3.625 3.421875 -3.953125 2.96875 -3.953125 C 1.96875 -3.953125 0.890625 -2.65625 0.890625 -1.3125 C 0.890625 -0.390625 1.421875 0.09375 2.015625 0.09375 C 2.546875 0.09375 2.9375 -0.328125 3.109375 -0.515625 C 3.203125 -0.125 3.515625 0.09375 3.890625 0.09375 C 4.296875 0.09375 4.484375 -0.265625 4.5625 -0.40625 C 4.71875 -0.734375 4.828125 -1.25 4.828125 -1.28125 Z M 3.15625 -1.125 C 3.078125 -0.8125 2.515625 -0.125 2.03125 -0.125 C 1.546875 -0.125 1.515625 -0.78125 1.515625 -0.921875 C 1.515625 -1.375 1.78125 -2.359375 1.921875 -2.703125 C 2.15625 -3.265625 2.578125 -3.734375 2.96875 -3.734375 C 3.515625 -3.734375 3.609375 -2.96875 3.609375 -2.90625 C 3.609375 -2.875 3.609375 -2.859375 3.578125 -2.765625 Z M 3.15625 -1.125 "/>
</g>
<g id="glyph-2-8">
<path d="M 3.265625 -1.28125 C 3.265625 -1.390625 3.15625 -1.390625 3.125 -1.390625 C 3.015625 -1.390625 3 -1.359375 2.953125 -1.234375 C 2.703125 -0.609375 2.328125 -0.125 1.890625 -0.125 C 1.796875 -0.125 1.640625 -0.140625 1.640625 -0.484375 C 1.640625 -0.578125 1.671875 -0.765625 1.71875 -0.953125 L 2.375 -3.578125 L 3.140625 -3.578125 C 3.28125 -3.578125 3.390625 -3.578125 3.390625 -3.734375 C 3.390625 -3.859375 3.296875 -3.859375 3.15625 -3.859375 L 2.4375 -3.859375 L 2.765625 -5.171875 C 2.8125 -5.296875 2.8125 -5.3125 2.8125 -5.34375 C 2.8125 -5.5 2.6875 -5.59375 2.546875 -5.59375 C 2.3125 -5.59375 2.203125 -5.390625 2.171875 -5.25 L 1.828125 -3.859375 L 1.0625 -3.859375 C 0.90625 -3.859375 0.8125 -3.859375 0.8125 -3.6875 C 0.8125 -3.578125 0.90625 -3.578125 1.046875 -3.578125 L 1.75 -3.578125 L 1.125 -1.015625 C 1.125 -1.015625 1.078125 -0.84375 1.078125 -0.71875 C 1.078125 -0.3125 1.34375 0.09375 1.875 0.09375 C 2.78125 0.09375 3.265625 -1.203125 3.265625 -1.28125 Z M 3.265625 -1.28125 "/>
</g>
<g id="glyph-2-9">
<path d="M 5.15625 -1.28125 C 5.15625 -1.390625 5.046875 -1.390625 5 -1.390625 C 4.875 -1.390625 4.859375 -1.34375 4.828125 -1.1875 C 4.671875 -0.59375 4.515625 -0.125 4.21875 -0.125 C 4.046875 -0.125 3.984375 -0.265625 3.984375 -0.484375 C 3.984375 -0.578125 4.015625 -0.765625 4.0625 -0.953125 L 4.671875 -3.421875 C 4.703125 -3.546875 4.703125 -3.5625 4.703125 -3.609375 C 4.703125 -3.765625 4.578125 -3.859375 4.453125 -3.859375 C 4.171875 -3.859375 4.09375 -3.578125 4.078125 -3.5 L 3.4375 -0.921875 C 3.375 -0.6875 3.015625 -0.125 2.46875 -0.125 C 2.015625 -0.125 1.984375 -0.59375 1.984375 -0.8125 C 1.984375 -1.28125 2.1875 -1.90625 2.5 -2.734375 C 2.578125 -2.9375 2.609375 -3.03125 2.609375 -3.21875 C 2.609375 -3.65625 2.3125 -3.953125 1.90625 -3.953125 C 1.046875 -3.953125 0.71875 -2.65625 0.71875 -2.578125 C 0.71875 -2.46875 0.828125 -2.46875 0.875 -2.46875 C 1 -2.46875 1.015625 -2.515625 1.046875 -2.625 C 1.109375 -2.84375 1.34375 -3.734375 1.875 -3.734375 C 1.96875 -3.734375 2.0625 -3.703125 2.0625 -3.484375 C 2.0625 -3.25 1.96875 -2.984375 1.90625 -2.8125 C 1.5 -1.71875 1.40625 -1.34375 1.40625 -0.953125 C 1.40625 -0.078125 2.03125 0.09375 2.453125 0.09375 C 2.828125 0.09375 3.15625 -0.078125 3.453125 -0.4375 C 3.59375 -0.046875 3.921875 0.09375 4.203125 0.09375 C 4.625 0.09375 4.8125 -0.265625 4.875 -0.40625 C 5.046875 -0.734375 5.15625 -1.25 5.15625 -1.28125 Z M 5.15625 -1.28125 "/>
</g>
<g id="glyph-2-10">
<path d="M 4.453125 -3.375 C 4.453125 -3.75 4.046875 -3.953125 3.5625 -3.953125 C 3.015625 -3.953125 2.65625 -3.625 2.453125 -3.328125 C 2.34375 -3.734375 2.03125 -3.953125 1.671875 -3.953125 C 1.375 -3.953125 1.15625 -3.765625 0.984375 -3.4375 C 0.84375 -3.125 0.71875 -2.625 0.71875 -2.578125 C 0.71875 -2.46875 0.828125 -2.46875 0.875 -2.46875 C 1.015625 -2.46875 1.015625 -2.5 1.046875 -2.6875 C 1.234375 -3.390625 1.40625 -3.734375 1.65625 -3.734375 C 1.796875 -3.734375 1.890625 -3.640625 1.890625 -3.375 C 1.890625 -3.1875 1.828125 -2.953125 1.828125 -2.90625 L 1.1875 -0.34375 C 1.140625 -0.21875 1.140625 -0.203125 1.140625 -0.15625 C 1.140625 0.015625 1.265625 0.09375 1.40625 0.09375 C 1.53125 0.09375 1.703125 0.046875 1.765625 -0.234375 L 2.34375 -2.5625 C 2.375 -2.625 2.765625 -3.734375 3.546875 -3.734375 C 3.59375 -3.734375 3.84375 -3.734375 4.03125 -3.59375 C 3.765625 -3.5 3.71875 -3.28125 3.71875 -3.1875 C 3.71875 -3 3.859375 -2.890625 4.015625 -2.890625 C 4.25 -2.890625 4.453125 -3.09375 4.453125 -3.375 Z M 4.453125 -3.375 "/>
</g>
</g>
<clipPath id="clip-0">
<path clip-rule="nonzero" d="M 148 48 L 242.347656 48 L 242.347656 85 L 148 85 Z M 148 48 "/>
</clipPath>
</defs>
<path fill-rule="nonzero" fill="rgb(87.998962%, 93.363953%, 96.374512%)" fill-opacity="1" stroke-width="0.3985" stroke-linecap="butt" stroke-linejoin="miter" stroke="rgb(39.99939%, 66.822815%, 81.881714%)" stroke-opacity="1" stroke-miterlimit="10" d="M 38.985627 11.338411 L -38.986279 11.338411 C -40.087677 11.338411 -40.981338 10.44475 -40.981338 9.347272 L -40.981338 -9.345133 C -40.981338 -10.446531 -40.087677 -11.340192 -38.986279 -11.340192 L 38.985627 -11.340192 C 40.087025 -11.340192 40.980686 -10.446531 40.980686 -9.345133 L 40.980686 9.347272 C 40.980686 10.44475 40.087025 11.338411 38.985627 11.338411 Z M 38.985627 11.338411 " transform="matrix(0.996603, 0, 0, -0.996603, 44.017903, 15.350675)"/>
<g fill="rgb(0%, 0%, 0%)" fill-opacity="1">
<use xlink:href="#glyph-0-0" x="6.48783" y="17.460484"/>
<use xlink:href="#glyph-0-1" x="11.179199" y="17.460484"/>
<use xlink:href="#glyph-0-2" x="15.870567" y="17.460484"/>
<use xlink:href="#glyph-0-3" x="20.561936" y="17.460484"/>
<use xlink:href="#glyph-0-1" x="25.253305" y="17.460484"/>
<use xlink:href="#glyph-0-2" x="29.944674" y="17.460484"/>
<use xlink:href="#glyph-0-4" x="34.636043" y="17.460484"/>
<use xlink:href="#glyph-0-5" x="39.327411" y="17.460484"/>
<use xlink:href="#glyph-0-1" x="44.01878" y="17.460484"/>
<use xlink:href="#glyph-0-6" x="48.710149" y="17.460484"/>
<use xlink:href="#glyph-0-1" x="53.401518" y="17.460484"/>
<use xlink:href="#glyph-0-7" x="58.092887" y="17.460484"/>
<use xlink:href="#glyph-0-8" x="62.784256" y="17.460484"/>
<use xlink:href="#glyph-0-6" x="67.475624" y="17.460484"/>
<use xlink:href="#glyph-0-9" x="72.166993" y="17.460484"/>
<use xlink:href="#glyph-0-10" x="76.858362" y="17.460484"/>
</g>
<path fill-rule="nonzero" fill="rgb(87.998962%, 93.363953%, 96.374512%)" fill-opacity="1" stroke-width="0.3985" stroke-linecap="butt" stroke-linejoin="miter" stroke="rgb(39.99939%, 66.822815%, 81.881714%)" stroke-opacity="1" stroke-miterlimit="10" d="M 29.190634 -40.082362 L -29.187367 -40.082362 C -30.288765 -40.082362 -31.182426 -40.976023 -31.182426 -42.077421 L -31.182426 -60.769826 C -31.182426 -61.871224 -30.288765 -62.760965 -29.187367 -62.760965 L 29.190634 -62.760965 C 30.288112 -62.760965 31.181773 -61.871224 31.181773 -60.769826 L 31.181773 -42.077421 C 31.181773 -40.976023 30.288112 -40.082362 29.190634 -40.082362 Z M 29.190634 -40.082362 " transform="matrix(0.996603, 0, 0, -0.996603, 44.017903, 15.350675)"/>
<g fill="rgb(0%, 0%, 0%)" fill-opacity="1">
<use xlink:href="#glyph-0-11" x="20.561856" y="69.030699"/>
<use xlink:href="#glyph-0-8" x="25.253225" y="69.030699"/>
<use xlink:href="#glyph-0-8" x="29.944594" y="69.030699"/>
<use xlink:href="#glyph-0-2" x="34.635963" y="69.030699"/>
<use xlink:href="#glyph-0-4" x="39.327332" y="69.030699"/>
<use xlink:href="#glyph-0-0" x="44.018701" y="69.030699"/>
<use xlink:href="#glyph-0-7" x="48.710069" y="69.030699"/>
<use xlink:href="#glyph-0-12" x="53.401438" y="69.030699"/>
<use xlink:href="#glyph-0-9" x="58.092807" y="69.030699"/>
<use xlink:href="#glyph-0-10" x="62.784176" y="69.030699"/>
</g>
<path fill-rule="nonzero" fill="rgb(87.998962%, 93.363953%, 96.374512%)" fill-opacity="1" stroke-width="0.3985" stroke-linecap="butt" stroke-linejoin="miter" stroke="rgb(39.99939%, 66.822815%, 81.881714%)" stroke-opacity="1" stroke-miterlimit="10" d="M 29.190634 -91.507055 L -29.187367 -91.507055 C -30.288765 -91.507055 -31.182426 -92.400716 -31.182426 -93.498194 L -31.182426 -112.190599 C -31.182426 -113.291997 -30.288765 -114.185658 -29.187367 -114.185658 L 29.190634 -114.185658 C 30.288112 -114.185658 31.181773 -113.291997 31.181773 -112.190599 L 31.181773 -93.498194 C 31.181773 -92.400716 30.288112 -91.507055 29.190634 -91.507055 Z M 29.190634 -91.507055 " transform="matrix(0.996603, 0, 0, -0.996603, 44.017903, 15.350675)"/>
<g fill="rgb(0%, 0%, 0%)" fill-opacity="1">
<use xlink:href="#glyph-0-13" x="22.906863" y="119.955116"/>
<use xlink:href="#glyph-0-14" x="27.598232" y="119.955116"/>
<use xlink:href="#glyph-0-8" x="32.289601" y="119.955116"/>
<use xlink:href="#glyph-0-15" x="36.98097" y="119.955116"/>
<use xlink:href="#glyph-0-9" x="41.672338" y="119.955116"/>
<use xlink:href="#glyph-0-16" x="46.363707" y="119.955116"/>
<use xlink:href="#glyph-0-16" x="51.055076" y="119.955116"/>
<use xlink:href="#glyph-0-16" x="55.746445" y="119.955116"/>
<use xlink:href="#glyph-0-10" x="60.437814" y="119.955116"/>
</g>
<path fill-rule="nonzero" fill="rgb(97.033691%, 88.633728%, 81.999207%)" fill-opacity="1" d="M 237.1875 54.316406 L 156.578125 54.316406 C 155.480469 54.316406 154.59375 55.207031 154.59375 56.304688 L 154.59375 76.894531 C 154.59375 77.992188 155.480469 78.878906 156.578125 78.878906 L 237.1875 78.878906 C 238.285156 78.878906 239.171875 77.992188 239.171875 76.894531 L 239.171875 56.304688 C 239.171875 55.207031 238.285156 54.316406 237.1875 54.316406 Z M 237.1875 54.316406 "/>
<g clip-path="url(#clip-0)">
<path fill="none" stroke-width="0.3985" stroke-linecap="butt" stroke-linejoin="miter" stroke="rgb(88.468933%, 55.802917%, 29.998779%)" stroke-opacity="1" stroke-miterlimit="10" d="M 193.828042 -39.098551 L 112.943899 -39.098551 C 111.842501 -39.098551 110.95276 -39.992212 110.95276 -41.09361 L 110.95276 -61.753637 C 110.95276 -62.855035 111.842501 -63.744776 112.943899 -63.744776 L 193.828042 -63.744776 C 194.92944 -63.744776 195.819181 -62.855035 195.819181 -61.753637 L 195.819181 -41.09361 C 195.819181 -39.992212 194.92944 -39.098551 193.828042 -39.098551 Z M 193.828042 -39.098551 " transform="matrix(0.996603, 0, 0, -0.996603, 44.017903, 15.350675)"/>
</g>
<g fill="rgb(0%, 0%, 0%)" fill-opacity="1">
<use xlink:href="#glyph-0-8" x="182.806822" y="62.662407"/>
<use xlink:href="#glyph-0-17" x="187.498191" y="62.662407"/>
<use xlink:href="#glyph-0-0" x="192.18956" y="62.662407"/>
<use xlink:href="#glyph-0-8" x="196.880929" y="62.662407"/>
<use xlink:href="#glyph-0-14" x="201.572297" y="62.662407"/>
<use xlink:href="#glyph-0-6" x="206.263666" y="62.662407"/>
</g>
<g fill="rgb(0%, 0%, 0%)" fill-opacity="1">
<use xlink:href="#glyph-1-0" x="157.899721" y="73.584178"/>
<use xlink:href="#glyph-1-1" x="161.985233" y="73.584178"/>
</g>
<g fill="rgb(0%, 0%, 0%)" fill-opacity="1">
<use xlink:href="#glyph-0-0" x="170.182853" y="73.584178"/>
<use xlink:href="#glyph-0-1" x="174.874221" y="73.584178"/>
<use xlink:href="#glyph-0-2" x="179.56559" y="73.584178"/>
<use xlink:href="#glyph-0-3" x="184.256959" y="73.584178"/>
<use xlink:href="#glyph-0-1" x="188.948328" y="73.584178"/>
<use xlink:href="#glyph-0-2" x="193.639697" y="73.584178"/>
<use xlink:href="#glyph-0-4" x="198.331066" y="73.584178"/>
<use xlink:href="#glyph-0-5" x="203.022434" y="73.584178"/>
<use xlink:href="#glyph-0-1" x="207.713803" y="73.584178"/>
<use xlink:href="#glyph-0-6" x="212.405172" y="73.584178"/>
<use xlink:href="#glyph-0-1" x="217.096541" y="73.584178"/>
<use xlink:href="#glyph-0-7" x="221.78791" y="73.584178"/>
<use xlink:href="#glyph-0-8" x="226.479278" y="73.584178"/>
<use xlink:href="#glyph-0-6" x="231.170647" y="73.584178"/>
</g>
<path fill="none" stroke-width="0.79701" stroke-linecap="butt" stroke-linejoin="miter" stroke="rgb(0%, 0%, 0%)" stroke-opacity="1" stroke-miterlimit="10" d="M 0.00163352 -11.53617 L 0.00163352 -35.429838 " transform="matrix(0.996603, 0, 0, -0.996603, 44.017903, 15.350675)"/>
<path fill-rule="nonzero" fill="rgb(0%, 0%, 0%)" fill-opacity="1" stroke-width="0.79701" stroke-linecap="butt" stroke-linejoin="miter" stroke="rgb(0%, 0%, 0%)" stroke-opacity="1" stroke-miterlimit="10" d="M 5.95163 0.00163352 L 1.287348 1.761518 L 2.831656 0.00163352 L 1.287348 -1.762171 Z M 5.95163 0.00163352 " transform="matrix(0, 0.996603, 0.996603, 0, 44.017903, 48.037338)"/>
<path fill="none" stroke-width="0.79701" stroke-linecap="butt" stroke-linejoin="miter" stroke="rgb(0%, 0%, 0%)" stroke-opacity="1" stroke-miterlimit="10" d="M 0.00163352 -62.960863 L 0.00163352 -86.850612 " transform="matrix(0.996603, 0, 0, -0.996603, 44.017903, 15.350675)"/>
<path fill-rule="nonzero" fill="rgb(0%, 0%, 0%)" fill-opacity="1" stroke-width="0.79701" stroke-linecap="butt" stroke-linejoin="miter" stroke="rgb(0%, 0%, 0%)" stroke-opacity="1" stroke-miterlimit="10" d="M 5.953573 0.00163352 L 1.285371 1.761518 L 2.829679 0.00163352 L 1.285371 -1.762171 Z M 5.953573 0.00163352 " transform="matrix(0, 0.996603, 0.996603, 0, 44.017903, 99.285402)"/>
<path fill="none" stroke-width="0.79701" stroke-linecap="butt" stroke-linejoin="miter" stroke="rgb(0%, 0%, 0%)" stroke-opacity="1" stroke-miterlimit="10" d="M 31.381671 -102.846356 C 81.493309 -102.846356 153.38597 -114.056312 153.38597 -68.401219 " transform="matrix(0.996603, 0, 0, -0.996603, 44.017903, 15.350675)"/>
<path fill-rule="nonzero" fill="rgb(0%, 0%, 0%)" fill-opacity="1" stroke-width="0.79701" stroke-linecap="butt" stroke-linejoin="miter" stroke="rgb(0%, 0%, 0%)" stroke-opacity="1" stroke-miterlimit="10" d="M 5.949992 -0.000170385 L 1.28571 1.763634 L 2.830019 -0.000170385 L 1.28571 -1.763975 Z M 5.949992 -0.000170385 " transform="matrix(0, -0.996603, -0.996603, 0, 196.882643, 86.140717)"/>
<g fill="rgb(0%, 0%, 0%)" fill-opacity="1">
<use xlink:href="#glyph-2-0" x="136.053188" y="127.051926"/>
<use xlink:href="#glyph-2-1" x="140.272739" y="127.051926"/>
<use xlink:href="#glyph-2-2" x="144.506588" y="127.051926"/>
</g>
<g fill="rgb(0%, 0%, 0%)" fill-opacity="1">
<use xlink:href="#glyph-2-0" x="148.26147" y="127.051926"/>
<use xlink:href="#glyph-2-3" x="152.481022" y="127.051926"/>
</g>
<g fill="rgb(0%, 0%, 0%)" fill-opacity="1">
<use xlink:href="#glyph-2-2" x="156.696105" y="127.051926"/>
<use xlink:href="#glyph-2-4" x="160.915656" y="127.051926"/>
<use xlink:href="#glyph-2-5" x="163.72869" y="127.051926"/>
<use xlink:href="#glyph-2-6" x="168.417378" y="127.051926"/>
</g>
<path fill="none" stroke-width="0.79701" stroke-linecap="butt" stroke-linejoin="miter" stroke="rgb(0%, 0%, 0%)" stroke-opacity="1" stroke-dasharray="2.98883 2.98883" stroke-miterlimit="10" d="M 153.38597 -38.902573 C 153.38597 7.56779 87.647026 -0.000890422 45.633209 -0.000890422 " transform="matrix(0.996603, 0, 0, -0.996603, 44.017903, 15.350675)"/>
<path fill-rule="nonzero" fill="rgb(0%, 0%, 0%)" fill-opacity="1" stroke-width="0.79701" stroke-linecap="butt" stroke-linejoin="miter" stroke="rgb(0%, 0%, 0%)" stroke-opacity="1" stroke-miterlimit="10" d="M 5.952362 0.000890422 L 1.28808 1.760775 L 2.832389 0.000890422 L 1.28808 -1.762914 Z M 5.952362 0.000890422 " transform="matrix(-0.996603, 0, 0, 0.996603, 92.119642, 15.350675)"/>
<g fill="rgb(0%, 0%, 0%)" fill-opacity="1">
<use xlink:href="#glyph-2-2" x="143.74198" y="11.924354"/>
</g>
<g fill="rgb(0%, 0%, 0%)" fill-opacity="1">
<use xlink:href="#glyph-2-7" x="147.496862" y="11.924354"/>
<use xlink:href="#glyph-2-3" x="152.18555" y="11.924354"/>
<use xlink:href="#glyph-2-8" x="156.874238" y="11.924354"/>
</g>
<g fill="rgb(0%, 0%, 0%)" fill-opacity="1">
<use xlink:href="#glyph-2-9" x="159.913352" y="11.924354"/>
</g>
<g fill="rgb(0%, 0%, 0%)" fill-opacity="1">
<use xlink:href="#glyph-2-10" x="164.845097" y="11.924354"/>
</g>
<g fill="rgb(0%, 0%, 0%)" fill-opacity="1">
<use xlink:href="#glyph-2-7" x="168.239861" y="11.924354"/>
</g>
</svg>
