<?xml version="1.0" encoding="UTF-8"?>
<svg xmlns="http://www.w3.org/2000/svg" xmlns:xlink="http://www.w3.org/1999/xlink" width="788.713" height="471.711" viewBox="0 0 358.506 214.414">
<defs>
<g>
<g id="glyph-0-0">
<path d="M 4.875 -1.140625 C 4.875 -1.21875 4.796875 -1.234375 4.75 -1.234375 C 4.65625 -1.234375 4.640625 -1.1875 4.609375 -1.109375 C 4.421875 -0.453125 4.09375 -0.140625 3.78125 -0.140625 C 3.65625 -0.140625 3.59375 -0.21875 3.59375 -0.40625 C 3.59375 -0.59375 3.65625 -0.765625 3.734375 -0.96875 C 3.859375 -1.265625 4.203125 -2.171875 4.203125 -2.625 C 4.203125 -3.21875 3.796875 -3.5 3.21875 -3.5 C 2.578125 -3.5 2.15625 -3.125 1.9375 -2.8125 C 1.875 -3.25 1.53125 -3.5 1.125 -3.5 C 0.828125 -3.5 0.640625 -3.328125 0.515625 -3.078125 C 0.3125 -2.703125 0.234375 -2.296875 0.234375 -2.296875 C 0.234375 -2.21875 0.296875 -2.1875 0.359375 -2.1875 C 0.46875 -2.1875 0.46875 -2.21875 0.53125 -2.421875 C 0.625 -2.8125 0.765625 -3.28125 1.09375 -3.28125 C 1.296875 -3.28125 1.359375 -3.078125 1.359375 -2.90625 C 1.359375 -2.765625 1.3125 -2.609375 1.25 -2.359375 L 1.078125 -1.703125 L 0.78125 -0.515625 C 0.75 -0.390625 0.703125 -0.203125 0.703125 -0.171875 C 0.703125 0.015625 0.859375 0.078125 0.96875 0.078125 C 1.109375 0.078125 1.21875 -0.015625 1.28125 -0.109375 C 1.296875 -0.15625 1.375 -0.421875 1.40625 -0.59375 L 1.59375 -1.296875 C 1.609375 -1.421875 1.6875 -1.71875 1.71875 -1.84375 C 1.828125 -2.28125 1.828125 -2.28125 2.015625 -2.546875 C 2.28125 -2.9375 2.640625 -3.28125 3.1875 -3.28125 C 3.46875 -3.28125 3.640625 -3.125 3.640625 -2.75 C 3.640625 -2.3125 3.296875 -1.40625 3.15625 -1.015625 C 3.046875 -0.75 3.046875 -0.703125 3.046875 -0.59375 C 3.046875 -0.140625 3.421875 0.078125 3.765625 0.078125 C 4.546875 0.078125 4.875 -1.03125 4.875 -1.140625 Z M 4.875 -1.140625 "/>
</g>
<g id="glyph-0-1">
<path d="M 6.21875 -3.421875 C 6.21875 -4.71875 5.3125 -5.59375 4.03125 -5.59375 C 2.171875 -5.59375 0.40625 -3.765625 0.40625 -1.984375 C 0.40625 -0.765625 1.265625 0.171875 2.59375 0.171875 C 4.375 0.171875 6.21875 -1.546875 6.21875 -3.421875 Z M 5.46875 -3.703125 C 5.46875 -3.265625 5.3125 -2.015625 4.484375 -1.046875 C 4.03125 -0.5 3.34375 -0.09375 2.671875 -0.09375 C 1.859375 -0.09375 1.1875 -0.671875 1.1875 -1.8125 C 1.1875 -1.9375 1.1875 -3.265625 2.109375 -4.390625 C 2.40625 -4.75 3.125 -5.359375 3.984375 -5.359375 C 4.765625 -5.359375 5.46875 -4.796875 5.46875 -3.703125 Z M 5.46875 -3.703125 "/>
</g>
<g id="glyph-1-0">
<path d="M 4.296875 -2.15625 C 4.296875 -2.984375 3.734375 -3.5 3.015625 -3.5 C 2 -3.5 0.921875 -2.4375 0.921875 -1.265625 C 0.921875 -0.390625 1.515625 0.078125 2.171875 0.078125 C 3.234375 0.078125 4.296875 -1.015625 4.296875 -2.15625 Z M 3.703125 -2.4375 C 3.703125 -2.1875 3.578125 -1.421875 3.25 -0.875 C 3 -0.4375 2.5625 -0.140625 2.1875 -0.140625 C 1.890625 -0.140625 1.515625 -0.34375 1.515625 -0.984375 C 1.515625 -1.34375 1.671875 -2.09375 1.9375 -2.53125 C 2.28125 -3.109375 2.75 -3.28125 3.015625 -3.28125 C 3.390625 -3.28125 3.703125 -3 3.703125 -2.4375 Z M 3.703125 -2.4375 "/>
</g>
<g id="glyph-1-1">
<path d="M 4.296875 -2.234375 C 4.296875 -3.09375 3.78125 -3.5 3.25 -3.5 C 2.8125 -3.5 2.4375 -3.1875 2.234375 -2.96875 C 2.125 -3.34375 1.8125 -3.5 1.515625 -3.5 C 1.25 -3.5 1.0625 -3.359375 0.90625 -3.078125 C 0.75 -2.8125 0.640625 -2.328125 0.640625 -2.296875 C 0.640625 -2.1875 0.734375 -2.1875 0.78125 -2.1875 C 0.921875 -2.1875 0.921875 -2.21875 0.96875 -2.40625 C 1.09375 -2.875 1.234375 -3.28125 1.5 -3.28125 C 1.71875 -3.28125 1.71875 -3 1.71875 -2.9375 C 1.71875 -2.8125 1.703125 -2.765625 1.703125 -2.71875 L 0.78125 0.984375 C 0.71875 1.234375 0.671875 1.28125 0.375 1.28125 C 0.28125 1.28125 0.1875 1.28125 0.1875 1.4375 C 0.1875 1.46875 0.203125 1.546875 0.296875 1.546875 C 0.359375 1.546875 0.40625 1.515625 0.984375 1.515625 C 1.546875 1.515625 1.671875 1.546875 1.734375 1.546875 C 1.78125 1.546875 1.890625 1.546875 1.890625 1.390625 C 1.890625 1.28125 1.796875 1.28125 1.6875 1.28125 C 1.46875 1.28125 1.296875 1.28125 1.296875 1.171875 C 1.296875 1.125 1.359375 0.921875 1.390625 0.78125 L 1.671875 -0.359375 C 1.859375 -0.0625 2.109375 0.078125 2.40625 0.078125 C 3.3125 0.078125 4.296875 -1.03125 4.296875 -2.234375 Z M 3.328125 -0.953125 C 3.078125 -0.421875 2.703125 -0.140625 2.40625 -0.140625 C 1.890625 -0.140625 1.8125 -0.84375 1.8125 -0.90625 C 1.8125 -0.921875 1.828125 -0.96875 1.84375 -1 L 2.171875 -2.359375 C 2.21875 -2.5 2.21875 -2.515625 2.328125 -2.671875 C 2.6875 -3.140625 3.015625 -3.28125 3.234375 -3.28125 C 3.46875 -3.28125 3.71875 -3.09375 3.71875 -2.546875 C 3.71875 -2.125 3.484375 -1.28125 3.328125 -0.953125 Z M 3.328125 -0.953125 "/>
</g>
<g id="glyph-1-2">
<path d="M 4 -0.796875 C 4 -0.859375 3.890625 -0.96875 3.828125 -0.96875 C 3.78125 -0.96875 3.78125 -0.953125 3.703125 -0.859375 C 3.28125 -0.34375 2.640625 -0.140625 2.21875 -0.140625 C 1.65625 -0.140625 1.53125 -0.6875 1.53125 -1.046875 C 1.53125 -1.234375 1.59375 -1.578125 1.640625 -1.8125 L 2.09375 -1.8125 C 2.421875 -1.8125 3.90625 -1.8125 3.90625 -2.8125 C 3.90625 -3.21875 3.5625 -3.5 3.015625 -3.5 C 2.15625 -3.5 0.953125 -2.765625 0.953125 -1.359375 C 0.953125 -0.625 1.359375 0.078125 2.203125 0.078125 C 3.34375 0.078125 4 -0.6875 4 -0.796875 Z M 3.5625 -2.8125 C 3.5625 -2.03125 2.328125 -2.03125 2.03125 -2.03125 L 1.703125 -2.03125 C 1.96875 -3.015625 2.671875 -3.28125 3.015625 -3.28125 C 3.296875 -3.28125 3.5625 -3.140625 3.5625 -2.8125 Z M 3.5625 -2.8125 "/>
</g>
<g id="glyph-1-3">
<path d="M 4.09375 -2.953125 C 4.09375 -3.421875 3.515625 -3.5 3.25 -3.5 C 2.796875 -3.5 2.453125 -3.25 2.234375 -2.953125 C 2.15625 -3.265625 1.90625 -3.5 1.515625 -3.5 C 1.25 -3.5 1.0625 -3.359375 0.90625 -3.078125 C 0.75 -2.8125 0.640625 -2.328125 0.640625 -2.296875 C 0.640625 -2.1875 0.734375 -2.1875 0.78125 -2.1875 C 0.921875 -2.1875 0.921875 -2.21875 0.96875 -2.40625 C 1.09375 -2.875 1.234375 -3.28125 1.5 -3.28125 C 1.71875 -3.28125 1.71875 -3 1.71875 -2.9375 C 1.71875 -2.828125 1.703125 -2.703125 1.671875 -2.578125 L 1.09375 -0.265625 C 1.078125 -0.1875 1.078125 -0.171875 1.078125 -0.140625 C 1.078125 -0.015625 1.171875 0.078125 1.3125 0.078125 C 1.53125 0.078125 1.609375 -0.109375 1.640625 -0.234375 L 2.125 -2.171875 C 2.15625 -2.296875 2.53125 -3.28125 3.25 -3.28125 C 3.3125 -3.28125 3.546875 -3.28125 3.6875 -3.15625 C 3.4375 -3.0625 3.421875 -2.859375 3.421875 -2.796875 C 3.421875 -2.5625 3.59375 -2.515625 3.703125 -2.515625 C 3.84375 -2.515625 4.09375 -2.625 4.09375 -2.953125 Z M 4.09375 -2.953125 "/>
</g>
<g id="glyph-1-4">
<path d="M 4.5 -1.140625 C 4.5 -1.234375 4.375 -1.234375 4.34375 -1.234375 C 4.203125 -1.234375 4.203125 -1.21875 4.15625 -1.015625 C 4.015625 -0.40625 3.84375 -0.140625 3.625 -0.140625 C 3.40625 -0.140625 3.40625 -0.390625 3.40625 -0.5 C 3.40625 -0.546875 3.40625 -0.625 3.421875 -0.71875 L 3.984375 -2.96875 C 4 -3 4.015625 -3.09375 4.015625 -3.140625 C 4.015625 -3.265625 3.90625 -3.359375 3.78125 -3.359375 C 3.671875 -3.359375 3.484375 -3.28125 3.453125 -3.0625 C 3.28125 -3.34375 3.046875 -3.5 2.71875 -3.5 C 1.78125 -3.5 0.8125 -2.328125 0.8125 -1.1875 C 0.8125 -0.421875 1.265625 0.078125 1.875 0.078125 C 2.34375 0.078125 2.734375 -0.265625 2.890625 -0.46875 C 2.96875 -0.171875 3.234375 0.078125 3.609375 0.078125 C 3.890625 0.078125 4.09375 -0.09375 4.21875 -0.34375 C 4.390625 -0.65625 4.5 -1.140625 4.5 -1.140625 Z M 2.953125 -1.0625 C 2.890625 -0.78125 2.359375 -0.140625 1.890625 -0.140625 C 1.515625 -0.140625 1.40625 -0.546875 1.40625 -0.859375 C 1.40625 -1.234375 1.625 -2.171875 1.828125 -2.546875 C 2.140625 -3.125 2.5 -3.28125 2.71875 -3.28125 C 3.21875 -3.28125 3.3125 -2.609375 3.3125 -2.53125 L 3.28125 -2.421875 Z M 2.953125 -1.0625 "/>
</g>
<g id="glyph-1-5">
<path d="M 4 -0.796875 C 4 -0.859375 3.890625 -0.96875 3.828125 -0.96875 C 3.78125 -0.96875 3.78125 -0.953125 3.703125 -0.859375 C 3.28125 -0.34375 2.640625 -0.140625 2.21875 -0.140625 C 1.796875 -0.140625 1.515625 -0.453125 1.515625 -0.984375 C 1.515625 -1.375 1.6875 -2.09375 1.890625 -2.453125 C 2.265625 -3.125 2.75 -3.28125 3.015625 -3.28125 C 3.125 -3.28125 3.453125 -3.265625 3.609375 -3 C 3.265625 -2.921875 3.265625 -2.625 3.265625 -2.609375 C 3.265625 -2.484375 3.34375 -2.34375 3.546875 -2.34375 C 3.75 -2.34375 3.953125 -2.5 3.953125 -2.828125 C 3.953125 -3.21875 3.578125 -3.5 3.015625 -3.5 C 1.984375 -3.5 0.921875 -2.4375 0.921875 -1.265625 C 0.921875 -0.453125 1.4375 0.078125 2.203125 0.078125 C 3.34375 0.078125 4 -0.6875 4 -0.796875 Z M 4 -0.796875 "/>
</g>
<g id="glyph-1-6">
<path d="M 2.828125 -1.140625 C 2.828125 -1.234375 2.71875 -1.234375 2.671875 -1.234375 C 2.546875 -1.234375 2.53125 -1.203125 2.5 -1.078125 C 2.359375 -0.5625 2.09375 -0.140625 1.75 -0.140625 C 1.609375 -0.140625 1.578125 -0.25 1.578125 -0.390625 C 1.578125 -0.578125 1.625 -0.71875 1.75 -1.046875 L 2.28125 -2.4375 C 2.34375 -2.609375 2.375 -2.6875 2.375 -2.84375 C 2.375 -3.28125 2.046875 -3.5 1.71875 -3.5 C 0.96875 -3.5 0.640625 -2.390625 0.640625 -2.296875 C 0.640625 -2.1875 0.734375 -2.1875 0.78125 -2.1875 C 0.921875 -2.1875 0.921875 -2.21875 0.953125 -2.359375 C 1.078125 -2.765625 1.3125 -3.28125 1.703125 -3.28125 C 1.84375 -3.28125 1.875 -3.1875 1.875 -3.03125 C 1.875 -2.859375 1.828125 -2.703125 1.71875 -2.421875 L 1.15625 -0.953125 C 1.125 -0.859375 1.078125 -0.71875 1.078125 -0.578125 C 1.078125 -0.21875 1.34375 0.078125 1.734375 0.078125 C 2.5 0.078125 2.828125 -1.046875 2.828125 -1.140625 Z M 2.953125 -4.828125 C 2.953125 -5.109375 2.734375 -5.203125 2.578125 -5.203125 C 2.3125 -5.203125 2.046875 -4.953125 2.046875 -4.6875 C 2.046875 -4.453125 2.234375 -4.3125 2.421875 -4.3125 C 2.6875 -4.3125 2.953125 -4.546875 2.953125 -4.828125 Z M 2.953125 -4.828125 "/>
</g>
<g id="glyph-1-7">
<path d="M 5 -1.140625 C 5 -1.234375 4.890625 -1.234375 4.84375 -1.234375 C 4.71875 -1.234375 4.71875 -1.203125 4.671875 -1.078125 C 4.53125 -0.5625 4.265625 -0.140625 3.921875 -0.140625 C 3.78125 -0.140625 3.75 -0.25 3.75 -0.390625 C 3.75 -0.578125 3.8125 -0.75 3.875 -0.90625 C 4.03125 -1.328125 4.359375 -2.1875 4.359375 -2.640625 C 4.359375 -3.328125 3.890625 -3.5 3.453125 -3.5 C 2.78125 -3.5 2.40625 -3.046875 2.25 -2.875 C 2.203125 -3.234375 1.90625 -3.5 1.515625 -3.5 C 1.25 -3.5 1.0625 -3.359375 0.90625 -3.078125 C 0.75 -2.8125 0.640625 -2.328125 0.640625 -2.296875 C 0.640625 -2.1875 0.734375 -2.1875 0.78125 -2.1875 C 0.921875 -2.1875 0.921875 -2.21875 0.96875 -2.40625 C 1.09375 -2.875 1.234375 -3.28125 1.5 -3.28125 C 1.71875 -3.28125 1.71875 -3 1.71875 -2.9375 C 1.71875 -2.828125 1.703125 -2.703125 1.671875 -2.578125 L 1.09375 -0.265625 C 1.078125 -0.1875 1.078125 -0.171875 1.078125 -0.140625 C 1.078125 -0.015625 1.171875 0.078125 1.3125 0.078125 C 1.5625 0.078125 1.609375 -0.109375 1.6875 -0.40625 L 1.859375 -1.09375 C 1.90625 -1.265625 1.90625 -1.28125 1.984375 -1.609375 L 2.109375 -2.125 C 2.15625 -2.265625 2.40625 -2.734375 2.640625 -2.953125 C 2.890625 -3.171875 3.15625 -3.28125 3.421875 -3.28125 C 3.734375 -3.28125 3.828125 -3.0625 3.828125 -2.765625 C 3.828125 -2.296875 3.5 -1.390625 3.34375 -1 C 3.296875 -0.84375 3.25 -0.71875 3.25 -0.578125 C 3.25 -0.21875 3.5 0.078125 3.90625 0.078125 C 4.671875 0.078125 5 -1.03125 5 -1.140625 Z M 5 -1.140625 "/>
</g>
<g id="glyph-1-8">
<path d="M 3.328125 -1.234375 C 3.328125 -1.953125 2.625 -2.09375 2.375 -2.140625 C 2.015625 -2.21875 1.75 -2.28125 1.75 -2.59375 C 1.75 -2.828125 1.953125 -3.28125 2.5625 -3.28125 C 2.828125 -3.28125 3.09375 -3.203125 3.1875 -2.953125 C 2.90625 -2.875 2.90625 -2.625 2.90625 -2.625 C 2.90625 -2.484375 3.015625 -2.390625 3.15625 -2.390625 C 3.1875 -2.390625 3.5 -2.390625 3.5 -2.828125 C 3.5 -3.296875 3.03125 -3.5 2.578125 -3.5 C 1.515625 -3.5 1.25 -2.640625 1.25 -2.34375 C 1.25 -2.125 1.34375 -1.90625 1.515625 -1.78125 C 1.6875 -1.625 1.78125 -1.609375 2.25 -1.5 C 2.421875 -1.46875 2.84375 -1.390625 2.84375 -0.984375 C 2.84375 -0.734375 2.625 -0.140625 1.75 -0.140625 C 1.59375 -0.140625 1.125 -0.171875 0.953125 -0.53125 C 1.3125 -0.59375 1.3125 -0.90625 1.3125 -0.921875 C 1.3125 -1.078125 1.203125 -1.1875 1.03125 -1.1875 C 0.8125 -1.1875 0.625 -1.03125 0.625 -0.6875 C 0.625 -0.25 1.0625 0.078125 1.75 0.078125 C 3 0.078125 3.328125 -0.859375 3.328125 -1.234375 Z M 3.328125 -1.234375 "/>
</g>
<g id="glyph-2-0">
<path d="M 2.8125 1.890625 C 2.8125 1.859375 2.796875 1.859375 2.703125 1.75 C 1.609375 0.71875 1.34375 -0.75 1.34375 -1.984375 C 1.34375 -4.28125 2.28125 -5.359375 2.6875 -5.71875 C 2.796875 -5.828125 2.8125 -5.828125 2.8125 -5.875 C 2.8125 -5.90625 2.78125 -5.96875 2.703125 -5.96875 C 2.5625 -5.96875 2.171875 -5.5625 2.109375 -5.484375 C 1.046875 -4.375 0.8125 -2.9375 0.8125 -1.984375 C 0.8125 -0.203125 1.5625 1.21875 2.640625 1.984375 C 2.71875 1.984375 2.8125 1.984375 2.8125 1.890625 Z M 2.8125 1.890625 "/>
</g>
<g id="glyph-2-1">
<path d="M 3.5625 0 L 3.5625 -0.265625 L 3.28125 -0.265625 C 2.515625 -0.265625 2.5 -0.359375 2.5 -0.65625 L 2.5 -5.0625 C 2.5 -5.28125 2.484375 -5.28125 2.265625 -5.28125 C 1.9375 -4.96875 1.515625 -4.78125 0.765625 -4.78125 L 0.765625 -4.515625 C 0.984375 -4.515625 1.40625 -4.515625 1.875 -4.734375 L 1.875 -0.65625 C 1.875 -0.359375 1.84375 -0.265625 1.09375 -0.265625 L 0.8125 -0.265625 L 0.8125 0 C 1.140625 -0.03125 1.828125 -0.03125 2.171875 -0.03125 C 2.53125 -0.03125 3.234375 -0.03125 3.5625 0 Z M 3.5625 0 "/>
</g>
<g id="glyph-2-2">
<path d="M 2.453125 -1.984375 C 2.453125 -2.75 2.328125 -3.65625 1.84375 -4.59375 C 1.453125 -5.328125 0.71875 -5.96875 0.578125 -5.96875 C 0.5 -5.96875 0.484375 -5.90625 0.484375 -5.875 C 0.484375 -5.84375 0.484375 -5.828125 0.578125 -5.71875 C 1.6875 -4.671875 1.9375 -3.21875 1.9375 -1.984375 C 1.9375 0.296875 1 1.375 0.59375 1.734375 C 0.484375 1.84375 0.484375 1.859375 0.484375 1.890625 C 0.484375 1.9375 0.5 1.984375 0.578125 1.984375 C 0.703125 1.984375 1.109375 1.578125 1.171875 1.515625 C 2.234375 0.390625 2.453125 -1.03125 2.453125 -1.984375 Z M 2.453125 -1.984375 "/>
</g>
<g id="glyph-2-3">
<path d="M 2.125 0 L 2.125 -0.265625 C 1.609375 -0.265625 1.515625 -0.265625 1.515625 -0.625 L 1.515625 -5.515625 L 0.328125 -5.4375 L 0.328125 -5.171875 C 0.875 -5.171875 0.9375 -5.109375 0.9375 -4.71875 L 0.9375 -0.625 C 0.9375 -0.265625 0.84375 -0.265625 0.328125 -0.265625 L 0.328125 0 C 0.640625 -0.03125 1.09375 -0.03125 1.21875 -0.03125 C 1.390625 -0.03125 1.8125 -0.03125 2.125 0 Z M 2.125 0 "/>
</g>
<g id="glyph-2-4">
<path d="M 3.984375 -1.6875 C 3.984375 -2.6875 3.15625 -3.546875 2.109375 -3.546875 C 1.0625 -3.546875 0.234375 -2.6875 0.234375 -1.6875 C 0.234375 -0.703125 1.09375 0.078125 2.109375 0.078125 C 3.140625 0.078125 3.984375 -0.703125 3.984375 -1.6875 Z M 3.265625 -1.765625 C 3.265625 -1.40625 3.25 -0.96875 3.03125 -0.625 C 2.8125 -0.3125 2.453125 -0.171875 2.109375 -0.171875 C 1.671875 -0.171875 1.34375 -0.375 1.171875 -0.65625 C 0.96875 -0.984375 0.953125 -1.375 0.953125 -1.765625 C 0.953125 -2.0625 0.953125 -2.546875 1.1875 -2.890625 C 1.40625 -3.171875 1.734375 -3.328125 2.109375 -3.328125 C 2.515625 -3.328125 2.859375 -3.125 3.046875 -2.84375 C 3.265625 -2.515625 3.265625 -2.078125 3.265625 -1.765625 Z M 3.265625 -1.765625 "/>
</g>
<g id="glyph-2-5">
<path d="M 4.09375 -3.1875 C 4.09375 -3.328125 4 -3.59375 3.640625 -3.59375 C 3.5 -3.59375 3.125 -3.5625 2.765625 -3.234375 C 2.5625 -3.375 2.25 -3.5 1.875 -3.5 C 1.09375 -3.5 0.515625 -2.953125 0.515625 -2.34375 C 0.515625 -1.96875 0.71875 -1.6875 0.875 -1.53125 C 0.703125 -1.328125 0.640625 -1.078125 0.640625 -0.875 C 0.640625 -0.5625 0.796875 -0.3125 0.984375 -0.171875 C 0.5625 -0.0625 0.234375 0.25 0.234375 0.609375 C 0.234375 1.1875 1.0625 1.625 2.109375 1.625 C 3.109375 1.625 3.984375 1.21875 3.984375 0.59375 C 3.984375 0.171875 3.71875 -0.171875 3.453125 -0.296875 C 2.984375 -0.546875 2.59375 -0.546875 1.828125 -0.546875 L 1.375 -0.546875 C 1.125 -0.578125 0.9375 -0.78125 0.9375 -1.078125 C 0.9375 -1.265625 0.984375 -1.34375 1.03125 -1.40625 C 1.375 -1.203125 1.671875 -1.171875 1.875 -1.171875 C 2.65625 -1.171875 3.234375 -1.71875 3.234375 -2.34375 C 3.234375 -2.640625 3.109375 -2.890625 2.90625 -3.109375 C 3.015625 -3.203125 3.28125 -3.359375 3.671875 -3.375 C 3.640625 -3.34375 3.609375 -3.3125 3.609375 -3.1875 C 3.609375 -3.03125 3.703125 -2.9375 3.84375 -2.9375 C 3.953125 -2.9375 4.09375 -3 4.09375 -3.1875 Z M 2.609375 -2.34375 C 2.609375 -2.046875 2.5625 -1.84375 2.453125 -1.671875 C 2.28125 -1.453125 2.015625 -1.40625 1.875 -1.40625 C 1.140625 -1.40625 1.140625 -2.15625 1.140625 -2.34375 C 1.140625 -2.625 1.171875 -2.84375 1.296875 -3 C 1.4375 -3.1875 1.65625 -3.28125 1.875 -3.28125 C 2.609375 -3.28125 2.609375 -2.515625 2.609375 -2.34375 Z M 3.5 0.609375 C 3.5 1.03125 2.890625 1.40625 2.109375 1.40625 C 1.3125 1.40625 0.703125 1.03125 0.703125 0.609375 C 0.703125 0.4375 0.828125 -0.03125 1.484375 -0.03125 L 2.25 -0.03125 C 2.46875 -0.03125 3.5 -0.03125 3.5 0.609375 Z M 3.5 0.609375 "/>
</g>
<g id="glyph-3-0">
<path d="M 3.21875 -1.109375 L 2.984375 -1.109375 C 2.984375 -1.03125 2.921875 -0.640625 2.828125 -0.578125 C 2.78125 -0.53125 2.296875 -0.53125 2.21875 -0.53125 L 1.109375 -0.53125 L 1.875 -1.15625 C 2.078125 -1.3125 2.609375 -1.703125 2.78125 -1.875 C 2.96875 -2.0625 3.21875 -2.359375 3.21875 -2.78125 C 3.21875 -3.53125 2.53125 -3.96875 1.734375 -3.96875 C 0.96875 -3.96875 0.4375 -3.46875 0.4375 -2.90625 C 0.4375 -2.59375 0.6875 -2.5625 0.75 -2.5625 C 0.90625 -2.5625 1.078125 -2.671875 1.078125 -2.890625 C 1.078125 -3.015625 1 -3.203125 0.734375 -3.203125 C 0.875 -3.515625 1.234375 -3.734375 1.640625 -3.734375 C 2.28125 -3.734375 2.609375 -3.265625 2.609375 -2.78125 C 2.609375 -2.359375 2.328125 -1.921875 1.90625 -1.546875 L 0.5 -0.25 C 0.4375 -0.1875 0.4375 -0.1875 0.4375 0 L 3.03125 0 Z M 3.21875 -1.109375 "/>
</g>
</g>
<clipPath id="clip-0">
<path clip-rule="nonzero" d="M 307 192 L 335 192 L 335 213.828125 L 307 213.828125 Z M 307 192 "/>
</clipPath>
<clipPath id="clip-1">
<path clip-rule="nonzero" d="M 44 25 L 322 25 L 322 213.828125 L 44 213.828125 Z M 44 25 "/>
</clipPath>
</defs>
<path fill="none" stroke-width="0.79701" stroke-linecap="butt" stroke-linejoin="miter" stroke="rgb(0%, 0%, 0%)" stroke-opacity="1" stroke-miterlimit="10" d="M 0.000534754 -0.00165954 L 293.186355 -0.00165954 " transform="matrix(0.997274, 0, 0, -0.997274, 27.956498, 205.82647)"/>
<path fill-rule="nonzero" fill="rgb(0%, 0%, 0%)" fill-opacity="1" d="M 323.65625 205.828125 L 319.003906 204.070312 L 320.542969 205.828125 L 319.003906 207.585938 Z M 323.65625 205.828125 "/>
<g clip-path="url(#clip-0)">
<path fill="none" stroke-width="0.79701" stroke-linecap="butt" stroke-linejoin="miter" stroke="rgb(0%, 0%, 0%)" stroke-opacity="1" stroke-miterlimit="10" d="M 5.953108 -0.00165954 L 1.28805 1.760957 L 2.831319 -0.00165954 L 1.28805 -1.764276 Z M 5.953108 -0.00165954 " transform="matrix(0.997274, 0, 0, -0.997274, 317.719367, 205.82647)"/>
</g>
<g fill="rgb(0%, 0%, 0%)" fill-opacity="1">
<use xlink:href="#glyph-0-0" x="328.491128" y="207.537793"/>
</g>
<path fill="none" stroke-width="0.79701" stroke-linecap="butt" stroke-linejoin="miter" stroke="rgb(0%, 0%, 0%)" stroke-opacity="1" stroke-miterlimit="10" d="M 0.000534754 -0.00165954 L 0.000534754 174.129198 " transform="matrix(0.997274, 0, 0, -0.997274, 27.956498, 205.82647)"/>
<path fill-rule="nonzero" fill="rgb(0%, 0%, 0%)" fill-opacity="1" stroke-width="0.79701" stroke-linecap="butt" stroke-linejoin="miter" stroke="rgb(0%, 0%, 0%)" stroke-opacity="1" stroke-miterlimit="10" d="M 5.952461 -0.000534754 L 1.287403 1.762082 L 2.830672 -0.000534754 L 1.287403 -1.763151 Z M 5.952461 -0.000534754 " transform="matrix(0, -0.997274, -0.997274, 0, 27.956498, 34.795613)"/>
<g fill="rgb(0%, 0%, 0%)" fill-opacity="1">
<use xlink:href="#glyph-1-0" x="6.534046" y="22.476571"/>
<use xlink:href="#glyph-1-1" x="10.894526" y="22.476571"/>
</g>
<g fill="rgb(0%, 0%, 0%)" fill-opacity="1">
<use xlink:href="#glyph-1-2" x="14.817845" y="22.476571"/>
<use xlink:href="#glyph-1-3" x="18.741958" y="22.476571"/>
</g>
<g fill="rgb(0%, 0%, 0%)" fill-opacity="1">
<use xlink:href="#glyph-1-4" x="21.902233" y="22.476571"/>
<use xlink:href="#glyph-1-5" x="26.262712" y="22.476571"/>
</g>
<g fill="rgb(0%, 0%, 0%)" fill-opacity="1">
<use xlink:href="#glyph-1-6" x="30.194774" y="22.476571"/>
</g>
<g fill="rgb(0%, 0%, 0%)" fill-opacity="1">
<use xlink:href="#glyph-1-0" x="32.803432" y="22.476571"/>
</g>
<g fill="rgb(0%, 0%, 0%)" fill-opacity="1">
<use xlink:href="#glyph-1-7" x="37.17186" y="22.476571"/>
<use xlink:href="#glyph-1-2" x="41.968705" y="22.476571"/>
<use xlink:href="#glyph-1-8" x="45.892819" y="22.476571"/>
</g>
<path fill="none" stroke-width="0.79701" stroke-linecap="butt" stroke-linejoin="miter" stroke="rgb(0%, 0%, 0%)" stroke-opacity="1" stroke-miterlimit="10" d="M 28.347327 14.173695 L 283.43321 14.173695 " transform="matrix(0.997274, 0, 0, -0.997274, 27.956498, 205.82647)"/>
<g fill="rgb(0%, 0%, 0%)" fill-opacity="1">
<use xlink:href="#glyph-0-1" x="314.321853" y="193.67867"/>
</g>
<g fill="rgb(0%, 0%, 0%)" fill-opacity="1">
<use xlink:href="#glyph-2-0" x="320.964698" y="193.67867"/>
<use xlink:href="#glyph-2-1" x="324.248967" y="193.67867"/>
<use xlink:href="#glyph-2-2" x="328.47194" y="193.67867"/>
</g>
<path fill="none" stroke-width="0.79701" stroke-linecap="butt" stroke-linejoin="miter" stroke="rgb(0%, 0%, 0%)" stroke-opacity="1" stroke-miterlimit="10" d="M 28.347327 15.591622 L 30.924665 16.700112 L 33.502002 17.72243 L 36.075422 18.666409 L 38.65276 19.547718 L 41.230097 20.370272 L 43.807434 21.141906 L 46.384771 21.870455 L 48.958192 22.559834 L 51.535529 23.21396 L 54.112866 23.836751 L 56.690203 24.428207 L 59.267541 24.996162 L 61.844878 25.540614 L 64.418298 26.061565 L 66.995635 26.562932 L 69.572973 27.044714 L 72.15031 27.506911 L 74.727647 27.953441 L 77.301067 28.388219 L 79.878405 28.803414 L 82.455742 29.210774 L 85.033079 29.602466 L 87.610416 29.982408 L 90.187754 30.354516 L 92.761174 30.710956 L 95.338511 31.059563 L 97.915848 31.400335 L 100.493186 31.733274 L 103.070523 32.054462 L 105.643943 32.371733 L 108.22128 32.677253 L 110.798618 32.978857 L 113.375955 33.272626 L 115.953292 33.558562 L 118.530629 33.84058 L 121.10405 34.114765 L 123.681387 34.381116 L 126.258724 34.64355 L 128.836061 34.902067 L 131.413399 35.156667 L 133.986819 35.403434 L 136.564156 35.646283 L 139.141494 35.885216 L 141.718831 36.120231 L 146.873505 36.574595 L 149.446926 36.797859 L 154.6016 37.228721 L 157.178937 37.440235 L 159.756275 37.647832 L 162.329695 37.851512 L 167.484369 38.251039 L 175.216381 38.826827 L 177.789801 39.010922 L 180.367139 39.195018 L 185.521813 39.555375 L 188.09915 39.72772 L 190.672571 39.903982 L 198.404582 40.409265 L 203.559257 40.738287 L 206.132677 40.898881 L 213.864689 41.368912 L 216.442026 41.517755 L 219.015446 41.670515 L 224.170121 41.968201 L 229.324795 42.258054 L 231.902133 42.399063 L 234.475553 42.540073 L 237.05289 42.681082 L 242.207565 42.955267 L 244.784902 43.088442 L 247.358322 43.225535 L 249.93566 43.354793 L 252.512997 43.487969 L 257.667671 43.746486 L 260.245008 43.871827 L 262.818429 43.997169 L 265.395766 44.122511 L 275.705115 44.60821 L 278.278535 44.725717 L 283.43321 44.960733 " transform="matrix(0.997274, 0, 0, -0.997274, 27.956498, 205.82647)"/>
<g fill="rgb(0%, 0%, 0%)" fill-opacity="1">
<use xlink:href="#glyph-0-1" x="314.321853" y="162.975583"/>
</g>
<g fill="rgb(0%, 0%, 0%)" fill-opacity="1">
<use xlink:href="#glyph-2-0" x="320.964698" y="162.975583"/>
<use xlink:href="#glyph-2-3" x="324.248967" y="162.975583"/>
<use xlink:href="#glyph-2-4" x="326.594533" y="162.975583"/>
<use xlink:href="#glyph-2-5" x="330.817506" y="162.975583"/>
</g>
<g fill="rgb(0%, 0%, 0%)" fill-opacity="1">
<use xlink:href="#glyph-0-0" x="336.539132" y="162.975583"/>
</g>
<g fill="rgb(0%, 0%, 0%)" fill-opacity="1">
<use xlink:href="#glyph-2-2" x="341.663128" y="162.975583"/>
</g>
<path fill="none" stroke-width="0.79701" stroke-linecap="butt" stroke-linejoin="miter" stroke="rgb(0%, 0%, 0%)" stroke-opacity="1" stroke-miterlimit="10" d="M 28.347327 14.173695 L 33.502002 16.751033 L 36.075422 18.039701 L 38.65276 19.32837 L 41.230097 20.613121 L 46.384771 23.190459 L 48.958192 24.479127 L 61.844878 30.92247 L 64.418298 32.211139 L 66.995635 33.499808 L 69.572973 34.784559 L 74.727647 37.361897 L 77.301067 38.650565 L 90.187754 45.093908 L 92.761174 46.382577 L 95.338511 47.671246 L 97.915848 48.955997 L 103.070523 51.533335 L 105.643943 52.822003 L 118.530629 59.265346 L 121.10405 60.554015 L 123.681387 61.842683 L 126.258724 63.127435 L 131.413399 65.704772 L 133.986819 66.993441 L 146.873505 73.436784 L 149.446926 74.725453 L 152.024263 76.014121 L 154.6016 77.298873 L 159.756275 79.87621 L 162.329695 81.164879 L 175.216381 87.608222 L 177.789801 88.896891 L 180.367139 90.185559 L 182.944476 91.470311 L 188.09915 94.047648 L 190.672571 95.336317 L 203.559257 101.77966 L 206.132677 103.068329 L 208.710014 104.356997 L 211.287352 105.641749 L 216.442026 108.219086 L 219.015446 109.507755 L 231.902133 115.951098 L 234.475553 117.239767 L 239.630227 119.817104 L 242.207565 121.101855 L 244.784902 122.390524 L 247.358322 123.679193 L 260.245008 130.122536 L 262.818429 131.411204 L 265.395766 132.699873 L 267.973103 133.984625 L 275.705115 137.850631 L 278.278535 139.139299 L 283.43321 141.716636 " transform="matrix(0.997274, 0, 0, -0.997274, 27.956498, 205.82647)"/>
<g fill="rgb(0%, 0%, 0%)" fill-opacity="1">
<use xlink:href="#glyph-0-1" x="314.321853" y="66.485294"/>
</g>
<g fill="rgb(0%, 0%, 0%)" fill-opacity="1">
<use xlink:href="#glyph-2-0" x="320.964698" y="66.485294"/>
</g>
<g fill="rgb(0%, 0%, 0%)" fill-opacity="1">
<use xlink:href="#glyph-0-0" x="324.248722" y="66.485294"/>
</g>
<g fill="rgb(0%, 0%, 0%)" fill-opacity="1">
<use xlink:href="#glyph-2-2" x="329.372718" y="66.485294"/>
</g>
<path fill="none" stroke-width="0.79701" stroke-linecap="butt" stroke-linejoin="miter" stroke="rgb(0%, 0%, 0%)" stroke-opacity="1" stroke-miterlimit="10" d="M 28.347327 5.670049 L 30.924665 6.422099 L 33.502002 7.23682 L 36.075422 8.106377 L 38.65276 9.022938 L 41.230097 9.994335 L 43.807434 11.008819 L 46.384771 12.062472 L 48.958192 13.159211 L 51.535529 14.29512 L 54.112866 15.462364 L 56.690203 16.668777 L 59.267541 17.906526 L 61.844878 19.17561 L 64.418298 20.476029 L 66.995635 21.803867 L 69.572973 23.159123 L 72.15031 24.541798 L 74.727647 25.947975 L 77.301067 27.381569 L 79.878405 28.838666 L 82.455742 30.319264 L 85.033079 31.823363 L 87.610416 33.347048 L 90.187754 34.894233 L 92.761174 36.457087 L 95.338511 38.043442 L 97.915848 39.649381 L 100.493186 41.278823 L 103.070523 42.920014 L 105.643943 44.580791 L 108.22128 46.261152 L 110.798618 47.953264 L 113.375955 49.668878 L 115.953292 51.404076 L 118.530629 53.147108 L 121.10405 54.909725 L 123.681387 56.688009 L 126.258724 58.478044 L 128.836061 60.283747 L 131.413399 62.105118 L 133.986819 63.938239 L 136.564156 65.790945 L 139.141494 67.651485 L 141.718831 69.527692 L 144.296168 71.41565 L 146.873505 73.319276 L 149.446926 75.230736 L 152.024263 77.157864 L 154.6016 79.096742 L 157.178937 81.047371 L 159.756275 83.013668 L 162.329695 84.987799 L 164.907032 86.97368 L 167.484369 88.971312 L 170.061707 90.980695 L 172.639044 92.997912 L 175.216381 95.02688 L 177.789801 97.071515 L 180.367139 99.120067 L 182.944476 101.18037 L 185.521813 103.252424 L 188.09915 105.332312 L 190.672571 107.42395 L 193.249908 109.527339 L 195.827245 111.634646 L 198.404582 113.757619 L 200.98192 115.88451 L 203.559257 118.023152 L 206.132677 120.177461 L 208.710014 122.335687 L 211.287352 124.501747 L 213.864689 126.671724 L 216.442026 128.857369 L 219.015446 131.050847 L 221.592784 133.248243 L 224.170121 135.457389 L 226.747458 137.678286 L 229.324795 139.907017 L 231.902133 142.139664 L 234.475553 144.380146 L 237.05289 146.632378 L 239.630227 148.888528 L 242.207565 151.152511 L 244.784902 153.424328 L 247.358322 155.707896 L 249.93566 157.995381 L 252.512997 160.290699 L 255.090334 162.593852 L 257.667671 164.904838 L 260.245008 167.219741 L 262.818429 169.546395 L 265.395766 171.876966 L 267.973103 174.215371 L 270.550441 176.561609 L 273.127778 178.911765 L 275.705115 181.273671 L 278.278535 183.639494 L 280.855873 186.013151 L 283.43321 188.394642 " transform="matrix(0.997274, 0, 0, -0.997274, 27.956498, 205.82647)"/>
<g fill="rgb(0%, 0%, 0%)" fill-opacity="1">
<use xlink:href="#glyph-0-1" x="314.321853" y="12.253511"/>
</g>
<g fill="rgb(0%, 0%, 0%)" fill-opacity="1">
<use xlink:href="#glyph-2-0" x="320.964698" y="12.253511"/>
</g>
<g fill="rgb(0%, 0%, 0%)" fill-opacity="1">
<use xlink:href="#glyph-0-0" x="324.248722" y="12.253511"/>
</g>
<g fill="rgb(0%, 0%, 0%)" fill-opacity="1">
<use xlink:href="#glyph-2-3" x="330.78087" y="12.253511"/>
<use xlink:href="#glyph-2-4" x="333.126436" y="12.253511"/>
<use xlink:href="#glyph-2-5" x="337.349408" y="12.253511"/>
</g>
<g fill="rgb(0%, 0%, 0%)" fill-opacity="1">
<use xlink:href="#glyph-0-0" x="343.070282" y="12.253511"/>
</g>
<g fill="rgb(0%, 0%, 0%)" fill-opacity="1">
<use xlink:href="#glyph-2-2" x="348.195276" y="12.253511"/>
</g>
<g clip-path="url(#clip-1)">
<path fill="none" stroke-width="0.79701" stroke-linecap="butt" stroke-linejoin="miter" stroke="rgb(0%, 0%, 0%)" stroke-opacity="1" stroke-miterlimit="10" d="M 28.347327 1.702203 L 30.924665 2.023391 L 33.502002 2.375914 L 36.075422 2.755856 L 38.65276 3.163217 L 41.230097 3.597995 L 43.807434 4.060193 L 46.384771 4.553725 L 48.958192 5.074676 L 51.535529 5.619129 L 54.112866 6.198834 L 56.690203 6.802041 L 59.267541 7.432666 L 61.844878 8.094626 L 64.418298 8.784005 L 66.995635 9.500803 L 69.572973 10.245019 L 72.15031 11.016653 L 74.727647 11.819623 L 77.301067 12.646094 L 79.878405 13.503901 L 82.455742 14.389126 L 85.033079 15.30177 L 87.610416 16.245749 L 90.187754 17.21323 L 92.761174 18.212046 L 95.338511 19.23828 L 97.915848 20.291934 L 100.493186 21.373005 L 103.070523 22.481495 L 105.643943 23.621321 L 108.22128 24.788564 L 110.798618 25.983227 L 113.375955 27.205308 L 115.953292 28.454807 L 118.530629 29.735642 L 121.10405 31.039978 L 123.681387 32.37565 L 126.258724 33.73874 L 128.836061 35.129249 L 131.413399 36.551093 L 133.986819 37.996439 L 136.564156 39.47312 L 139.141494 40.977219 L 141.718831 42.508737 L 144.296168 44.067674 L 146.873505 45.654029 L 149.446926 47.271719 L 152.024263 48.916828 L 154.6016 50.585438 L 157.178937 52.289301 L 159.756275 54.016666 L 162.329695 55.775365 L 164.907032 57.557567 L 167.484369 59.371103 L 170.061707 61.212058 L 172.639044 63.080432 L 175.216381 64.976224 L 177.789801 66.903352 L 180.367139 68.853981 L 182.944476 70.835945 L 185.521813 72.845328 L 188.09915 74.886047 L 190.672571 76.950267 L 193.249908 79.041905 L 195.827245 81.164879 L 198.404582 83.315271 L 200.98192 85.493082 L 203.559257 87.698311 L 206.132677 89.930959 L 208.710014 92.194942 L 211.287352 94.486344 L 213.864689 96.805164 L 216.442026 99.151403 L 219.015446 101.528977 L 221.592784 103.930052 L 224.170121 106.358546 L 226.747458 108.818376 L 229.324795 111.305624 L 231.902133 113.824207 L 234.475553 116.366292 L 237.05289 118.935795 L 239.630227 121.536634 L 242.207565 124.164891 L 244.784902 126.820567 L 247.358322 129.503662 L 249.93566 132.214174 L 252.512997 134.956022 L 255.090334 137.725289 L 257.667671 140.521974 L 260.245008 143.346078 L 262.818429 146.1976 L 265.395766 149.080457 L 267.973103 151.986816 L 270.550441 154.924511 L 273.127778 157.889624 L 275.705115 160.878238 L 278.278535 163.902105 L 280.855873 166.949473 L 283.43321 170.032094 " transform="matrix(0.997274, 0, 0, -0.997274, 27.956498, 205.82647)"/>
</g>
<g fill="rgb(0%, 0%, 0%)" fill-opacity="1">
<use xlink:href="#glyph-0-1" x="290.929784" y="35.714391"/>
</g>
<g fill="rgb(0%, 0%, 0%)" fill-opacity="1">
<use xlink:href="#glyph-2-0" x="297.571632" y="35.714391"/>
</g>
<g fill="rgb(0%, 0%, 0%)" fill-opacity="1">
<use xlink:href="#glyph-0-0" x="300.856654" y="35.714391"/>
</g>
<g fill="rgb(0%, 0%, 0%)" fill-opacity="1">
<use xlink:href="#glyph-3-0" x="305.980649" y="32.909059"/>
</g>
<g fill="rgb(0%, 0%, 0%)" fill-opacity="1">
<use xlink:href="#glyph-2-2" x="310.120336" y="35.714391"/>
</g>
</svg>
