<?xml version="1.0" encoding="UTF-8"?>
<svg xmlns="http://www.w3.org/2000/svg" xmlns:xlink="http://www.w3.org/1999/xlink" width="679.804" height="249.385" viewBox="0 0 309.002 113.357">
<defs>
<g>
<g id="glyph-0-0">
<path d="M 1.96875 -5.125 C 1.96875 -5.4375 1.703125 -5.546875 1.546875 -5.546875 C 1.421875 -5.546875 1.109375 -5.46875 1.140625 -5.046875 L 1.25 -3.25 C 1.265625 -3.03125 1.34375 -2.921875 1.546875 -2.921875 C 1.734375 -2.921875 1.84375 -3.03125 1.84375 -3.25 Z M 3.546875 -5.125 C 3.546875 -5.4375 3.28125 -5.546875 3.125 -5.546875 C 3 -5.546875 2.6875 -5.46875 2.71875 -5.046875 L 2.828125 -3.25 C 2.84375 -3.03125 2.921875 -2.921875 3.125 -2.921875 C 3.3125 -2.921875 3.421875 -3.03125 3.421875 -3.25 Z M 3.546875 -5.125 "/>
</g>
<g id="glyph-0-1">
<path d="M 4.609375 -0.28125 C 4.609375 -0.578125 4.359375 -0.578125 4.234375 -0.578125 L 3.84375 -0.578125 L 3.84375 -5.078125 C 3.84375 -5.375 3.765625 -5.453125 3.46875 -5.453125 L 2.78125 -5.453125 C 2.65625 -5.453125 2.40625 -5.453125 2.40625 -5.171875 C 2.40625 -4.875 2.65625 -4.875 2.78125 -4.875 L 3.171875 -4.875 L 3.171875 -3.515625 C 2.984375 -3.6875 2.625 -3.890625 2.15625 -3.890625 C 1.15625 -3.890625 0.296875 -3.03125 0.296875 -1.921875 C 0.296875 -0.828125 1.109375 0.046875 2.0625 0.046875 C 2.46875 0.046875 2.859375 -0.109375 3.171875 -0.421875 C 3.171875 -0.15625 3.171875 0 3.546875 0 L 4.234375 0 C 4.359375 0 4.609375 0 4.609375 -0.28125 Z M 3.171875 -1.734375 C 3.171875 -1.265625 2.78125 -0.53125 2.109375 -0.53125 C 1.484375 -0.53125 0.96875 -1.140625 0.96875 -1.921875 C 0.96875 -2.71875 1.546875 -3.3125 2.1875 -3.3125 C 2.734375 -3.3125 3.171875 -2.84375 3.171875 -2.359375 Z M 3.171875 -1.734375 "/>
</g>
<g id="glyph-0-2">
<path d="M 4.625 -0.296875 C 4.625 -0.578125 4.390625 -0.578125 4.25 -0.578125 C 4.109375 -0.578125 3.921875 -0.578125 3.75 -0.640625 L 3.75 -2.53125 C 3.75 -3.21875 3.21875 -3.921875 1.96875 -3.921875 C 1.5625 -3.921875 0.65625 -3.921875 0.65625 -3.25 C 0.65625 -2.984375 0.859375 -2.828125 1.078125 -2.828125 C 1.21875 -2.828125 1.484375 -2.875 1.484375 -3.3125 C 1.734375 -3.34375 1.90625 -3.34375 1.984375 -3.34375 C 2.6875 -3.34375 3.09375 -3.046875 3.09375 -2.5 C 1.609375 -2.484375 0.421875 -2.0625 0.421875 -1.1875 C 0.421875 -0.515625 1.046875 0.046875 1.90625 0.046875 C 2.015625 0.046875 2.6875 0.046875 3.171875 -0.296875 C 3.390625 0 3.875 0 4.171875 0 C 4.421875 0 4.625 0 4.625 -0.296875 Z M 3.09375 -1.265625 C 3.09375 -1.046875 3.09375 -0.859375 2.734375 -0.6875 C 2.421875 -0.53125 2.015625 -0.53125 1.984375 -0.53125 C 1.453125 -0.53125 1.09375 -0.828125 1.09375 -1.1875 C 1.09375 -1.625 1.984375 -1.921875 3.09375 -1.9375 Z M 3.09375 -1.265625 "/>
</g>
<g id="glyph-0-3">
<path d="M 4 -1.15625 C 4 -1.46875 3.78125 -1.46875 3.671875 -1.46875 C 3.53125 -1.46875 3.359375 -1.453125 3.34375 -1.15625 C 3.328125 -0.734375 2.96875 -0.53125 2.671875 -0.53125 C 2 -0.53125 2 -1.015625 2 -1.234375 L 2 -3.265625 L 3.421875 -3.265625 C 3.546875 -3.265625 3.796875 -3.265625 3.796875 -3.546875 C 3.796875 -3.84375 3.5625 -3.84375 3.421875 -3.84375 L 2 -3.84375 L 2 -4.5625 C 2 -4.734375 2 -4.9375 1.671875 -4.9375 C 1.34375 -4.9375 1.34375 -4.734375 1.34375 -4.5625 L 1.34375 -3.84375 L 0.609375 -3.84375 C 0.46875 -3.84375 0.21875 -3.84375 0.21875 -3.546875 C 0.21875 -3.265625 0.46875 -3.265625 0.59375 -3.265625 L 1.34375 -3.265625 L 1.34375 -1.203125 C 1.34375 -0.265625 1.984375 0.046875 2.625 0.046875 C 3.390625 0.046875 4 -0.484375 4 -1.15625 Z M 4 -1.15625 "/>
</g>
<g id="glyph-0-4">
<path d="M 4.609375 -0.28125 C 4.609375 -0.578125 4.359375 -0.578125 4.234375 -0.578125 L 3.84375 -0.578125 L 3.84375 -2.609375 C 3.84375 -3.484375 3.40625 -3.890625 2.671875 -3.890625 C 2.25 -3.890625 1.84375 -3.734375 1.5 -3.4375 L 1.5 -5.078125 C 1.5 -5.375 1.421875 -5.453125 1.125 -5.453125 L 0.453125 -5.453125 C 0.328125 -5.453125 0.078125 -5.453125 0.078125 -5.171875 C 0.078125 -4.875 0.3125 -4.875 0.453125 -4.875 L 0.84375 -4.875 L 0.84375 -0.578125 L 0.453125 -0.578125 C 0.328125 -0.578125 0.078125 -0.578125 0.078125 -0.296875 C 0.078125 0 0.3125 0 0.453125 0 L 1.890625 0 C 2.015625 0 2.265625 0 2.265625 -0.28125 C 2.265625 -0.578125 2.03125 -0.578125 1.890625 -0.578125 L 1.5 -0.578125 L 1.5 -2.125 C 1.5 -3 2.171875 -3.3125 2.609375 -3.3125 C 3.046875 -3.3125 3.171875 -3.09375 3.171875 -2.5625 L 3.171875 -0.578125 L 2.890625 -0.578125 C 2.765625 -0.578125 2.5 -0.578125 2.5 -0.296875 C 2.5 0 2.75 0 2.890625 0 L 4.234375 0 C 4.359375 0 4.609375 0 4.609375 -0.28125 Z M 4.609375 -0.28125 "/>
</g>
<g id="glyph-0-5">
<path d="M 4.09375 -1.125 C 4.09375 -1.5625 3.8125 -1.84375 3.609375 -1.96875 C 3.25 -2.1875 3.03125 -2.234375 2.1875 -2.375 C 1.8125 -2.421875 1.21875 -2.53125 1.21875 -2.859375 C 1.21875 -3.09375 1.5 -3.34375 2.3125 -3.34375 C 3.125 -3.34375 3.15625 -3.03125 3.171875 -2.84375 C 3.1875 -2.59375 3.421875 -2.59375 3.5 -2.59375 C 3.828125 -2.59375 3.828125 -2.796875 3.828125 -2.96875 L 3.828125 -3.546875 C 3.828125 -3.671875 3.828125 -3.921875 3.546875 -3.921875 C 3.34375 -3.921875 3.296875 -3.8125 3.265625 -3.75 C 2.921875 -3.921875 2.484375 -3.921875 2.34375 -3.921875 C 0.78125 -3.921875 0.640625 -3.109375 0.640625 -2.859375 C 0.640625 -2.375 1 -2.171875 1.109375 -2.09375 C 1.40625 -1.90625 1.65625 -1.859375 2.578125 -1.71875 C 2.8125 -1.6875 3.515625 -1.5625 3.515625 -1.125 C 3.515625 -0.84375 3.25 -0.53125 2.40625 -0.53125 C 1.859375 -0.53125 1.5 -0.71875 1.328125 -1.25 C 1.265625 -1.421875 1.21875 -1.53125 0.96875 -1.53125 C 0.640625 -1.53125 0.640625 -1.328125 0.640625 -1.140625 L 0.640625 -0.328125 C 0.640625 -0.203125 0.640625 0.046875 0.921875 0.046875 C 1.0625 0.046875 1.1875 -0.015625 1.265625 -0.265625 C 1.703125 0.046875 2.21875 0.046875 2.40625 0.046875 C 3.875 0.046875 4.09375 -0.78125 4.09375 -1.125 Z M 4.09375 -1.125 "/>
</g>
<g id="glyph-0-6">
<path d="M 3.90625 0.46875 C 3.90625 0.328125 3.8125 0.28125 3.734375 0.21875 C 2.546875 -0.5625 2.1875 -1.796875 2.1875 -2.71875 C 2.1875 -3.40625 2.375 -3.984375 2.5625 -4.375 C 2.921875 -5.0625 3.359375 -5.421875 3.78125 -5.703125 C 3.84375 -5.75 3.90625 -5.828125 3.90625 -5.921875 C 3.90625 -6.015625 3.84375 -6.1875 3.609375 -6.1875 C 3.40625 -6.1875 2.65625 -5.671875 2.15625 -4.890625 C 1.671875 -4.15625 1.53125 -3.359375 1.53125 -2.734375 C 1.53125 -2.125 1.65625 -1.28125 2.234375 -0.4375 C 2.671875 0.203125 3.375 0.734375 3.609375 0.734375 C 3.84375 0.734375 3.90625 0.5625 3.90625 0.46875 Z M 3.90625 0.46875 "/>
</g>
<g id="glyph-0-7">
<path d="M 3.15625 -2.71875 C 3.15625 -3.3125 3.03125 -4.171875 2.4375 -5.015625 C 2 -5.65625 1.296875 -6.1875 1.078125 -6.1875 C 0.828125 -6.1875 0.78125 -6 0.78125 -5.921875 C 0.78125 -5.78125 0.859375 -5.71875 0.953125 -5.671875 C 2.125 -4.890625 2.484375 -3.65625 2.484375 -2.734375 C 2.484375 -2.046875 2.296875 -1.46875 2.109375 -1.078125 C 1.75 -0.390625 1.3125 -0.03125 0.890625 0.25 C 0.828125 0.296875 0.78125 0.390625 0.78125 0.46875 C 0.78125 0.546875 0.828125 0.734375 1.078125 0.734375 C 1.28125 0.734375 2.03125 0.21875 2.53125 -0.546875 C 3 -1.296875 3.15625 -2.09375 3.15625 -2.71875 Z M 3.15625 -2.71875 "/>
</g>
<g id="glyph-1-0">
<path d="M 6.359375 -2.234375 C 6.359375 -2.421875 6.1875 -2.421875 6.046875 -2.421875 L 1.078125 -2.421875 C 0.953125 -2.421875 0.765625 -2.421875 0.765625 -2.234375 C 0.765625 -2.046875 0.9375 -2.046875 1.078125 -2.046875 L 6.046875 -2.046875 C 6.171875 -2.046875 6.359375 -2.046875 6.359375 -2.234375 Z M 6.359375 -2.234375 "/>
</g>
<g id="glyph-2-0">
<path d="M 4.453125 -5.75 L 2.234375 -5.75 C 1.109375 -5.75 1.078125 -5.859375 1.046875 -6.03125 L 0.796875 -6.03125 L 0.515625 -4.171875 L 0.765625 -4.171875 C 0.796875 -4.375 0.859375 -4.875 0.984375 -4.984375 C 1.046875 -5.03125 1.75 -5.03125 1.875 -5.03125 L 3.75 -5.03125 L 2.890625 -3.859375 C 1.734375 -2.265625 1.625 -0.8125 1.625 -0.296875 C 1.625 -0.203125 1.625 0.203125 2.03125 0.203125 C 2.453125 0.203125 2.453125 -0.203125 2.453125 -0.3125 L 2.453125 -0.75 C 2.453125 -2.0625 2.65625 -3.09375 3.125 -3.734375 L 4.375 -5.4375 C 4.453125 -5.546875 4.453125 -5.5625 4.453125 -5.75 Z M 4.453125 -5.75 "/>
</g>
<g id="glyph-2-1">
<path d="M 4.1875 -1.515625 C 4.1875 -2.296875 3.578125 -2.953125 2.71875 -3.140625 C 3.546875 -3.453125 3.9375 -4.109375 3.9375 -4.71875 C 3.9375 -5.40625 3.1875 -5.9375 2.25 -5.9375 C 1.328125 -5.9375 0.640625 -5.421875 0.640625 -4.734375 C 0.640625 -4.4375 0.828125 -4.28125 1.09375 -4.28125 C 1.34375 -4.28125 1.53125 -4.453125 1.53125 -4.71875 C 1.53125 -5.03125 1.328125 -5.171875 1.015625 -5.171875 C 1.25 -5.546875 1.796875 -5.71875 2.234375 -5.71875 C 2.96875 -5.71875 3.109375 -5.125 3.109375 -4.703125 C 3.109375 -4.4375 3.0625 -4.015625 2.84375 -3.671875 C 2.5625 -3.28125 2.25 -3.25 1.984375 -3.234375 C 1.765625 -3.21875 1.75 -3.21875 1.671875 -3.21875 C 1.59375 -3.21875 1.53125 -3.203125 1.53125 -3.109375 C 1.53125 -2.984375 1.59375 -2.984375 1.75 -2.984375 L 2.171875 -2.984375 C 2.9375 -2.984375 3.28125 -2.359375 3.28125 -1.515625 C 3.28125 -0.375 2.671875 -0.046875 2.21875 -0.046875 C 2.046875 -0.046875 1.1875 -0.09375 0.78125 -0.765625 C 1.109375 -0.71875 1.359375 -0.9375 1.359375 -1.234375 C 1.359375 -1.53125 1.140625 -1.71875 0.875 -1.71875 C 0.65625 -1.71875 0.390625 -1.59375 0.390625 -1.21875 C 0.390625 -0.421875 1.21875 0.203125 2.25 0.203125 C 3.359375 0.203125 4.1875 -0.609375 4.1875 -1.515625 Z M 4.1875 -1.515625 "/>
</g>
<g id="glyph-2-2">
<path d="M 4.125 -1.78125 C 4.125 -2.859375 3.359375 -3.75 2.375 -3.75 C 1.953125 -3.75 1.515625 -3.609375 1.203125 -3.28125 L 1.203125 -5.046875 C 1.46875 -4.953125 1.75 -4.921875 2.03125 -4.921875 C 3.125 -4.921875 3.765625 -5.703125 3.765625 -5.828125 C 3.765625 -5.90625 3.71875 -5.9375 3.671875 -5.9375 C 3.671875 -5.9375 3.625 -5.9375 3.546875 -5.890625 C 3.125 -5.734375 2.71875 -5.65625 2.34375 -5.65625 C 1.96875 -5.65625 1.5625 -5.734375 1.15625 -5.890625 C 1.0625 -5.9375 1.03125 -5.9375 1.03125 -5.9375 C 0.921875 -5.9375 0.921875 -5.859375 0.921875 -5.703125 L 0.921875 -3.078125 C 0.921875 -2.921875 0.921875 -2.8125 1.046875 -2.8125 C 1.125 -2.8125 1.15625 -2.859375 1.203125 -2.9375 C 1.46875 -3.3125 1.90625 -3.53125 2.359375 -3.53125 C 3.3125 -3.53125 3.3125 -2.15625 3.3125 -1.828125 C 3.3125 -1.546875 3.3125 -1 3.0625 -0.59375 C 2.828125 -0.21875 2.453125 -0.046875 2.109375 -0.046875 C 1.578125 -0.046875 0.984375 -0.390625 0.765625 -1.046875 C 0.765625 -1.046875 0.828125 -1.03125 0.890625 -1.03125 C 1.078125 -1.03125 1.328125 -1.140625 1.328125 -1.46875 C 1.328125 -1.734375 1.140625 -1.90625 0.890625 -1.90625 C 0.703125 -1.90625 0.453125 -1.796875 0.453125 -1.4375 C 0.453125 -0.625 1.140625 0.203125 2.125 0.203125 C 3.203125 0.203125 4.125 -0.671875 4.125 -1.78125 Z M 4.125 -1.78125 "/>
</g>
<g id="glyph-2-3">
<path d="M 4.1875 -1.8125 C 4.1875 -2.9375 3.375 -3.796875 2.359375 -3.796875 C 1.828125 -3.796875 1.453125 -3.484375 1.203125 -2.953125 C 1.203125 -3.859375 1.296875 -4.375 1.53125 -4.828125 C 1.71875 -5.203125 2.15625 -5.71875 2.8125 -5.71875 C 2.984375 -5.71875 3.40625 -5.6875 3.609375 -5.359375 C 3.28125 -5.359375 3.125 -5.1875 3.125 -4.953125 C 3.125 -4.71875 3.296875 -4.546875 3.546875 -4.546875 C 3.796875 -4.546875 3.96875 -4.703125 3.96875 -4.96875 C 3.96875 -5.46875 3.609375 -5.9375 2.796875 -5.9375 C 1.640625 -5.9375 0.390625 -4.8125 0.390625 -2.8125 C 0.390625 -0.40625 1.46875 0.203125 2.3125 0.203125 C 3.296875 0.203125 4.1875 -0.640625 4.1875 -1.8125 Z M 3.375 -1.8125 C 3.375 -1.390625 3.375 -0.953125 3.21875 -0.625 C 2.9375 -0.109375 2.546875 -0.046875 2.296875 -0.046875 C 1.796875 -0.046875 1.5 -0.46875 1.390625 -0.734375 C 1.21875 -1.140625 1.21875 -1.875 1.21875 -2.015625 C 1.21875 -2.609375 1.484375 -3.578125 2.34375 -3.578125 C 2.484375 -3.578125 2.921875 -3.578125 3.21875 -3.03125 C 3.375 -2.6875 3.375 -2.25 3.375 -1.8125 Z M 3.375 -1.8125 "/>
</g>
<g id="glyph-2-4">
<path d="M 4.3125 -1.46875 L 4.3125 -1.75 L 3.40625 -1.75 L 3.40625 -5.796875 C 3.40625 -5.984375 3.40625 -6.046875 3.234375 -6.046875 C 3.125 -6.046875 3.125 -6.03125 3.046875 -5.90625 L 0.265625 -1.75 L 0.265625 -1.46875 L 2.6875 -1.46875 L 2.6875 -0.703125 C 2.6875 -0.375 2.671875 -0.28125 2 -0.28125 L 1.796875 -0.28125 L 1.796875 0 C 2.359375 -0.03125 2.984375 -0.03125 3.046875 -0.03125 C 3.09375 -0.03125 3.734375 -0.03125 4.296875 0 L 4.296875 -0.28125 L 4.109375 -0.28125 C 3.4375 -0.28125 3.40625 -0.375 3.40625 -0.703125 L 3.40625 -1.46875 Z M 2.75 -1.75 L 0.546875 -1.75 L 2.75 -5.046875 Z M 2.75 -1.75 "/>
</g>
<g id="glyph-3-0">
<path d="M 1.75 -0.484375 C 1.75 -0.734375 1.546875 -0.96875 1.265625 -0.96875 C 0.984375 -0.96875 0.78125 -0.734375 0.78125 -0.484375 C 0.78125 -0.21875 0.984375 0 1.265625 0 C 1.546875 0 1.75 -0.21875 1.75 -0.484375 Z M 1.75 -0.484375 "/>
</g>
<g id="glyph-4-0">
<path d="M 4.21875 -2.859375 C 4.21875 -3.453125 4.1875 -4.21875 3.875 -4.890625 C 3.484375 -5.734375 2.8125 -5.9375 2.296875 -5.9375 C 1.75 -5.9375 1.078125 -5.734375 0.6875 -4.875 C 0.40625 -4.25 0.359375 -3.53125 0.359375 -2.859375 C 0.359375 -2.28125 0.375 -1.40625 0.765625 -0.703125 C 1.171875 0.046875 1.875 0.203125 2.28125 0.203125 C 2.859375 0.203125 3.53125 -0.046875 3.90625 -0.875 C 4.171875 -1.46875 4.21875 -2.140625 4.21875 -2.859375 Z M 3.453125 -2.96875 C 3.453125 -2.40625 3.453125 -1.65625 3.359375 -1.140625 C 3.171875 -0.109375 2.515625 -0.03125 2.296875 -0.03125 C 2.03125 -0.03125 1.390625 -0.15625 1.21875 -1.15625 C 1.125 -1.6875 1.125 -2.453125 1.125 -2.96875 C 1.125 -3.5625 1.125 -4.28125 1.234375 -4.765625 C 1.40625 -5.5625 1.984375 -5.71875 2.28125 -5.71875 C 2.625 -5.71875 3.1875 -5.546875 3.359375 -4.703125 C 3.453125 -4.21875 3.453125 -3.53125 3.453125 -2.96875 Z M 3.453125 -2.96875 "/>
</g>
<g id="glyph-4-1">
<path d="M 3.859375 0 L 3.859375 -0.28125 L 3.5625 -0.28125 C 2.734375 -0.28125 2.71875 -0.390625 2.71875 -0.71875 L 2.71875 -5.703125 C 2.71875 -5.921875 2.703125 -5.9375 2.484375 -5.9375 C 1.921875 -5.375 1.109375 -5.375 0.828125 -5.375 L 0.828125 -5.09375 C 1 -5.09375 1.546875 -5.09375 2.03125 -5.328125 L 2.03125 -0.71875 C 2.03125 -0.390625 2 -0.28125 1.171875 -0.28125 L 0.890625 -0.28125 L 0.890625 0 C 1.203125 -0.03125 2 -0.03125 2.359375 -0.03125 C 2.734375 -0.03125 3.53125 -0.03125 3.859375 0 Z M 3.859375 0 "/>
</g>
<g id="glyph-4-2">
<path d="M 4.125 -1.578125 L 3.875 -1.578125 C 3.859375 -1.46875 3.78125 -0.9375 3.671875 -0.796875 C 3.609375 -0.71875 3 -0.71875 2.8125 -0.71875 L 1.234375 -0.71875 L 2.109375 -1.546875 C 3.578125 -2.8125 4.125 -3.296875 4.125 -4.203125 C 4.125 -5.234375 3.28125 -5.9375 2.171875 -5.9375 C 1.15625 -5.9375 0.453125 -5.125 0.453125 -4.3125 C 0.453125 -3.875 0.84375 -3.828125 0.921875 -3.828125 C 1.109375 -3.828125 1.390625 -3.96875 1.390625 -4.296875 C 1.390625 -4.5625 1.203125 -4.75 0.921875 -4.75 C 0.875 -4.75 0.84375 -4.75 0.8125 -4.75 C 1.03125 -5.375 1.59375 -5.671875 2.078125 -5.671875 C 2.984375 -5.671875 3.296875 -4.8125 3.296875 -4.203125 C 3.296875 -3.296875 2.609375 -2.546875 2.1875 -2.09375 L 0.546875 -0.328125 C 0.453125 -0.21875 0.453125 -0.203125 0.453125 0 L 3.875 0 Z M 4.125 -1.578125 "/>
</g>
<g id="glyph-4-3">
<path d="M 4.1875 -1.515625 C 4.1875 -2.296875 3.578125 -2.953125 2.71875 -3.140625 C 3.546875 -3.453125 3.9375 -4.109375 3.9375 -4.71875 C 3.9375 -5.40625 3.1875 -5.9375 2.25 -5.9375 C 1.328125 -5.9375 0.640625 -5.421875 0.640625 -4.734375 C 0.640625 -4.4375 0.828125 -4.28125 1.09375 -4.28125 C 1.34375 -4.28125 1.53125 -4.453125 1.53125 -4.71875 C 1.53125 -5.03125 1.328125 -5.171875 1.015625 -5.171875 C 1.25 -5.546875 1.796875 -5.71875 2.234375 -5.71875 C 2.96875 -5.71875 3.109375 -5.125 3.109375 -4.703125 C 3.109375 -4.4375 3.0625 -4.015625 2.84375 -3.671875 C 2.5625 -3.28125 2.25 -3.25 1.984375 -3.234375 C 1.765625 -3.21875 1.75 -3.21875 1.671875 -3.21875 C 1.59375 -3.21875 1.53125 -3.203125 1.53125 -3.109375 C 1.53125 -2.984375 1.59375 -2.984375 1.75 -2.984375 L 2.171875 -2.984375 C 2.9375 -2.984375 3.28125 -2.359375 3.28125 -1.515625 C 3.28125 -0.375 2.671875 -0.046875 2.21875 -0.046875 C 2.046875 -0.046875 1.1875 -0.09375 0.78125 -0.765625 C 1.109375 -0.71875 1.359375 -0.9375 1.359375 -1.234375 C 1.359375 -1.53125 1.140625 -1.71875 0.875 -1.71875 C 0.65625 -1.71875 0.390625 -1.59375 0.390625 -1.21875 C 0.390625 -0.421875 1.21875 0.203125 2.25 0.203125 C 3.359375 0.203125 4.1875 -0.609375 4.1875 -1.515625 Z M 4.1875 -1.515625 "/>
</g>
<g id="glyph-4-4">
<path d="M 4.3125 -1.46875 L 4.3125 -1.75 L 3.40625 -1.75 L 3.40625 -5.796875 C 3.40625 -5.984375 3.40625 -6.046875 3.234375 -6.046875 C 3.125 -6.046875 3.125 -6.03125 3.046875 -5.90625 L 0.265625 -1.75 L 0.265625 -1.46875 L 2.6875 -1.46875 L 2.6875 -0.703125 C 2.6875 -0.375 2.671875 -0.28125 2 -0.28125 L 1.796875 -0.28125 L 1.796875 0 C 2.359375 -0.03125 2.984375 -0.03125 3.046875 -0.03125 C 3.09375 -0.03125 3.734375 -0.03125 4.296875 0 L 4.296875 -0.28125 L 4.109375 -0.28125 C 3.4375 -0.28125 3.40625 -0.375 3.40625 -0.703125 L 3.40625 -1.46875 Z M 2.75 -1.75 L 0.546875 -1.75 L 2.75 -5.046875 Z M 2.75 -1.75 "/>
</g>
<g id="glyph-4-5">
<path d="M 4.125 -1.78125 C 4.125 -2.859375 3.359375 -3.75 2.375 -3.75 C 1.953125 -3.75 1.515625 -3.609375 1.203125 -3.28125 L 1.203125 -5.046875 C 1.46875 -4.953125 1.75 -4.921875 2.03125 -4.921875 C 3.125 -4.921875 3.765625 -5.703125 3.765625 -5.828125 C 3.765625 -5.90625 3.71875 -5.9375 3.671875 -5.9375 C 3.671875 -5.9375 3.625 -5.9375 3.546875 -5.890625 C 3.125 -5.734375 2.71875 -5.65625 2.34375 -5.65625 C 1.96875 -5.65625 1.5625 -5.734375 1.15625 -5.890625 C 1.0625 -5.9375 1.03125 -5.9375 1.03125 -5.9375 C 0.921875 -5.9375 0.921875 -5.859375 0.921875 -5.703125 L 0.921875 -3.078125 C 0.921875 -2.921875 0.921875 -2.8125 1.046875 -2.8125 C 1.125 -2.8125 1.15625 -2.859375 1.203125 -2.9375 C 1.46875 -3.3125 1.90625 -3.53125 2.359375 -3.53125 C 3.3125 -3.53125 3.3125 -2.15625 3.3125 -1.828125 C 3.3125 -1.546875 3.3125 -1 3.0625 -0.59375 C 2.828125 -0.21875 2.453125 -0.046875 2.109375 -0.046875 C 1.578125 -0.046875 0.984375 -0.390625 0.765625 -1.046875 C 0.765625 -1.046875 0.828125 -1.03125 0.890625 -1.03125 C 1.078125 -1.03125 1.328125 -1.140625 1.328125 -1.46875 C 1.328125 -1.734375 1.140625 -1.90625 0.890625 -1.90625 C 0.703125 -1.90625 0.453125 -1.796875 0.453125 -1.4375 C 0.453125 -0.625 1.140625 0.203125 2.125 0.203125 C 3.203125 0.203125 4.125 -0.671875 4.125 -1.78125 Z M 4.125 -1.78125 "/>
</g>
<g id="glyph-4-6">
<path d="M 4.1875 -1.8125 C 4.1875 -2.9375 3.375 -3.796875 2.359375 -3.796875 C 1.828125 -3.796875 1.453125 -3.484375 1.203125 -2.953125 C 1.203125 -3.859375 1.296875 -4.375 1.53125 -4.828125 C 1.71875 -5.203125 2.15625 -5.71875 2.8125 -5.71875 C 2.984375 -5.71875 3.40625 -5.6875 3.609375 -5.359375 C 3.28125 -5.359375 3.125 -5.1875 3.125 -4.953125 C 3.125 -4.71875 3.296875 -4.546875 3.546875 -4.546875 C 3.796875 -4.546875 3.96875 -4.703125 3.96875 -4.96875 C 3.96875 -5.46875 3.609375 -5.9375 2.796875 -5.9375 C 1.640625 -5.9375 0.390625 -4.8125 0.390625 -2.8125 C 0.390625 -0.40625 1.46875 0.203125 2.3125 0.203125 C 3.296875 0.203125 4.1875 -0.640625 4.1875 -1.8125 Z M 3.375 -1.8125 C 3.375 -1.390625 3.375 -0.953125 3.21875 -0.625 C 2.9375 -0.109375 2.546875 -0.046875 2.296875 -0.046875 C 1.796875 -0.046875 1.5 -0.46875 1.390625 -0.734375 C 1.21875 -1.140625 1.21875 -1.875 1.21875 -2.015625 C 1.21875 -2.609375 1.484375 -3.578125 2.34375 -3.578125 C 2.484375 -3.578125 2.921875 -3.578125 3.21875 -3.03125 C 3.375 -2.6875 3.375 -2.25 3.375 -1.8125 Z M 3.375 -1.8125 "/>
</g>
<g id="glyph-4-7">
<path d="M 4.453125 -5.75 L 2.234375 -5.75 C 1.109375 -5.75 1.078125 -5.859375 1.046875 -6.03125 L 0.796875 -6.03125 L 0.515625 -4.171875 L 0.765625 -4.171875 C 0.796875 -4.375 0.859375 -4.875 0.984375 -4.984375 C 1.046875 -5.03125 1.75 -5.03125 1.875 -5.03125 L 3.75 -5.03125 L 2.890625 -3.859375 C 1.734375 -2.265625 1.625 -0.8125 1.625 -0.296875 C 1.625 -0.203125 1.625 0.203125 2.03125 0.203125 C 2.453125 0.203125 2.453125 -0.203125 2.453125 -0.3125 L 2.453125 -0.75 C 2.453125 -2.0625 2.65625 -3.09375 3.125 -3.734375 L 4.375 -5.4375 C 4.453125 -5.546875 4.453125 -5.5625 4.453125 -5.75 Z M 4.453125 -5.75 "/>
</g>
<g id="glyph-5-0">
<path d="M 3.984375 -0.796875 C 3.984375 -0.859375 3.875 -0.953125 3.8125 -0.953125 C 3.765625 -0.953125 3.765625 -0.9375 3.6875 -0.859375 C 3.265625 -0.34375 2.640625 -0.140625 2.203125 -0.140625 C 1.78125 -0.140625 1.5 -0.4375 1.5 -0.984375 C 1.5 -1.375 1.6875 -2.078125 1.890625 -2.453125 C 2.25 -3.109375 2.734375 -3.265625 3.015625 -3.265625 C 3.109375 -3.265625 3.453125 -3.25 3.59375 -2.984375 C 3.25 -2.921875 3.25 -2.625 3.25 -2.59375 C 3.25 -2.46875 3.328125 -2.34375 3.53125 -2.34375 C 3.734375 -2.34375 3.9375 -2.5 3.9375 -2.8125 C 3.9375 -3.203125 3.5625 -3.5 3.015625 -3.5 C 1.984375 -3.5 0.90625 -2.421875 0.90625 -1.265625 C 0.90625 -0.453125 1.4375 0.078125 2.1875 0.078125 C 3.328125 0.078125 3.984375 -0.6875 3.984375 -0.796875 Z M 3.984375 -0.796875 "/>
</g>
<g id="glyph-5-1">
<path d="M 4.765625 -1.140625 C 4.765625 -1.234375 4.65625 -1.234375 4.625 -1.234375 C 4.484375 -1.234375 4.484375 -1.21875 4.4375 -1.015625 C 4.28125 -0.40625 4.125 -0.140625 3.90625 -0.140625 C 3.6875 -0.140625 3.6875 -0.390625 3.6875 -0.484375 C 3.6875 -0.546875 3.6875 -0.625 3.703125 -0.71875 L 4.28125 -3.03125 C 4.3125 -3.140625 4.3125 -3.15625 4.3125 -3.1875 C 4.3125 -3.328125 4.203125 -3.421875 4.078125 -3.421875 C 3.8125 -3.421875 3.75 -3.171875 3.734375 -3.09375 L 3.203125 -0.921875 C 3.15625 -0.765625 2.828125 -0.140625 2.296875 -0.140625 C 1.828125 -0.140625 1.828125 -0.625 1.828125 -0.765625 C 1.828125 -1.203125 2.03125 -1.75 2.28125 -2.4375 C 2.34375 -2.59375 2.375 -2.671875 2.375 -2.84375 C 2.375 -3.265625 2.046875 -3.5 1.71875 -3.5 C 0.953125 -3.5 0.640625 -2.390625 0.640625 -2.28125 C 0.640625 -2.171875 0.734375 -2.171875 0.78125 -2.171875 C 0.90625 -2.171875 0.921875 -2.203125 0.953125 -2.34375 C 1.09375 -2.84375 1.359375 -3.265625 1.703125 -3.265625 C 1.84375 -3.265625 1.875 -3.171875 1.875 -3.03125 C 1.875 -2.84375 1.8125 -2.671875 1.75 -2.5 C 1.515625 -1.890625 1.296875 -1.3125 1.296875 -0.875 C 1.296875 -0.15625 1.8125 0.078125 2.265625 0.078125 C 2.453125 0.078125 2.796875 0.0625 3.203125 -0.40625 C 3.3125 -0.015625 3.6875 0.078125 3.890625 0.078125 C 4.171875 0.078125 4.359375 -0.09375 4.5 -0.34375 C 4.671875 -0.65625 4.765625 -1.140625 4.765625 -1.140625 Z M 4.765625 -1.140625 "/>
</g>
<g id="glyph-5-2">
<path d="M 3.84375 -2.21875 C 3.84375 -3.078125 3.328125 -3.5 2.796875 -3.5 C 2.4375 -3.5 2.140625 -3.28125 1.921875 -3.09375 L 2.46875 -5.265625 C 2.46875 -5.296875 2.484375 -5.359375 2.484375 -5.390625 C 2.484375 -5.5 2.359375 -5.5 2.28125 -5.484375 L 1.453125 -5.421875 C 1.34375 -5.40625 1.25 -5.40625 1.25 -5.265625 C 1.25 -5.15625 1.34375 -5.15625 1.453125 -5.15625 C 1.84375 -5.15625 1.84375 -5.109375 1.84375 -5.03125 C 1.84375 -4.984375 1.8125 -4.90625 1.8125 -4.859375 L 1.03125 -1.765625 C 1.015625 -1.75 0.953125 -1.453125 0.953125 -1.171875 C 0.953125 -0.421875 1.359375 0.078125 1.953125 0.078125 C 2.875 0.078125 3.84375 -1.046875 3.84375 -2.21875 Z M 2.890625 -0.9375 C 2.625 -0.421875 2.25 -0.140625 1.96875 -0.140625 C 1.59375 -0.140625 1.4375 -0.53125 1.4375 -0.921875 C 1.4375 -1.234375 1.53125 -1.5625 1.734375 -2.34375 C 1.796875 -2.59375 1.953125 -2.78125 2.140625 -2.953125 C 2.234375 -3.03125 2.5 -3.265625 2.78125 -3.265625 C 3.03125 -3.265625 3.265625 -3.078125 3.265625 -2.546875 C 3.265625 -2.125 3.046875 -1.28125 2.890625 -0.9375 Z M 2.890625 -0.9375 "/>
</g>
<g id="glyph-5-3">
<path d="M 3.984375 -0.796875 C 3.984375 -0.859375 3.875 -0.953125 3.8125 -0.953125 C 3.765625 -0.953125 3.765625 -0.9375 3.6875 -0.859375 C 3.265625 -0.34375 2.640625 -0.140625 2.203125 -0.140625 C 1.65625 -0.140625 1.53125 -0.6875 1.53125 -1.046875 C 1.53125 -1.234375 1.578125 -1.5625 1.640625 -1.8125 L 2.09375 -1.8125 C 2.40625 -1.8125 3.890625 -1.8125 3.890625 -2.796875 C 3.890625 -3.203125 3.546875 -3.5 3 -3.5 C 2.140625 -3.5 0.9375 -2.75 0.9375 -1.34375 C 0.9375 -0.625 1.359375 0.078125 2.1875 0.078125 C 3.328125 0.078125 3.984375 -0.6875 3.984375 -0.796875 Z M 3.546875 -2.796875 C 3.546875 -2.03125 2.328125 -2.03125 2.03125 -2.03125 L 1.703125 -2.03125 C 1.96875 -3.015625 2.65625 -3.265625 3 -3.265625 C 3.28125 -3.265625 3.546875 -3.125 3.546875 -2.796875 Z M 3.546875 -2.796875 "/>
</g>
<g id="glyph-5-4">
<path d="M 3.03125 -1.140625 C 3.03125 -1.234375 2.921875 -1.234375 2.890625 -1.234375 C 2.765625 -1.234375 2.75 -1.21875 2.71875 -1.109375 C 2.375 -0.296875 2 -0.140625 1.75 -0.140625 C 1.546875 -0.140625 1.515625 -0.3125 1.515625 -0.484375 C 1.515625 -0.546875 1.515625 -0.625 1.546875 -0.71875 L 2.140625 -3.15625 L 2.875 -3.15625 C 3 -3.15625 3.09375 -3.15625 3.09375 -3.296875 C 3.09375 -3.421875 3 -3.421875 2.875 -3.421875 L 2.203125 -3.421875 L 2.5 -4.5625 C 2.53125 -4.671875 2.53125 -4.6875 2.53125 -4.734375 C 2.53125 -4.90625 2.375 -4.953125 2.296875 -4.953125 C 2.046875 -4.953125 1.984375 -4.71875 1.96875 -4.640625 L 1.65625 -3.421875 L 0.9375 -3.421875 C 0.796875 -3.421875 0.703125 -3.421875 0.703125 -3.265625 C 0.703125 -3.15625 0.8125 -3.15625 0.921875 -3.15625 L 1.59375 -3.15625 L 1.03125 -0.9375 C 1 -0.78125 1 -0.734375 1 -0.65625 C 1 -0.1875 1.34375 0.078125 1.734375 0.078125 C 2.5625 0.078125 3.03125 -1.03125 3.03125 -1.140625 Z M 3.03125 -1.140625 "/>
</g>
<g id="glyph-5-5">
<path d="M 4.46875 -1.140625 C 4.46875 -1.234375 4.359375 -1.234375 4.328125 -1.234375 C 4.1875 -1.234375 4.1875 -1.21875 4.140625 -1.015625 C 4 -0.40625 3.828125 -0.140625 3.609375 -0.140625 C 3.390625 -0.140625 3.390625 -0.390625 3.390625 -0.484375 C 3.390625 -0.546875 3.390625 -0.625 3.421875 -0.71875 L 3.96875 -2.953125 C 3.984375 -3 4 -3.078125 4 -3.125 C 4 -3.25 3.890625 -3.34375 3.765625 -3.34375 C 3.65625 -3.34375 3.484375 -3.265625 3.4375 -3.046875 C 3.265625 -3.328125 3.046875 -3.5 2.703125 -3.5 C 1.78125 -3.5 0.8125 -2.328125 0.8125 -1.1875 C 0.8125 -0.421875 1.265625 0.078125 1.859375 0.078125 C 2.328125 0.078125 2.71875 -0.265625 2.890625 -0.453125 C 2.953125 -0.171875 3.21875 0.078125 3.59375 0.078125 C 3.875 0.078125 4.078125 -0.09375 4.203125 -0.34375 C 4.375 -0.65625 4.46875 -1.140625 4.46875 -1.140625 Z M 2.9375 -1.046875 C 2.875 -0.78125 2.359375 -0.140625 1.890625 -0.140625 C 1.515625 -0.140625 1.390625 -0.546875 1.390625 -0.859375 C 1.390625 -1.234375 1.625 -2.171875 1.828125 -2.53125 C 2.140625 -3.109375 2.484375 -3.265625 2.703125 -3.265625 C 3.203125 -3.265625 3.296875 -2.59375 3.296875 -2.515625 L 3.265625 -2.40625 Z M 2.9375 -1.046875 "/>
</g>
<g id="glyph-5-6">
<path d="M 3.3125 -1.234375 C 3.3125 -1.9375 2.625 -2.078125 2.359375 -2.140625 C 2.015625 -2.203125 1.75 -2.265625 1.75 -2.59375 C 1.75 -2.8125 1.9375 -3.265625 2.5625 -3.265625 C 2.8125 -3.265625 3.078125 -3.1875 3.171875 -2.9375 C 2.90625 -2.875 2.90625 -2.609375 2.90625 -2.609375 C 2.90625 -2.46875 3.015625 -2.375 3.140625 -2.375 C 3.171875 -2.375 3.5 -2.375 3.5 -2.8125 C 3.5 -3.28125 3.03125 -3.5 2.578125 -3.5 C 1.5 -3.5 1.25 -2.625 1.25 -2.328125 C 1.25 -2.125 1.34375 -1.90625 1.5 -1.765625 C 1.671875 -1.609375 1.765625 -1.59375 2.234375 -1.5 C 2.40625 -1.46875 2.828125 -1.375 2.828125 -0.96875 C 2.828125 -0.734375 2.625 -0.140625 1.75 -0.140625 C 1.578125 -0.140625 1.109375 -0.171875 0.953125 -0.53125 C 1.3125 -0.59375 1.3125 -0.890625 1.3125 -0.921875 C 1.3125 -1.0625 1.203125 -1.1875 1.03125 -1.1875 C 0.8125 -1.1875 0.625 -1.015625 0.625 -0.6875 C 0.625 -0.25 1.046875 0.078125 1.75 0.078125 C 3 0.078125 3.3125 -0.859375 3.3125 -1.234375 Z M 3.3125 -1.234375 "/>
</g>
<g id="glyph-5-7">
<path d="M 4.5625 -1.140625 C 4.5625 -1.234375 4.4375 -1.234375 4.40625 -1.234375 C 4.265625 -1.234375 4.265625 -1.21875 4.21875 -1.015625 C 4.078125 -0.40625 3.90625 -0.140625 3.6875 -0.140625 C 3.46875 -0.140625 3.46875 -0.390625 3.46875 -0.484375 C 3.46875 -0.53125 3.46875 -0.625 3.5 -0.71875 L 4.625 -5.265625 C 4.640625 -5.296875 4.65625 -5.359375 4.65625 -5.390625 C 4.65625 -5.5 4.515625 -5.5 4.4375 -5.484375 L 3.609375 -5.421875 C 3.5 -5.40625 3.421875 -5.40625 3.421875 -5.265625 C 3.421875 -5.15625 3.515625 -5.15625 3.625 -5.15625 C 4 -5.15625 4 -5.109375 4 -5.03125 C 4 -4.984375 3.984375 -4.90625 3.96875 -4.859375 L 3.515625 -3.046875 C 3.34375 -3.328125 3.125 -3.5 2.78125 -3.5 C 1.859375 -3.5 0.890625 -2.328125 0.890625 -1.1875 C 0.890625 -0.421875 1.34375 0.078125 1.9375 0.078125 C 2.40625 0.078125 2.796875 -0.265625 2.96875 -0.453125 C 3.03125 -0.171875 3.296875 0.078125 3.671875 0.078125 C 3.96875 0.078125 4.15625 -0.09375 4.28125 -0.34375 C 4.453125 -0.65625 4.5625 -1.140625 4.5625 -1.140625 Z M 3.015625 -1.046875 C 2.953125 -0.78125 2.4375 -0.140625 1.96875 -0.140625 C 1.59375 -0.140625 1.46875 -0.546875 1.46875 -0.859375 C 1.46875 -1.234375 1.703125 -2.171875 1.90625 -2.53125 C 2.21875 -3.109375 2.5625 -3.265625 2.78125 -3.265625 C 3.28125 -3.265625 3.375 -2.59375 3.375 -2.515625 L 3.34375 -2.40625 Z M 3.015625 -1.046875 "/>
</g>
<g id="glyph-5-8">
<path d="M 2.375 -1.140625 C 2.375 -1.234375 2.265625 -1.234375 2.21875 -1.234375 C 2.09375 -1.234375 2.09375 -1.203125 2.0625 -1.078125 C 1.953125 -0.671875 1.8125 -0.140625 1.53125 -0.140625 C 1.3125 -0.140625 1.3125 -0.390625 1.3125 -0.484375 C 1.3125 -0.53125 1.3125 -0.625 1.328125 -0.71875 L 2.46875 -5.265625 C 2.46875 -5.296875 2.484375 -5.359375 2.484375 -5.390625 C 2.484375 -5.5 2.359375 -5.5 2.28125 -5.484375 L 1.453125 -5.421875 C 1.34375 -5.40625 1.25 -5.40625 1.25 -5.265625 C 1.25 -5.15625 1.34375 -5.15625 1.453125 -5.15625 C 1.84375 -5.15625 1.84375 -5.109375 1.84375 -5.03125 C 1.84375 -4.984375 1.8125 -4.90625 1.8125 -4.859375 L 0.828125 -0.9375 C 0.78125 -0.78125 0.78125 -0.734375 0.78125 -0.65625 C 0.78125 -0.171875 1.15625 0.078125 1.515625 0.078125 C 1.671875 0.078125 1.921875 0.03125 2.125 -0.359375 C 2.265625 -0.640625 2.375 -1.09375 2.375 -1.140625 Z M 2.375 -1.140625 "/>
</g>
<g id="glyph-5-9">
<path d="M 4.078125 -2.953125 C 4.078125 -3.40625 3.515625 -3.5 3.234375 -3.5 C 2.78125 -3.5 2.453125 -3.234375 2.21875 -2.953125 C 2.15625 -3.25 1.890625 -3.5 1.515625 -3.5 C 1.25 -3.5 1.046875 -3.34375 0.890625 -3.0625 C 0.75 -2.796875 0.640625 -2.328125 0.640625 -2.28125 C 0.640625 -2.171875 0.734375 -2.171875 0.78125 -2.171875 C 0.90625 -2.171875 0.921875 -2.203125 0.96875 -2.390625 C 1.078125 -2.859375 1.234375 -3.265625 1.5 -3.265625 C 1.71875 -3.265625 1.71875 -3 1.71875 -2.921875 C 1.71875 -2.8125 1.703125 -2.6875 1.671875 -2.578125 L 1.09375 -0.265625 C 1.078125 -0.1875 1.0625 -0.171875 1.0625 -0.140625 C 1.0625 -0.015625 1.171875 0.078125 1.3125 0.078125 C 1.53125 0.078125 1.609375 -0.109375 1.640625 -0.234375 L 2.125 -2.171875 C 2.140625 -2.28125 2.515625 -3.265625 3.234375 -3.265625 C 3.296875 -3.265625 3.53125 -3.265625 3.671875 -3.140625 C 3.421875 -3.046875 3.40625 -2.84375 3.40625 -2.78125 C 3.40625 -2.5625 3.578125 -2.515625 3.6875 -2.515625 C 3.828125 -2.515625 4.078125 -2.625 4.078125 -2.953125 Z M 4.078125 -2.953125 "/>
</g>
<g id="glyph-5-10">
<path d="M 3.5 0.078125 L 4.28125 -3.03125 C 4.296875 -3.140625 4.3125 -3.15625 4.3125 -3.1875 C 4.3125 -3.328125 4.203125 -3.421875 4.078125 -3.421875 C 3.8125 -3.421875 3.75 -3.171875 3.734375 -3.09375 L 3.203125 -0.921875 C 3.15625 -0.765625 2.828125 -0.140625 2.296875 -0.140625 C 1.828125 -0.140625 1.828125 -0.625 1.828125 -0.765625 C 1.828125 -1.203125 2.03125 -1.75 2.28125 -2.4375 C 2.34375 -2.59375 2.375 -2.671875 2.375 -2.84375 C 2.375 -3.265625 2.046875 -3.5 1.71875 -3.5 C 0.953125 -3.5 0.640625 -2.390625 0.640625 -2.28125 C 0.640625 -2.171875 0.734375 -2.171875 0.78125 -2.171875 C 0.90625 -2.171875 0.921875 -2.203125 0.953125 -2.34375 C 1.09375 -2.84375 1.359375 -3.265625 1.703125 -3.265625 C 1.84375 -3.265625 1.875 -3.171875 1.875 -3.03125 C 1.875 -2.84375 1.8125 -2.671875 1.75 -2.5 C 1.515625 -1.890625 1.296875 -1.3125 1.296875 -0.875 C 1.296875 -0.15625 1.8125 0.078125 2.265625 0.078125 C 2.609375 0.078125 2.890625 -0.09375 3.015625 -0.21875 C 2.953125 0.09375 2.84375 0.5 2.546875 0.890625 C 2.34375 1.15625 2.03125 1.390625 1.6875 1.390625 C 1.484375 1.390625 1.28125 1.3125 1.203125 1.09375 C 1.421875 1.0625 1.546875 0.875 1.546875 0.703125 C 1.546875 0.5625 1.453125 0.4375 1.265625 0.4375 C 1.140625 0.4375 0.859375 0.53125 0.859375 0.921875 C 0.859375 1.328125 1.203125 1.609375 1.671875 1.609375 C 2.5625 1.609375 3.3125 0.78125 3.5 0.078125 Z M 3.5 0.078125 "/>
</g>
<g id="glyph-5-11">
<path d="M 2.34375 1.890625 C 2.34375 1.859375 2.328125 1.84375 2.28125 1.78125 C 1.921875 1.296875 1.703125 0.671875 1.703125 -0.21875 C 1.703125 -1.46875 2.28125 -4.203125 4.109375 -5.671875 C 4.234375 -5.78125 4.25 -5.78125 4.25 -5.796875 C 4.265625 -5.8125 4.265625 -5.84375 4.265625 -5.84375 C 4.265625 -5.921875 4.21875 -5.9375 4.15625 -5.9375 C 4.078125 -5.9375 2.984375 -5.234375 2.203125 -3.875 C 1.453125 -2.53125 1.265625 -1.21875 1.265625 -0.46875 C 1.265625 0.09375 1.359375 0.59375 1.5 0.96875 C 1.71875 1.5 2.09375 1.984375 2.21875 1.984375 C 2.28125 1.984375 2.34375 1.953125 2.34375 1.890625 Z M 2.34375 1.890625 "/>
</g>
<g id="glyph-5-12">
<path d="M 7.15625 -1.140625 C 7.15625 -1.234375 7.046875 -1.234375 7.015625 -1.234375 C 6.890625 -1.234375 6.875 -1.203125 6.84375 -1.0625 C 6.6875 -0.5625 6.4375 -0.140625 6.09375 -0.140625 C 5.9375 -0.140625 5.921875 -0.25 5.921875 -0.390625 C 5.921875 -0.578125 5.984375 -0.75 6.03125 -0.90625 C 6.1875 -1.328125 6.515625 -2.171875 6.515625 -2.640625 C 6.515625 -3.3125 6.046875 -3.5 5.609375 -3.5 C 5.0625 -3.5 4.65625 -3.1875 4.34375 -2.78125 C 4.28125 -3.34375 3.828125 -3.5 3.453125 -3.5 C 2.765625 -3.5 2.390625 -3.046875 2.234375 -2.859375 C 2.1875 -3.21875 1.90625 -3.5 1.515625 -3.5 C 1.25 -3.5 1.046875 -3.34375 0.890625 -3.0625 C 0.75 -2.796875 0.640625 -2.328125 0.640625 -2.28125 C 0.640625 -2.171875 0.734375 -2.171875 0.78125 -2.171875 C 0.90625 -2.171875 0.921875 -2.203125 0.96875 -2.390625 C 1.078125 -2.859375 1.234375 -3.265625 1.5 -3.265625 C 1.71875 -3.265625 1.71875 -3 1.71875 -2.921875 C 1.71875 -2.8125 1.703125 -2.6875 1.671875 -2.578125 L 1.09375 -0.265625 C 1.078125 -0.1875 1.0625 -0.171875 1.0625 -0.140625 C 1.0625 -0.015625 1.171875 0.078125 1.3125 0.078125 C 1.5625 0.078125 1.609375 -0.109375 1.671875 -0.40625 L 1.859375 -1.09375 L 2.125 -2.171875 C 2.125 -2.171875 2.546875 -3.265625 3.421875 -3.265625 C 3.71875 -3.265625 3.828125 -3.078125 3.828125 -2.75 C 3.828125 -2.6875 3.828125 -2.53125 3.765625 -2.296875 L 3.265625 -0.3125 C 3.265625 -0.265625 3.234375 -0.1875 3.234375 -0.140625 C 3.234375 -0.015625 3.34375 0.078125 3.484375 0.078125 C 3.734375 0.078125 3.78125 -0.109375 3.84375 -0.40625 L 4.03125 -1.09375 C 4.0625 -1.265625 4.0625 -1.28125 4.15625 -1.609375 L 4.28125 -2.125 C 4.296875 -2.1875 4.515625 -2.6875 4.859375 -3 C 5 -3.109375 5.265625 -3.265625 5.59375 -3.265625 C 5.921875 -3.265625 6 -3.015625 6 -2.75 C 6 -2.296875 5.671875 -1.390625 5.515625 -0.984375 C 5.453125 -0.84375 5.40625 -0.71875 5.40625 -0.578125 C 5.40625 -0.21875 5.671875 0.078125 6.078125 0.078125 C 6.828125 0.078125 7.15625 -1.015625 7.15625 -1.140625 Z M 7.15625 -1.140625 "/>
</g>
<g id="glyph-5-13">
<path d="M 4.984375 -1.140625 C 4.984375 -1.234375 4.875 -1.234375 4.828125 -1.234375 C 4.703125 -1.234375 4.703125 -1.203125 4.65625 -1.0625 C 4.515625 -0.5625 4.25 -0.140625 3.90625 -0.140625 C 3.765625 -0.140625 3.734375 -0.25 3.734375 -0.390625 C 3.734375 -0.578125 3.796875 -0.75 3.859375 -0.90625 C 4.015625 -1.328125 4.34375 -2.171875 4.34375 -2.640625 C 4.34375 -3.3125 3.875 -3.5 3.4375 -3.5 C 2.765625 -3.5 2.390625 -3.046875 2.234375 -2.859375 C 2.1875 -3.21875 1.90625 -3.5 1.515625 -3.5 C 1.25 -3.5 1.046875 -3.34375 0.890625 -3.0625 C 0.75 -2.796875 0.640625 -2.328125 0.640625 -2.28125 C 0.640625 -2.171875 0.734375 -2.171875 0.78125 -2.171875 C 0.90625 -2.171875 0.921875 -2.203125 0.96875 -2.390625 C 1.078125 -2.859375 1.234375 -3.265625 1.5 -3.265625 C 1.71875 -3.265625 1.71875 -3 1.71875 -2.921875 C 1.71875 -2.8125 1.703125 -2.6875 1.671875 -2.578125 L 1.09375 -0.265625 C 1.078125 -0.1875 1.0625 -0.171875 1.0625 -0.140625 C 1.0625 -0.015625 1.171875 0.078125 1.3125 0.078125 C 1.5625 0.078125 1.609375 -0.109375 1.671875 -0.40625 L 1.859375 -1.09375 C 1.890625 -1.265625 1.890625 -1.28125 1.984375 -1.609375 L 2.109375 -2.125 C 2.140625 -2.25 2.390625 -2.71875 2.640625 -2.953125 C 2.890625 -3.15625 3.140625 -3.265625 3.421875 -3.265625 C 3.71875 -3.265625 3.8125 -3.046875 3.8125 -2.75 C 3.8125 -2.296875 3.484375 -1.390625 3.328125 -0.984375 C 3.28125 -0.84375 3.234375 -0.71875 3.234375 -0.578125 C 3.234375 -0.21875 3.5 0.078125 3.890625 0.078125 C 4.65625 0.078125 4.984375 -1.015625 4.984375 -1.140625 Z M 4.953125 -5.0625 C 4.953125 -5.125 4.90625 -5.171875 4.84375 -5.171875 C 4.8125 -5.171875 4.78125 -5.15625 4.71875 -5.078125 C 4.609375 -5 4.21875 -4.640625 3.984375 -4.640625 C 3.890625 -4.640625 3.84375 -4.671875 3.75 -4.828125 C 3.625 -5.015625 3.515625 -5.171875 3.28125 -5.171875 C 3.0625 -5.171875 2.8125 -5 2.625 -4.84375 C 2.46875 -4.71875 2.203125 -4.515625 2.203125 -4.421875 C 2.203125 -4.359375 2.25 -4.3125 2.3125 -4.3125 C 2.359375 -4.3125 2.375 -4.34375 2.421875 -4.375 C 2.484375 -4.4375 2.921875 -4.84375 3.171875 -4.84375 C 3.265625 -4.84375 3.3125 -4.828125 3.453125 -4.625 C 3.53125 -4.484375 3.640625 -4.3125 3.875 -4.3125 C 4.125 -4.3125 4.40625 -4.53125 4.53125 -4.640625 C 4.703125 -4.78125 4.953125 -4.96875 4.953125 -5.0625 Z M 4.953125 -5.0625 "/>
</g>
<g id="glyph-5-14">
<path d="M 4.28125 -2.15625 C 4.28125 -2.984375 3.71875 -3.5 3.015625 -3.5 C 1.984375 -3.5 0.90625 -2.421875 0.90625 -1.265625 C 0.90625 -0.390625 1.5 0.078125 2.171875 0.078125 C 3.21875 0.078125 4.28125 -1.015625 4.28125 -2.15625 Z M 3.6875 -2.4375 C 3.6875 -2.171875 3.5625 -1.40625 3.234375 -0.875 C 2.984375 -0.4375 2.5625 -0.140625 2.171875 -0.140625 C 1.875 -0.140625 1.5 -0.34375 1.5 -0.984375 C 1.5 -1.34375 1.671875 -2.078125 1.921875 -2.515625 C 2.265625 -3.09375 2.734375 -3.265625 3 -3.265625 C 3.375 -3.265625 3.6875 -2.984375 3.6875 -2.4375 Z M 3.6875 -2.4375 "/>
</g>
<g id="glyph-5-15">
<path d="M 3.1875 -3.484375 C 3.1875 -4.046875 3.09375 -4.5625 2.953125 -4.921875 C 2.734375 -5.453125 2.359375 -5.9375 2.21875 -5.9375 C 2.15625 -5.9375 2.109375 -5.90625 2.109375 -5.84375 C 2.109375 -5.8125 2.125 -5.796875 2.15625 -5.75 C 2.34375 -5.5 2.75 -4.9375 2.75 -3.75 C 2.75 -2.5 2.1875 0.234375 0.34375 1.71875 L 0.203125 1.84375 C 0.1875 1.859375 0.1875 1.890625 0.1875 1.890625 C 0.1875 1.953125 0.21875 1.984375 0.296875 1.984375 C 0.375 1.984375 1.46875 1.28125 2.234375 -0.09375 C 3 -1.421875 3.1875 -2.75 3.1875 -3.484375 Z M 3.1875 -3.484375 "/>
</g>
<g id="glyph-6-0">
<path d="M 7.1875 -1.140625 C 7.1875 -1.21875 7.125 -1.234375 7.0625 -1.234375 C 6.96875 -1.234375 6.953125 -1.1875 6.9375 -1.09375 C 6.734375 -0.4375 6.40625 -0.140625 6.109375 -0.140625 C 5.984375 -0.140625 5.921875 -0.21875 5.921875 -0.40625 C 5.921875 -0.59375 5.984375 -0.765625 6.0625 -0.953125 C 6.171875 -1.265625 6.53125 -2.171875 6.53125 -2.609375 C 6.53125 -3.203125 6.109375 -3.5 5.546875 -3.5 C 5 -3.5 4.546875 -3.203125 4.1875 -2.71875 C 4.125 -3.34375 3.625 -3.5 3.203125 -3.5 C 2.84375 -3.5 2.359375 -3.359375 1.921875 -2.796875 C 1.875 -3.265625 1.484375 -3.5 1.109375 -3.5 C 0.84375 -3.5 0.640625 -3.328125 0.5 -3.0625 C 0.3125 -2.6875 0.234375 -2.28125 0.234375 -2.28125 C 0.234375 -2.203125 0.296875 -2.171875 0.359375 -2.171875 C 0.453125 -2.171875 0.46875 -2.203125 0.515625 -2.421875 C 0.625 -2.796875 0.765625 -3.265625 1.09375 -3.265625 C 1.296875 -3.265625 1.34375 -3.078125 1.34375 -2.90625 C 1.34375 -2.75 1.3125 -2.609375 1.25 -2.34375 L 1.078125 -1.703125 L 0.78125 -0.515625 C 0.75 -0.390625 0.703125 -0.203125 0.703125 -0.171875 C 0.703125 0.015625 0.859375 0.078125 0.953125 0.078125 C 1.09375 0.078125 1.21875 -0.015625 1.28125 -0.109375 C 1.296875 -0.15625 1.359375 -0.421875 1.40625 -0.59375 L 1.578125 -1.296875 C 1.609375 -1.421875 1.6875 -1.71875 1.71875 -1.84375 C 1.734375 -1.921875 1.78125 -2.109375 1.796875 -2.1875 C 1.8125 -2.21875 2.078125 -2.734375 2.421875 -3 C 2.6875 -3.203125 2.953125 -3.265625 3.171875 -3.265625 C 3.46875 -3.265625 3.625 -3.09375 3.625 -2.734375 C 3.625 -2.546875 3.578125 -2.359375 3.5 -2 L 3.25 -1.046875 L 3.140625 -0.578125 C 3.09375 -0.4375 3.046875 -0.203125 3.046875 -0.171875 C 3.046875 0.015625 3.1875 0.078125 3.296875 0.078125 C 3.4375 0.078125 3.5625 -0.015625 3.609375 -0.109375 C 3.640625 -0.15625 3.703125 -0.421875 3.734375 -0.59375 L 3.921875 -1.296875 C 3.9375 -1.421875 4.03125 -1.71875 4.046875 -1.84375 C 4.15625 -2.265625 4.15625 -2.28125 4.34375 -2.53125 C 4.609375 -2.921875 4.96875 -3.265625 5.5 -3.265625 C 5.796875 -3.265625 5.953125 -3.109375 5.953125 -2.734375 C 5.953125 -2.296875 5.625 -1.390625 5.46875 -1 C 5.390625 -0.796875 5.375 -0.75 5.375 -0.59375 C 5.375 -0.140625 5.75 0.078125 6.078125 0.078125 C 6.859375 0.078125 7.1875 -1.03125 7.1875 -1.140625 Z M 7.1875 -1.140625 "/>
</g>
<g id="glyph-7-0">
<path d="M 6.0625 -2.8125 C 6.0625 -3 5.875 -3 5.765625 -3 L 0.78125 -3 C 0.65625 -3 0.46875 -3 0.46875 -2.8125 C 0.46875 -2.640625 0.625 -2.640625 0.75 -2.640625 L 5.796875 -2.640625 C 5.90625 -2.640625 6.0625 -2.640625 6.0625 -2.8125 Z M 6.0625 -1.140625 C 6.0625 -1.328125 5.90625 -1.328125 5.796875 -1.328125 L 0.75 -1.328125 C 0.625 -1.328125 0.46875 -1.328125 0.46875 -1.140625 C 0.46875 -0.953125 0.65625 -0.953125 0.78125 -0.953125 L 5.765625 -0.953125 C 5.875 -0.953125 6.0625 -0.953125 6.0625 -1.140625 Z M 6.0625 -1.140625 "/>
</g>
<g id="glyph-7-1">
<path d="M 3.84375 -1.328125 C 3.84375 -1.828125 3.578125 -2.15625 3.453125 -2.296875 C 3.3125 -2.421875 3.3125 -2.4375 2.625 -2.859375 C 3.078125 -3.078125 3.609375 -3.46875 3.609375 -4.09375 C 3.609375 -4.84375 2.84375 -5.265625 2.109375 -5.265625 C 1.265625 -5.265625 0.59375 -4.6875 0.59375 -3.9375 C 0.59375 -3.65625 0.6875 -3.375 0.890625 -3.15625 C 1.015625 -2.984375 1.046875 -2.96875 1.546875 -2.65625 C 0.5625 -2.21875 0.34375 -1.640625 0.34375 -1.203125 C 0.34375 -0.328125 1.234375 0.171875 2.09375 0.171875 C 3.0625 0.171875 3.84375 -0.484375 3.84375 -1.328125 Z M 3.21875 -4.09375 C 3.21875 -3.625 2.859375 -3.234375 2.390625 -3.015625 L 1.40625 -3.609375 C 1.171875 -3.734375 0.984375 -3.96875 0.984375 -4.25 C 0.984375 -4.75 1.53125 -5.0625 2.09375 -5.0625 C 2.703125 -5.0625 3.21875 -4.640625 3.21875 -4.09375 Z M 3.40625 -1.0625 C 3.40625 -0.453125 2.75 -0.078125 2.109375 -0.078125 C 1.40625 -0.078125 0.796875 -0.546875 0.796875 -1.203125 C 0.796875 -1.796875 1.25 -2.265625 1.796875 -2.515625 L 2.859375 -1.859375 C 2.984375 -1.796875 3.40625 -1.53125 3.40625 -1.0625 Z M 3.40625 -1.0625 "/>
</g>
<g id="glyph-8-0">
<path d="M 4.375 -1.140625 C 4.375 -1.171875 4.375 -1.359375 4.109375 -1.359375 C 3.890625 -1.359375 3.859375 -1.265625 3.8125 -1.109375 C 3.703125 -0.6875 3.484375 -0.4375 3.3125 -0.4375 C 3.21875 -0.4375 3.203125 -0.5 3.203125 -0.609375 C 3.203125 -0.6875 3.203125 -0.703125 3.296875 -0.9375 C 3.359375 -1.140625 3.734375 -2.15625 3.734375 -2.609375 C 3.734375 -3.1875 3.359375 -3.46875 2.875 -3.46875 C 2.453125 -3.46875 2.125 -3.265625 1.984375 -3.15625 L 2.328125 -4.484375 C 2.328125 -4.515625 2.34375 -4.578125 2.34375 -4.625 C 2.34375 -4.84375 2.125 -4.84375 2.015625 -4.84375 L 1.375 -4.84375 C 1.265625 -4.84375 1.046875 -4.84375 1.046875 -4.578125 C 1.046875 -4.359375 1.265625 -4.359375 1.375 -4.359375 L 1.734375 -4.359375 L 0.734375 -0.375 C 0.703125 -0.265625 0.703125 -0.25 0.703125 -0.21875 C 0.703125 -0.0625 0.828125 0.046875 0.953125 0.046875 C 1.1875 0.046875 1.234375 -0.140625 1.28125 -0.328125 C 1.578125 -1.5 1.96875 -2.984375 2.875 -2.984375 C 3.140625 -2.984375 3.1875 -2.796875 3.1875 -2.609375 C 3.1875 -2.234375 2.84375 -1.265625 2.734375 -1 C 2.6875 -0.875 2.65625 -0.765625 2.65625 -0.625 C 2.65625 -0.234375 2.921875 0.046875 3.28125 0.046875 C 4.046875 0.046875 4.375 -0.984375 4.375 -1.140625 Z M 4.375 -1.140625 "/>
</g>
<g id="glyph-8-1">
<path d="M 4.296875 -1.140625 C 4.296875 -1.171875 4.296875 -1.359375 4.03125 -1.359375 C 3.796875 -1.359375 3.78125 -1.265625 3.71875 -1.03125 C 3.6875 -0.875 3.5625 -0.4375 3.40625 -0.4375 C 3.25 -0.4375 3.234375 -0.625 3.234375 -0.671875 C 3.234375 -0.734375 3.25 -0.796875 3.265625 -0.859375 L 3.78125 -2.921875 C 3.8125 -3.046875 3.8125 -3.0625 3.8125 -3.078125 C 3.8125 -3.234375 3.6875 -3.34375 3.5625 -3.34375 C 3.40625 -3.34375 3.296875 -3.21875 3.28125 -3.140625 C 3.03125 -3.4375 2.765625 -3.46875 2.609375 -3.46875 C 1.765625 -3.46875 0.921875 -2.28125 0.921875 -1.171875 C 0.921875 -0.40625 1.328125 0.046875 1.859375 0.046875 C 2.3125 0.046875 2.671875 -0.296875 2.75 -0.375 C 2.78125 -0.28125 2.96875 0.046875 3.40625 0.046875 C 3.796875 0.046875 3.984375 -0.28125 4.046875 -0.375 C 4.1875 -0.640625 4.296875 -1.078125 4.296875 -1.140625 Z M 3 -2.265625 C 3 -1.359375 2.34375 -0.4375 1.859375 -0.4375 C 1.515625 -0.4375 1.453125 -0.96875 1.453125 -1.140625 C 1.453125 -2.03125 2.125 -2.984375 2.59375 -2.984375 C 2.890625 -2.984375 3 -2.625 3 -2.265625 Z M 3 -2.265625 "/>
</g>
<g id="glyph-8-2">
<path d="M 3.84375 -1.15625 C 3.84375 -1.84375 3.046875 -1.984375 2.671875 -2.046875 C 2.21875 -2.125 1.9375 -2.1875 1.9375 -2.421875 C 1.9375 -2.484375 1.984375 -2.71875 2.25 -2.859375 C 2.484375 -2.984375 2.78125 -2.984375 2.875 -2.984375 C 2.984375 -2.984375 3.234375 -2.984375 3.40625 -2.859375 C 3.34375 -2.796875 3.328125 -2.71875 3.328125 -2.640625 C 3.328125 -2.375 3.5625 -2.328125 3.640625 -2.328125 C 3.796875 -2.328125 4.015625 -2.453125 4.015625 -2.765625 C 4.015625 -3.1875 3.640625 -3.46875 2.890625 -3.46875 C 1.734375 -3.46875 1.453125 -2.734375 1.453125 -2.40625 C 1.453125 -2.21875 1.515625 -2.015625 1.734375 -1.859375 C 1.953125 -1.6875 2.078125 -1.671875 2.640625 -1.5625 C 2.890625 -1.515625 3.359375 -1.4375 3.359375 -1.140625 C 3.359375 -1 3.25 -0.75 2.984375 -0.609375 C 2.6875 -0.453125 2.375 -0.4375 2.140625 -0.4375 C 2.03125 -0.4375 1.59375 -0.4375 1.390625 -0.609375 C 1.40625 -0.625 1.515625 -0.75 1.515625 -0.890625 C 1.515625 -1.015625 1.421875 -1.203125 1.1875 -1.203125 C 1.0625 -1.203125 0.78125 -1.140625 0.78125 -0.71875 C 0.78125 0.046875 1.859375 0.046875 2.125 0.046875 C 2.34375 0.046875 2.84375 0.046875 3.265625 -0.21875 C 3.609375 -0.4375 3.84375 -0.8125 3.84375 -1.15625 Z M 3.84375 -1.15625 "/>
</g>
<g id="glyph-8-3">
<path d="M 4.859375 -2.34375 C 4.859375 -2.671875 4.796875 -2.984375 4.609375 -3.25 C 5.109375 -3.71875 5.296875 -4.46875 5.296875 -4.578125 C 5.296875 -4.78125 5.140625 -4.84375 5.03125 -4.84375 C 4.9375 -4.84375 4.8125 -4.78125 4.765625 -4.625 C 4.5 -3.75 4.203125 -3.578125 3.75 -3.3125 C 3.484375 -3.15625 3.078125 -2.921875 3.078125 -2.4375 C 3.078125 -2.015625 3.453125 -1.734375 3.84375 -1.734375 C 4.109375 -1.734375 4.15625 -1.9375 4.15625 -2.015625 C 4.15625 -2.15625 4.046875 -2.28125 3.890625 -2.28125 C 3.84375 -2.28125 3.796875 -2.28125 3.75 -2.234375 C 3.75 -2.234375 3.625 -2.296875 3.625 -2.4375 C 3.625 -2.625 3.75 -2.71875 4.15625 -2.9375 C 4.296875 -2.703125 4.3125 -2.4375 4.3125 -2.328125 C 4.3125 -1.703125 3.96875 -0.390625 2.328125 -0.390625 C 1.421875 -0.390625 0.921875 -0.859375 0.921875 -1.390625 C 0.921875 -1.546875 1.015625 -1.984375 1.296875 -2.359375 C 1.46875 -2.21875 1.703125 -2.140625 1.890625 -2.140625 C 2.328125 -2.140625 2.59375 -2.578125 2.59375 -2.90625 C 2.59375 -3.09375 2.484375 -3.421875 2.09375 -3.421875 C 1.96875 -3.421875 1.75 -3.375 1.484375 -3.21875 C 1.515625 -3.875 2.015625 -4.4375 2.4375 -4.4375 C 2.484375 -4.4375 2.609375 -4.4375 2.703125 -4.359375 C 2.625 -4.296875 2.59375 -4.203125 2.59375 -4.09375 C 2.59375 -3.875 2.765625 -3.78125 2.921875 -3.78125 C 3.046875 -3.78125 3.3125 -3.859375 3.3125 -4.234375 C 3.3125 -4.703125 2.859375 -4.921875 2.453125 -4.921875 C 1.625 -4.921875 0.9375 -4.015625 0.9375 -3.203125 C 0.9375 -3 0.984375 -2.84375 1 -2.8125 C 0.625 -2.421875 0.375 -1.796875 0.375 -1.390625 C 0.375 -0.625 1.0625 0.09375 2.3125 0.09375 C 4.171875 0.09375 4.859375 -1.265625 4.859375 -2.34375 Z M 2.046875 -2.921875 C 2.03125 -2.75 1.953125 -2.625 1.890625 -2.625 C 1.8125 -2.625 1.703125 -2.671875 1.640625 -2.734375 C 1.828125 -2.890625 1.9375 -2.90625 2.046875 -2.921875 Z M 2.046875 -2.921875 "/>
</g>
<g id="glyph-8-4">
<path d="M 3.359375 0.421875 C 3.359375 0.3125 3.28125 0.265625 3.265625 0.25 C 3.0625 0.078125 2.421875 -0.40625 2.421875 -1.578125 C 2.421875 -2.703125 3.09375 -4.171875 4.59375 -5.03125 C 4.71875 -5.109375 4.796875 -5.15625 4.796875 -5.28125 C 4.796875 -5.328125 4.75 -5.5 4.546875 -5.5 C 4.203125 -5.5 1.875 -3.984375 1.875 -1.609375 C 1.875 -1.140625 1.984375 -0.625 2.265625 -0.15625 C 2.46875 0.171875 2.890625 0.65625 3.125 0.65625 C 3.328125 0.65625 3.359375 0.484375 3.359375 0.421875 Z M 3.359375 0.421875 "/>
</g>
<g id="glyph-8-5">
<path d="M 4.296875 -0.265625 C 4.296875 -0.375 4.234375 -0.46875 4.09375 -0.484375 C 4.0625 -0.484375 4.015625 -0.484375 4.015625 -0.640625 C 4.015625 -0.828125 4.078125 -1 4.203125 -1.359375 C 4.34375 -1.796875 4.515625 -2.296875 4.515625 -2.6875 C 4.515625 -3.234375 4.203125 -3.46875 3.859375 -3.46875 C 3.5 -3.46875 3.203125 -3.25 2.96875 -2.984375 C 2.9375 -3.125 2.78125 -3.46875 2.34375 -3.46875 C 2.03125 -3.46875 1.796875 -3.296875 1.65625 -3.1875 C 1.625 -3.390625 1.484375 -3.421875 1.4375 -3.421875 C 1.265625 -3.421875 1.21875 -3.25 1.203125 -3.171875 L 0.875 -1.890625 C 0.875 -1.890625 0.875 -1.875 0.8125 -1.65625 C 0.640625 -1.140625 0.40625 -0.234375 0.40625 -0.171875 C 0.40625 0.046875 0.640625 0.046875 0.6875 0.046875 C 0.90625 0.046875 0.90625 0 1.015625 -0.4375 C 1.21875 -1.203125 1.65625 -2.984375 2.34375 -2.984375 C 2.515625 -2.984375 2.546875 -2.84375 2.546875 -2.65625 C 2.546875 -2.40625 2.375 -1.796875 2.34375 -1.6875 C 2.15625 -1.140625 1.921875 -0.234375 1.921875 -0.171875 C 1.921875 0.046875 2.15625 0.046875 2.203125 0.046875 C 2.421875 0.046875 2.4375 0 2.546875 -0.4375 C 2.734375 -1.203125 3.171875 -2.984375 3.859375 -2.984375 C 4.046875 -2.984375 4.078125 -2.84375 4.078125 -2.65625 C 4.078125 -2.40625 3.96875 -2.046875 3.703125 -1.296875 C 3.578125 -0.921875 3.5625 -0.75 3.5625 -0.609375 C 3.5625 0 4.03125 0 4.0625 0 C 4.265625 0 4.296875 -0.1875 4.296875 -0.265625 Z M 4.296875 -0.265625 "/>
</g>
<g id="glyph-8-6">
<path d="M 4.3125 -2.421875 C 4.3125 -2.703125 4.046875 -2.703125 3.953125 -2.703125 L 1.421875 -2.703125 C 1.328125 -2.703125 1.046875 -2.703125 1.046875 -2.421875 C 1.046875 -2.140625 1.328125 -2.140625 1.421875 -2.140625 L 3.953125 -2.140625 C 4.046875 -2.140625 4.3125 -2.140625 4.3125 -2.421875 Z M 4.3125 -2.421875 "/>
</g>
<g id="glyph-8-7">
<path d="M 3.578125 -0.265625 C 3.578125 -0.484375 3.359375 -0.484375 3.25 -0.484375 L 2.59375 -0.484375 L 3.625 -4.546875 C 3.625 -4.59375 3.640625 -4.640625 3.640625 -4.6875 C 3.640625 -4.71875 3.625 -4.90625 3.40625 -4.90625 C 3.28125 -4.90625 3.234375 -4.84375 3.171875 -4.75 C 2.625 -3.984375 2.1875 -3.953125 1.96875 -3.9375 C 1.828125 -3.921875 1.765625 -3.78125 1.765625 -3.671875 C 1.765625 -3.578125 1.8125 -3.453125 2.015625 -3.453125 C 2.125 -3.453125 2.453125 -3.484375 2.859375 -3.75 L 2.03125 -0.484375 L 1.28125 -0.484375 C 1.15625 -0.484375 0.9375 -0.484375 0.9375 -0.21875 C 0.9375 0 1.15625 0 1.265625 0 L 3.25 0 C 3.359375 0 3.578125 0 3.578125 -0.265625 Z M 3.578125 -0.265625 "/>
</g>
<g id="glyph-8-8">
<path d="M 3.5 -3.234375 C 3.5 -3.703125 3.390625 -4.234375 3.109375 -4.703125 C 2.921875 -5.015625 2.484375 -5.5 2.25 -5.5 C 2.09375 -5.5 2.015625 -5.390625 2.015625 -5.28125 C 2.015625 -5.171875 2.0625 -5.140625 2.171875 -5.03125 C 2.734375 -4.578125 2.953125 -3.9375 2.953125 -3.265625 C 2.953125 -2.15625 2.296875 -0.6875 0.78125 0.1875 C 0.671875 0.265625 0.59375 0.296875 0.59375 0.421875 C 0.59375 0.53125 0.671875 0.65625 0.828125 0.65625 C 1.1875 0.65625 3.5 -0.875 3.5 -3.234375 Z M 3.5 -3.234375 "/>
</g>
<g id="glyph-8-9">
<path d="M 4.609375 -3.03125 C 4.609375 -3.296875 4.328125 -3.296875 4.203125 -3.296875 L 1.453125 -3.296875 C 1.359375 -3.296875 1.046875 -3.296875 1.046875 -3.03125 C 1.046875 -2.75 1.328125 -2.75 1.40625 -2.75 L 4.265625 -2.75 C 4.359375 -2.75 4.609375 -2.75 4.609375 -3.03125 Z M 4.3125 -1.828125 C 4.3125 -2.09375 4.046875 -2.09375 3.96875 -2.09375 L 1.109375 -2.09375 C 1 -2.09375 0.765625 -2.09375 0.765625 -1.828125 C 0.765625 -1.546875 1.03125 -1.546875 1.171875 -1.546875 L 3.90625 -1.546875 C 4.015625 -1.546875 4.3125 -1.546875 4.3125 -1.828125 Z M 4.3125 -1.828125 "/>
</g>
<g id="glyph-8-10">
<path d="M 4.625 -3.8125 C 4.625 -4.40625 4.125 -4.921875 3.25 -4.921875 C 2 -4.921875 1.40625 -4.171875 1.40625 -3.78125 C 1.40625 -3.671875 1.484375 -3.5625 1.671875 -3.5625 C 1.890625 -3.5625 1.921875 -3.640625 1.96875 -3.78125 C 2.140625 -4.296875 2.859375 -4.4375 3.234375 -4.4375 C 3.78125 -4.4375 4.078125 -4.15625 4.078125 -3.8125 C 4.078125 -3.375 3.546875 -2.75 2.640625 -2.75 L 2.34375 -2.75 C 2.234375 -2.75 2.015625 -2.75 2.015625 -2.5 C 2.015625 -2.28125 2.234375 -2.28125 2.359375 -2.28125 L 2.671875 -2.28125 C 3.34375 -2.28125 3.5 -1.8125 3.5 -1.515625 C 3.5 -0.703125 2.484375 -0.390625 1.90625 -0.390625 C 1.328125 -0.390625 1.171875 -0.75 1.171875 -0.828125 C 1.171875 -0.828125 1.171875 -0.859375 1.203125 -0.875 C 1.34375 -1 1.34375 -1.171875 1.34375 -1.171875 C 1.34375 -1.3125 1.25 -1.484375 1.015625 -1.484375 C 0.671875 -1.484375 0.609375 -1.15625 0.609375 -0.9375 C 0.609375 -0.296875 1.171875 0.09375 1.90625 0.09375 C 2.765625 0.09375 4.046875 -0.40625 4.046875 -1.515625 C 4.046875 -2.078125 3.734375 -2.34375 3.59375 -2.46875 C 4.28125 -2.796875 4.625 -3.328125 4.625 -3.8125 Z M 4.625 -3.8125 "/>
</g>
</g>
<clipPath id="clip-0">
<path clip-rule="nonzero" d="M 236 0 L 307.632812 0 L 307.632812 32 L 236 32 Z M 236 0 "/>
</clipPath>
</defs>
<path fill-rule="nonzero" fill="rgb(87.998962%, 93.363953%, 96.374512%)" fill-opacity="1" stroke-width="0.3985" stroke-linecap="butt" stroke-linejoin="miter" stroke="rgb(39.99939%, 66.822815%, 81.881714%)" stroke-opacity="1" stroke-miterlimit="10" d="M 29.187833 11.340061 L -29.188304 11.340061 C -30.288258 11.340061 -31.180007 10.448313 -31.180007 9.34443 L -31.180007 -9.346933 C -31.180007 -10.446887 -30.288258 -11.338636 -29.188304 -11.338636 L 29.187833 -11.338636 C 30.287787 -11.338636 31.179535 -10.446887 31.179535 -9.346933 L 31.179535 9.34443 C 31.179535 10.448313 30.287787 11.340061 29.187833 11.340061 Z M 29.187833 11.340061 " transform="matrix(0.99436, 0, 0, -0.99436, 69.722891, 14.444068)"/>
<g fill="rgb(0%, 0%, 0%)" fill-opacity="1">
<use xlink:href="#glyph-0-0" x="55.680544" y="17.11989"/>
<use xlink:href="#glyph-0-1" x="60.361353" y="17.11989"/>
<use xlink:href="#glyph-0-2" x="65.042161" y="17.11989"/>
<use xlink:href="#glyph-0-3" x="69.72297" y="17.11989"/>
<use xlink:href="#glyph-0-2" x="74.403779" y="17.11989"/>
<use xlink:href="#glyph-0-0" x="79.084588" y="17.11989"/>
</g>
<path fill-rule="nonzero" fill="rgb(97.033691%, 88.633728%, 81.999207%)" fill-opacity="1" stroke-width="0.3985" stroke-linecap="butt" stroke-linejoin="miter" stroke="rgb(88.468933%, 55.802917%, 29.998779%)" stroke-opacity="1" stroke-miterlimit="10" d="M 131.636774 11.340061 L 73.256709 11.340061 C 72.156755 11.340061 71.265006 10.448313 71.265006 9.34443 L 71.265006 -9.346933 C 71.265006 -10.446887 72.156755 -11.338636 73.256709 -11.338636 L 131.636774 -11.338636 C 132.736729 -11.338636 133.628477 -10.446887 133.628477 -9.346933 L 133.628477 9.34443 C 133.628477 10.448313 132.736729 11.340061 131.636774 11.340061 Z M 131.636774 11.340061 " transform="matrix(0.99436, 0, 0, -0.99436, 69.722891, 14.444068)"/>
<g fill="rgb(0%, 0%, 0%)" fill-opacity="1">
<use xlink:href="#glyph-0-4" x="157.548712" y="17.168614"/>
<use xlink:href="#glyph-0-2" x="162.229521" y="17.168614"/>
<use xlink:href="#glyph-0-5" x="166.91033" y="17.168614"/>
<use xlink:href="#glyph-0-4" x="171.591139" y="17.168614"/>
<use xlink:href="#glyph-0-6" x="176.271948" y="17.168614"/>
<use xlink:href="#glyph-0-7" x="180.952757" y="17.168614"/>
</g>
<path fill-rule="nonzero" fill="rgb(87.998962%, 93.363953%, 96.374512%)" fill-opacity="1" d="M 302.484375 3.167969 L 244.4375 3.167969 C 243.34375 3.167969 242.457031 4.054688 242.457031 5.152344 L 242.457031 23.738281 C 242.457031 24.832031 243.34375 25.71875 244.4375 25.71875 L 302.484375 25.71875 C 303.578125 25.71875 304.46875 24.832031 304.46875 23.738281 L 304.46875 5.152344 C 304.46875 4.054688 303.578125 3.167969 302.484375 3.167969 Z M 302.484375 3.167969 "/>
<g clip-path="url(#clip-0)">
<path fill="none" stroke-width="0.3985" stroke-linecap="butt" stroke-linejoin="miter" stroke="rgb(39.99939%, 66.822815%, 81.881714%)" stroke-opacity="1" stroke-miterlimit="10" d="M 234.081788 11.340061 L 175.705651 11.340061 C 174.605697 11.340061 173.713948 10.448313 173.713948 9.34443 L 173.713948 -9.346933 C 173.713948 -10.446887 174.605697 -11.338636 175.705651 -11.338636 L 234.081788 -11.338636 C 235.181742 -11.338636 236.077419 -10.446887 236.077419 -9.346933 L 236.077419 9.34443 C 236.077419 10.448313 235.181742 11.340061 234.081788 11.340061 Z M 234.081788 11.340061 " transform="matrix(0.99436, 0, 0, -0.99436, 69.722891, 14.444068)"/>
</g>
<g fill="rgb(0%, 0%, 0%)" fill-opacity="1">
<use xlink:href="#glyph-1-0" x="246.986391" y="16.852407"/>
</g>
<g fill="rgb(0%, 0%, 0%)" fill-opacity="1">
<use xlink:href="#glyph-2-0" x="254.113961" y="16.852407"/>
<use xlink:href="#glyph-2-1" x="258.695804" y="16.852407"/>
<use xlink:href="#glyph-2-2" x="263.277647" y="16.852407"/>
<use xlink:href="#glyph-2-2" x="267.85949" y="16.852407"/>
</g>
<g fill="rgb(0%, 0%, 0%)" fill-opacity="1">
<use xlink:href="#glyph-3-0" x="273.967346" y="16.852407"/>
</g>
<g fill="rgb(0%, 0%, 0%)" fill-opacity="1">
<use xlink:href="#glyph-3-0" x="278.03742" y="16.852407"/>
</g>
<g fill="rgb(0%, 0%, 0%)" fill-opacity="1">
<use xlink:href="#glyph-3-0" x="282.116411" y="16.852407"/>
</g>
<g fill="rgb(0%, 0%, 0%)" fill-opacity="1">
<use xlink:href="#glyph-2-3" x="286.186037" y="16.852407"/>
<use xlink:href="#glyph-2-4" x="290.76788" y="16.852407"/>
<use xlink:href="#glyph-2-0" x="295.349723" y="16.852407"/>
</g>
<path fill-rule="nonzero" fill="rgb(87.998962%, 93.363953%, 96.374512%)" fill-opacity="1" stroke-width="0.3985" stroke-linecap="butt" stroke-linejoin="miter" stroke="rgb(39.99939%, 66.822815%, 81.881714%)" stroke-opacity="1" stroke-miterlimit="10" d="M 9.345446 -57.092799 L -9.345917 -57.092799 C -10.445872 -57.092799 -11.33762 -57.984547 -11.33762 -59.084502 L -11.33762 -77.775865 C -11.33762 -78.875819 -10.445872 -79.771496 -9.345917 -79.771496 L 9.345446 -79.771496 C 10.4454 -79.771496 11.337149 -78.875819 11.337149 -77.775865 L 11.337149 -59.084502 C 11.337149 -57.984547 10.4454 -57.092799 9.345446 -57.092799 Z M 9.345446 -57.092799 " transform="matrix(0.99436, 0, 0, -0.99436, 69.722891, 14.444068)"/>
<g fill="rgb(0%, 0%, 0%)" fill-opacity="1">
<use xlink:href="#glyph-4-0" x="67.431886" y="85.309097"/>
</g>
<path fill-rule="nonzero" fill="rgb(87.998962%, 93.363953%, 96.374512%)" fill-opacity="1" stroke-width="0.3985" stroke-linecap="butt" stroke-linejoin="miter" stroke="rgb(39.99939%, 66.822815%, 81.881714%)" stroke-opacity="1" stroke-miterlimit="10" d="M 32.420912 -57.092799 L 13.729549 -57.092799 C 12.629595 -57.092799 11.737846 -57.984547 11.737846 -59.084502 L 11.737846 -77.775865 C 11.737846 -78.875819 12.629595 -79.771496 13.729549 -79.771496 L 32.420912 -79.771496 C 33.520866 -79.771496 34.416543 -78.875819 34.416543 -77.775865 L 34.416543 -59.084502 C 34.416543 -57.984547 33.520866 -57.092799 32.420912 -57.092799 Z M 32.420912 -57.092799 " transform="matrix(0.99436, 0, 0, -0.99436, 69.722891, 14.444068)"/>
<g fill="rgb(0%, 0%, 0%)" fill-opacity="1">
<use xlink:href="#glyph-4-1" x="90.377729" y="85.309097"/>
</g>
<path fill-rule="nonzero" fill="rgb(87.998962%, 93.363953%, 96.374512%)" fill-opacity="1" stroke-width="0.3985" stroke-linecap="butt" stroke-linejoin="miter" stroke="rgb(39.99939%, 66.822815%, 81.881714%)" stroke-opacity="1" stroke-miterlimit="10" d="M 55.496378 -57.092799 L 36.805015 -57.092799 C 35.705061 -57.092799 34.813312 -57.984547 34.813312 -59.084502 L 34.813312 -77.775865 C 34.813312 -78.875819 35.705061 -79.771496 36.805015 -79.771496 L 55.496378 -79.771496 C 56.600261 -79.771496 57.492009 -78.875819 57.492009 -77.775865 L 57.492009 -59.084502 C 57.492009 -57.984547 56.600261 -57.092799 55.496378 -57.092799 Z M 55.496378 -57.092799 " transform="matrix(0.99436, 0, 0, -0.99436, 69.722891, 14.444068)"/>
<g fill="rgb(0%, 0%, 0%)" fill-opacity="1">
<use xlink:href="#glyph-4-2" x="113.322578" y="85.309097"/>
</g>
<path fill-rule="nonzero" fill="rgb(97.033691%, 88.633728%, 81.999207%)" fill-opacity="1" stroke-width="0.3985" stroke-linecap="butt" stroke-linejoin="miter" stroke="rgb(88.468933%, 55.802917%, 29.998779%)" stroke-opacity="1" stroke-miterlimit="10" d="M 78.575773 -57.092799 L 59.880481 -57.092799 C 58.780527 -57.092799 57.888779 -57.984547 57.888779 -59.084502 L 57.888779 -77.775865 C 57.888779 -78.875819 58.780527 -79.771496 59.880481 -79.771496 L 78.575773 -79.771496 C 79.675727 -79.771496 80.567476 -78.875819 80.567476 -77.775865 L 80.567476 -59.084502 C 80.567476 -57.984547 79.675727 -57.092799 78.575773 -57.092799 Z M 78.575773 -57.092799 " transform="matrix(0.99436, 0, 0, -0.99436, 69.722891, 14.444068)"/>
<g fill="rgb(0%, 0%, 0%)" fill-opacity="1">
<use xlink:href="#glyph-4-3" x="136.268421" y="85.309097"/>
</g>
<path fill-rule="nonzero" fill="rgb(87.998962%, 93.363953%, 96.374512%)" fill-opacity="1" stroke-width="0.3985" stroke-linecap="butt" stroke-linejoin="miter" stroke="rgb(39.99939%, 66.822815%, 81.881714%)" stroke-opacity="1" stroke-miterlimit="10" d="M 101.651239 -57.092799 L 82.955947 -57.092799 C 81.855993 -57.092799 80.964245 -57.984547 80.964245 -59.084502 L 80.964245 -77.775865 C 80.964245 -78.875819 81.855993 -79.771496 82.955947 -79.771496 L 101.651239 -79.771496 C 102.751193 -79.771496 103.642942 -78.875819 103.642942 -77.775865 L 103.642942 -59.084502 C 103.642942 -57.984547 102.751193 -57.092799 101.651239 -57.092799 Z M 101.651239 -57.092799 " transform="matrix(0.99436, 0, 0, -0.99436, 69.722891, 14.444068)"/>
<g fill="rgb(0%, 0%, 0%)" fill-opacity="1">
<use xlink:href="#glyph-4-4" x="159.214265" y="85.309097"/>
</g>
<path fill-rule="nonzero" fill="rgb(87.998962%, 93.363953%, 96.374512%)" fill-opacity="1" stroke-width="0.3985" stroke-linecap="butt" stroke-linejoin="miter" stroke="rgb(39.99939%, 66.822815%, 81.881714%)" stroke-opacity="1" stroke-miterlimit="10" d="M 124.726705 -57.092799 L 106.035342 -57.092799 C 104.93146 -57.092799 104.039711 -57.984547 104.039711 -59.084502 L 104.039711 -77.775865 C 104.039711 -78.875819 104.93146 -79.771496 106.035342 -79.771496 L 124.726705 -79.771496 C 125.82666 -79.771496 126.718408 -78.875819 126.718408 -77.775865 L 126.718408 -59.084502 C 126.718408 -57.984547 125.82666 -57.092799 124.726705 -57.092799 Z M 124.726705 -57.092799 " transform="matrix(0.99436, 0, 0, -0.99436, 69.722891, 14.444068)"/>
<g fill="rgb(0%, 0%, 0%)" fill-opacity="1">
<use xlink:href="#glyph-4-5" x="182.159114" y="85.309097"/>
</g>
<path fill-rule="nonzero" fill="rgb(87.998962%, 93.363953%, 96.374512%)" fill-opacity="1" stroke-width="0.3985" stroke-linecap="butt" stroke-linejoin="miter" stroke="rgb(39.99939%, 66.822815%, 81.881714%)" stroke-opacity="1" stroke-miterlimit="10" d="M 147.802172 -57.092799 L 129.110808 -57.092799 C 128.010854 -57.092799 127.115177 -57.984547 127.115177 -59.084502 L 127.115177 -77.775865 C 127.115177 -78.875819 128.010854 -79.771496 129.110808 -79.771496 L 147.802172 -79.771496 C 148.902126 -79.771496 149.793874 -78.875819 149.793874 -77.775865 L 149.793874 -59.084502 C 149.793874 -57.984547 148.902126 -57.092799 147.802172 -57.092799 Z M 147.802172 -57.092799 " transform="matrix(0.99436, 0, 0, -0.99436, 69.722891, 14.444068)"/>
<g fill="rgb(0%, 0%, 0%)" fill-opacity="1">
<use xlink:href="#glyph-4-6" x="205.104957" y="85.309097"/>
</g>
<path fill-rule="nonzero" fill="rgb(87.998962%, 93.363953%, 96.374512%)" fill-opacity="1" stroke-width="0.3985" stroke-linecap="butt" stroke-linejoin="miter" stroke="rgb(39.99939%, 66.822815%, 81.881714%)" stroke-opacity="1" stroke-miterlimit="10" d="M 170.877638 -57.092799 L 152.186275 -57.092799 C 151.08632 -57.092799 150.194572 -57.984547 150.194572 -59.084502 L 150.194572 -77.775865 C 150.194572 -78.875819 151.08632 -79.771496 152.186275 -79.771496 L 170.877638 -79.771496 C 171.977592 -79.771496 172.869341 -78.875819 172.869341 -77.775865 L 172.869341 -59.084502 C 172.869341 -57.984547 171.977592 -57.092799 170.877638 -57.092799 Z M 170.877638 -57.092799 " transform="matrix(0.99436, 0, 0, -0.99436, 69.722891, 14.444068)"/>
<g fill="rgb(0%, 0%, 0%)" fill-opacity="1">
<use xlink:href="#glyph-4-7" x="228.0508" y="85.309097"/>
</g>
<g fill="rgb(0%, 0%, 0%)" fill-opacity="1">
<use xlink:href="#glyph-5-0" x="6.648669" y="62.716252"/>
<use xlink:href="#glyph-5-1" x="10.561314" y="62.716252"/>
<use xlink:href="#glyph-5-2" x="15.126198" y="62.716252"/>
</g>
<g fill="rgb(0%, 0%, 0%)" fill-opacity="1">
<use xlink:href="#glyph-5-3" x="18.602959" y="62.716252"/>
<use xlink:href="#glyph-5-4" x="22.515604" y="62.716252"/>
<use xlink:href="#glyph-5-5" x="25.341711" y="62.716252"/>
<use xlink:href="#glyph-5-6" x="29.689446" y="62.716252"/>
</g>
<g fill="rgb(0%, 0%, 0%)" fill-opacity="1">
<use xlink:href="#glyph-5-7" x="36.211048" y="62.716252"/>
<use xlink:href="#glyph-5-3" x="40.558783" y="62.716252"/>
<use xlink:href="#glyph-5-8" x="44.471428" y="62.716252"/>
</g>
<g fill="rgb(0%, 0%, 0%)" fill-opacity="1">
<use xlink:href="#glyph-5-5" x="49.696477" y="62.716252"/>
<use xlink:href="#glyph-5-9" x="54.044212" y="62.716252"/>
<use xlink:href="#glyph-5-9" x="57.631133" y="62.716252"/>
</g>
<g fill="rgb(0%, 0%, 0%)" fill-opacity="1">
<use xlink:href="#glyph-5-5" x="60.782171" y="62.716252"/>
<use xlink:href="#glyph-5-10" x="65.129906" y="62.716252"/>
</g>
<g fill="rgb(0%, 0%, 0%)" fill-opacity="1">
<use xlink:href="#glyph-5-11" x="72.303748" y="62.716252"/>
<use xlink:href="#glyph-5-4" x="75.782094" y="62.716252"/>
<use xlink:href="#glyph-5-5" x="78.608201" y="62.716252"/>
<use xlink:href="#glyph-5-12" x="82.955936" y="62.716252"/>
<use xlink:href="#glyph-5-5" x="89.912629" y="62.716252"/>
<use xlink:href="#glyph-5-13" x="94.260364" y="62.716252"/>
<use xlink:href="#glyph-5-14" x="99.04319" y="62.716252"/>
</g>
<g fill="rgb(0%, 0%, 0%)" fill-opacity="1">
<use xlink:href="#glyph-6-0" x="106.43266" y="62.716252"/>
</g>
<g fill="rgb(0%, 0%, 0%)" fill-opacity="1">
<use xlink:href="#glyph-7-0" x="116.220142" y="62.716252"/>
</g>
<g fill="rgb(0%, 0%, 0%)" fill-opacity="1">
<use xlink:href="#glyph-7-1" x="125.107401" y="62.716252"/>
</g>
<g fill="rgb(0%, 0%, 0%)" fill-opacity="1">
<use xlink:href="#glyph-5-15" x="129.318842" y="62.716252"/>
</g>
<g fill="rgb(0%, 0%, 0%)" fill-opacity="1">
<use xlink:href="#glyph-8-0" x="105.273237" y="105.782963"/>
<use xlink:href="#glyph-8-1" x="109.433938" y="105.782963"/>
<use xlink:href="#glyph-8-2" x="113.59464" y="105.782963"/>
<use xlink:href="#glyph-8-0" x="117.755342" y="105.782963"/>
</g>
<g fill="rgb(0%, 0%, 0%)" fill-opacity="1">
<use xlink:href="#glyph-8-3" x="126.076745" y="105.782963"/>
</g>
<g fill="rgb(0%, 0%, 0%)" fill-opacity="1">
<use xlink:href="#glyph-8-4" x="134.398148" y="105.782963"/>
<use xlink:href="#glyph-8-5" x="138.558849" y="105.782963"/>
<use xlink:href="#glyph-8-6" x="142.719551" y="105.782963"/>
<use xlink:href="#glyph-8-7" x="146.880253" y="105.782963"/>
<use xlink:href="#glyph-8-8" x="151.040954" y="105.782963"/>
</g>
<g fill="rgb(0%, 0%, 0%)" fill-opacity="1">
<use xlink:href="#glyph-8-9" x="159.362357" y="105.782963"/>
</g>
<g fill="rgb(0%, 0%, 0%)" fill-opacity="1">
<use xlink:href="#glyph-8-10" x="167.68376" y="105.782963"/>
</g>
<path fill="none" stroke-width="0.79701" stroke-linecap="butt" stroke-linejoin="miter" stroke="rgb(0%, 0%, 0%)" stroke-opacity="1" stroke-miterlimit="10" d="M 31.379884 -0.00125129 L 66.609843 -0.00125129 " transform="matrix(0.99436, 0, 0, -0.99436, 69.722891, 14.444068)"/>
<path fill-rule="nonzero" fill="rgb(0%, 0%, 0%)" fill-opacity="1" stroke-width="0.79701" stroke-linecap="butt" stroke-linejoin="miter" stroke="rgb(0%, 0%, 0%)" stroke-opacity="1" stroke-miterlimit="10" d="M 5.953696 -0.00125129 L 1.286748 1.762604 L 2.830612 -0.00125129 L 1.286748 -1.761178 Z M 5.953696 -0.00125129 " transform="matrix(0.99436, 0, 0, -0.99436, 133.341603, 14.444068)"/>
<path fill="none" stroke-width="0.79701" stroke-linecap="butt" stroke-linejoin="miter" stroke="rgb(0%, 0%, 0%)" stroke-opacity="1" stroke-miterlimit="10" d="M 133.828826 -0.00125129 L 169.058785 -0.00125129 " transform="matrix(0.99436, 0, 0, -0.99436, 69.722891, 14.444068)"/>
<path fill-rule="nonzero" fill="rgb(0%, 0%, 0%)" fill-opacity="1" stroke-width="0.79701" stroke-linecap="butt" stroke-linejoin="miter" stroke="rgb(0%, 0%, 0%)" stroke-opacity="1" stroke-miterlimit="10" d="M 5.95167 -0.00125129 L 1.28865 1.762604 L 2.828586 -0.00125129 L 1.28865 -1.761178 Z M 5.95167 -0.00125129 " transform="matrix(0.99436, 0, 0, -0.99436, 235.210806, 14.444068)"/>
<path fill="none" stroke-width="0.79701" stroke-linecap="butt" stroke-linejoin="miter" stroke="rgb(0%, 0%, 0%)" stroke-opacity="1" stroke-miterlimit="10" d="M 204.893719 -11.538984 L 204.893719 -59.925181 L 173.069689 -59.925181 L 85.21871 -57.037801 " transform="matrix(0.99436, 0, 0, -0.99436, 69.722891, 14.444068)"/>
<path fill-rule="nonzero" fill="rgb(0%, 0%, 0%)" fill-opacity="1" stroke-width="0.79701" stroke-linecap="butt" stroke-linejoin="miter" stroke="rgb(0%, 0%, 0%)" stroke-opacity="1" stroke-miterlimit="10" d="M 5.952522 0.00165598 L 1.287893 1.762625 L 2.831568 0.00130224 L 1.28583 -1.763269 Z M 5.952522 0.00165598 " transform="matrix(-0.993783, -0.0326548, -0.0326548, 0.993783, 157.075725, 71.24742)"/>
</svg>
