<?xml version="1.0" encoding="UTF-8"?>
<svg xmlns="http://www.w3.org/2000/svg" xmlns:xlink="http://www.w3.org/1999/xlink" width="501.932" height="380.054" viewBox="0 0 228.151 172.752">
<defs>
<g>
<g id="glyph-0-0">
<path d="M 3.140625 -0.234375 C 3.140625 -0.453125 2.921875 -0.453125 2.828125 -0.453125 L 2.21875 -0.453125 L 2.21875 -4.015625 C 2.21875 -4.125 2.21875 -4.3125 1.984375 -4.3125 C 1.828125 -4.3125 1.796875 -4.234375 1.765625 -4.15625 C 1.453125 -3.515625 1.140625 -3.484375 0.921875 -3.46875 C 0.828125 -3.46875 0.71875 -3.375 0.71875 -3.234375 C 0.71875 -3.15625 0.765625 -3.015625 0.96875 -3.015625 C 1.296875 -3.015625 1.59375 -3.21875 1.6875 -3.28125 L 1.6875 -0.453125 L 1.0625 -0.453125 C 0.953125 -0.453125 0.765625 -0.453125 0.765625 -0.234375 C 0.765625 0 0.96875 0 1.0625 0 L 2.828125 0 C 2.9375 0 3.140625 0 3.140625 -0.234375 Z M 3.140625 -0.234375 "/>
</g>
<g id="glyph-0-1">
<path d="M 2.3125 -0.46875 C 2.3125 -0.75 2.09375 -0.9375 1.84375 -0.9375 C 1.578125 -0.9375 1.375 -0.71875 1.375 -0.46875 C 1.375 -0.1875 1.59375 0 1.84375 0 C 2.125 0 2.3125 -0.21875 2.3125 -0.46875 Z M 2.3125 -0.46875 "/>
</g>
<g id="glyph-0-2">
<path d="M 3.34375 -2.125 C 3.34375 -3.40625 2.625 -4.3125 1.84375 -4.3125 C 1.046875 -4.3125 0.328125 -3.390625 0.328125 -2.125 C 0.328125 -0.84375 1.0625 0.0625 1.84375 0.0625 C 2.640625 0.0625 3.34375 -0.859375 3.34375 -2.125 Z M 2.828125 -2.203125 C 2.828125 -1.203125 2.375 -0.390625 1.84375 -0.390625 C 1.296875 -0.390625 0.859375 -1.203125 0.859375 -2.203125 C 0.859375 -3.1875 1.328125 -3.859375 1.84375 -3.859375 C 2.34375 -3.859375 2.828125 -3.1875 2.828125 -2.203125 Z M 2.828125 -2.203125 "/>
</g>
<g id="glyph-0-3">
<path d="M 3.3125 -0.296875 L 3.3125 -0.484375 C 3.3125 -0.625 3.3125 -0.78125 3.046875 -0.78125 C 2.78125 -0.78125 2.78125 -0.625 2.78125 -0.453125 L 1.234375 -0.453125 C 1.75 -0.890625 2.296875 -1.328125 2.53125 -1.515625 C 2.921875 -1.890625 3.3125 -2.34375 3.3125 -2.953125 C 3.3125 -3.78125 2.625 -4.3125 1.75 -4.3125 C 0.9375 -4.3125 0.375 -3.78125 0.375 -3.1875 C 0.375 -2.890625 0.609375 -2.828125 0.703125 -2.828125 C 0.859375 -2.828125 1.046875 -2.9375 1.046875 -3.171875 C 1.046875 -3.25 1.015625 -3.34375 0.953125 -3.40625 C 1.0625 -3.671875 1.34375 -3.859375 1.71875 -3.859375 C 2.28125 -3.859375 2.78125 -3.546875 2.78125 -2.953125 C 2.78125 -2.4375 2.390625 -2.03125 1.96875 -1.671875 L 0.5 -0.453125 C 0.40625 -0.375 0.375 -0.34375 0.375 -0.234375 C 0.375 0 0.5625 0 0.671875 0 L 3.015625 0 C 3.25 0 3.3125 -0.0625 3.3125 -0.296875 Z M 3.3125 -0.296875 "/>
</g>
<g id="glyph-0-4">
<path d="M 3.375 -1.21875 C 3.375 -1.609375 3.171875 -2.0625 2.625 -2.328125 C 2.921875 -2.53125 3.171875 -2.90625 3.171875 -3.328125 C 3.171875 -3.859375 2.640625 -4.3125 1.84375 -4.3125 C 1.015625 -4.3125 0.515625 -4 0.515625 -3.5 C 0.515625 -3.28125 0.671875 -3.15625 0.859375 -3.15625 C 1.046875 -3.15625 1.1875 -3.296875 1.1875 -3.484375 C 1.1875 -3.609375 1.15625 -3.640625 1.140625 -3.671875 C 1.359375 -3.859375 1.796875 -3.859375 1.84375 -3.859375 C 2.328125 -3.859375 2.640625 -3.59375 2.640625 -3.328125 C 2.640625 -3.21875 2.609375 -2.96875 2.375 -2.75 C 2.171875 -2.578125 1.96875 -2.5625 1.75 -2.546875 C 1.34375 -2.515625 1.234375 -2.515625 1.234375 -2.296875 C 1.234375 -2.0625 1.421875 -2.0625 1.53125 -2.0625 L 1.828125 -2.0625 C 2.546875 -2.0625 2.84375 -1.578125 2.84375 -1.234375 C 2.84375 -0.828125 2.46875 -0.390625 1.84375 -0.390625 C 1.75 -0.390625 1.171875 -0.390625 0.90625 -0.71875 L 0.921875 -0.734375 C 0.953125 -0.8125 0.953125 -0.828125 0.96875 -0.890625 C 0.96875 -0.890625 0.984375 -0.90625 0.984375 -0.9375 C 0.984375 -1.109375 0.84375 -1.265625 0.640625 -1.265625 C 0.46875 -1.265625 0.3125 -1.15625 0.3125 -0.921875 C 0.3125 -0.296875 0.96875 0.0625 1.84375 0.0625 C 2.78125 0.0625 3.375 -0.578125 3.375 -1.21875 Z M 3.375 -1.21875 "/>
</g>
<g id="glyph-0-5">
<path d="M 3.484375 -1.390625 C 3.484375 -1.625 3.28125 -1.625 3.171875 -1.625 L 2.671875 -1.625 L 2.671875 -4.046875 C 2.671875 -4.296875 2.609375 -4.359375 2.375 -4.359375 L 2.15625 -4.359375 C 1.984375 -4.359375 1.9375 -4.34375 1.84375 -4.203125 L 0.265625 -1.71875 C 0.203125 -1.640625 0.203125 -1.625 0.203125 -1.46875 C 0.203125 -1.265625 0.25 -1.171875 0.5 -1.171875 L 2.234375 -1.171875 L 2.234375 -0.453125 L 1.828125 -0.453125 C 1.703125 -0.453125 1.515625 -0.453125 1.515625 -0.234375 C 1.515625 0 1.703125 0 1.828125 0 L 3.09375 0 C 3.203125 0 3.390625 0 3.390625 -0.234375 C 3.390625 -0.453125 3.203125 -0.453125 3.09375 -0.453125 L 2.671875 -0.453125 L 2.671875 -1.171875 L 3.171875 -1.171875 C 3.28125 -1.171875 3.484375 -1.171875 3.484375 -1.390625 Z M 2.234375 -1.625 L 0.734375 -1.625 L 2.234375 -3.984375 Z M 2.234375 -1.625 "/>
</g>
<g id="glyph-0-6">
<path d="M 3.3125 -1.328125 C 3.3125 -2.03125 2.765625 -2.703125 1.9375 -2.703125 C 1.71875 -2.703125 1.4375 -2.671875 1.125 -2.515625 L 1.125 -3.796875 L 2.765625 -3.796875 C 2.875 -3.796875 3.0625 -3.796875 3.0625 -4.015625 C 3.0625 -4.25 2.875 -4.25 2.765625 -4.25 L 0.890625 -4.25 C 0.671875 -4.25 0.59375 -4.1875 0.59375 -3.953125 L 0.59375 -2.09375 C 0.59375 -1.96875 0.59375 -1.796875 0.84375 -1.796875 C 0.953125 -1.796875 1 -1.828125 1.0625 -1.890625 C 1.15625 -2 1.375 -2.234375 1.9375 -2.234375 C 2.46875 -2.234375 2.78125 -1.765625 2.78125 -1.328125 C 2.78125 -0.8125 2.3125 -0.390625 1.734375 -0.390625 C 1.453125 -0.390625 1.09375 -0.5 0.953125 -0.78125 C 0.984375 -0.8125 1.046875 -0.890625 1.046875 -1 C 1.046875 -1.21875 0.875 -1.34375 0.703125 -1.34375 C 0.546875 -1.34375 0.375 -1.234375 0.375 -0.984375 C 0.375 -0.390625 0.96875 0.0625 1.734375 0.0625 C 2.609375 0.0625 3.3125 -0.546875 3.3125 -1.328125 Z M 3.3125 -1.328125 "/>
</g>
<g id="glyph-0-7">
<path d="M 3.328125 -1.34375 C 3.328125 -2.109375 2.71875 -2.734375 1.921875 -2.734375 C 1.3125 -2.734375 0.953125 -2.40625 0.890625 -2.375 C 1.03125 -3.390625 1.703125 -3.859375 2.25 -3.859375 C 2.390625 -3.859375 2.515625 -3.828125 2.59375 -3.765625 C 2.546875 -3.71875 2.515625 -3.640625 2.515625 -3.546875 C 2.515625 -3.375 2.640625 -3.21875 2.84375 -3.21875 C 3.0625 -3.21875 3.1875 -3.359375 3.1875 -3.5625 C 3.1875 -3.9375 2.921875 -4.3125 2.25 -4.3125 C 1.3125 -4.3125 0.359375 -3.46875 0.359375 -2.09375 C 0.359375 -0.40625 1.1875 0.0625 1.859375 0.0625 C 2.640625 0.0625 3.328125 -0.5 3.328125 -1.34375 Z M 2.796875 -1.328125 C 2.796875 -0.78125 2.359375 -0.390625 1.859375 -0.390625 C 1.359375 -0.390625 0.953125 -0.859375 0.953125 -1.546875 C 0.953125 -1.9375 1.375 -2.28125 1.890625 -2.28125 C 2.390625 -2.28125 2.796875 -1.875 2.796875 -1.328125 Z M 2.796875 -1.328125 "/>
</g>
<g id="glyph-1-0">
<path d="M 3.75 -5.0625 C 3.75 -5.40625 3.390625 -5.59375 3.03125 -5.59375 C 2.203125 -5.59375 2.015625 -4.59375 1.953125 -4.28125 L 1.78125 -3.421875 L 1.234375 -3.421875 C 1.09375 -3.421875 1 -3.421875 1 -3.265625 C 1 -3.15625 1.109375 -3.15625 1.21875 -3.15625 L 1.734375 -3.15625 L 1.203125 -0.296875 C 1.109375 0.21875 1.09375 0.296875 0.953125 0.765625 C 0.90625 0.953125 0.78125 1.390625 0.515625 1.390625 C 0.328125 1.390625 0.21875 1.296875 0.21875 1.296875 C 0.359375 1.234375 0.484375 1.09375 0.484375 0.921875 C 0.484375 0.6875 0.296875 0.65625 0.203125 0.65625 C -0.03125 0.65625 -0.203125 0.84375 -0.203125 1.09375 C -0.203125 1.453125 0.1875 1.625 0.484375 1.625 C 1.328125 1.625 1.65625 0.25 1.828125 -0.6875 L 2.296875 -3.15625 L 2.984375 -3.15625 C 3.125 -3.15625 3.21875 -3.15625 3.21875 -3.3125 C 3.21875 -3.421875 3.109375 -3.421875 3 -3.421875 L 2.34375 -3.421875 C 2.453125 -4.046875 2.4375 -3.984375 2.578125 -4.609375 C 2.65625 -4.984375 2.734375 -5.359375 3.03125 -5.359375 C 3.046875 -5.359375 3.21875 -5.359375 3.328125 -5.265625 C 3.203125 -5.21875 3.0625 -5.078125 3.0625 -4.890625 C 3.0625 -4.65625 3.25 -4.625 3.34375 -4.625 C 3.578125 -4.625 3.75 -4.8125 3.75 -5.0625 Z M 3.75 -5.0625 "/>
</g>
<g id="glyph-1-1">
<path d="M 4.28125 -2.15625 C 4.28125 -2.984375 3.734375 -3.5 3.015625 -3.5 C 2 -3.5 0.90625 -2.421875 0.90625 -1.265625 C 0.90625 -0.390625 1.515625 0.078125 2.171875 0.078125 C 3.234375 0.078125 4.28125 -1.015625 4.28125 -2.15625 Z M 3.6875 -2.4375 C 3.6875 -2.1875 3.578125 -1.40625 3.25 -0.875 C 3 -0.4375 2.5625 -0.140625 2.1875 -0.140625 C 1.875 -0.140625 1.515625 -0.34375 1.515625 -0.984375 C 1.515625 -1.34375 1.671875 -2.09375 1.921875 -2.53125 C 2.265625 -3.09375 2.734375 -3.28125 3.015625 -3.28125 C 3.390625 -3.28125 3.6875 -3 3.6875 -2.4375 Z M 3.6875 -2.4375 "/>
</g>
<g id="glyph-1-2">
<path d="M 4.09375 -2.953125 C 4.09375 -3.40625 3.515625 -3.5 3.25 -3.5 C 2.78125 -3.5 2.453125 -3.25 2.234375 -2.953125 C 2.15625 -3.25 1.890625 -3.5 1.515625 -3.5 C 1.25 -3.5 1.0625 -3.34375 0.890625 -3.078125 C 0.75 -2.796875 0.640625 -2.328125 0.640625 -2.28125 C 0.640625 -2.1875 0.734375 -2.1875 0.78125 -2.1875 C 0.90625 -2.1875 0.921875 -2.203125 0.96875 -2.390625 C 1.09375 -2.859375 1.234375 -3.28125 1.5 -3.28125 C 1.71875 -3.28125 1.71875 -3 1.71875 -2.921875 C 1.71875 -2.8125 1.703125 -2.6875 1.671875 -2.578125 L 1.09375 -0.265625 C 1.078125 -0.1875 1.078125 -0.171875 1.078125 -0.140625 C 1.078125 -0.015625 1.171875 0.078125 1.3125 0.078125 C 1.53125 0.078125 1.609375 -0.109375 1.640625 -0.234375 L 2.125 -2.171875 C 2.15625 -2.28125 2.53125 -3.28125 3.234375 -3.28125 C 3.3125 -3.28125 3.53125 -3.265625 3.6875 -3.15625 C 3.421875 -3.0625 3.40625 -2.84375 3.40625 -2.78125 C 3.40625 -2.5625 3.59375 -2.515625 3.6875 -2.515625 C 3.84375 -2.515625 4.09375 -2.625 4.09375 -2.953125 Z M 4.09375 -2.953125 "/>
</g>
<g id="glyph-1-3">
<path d="M 7.171875 -1.140625 C 7.171875 -1.234375 7.0625 -1.234375 7.03125 -1.234375 C 6.890625 -1.234375 6.890625 -1.203125 6.84375 -1.078125 C 6.703125 -0.5625 6.4375 -0.140625 6.109375 -0.140625 C 5.953125 -0.140625 5.921875 -0.25 5.921875 -0.390625 C 5.921875 -0.578125 6 -0.75 6.046875 -0.90625 C 6.203125 -1.328125 6.53125 -2.1875 6.53125 -2.640625 C 6.53125 -3.328125 6.0625 -3.5 5.625 -3.5 C 5.078125 -3.5 4.65625 -3.203125 4.359375 -2.78125 C 4.296875 -3.359375 3.828125 -3.5 3.453125 -3.5 C 2.78125 -3.5 2.390625 -3.046875 2.25 -2.859375 C 2.203125 -3.234375 1.90625 -3.5 1.515625 -3.5 C 1.25 -3.5 1.0625 -3.34375 0.890625 -3.078125 C 0.75 -2.796875 0.640625 -2.328125 0.640625 -2.28125 C 0.640625 -2.1875 0.734375 -2.1875 0.78125 -2.1875 C 0.90625 -2.1875 0.921875 -2.203125 0.96875 -2.390625 C 1.09375 -2.859375 1.234375 -3.28125 1.5 -3.28125 C 1.71875 -3.28125 1.71875 -3 1.71875 -2.921875 C 1.71875 -2.8125 1.703125 -2.6875 1.671875 -2.578125 L 1.09375 -0.265625 C 1.078125 -0.1875 1.078125 -0.171875 1.078125 -0.140625 C 1.078125 -0.015625 1.171875 0.078125 1.3125 0.078125 C 1.5625 0.078125 1.609375 -0.109375 1.6875 -0.40625 L 1.859375 -1.09375 L 2.125 -2.171875 C 2.125 -2.171875 2.5625 -3.28125 3.421875 -3.28125 C 3.734375 -3.28125 3.84375 -3.078125 3.84375 -2.75 C 3.84375 -2.6875 3.84375 -2.546875 3.78125 -2.296875 L 3.28125 -0.3125 C 3.265625 -0.265625 3.25 -0.1875 3.25 -0.140625 C 3.25 -0.015625 3.34375 0.078125 3.484375 0.078125 C 3.734375 0.078125 3.78125 -0.109375 3.859375 -0.40625 L 4.03125 -1.09375 C 4.078125 -1.265625 4.078125 -1.28125 4.15625 -1.609375 L 4.28125 -2.125 C 4.3125 -2.203125 4.53125 -2.6875 4.875 -3 C 5.015625 -3.125 5.28125 -3.28125 5.609375 -3.28125 C 5.921875 -3.28125 6.015625 -3.03125 6.015625 -2.75 C 6.015625 -2.296875 5.671875 -1.390625 5.53125 -0.984375 C 5.46875 -0.84375 5.421875 -0.71875 5.421875 -0.578125 C 5.421875 -0.21875 5.6875 0.078125 6.09375 0.078125 C 6.84375 0.078125 7.171875 -1.03125 7.171875 -1.140625 Z M 7.171875 -1.140625 "/>
</g>
<g id="glyph-1-4">
<path d="M 4.484375 -1.140625 C 4.484375 -1.234375 4.375 -1.234375 4.328125 -1.234375 C 4.203125 -1.234375 4.203125 -1.21875 4.15625 -1.015625 C 4 -0.40625 3.828125 -0.140625 3.625 -0.140625 C 3.390625 -0.140625 3.390625 -0.390625 3.390625 -0.484375 C 3.390625 -0.546875 3.390625 -0.625 3.421875 -0.71875 L 3.984375 -2.953125 C 3.984375 -3 4.015625 -3.09375 4.015625 -3.125 C 4.015625 -3.25 3.90625 -3.34375 3.765625 -3.34375 C 3.65625 -3.34375 3.484375 -3.28125 3.4375 -3.0625 C 3.28125 -3.328125 3.046875 -3.5 2.71875 -3.5 C 1.78125 -3.5 0.8125 -2.328125 0.8125 -1.1875 C 0.8125 -0.421875 1.265625 0.078125 1.859375 0.078125 C 2.328125 0.078125 2.71875 -0.265625 2.890625 -0.453125 C 2.953125 -0.171875 3.21875 0.078125 3.609375 0.078125 C 3.890625 0.078125 4.078125 -0.09375 4.21875 -0.34375 C 4.375 -0.65625 4.484375 -1.140625 4.484375 -1.140625 Z M 2.9375 -1.0625 C 2.875 -0.78125 2.359375 -0.140625 1.890625 -0.140625 C 1.515625 -0.140625 1.390625 -0.546875 1.390625 -0.859375 C 1.390625 -1.234375 1.625 -2.171875 1.828125 -2.546875 C 2.140625 -3.125 2.5 -3.28125 2.71875 -3.28125 C 3.21875 -3.28125 3.296875 -2.609375 3.296875 -2.53125 L 3.28125 -2.40625 Z M 2.9375 -1.0625 "/>
</g>
<g id="glyph-1-5">
<path d="M 3.984375 -0.796875 C 3.984375 -0.859375 3.875 -0.953125 3.828125 -0.953125 C 3.78125 -0.953125 3.765625 -0.9375 3.703125 -0.859375 C 3.265625 -0.34375 2.640625 -0.140625 2.203125 -0.140625 C 1.65625 -0.140625 1.53125 -0.6875 1.53125 -1.046875 C 1.53125 -1.234375 1.59375 -1.578125 1.640625 -1.8125 L 2.09375 -1.8125 C 2.40625 -1.8125 3.890625 -1.8125 3.890625 -2.8125 C 3.890625 -3.203125 3.546875 -3.5 3.015625 -3.5 C 2.15625 -3.5 0.9375 -2.75 0.9375 -1.34375 C 0.9375 -0.625 1.359375 0.078125 2.203125 0.078125 C 3.34375 0.078125 3.984375 -0.6875 3.984375 -0.796875 Z M 3.546875 -2.8125 C 3.546875 -2.03125 2.328125 -2.03125 2.03125 -2.03125 L 1.703125 -2.03125 C 1.96875 -3.015625 2.65625 -3.28125 3.015625 -3.28125 C 3.28125 -3.28125 3.546875 -3.125 3.546875 -2.8125 Z M 3.546875 -2.8125 "/>
</g>
<g id="glyph-1-6">
<path d="M 1.90625 0.40625 L 2.640625 -2.5 C 2.671875 -2.65625 2.671875 -2.71875 2.671875 -2.765625 C 2.671875 -3.203125 2.359375 -3.5 1.9375 -3.5 C 1.109375 -3.5 0.640625 -2.375 0.640625 -2.28125 C 0.640625 -2.1875 0.75 -2.1875 0.78125 -2.1875 C 0.90625 -2.1875 0.90625 -2.203125 0.953125 -2.3125 C 1.265625 -3.078125 1.65625 -3.28125 1.90625 -3.28125 C 2.046875 -3.28125 2.15625 -3.21875 2.15625 -2.921875 C 2.15625 -2.8125 2.140625 -2.75 2.125 -2.71875 L 1.359375 0.40625 C 1.296875 0.671875 1.015625 1.390625 0.46875 1.390625 C 0.375 1.390625 0.28125 1.375 0.1875 1.34375 C 0.390625 1.234375 0.40625 1 0.40625 1 C 0.40625 0.84375 0.296875 0.734375 0.125 0.734375 C -0.09375 0.734375 -0.28125 0.90625 -0.28125 1.15625 C -0.28125 1.453125 0.046875 1.625 0.46875 1.625 C 1.15625 1.625 1.75 1.046875 1.90625 0.40625 Z M 2.9375 -4.828125 C 2.9375 -5.109375 2.71875 -5.1875 2.578125 -5.1875 C 2.3125 -5.1875 2.046875 -4.9375 2.046875 -4.671875 C 2.046875 -4.4375 2.234375 -4.3125 2.40625 -4.3125 C 2.671875 -4.3125 2.9375 -4.546875 2.9375 -4.828125 Z M 2.9375 -4.828125 "/>
</g>
<g id="glyph-1-7">
<path d="M 4.640625 -3.875 C 4.640625 -4.125 4.640625 -5.28125 3.484375 -5.28125 C 2.8125 -5.28125 2.1875 -4.859375 1.71875 -4.03125 C 1.296875 -3.28125 0.96875 -1.875 0.96875 -1.21875 C 0.96875 -0.890625 1.015625 0.171875 2.140625 0.171875 C 2.90625 0.171875 3.546875 -0.390625 3.90625 -1.09375 C 4.34375 -1.859375 4.640625 -3.21875 4.640625 -3.875 Z M 4.125 -4.28125 C 4.125 -3.671875 3.53125 -1.34375 3.234375 -0.828125 C 2.890625 -0.203125 2.46875 -0.0625 2.1875 -0.0625 C 1.8125 -0.0625 1.515625 -0.328125 1.515625 -0.84375 C 1.515625 -1.546875 2.0625 -3.484375 2.140625 -3.71875 C 2.25 -4.03125 2.578125 -5.0625 3.4375 -5.0625 C 3.765625 -5.0625 4.125 -4.828125 4.125 -4.28125 Z M 4.125 -4.28125 "/>
</g>
<g id="glyph-1-8">
<path d="M 3.546875 -0.15625 C 3.546875 -0.265625 3.453125 -0.265625 3.328125 -0.265625 L 3.25 -0.265625 L 2.875 -0.28125 C 2.6875 -0.296875 2.65625 -0.3125 2.65625 -0.421875 C 2.65625 -0.46875 2.671875 -0.546875 2.6875 -0.59375 L 3.796875 -5.0625 C 3.8125 -5.109375 3.828125 -5.140625 3.828125 -5.171875 C 3.828125 -5.1875 3.8125 -5.28125 3.703125 -5.28125 C 3.640625 -5.28125 3.625 -5.25 3.5625 -5.15625 C 3.140625 -4.609375 2.6875 -4.3125 2.125 -4.25 C 2.0625 -4.25 1.96875 -4.234375 1.96875 -4.109375 C 1.96875 -4.015625 2.0625 -4 2.125 -4 C 2.390625 -4 2.703125 -4.109375 3.046875 -4.328125 L 2.125 -0.640625 C 2.0625 -0.34375 2.015625 -0.265625 1.328125 -0.265625 L 1.25 -0.265625 C 1.125 -0.265625 1.015625 -0.265625 1.015625 -0.109375 C 1.015625 -0.109375 1.03125 0 1.15625 0 L 1.6875 -0.03125 L 2.8125 -0.03125 C 3 -0.015625 3.203125 0 3.375 0 C 3.4375 0 3.546875 0 3.546875 -0.15625 Z M 3.546875 -0.15625 "/>
</g>
<g id="glyph-1-9">
<path d="M 4.171875 -1.625 C 4.171875 -2.0625 3.953125 -2.3125 3.90625 -2.359375 C 3.84375 -2.421875 3.53125 -2.6875 3.34375 -2.84375 C 4.484375 -3.359375 4.640625 -4.015625 4.640625 -4.328125 C 4.640625 -4.890625 4.140625 -5.28125 3.46875 -5.28125 C 2.59375 -5.28125 1.71875 -4.546875 1.71875 -3.703125 C 1.71875 -3.203125 1.953125 -3.015625 2.359375 -2.703125 C 1.5625 -2.34375 0.8125 -1.78125 0.8125 -0.9375 C 0.8125 -0.203125 1.46875 0.171875 2.15625 0.171875 C 3.171875 0.171875 4.171875 -0.671875 4.171875 -1.625 Z M 4.234375 -4.34375 C 4.234375 -3.78125 3.71875 -3.265625 3.140625 -3 L 2.421875 -3.546875 C 2.40625 -3.546875 2.1875 -3.71875 2.1875 -4.03125 C 2.1875 -4.578125 2.828125 -5.078125 3.453125 -5.078125 C 3.921875 -5.078125 4.234375 -4.765625 4.234375 -4.34375 Z M 3.65625 -1.328125 C 3.65625 -0.6875 2.921875 -0.078125 2.171875 -0.078125 C 1.609375 -0.078125 1.25 -0.4375 1.25 -0.921875 C 1.25 -1.859375 2.4375 -2.53125 2.5625 -2.53125 C 2.59375 -2.53125 2.84375 -2.3125 3 -2.203125 C 3.515625 -1.796875 3.65625 -1.703125 3.65625 -1.328125 Z M 3.65625 -1.328125 "/>
</g>
<g id="glyph-1-10">
<path d="M 4.28125 -2.109375 C 4.28125 -2.46875 4.046875 -3.375 3.078125 -3.375 C 2.671875 -3.375 2.28125 -3.1875 1.90625 -2.703125 C 2.515625 -5.0625 3.765625 -5.078125 3.890625 -5.078125 C 4.21875 -5.078125 4.375 -4.953125 4.421875 -4.765625 C 4.078125 -4.71875 4.046875 -4.4375 4.046875 -4.375 C 4.046875 -4.21875 4.15625 -4.109375 4.328125 -4.109375 C 4.546875 -4.109375 4.734375 -4.265625 4.734375 -4.640625 C 4.734375 -5.09375 4.359375 -5.28125 3.90625 -5.28125 C 3.28125 -5.28125 2.53125 -4.90625 1.890625 -4.09375 C 1.03125 -2.953125 0.984375 -1.453125 0.984375 -1.328125 C 0.984375 -0.671875 1.21875 0.171875 2.171875 0.171875 C 3.25 0.171875 4.28125 -0.953125 4.28125 -2.109375 Z M 3.671875 -2.421875 C 3.671875 -2.15625 3.453125 -1.21875 3.25 -0.8125 C 3.171875 -0.65625 2.796875 -0.078125 2.1875 -0.078125 C 1.859375 -0.078125 1.5625 -0.28125 1.5625 -0.859375 C 1.5625 -1.078125 1.609375 -1.84375 1.96875 -2.453125 C 2.1875 -2.796875 2.578125 -3.15625 3.03125 -3.15625 C 3.671875 -3.15625 3.671875 -2.515625 3.671875 -2.421875 Z M 3.671875 -2.421875 "/>
</g>
<g id="glyph-1-11">
<path d="M 4.390625 -1.296875 C 4.390625 -1.390625 4.28125 -1.390625 4.234375 -1.390625 C 4.125 -1.390625 4.109375 -1.375 4.078125 -1.28125 C 3.90625 -0.734375 3.515625 -0.421875 3.09375 -0.421875 C 2.828125 -0.421875 2.515625 -0.484375 2.296875 -0.53125 C 2.03125 -0.59375 1.734375 -0.65625 1.484375 -0.65625 C 1.484375 -0.65625 1.375 -0.65625 1.328125 -0.640625 C 1.734375 -1.265625 2.34375 -1.59375 2.640625 -1.734375 C 4.171875 -2.53125 4.609375 -3.078125 4.609375 -3.90625 C 4.609375 -4.765625 4 -5.28125 3.25 -5.28125 C 2.0625 -5.28125 1.328125 -3.765625 1.328125 -3.203125 C 1.328125 -2.953125 1.4375 -2.671875 1.78125 -2.671875 C 2.421875 -2.671875 2.8125 -3.578125 2.8125 -3.90625 C 2.8125 -4.09375 2.703125 -4.359375 2.609375 -4.359375 C 2.546875 -4.359375 2.484375 -4.3125 2.484375 -4.25 C 2.484375 -4.21875 2.515625 -4.171875 2.53125 -4.140625 C 2.546875 -4.125 2.59375 -4.03125 2.59375 -3.90625 C 2.59375 -3.671875 2.28125 -2.890625 1.796875 -2.890625 C 1.671875 -2.890625 1.625 -2.984375 1.625 -3.15625 C 1.625 -3.6875 2.265625 -5.0625 3.234375 -5.0625 C 3.59375 -5.0625 4.015625 -4.828125 4.015625 -4.15625 C 4.015625 -2.96875 3.21875 -2.375 2.28125 -1.890625 C 1.046875 -1.234375 0.703125 -0.078125 0.703125 0.0625 C 0.703125 0.171875 0.78125 0.171875 0.84375 0.171875 C 0.953125 0.171875 0.96875 0.15625 1.015625 0.046875 C 1.03125 0 1.15625 -0.421875 1.453125 -0.421875 C 1.71875 -0.421875 1.9375 -0.296875 2.21875 -0.125 C 2.40625 0 2.6875 0.171875 3.015625 0.171875 C 3.953125 0.171875 4.390625 -1.140625 4.390625 -1.296875 Z M 4.390625 -1.296875 "/>
</g>
<g id="glyph-1-12">
<path d="M 4.046875 -0.125 C 4.046875 -0.15625 4 -0.265625 3.90625 -0.265625 C 3.90625 -0.265625 3.875 -0.265625 3.796875 -0.234375 C 3.734375 -0.203125 3.515625 -0.140625 3.265625 -0.140625 C 3.234375 -0.140625 3.171875 -0.140625 3.140625 -0.140625 L 3.5 -1.578125 C 3.515625 -1.640625 3.515625 -1.6875 3.515625 -1.6875 C 3.515625 -1.859375 3.359375 -1.921875 3.28125 -1.921875 C 3.03125 -1.921875 2.984375 -1.765625 2.859375 -1.296875 L 2.609375 -0.265625 C 1.96875 -0.484375 1.828125 -0.546875 1.5 -0.546875 L 1.21875 -0.546875 C 1.578125 -0.859375 2.15625 -1.390625 2.703125 -2.234375 C 3.65625 -3.703125 3.90625 -4.984375 3.90625 -5.0625 C 3.90625 -5.234375 3.75 -5.28125 3.6875 -5.28125 C 3.421875 -5.28125 3.375 -5.046875 3.34375 -4.984375 C 2.96875 -3.5625 2.40625 -2.171875 1.40625 -1.09375 C 1 -0.671875 0.71875 -0.453125 0.703125 -0.4375 C 0.59375 -0.390625 0.359375 -0.28125 0.359375 -0.140625 C 0.359375 -0.09375 0.421875 0 0.484375 0 C 0.546875 0 0.671875 -0.09375 0.75 -0.15625 C 0.90625 -0.28125 1.1875 -0.28125 1.40625 -0.28125 C 1.59375 -0.28125 1.75 -0.28125 2.046875 -0.1875 C 2.046875 -0.1875 2.0625 -0.1875 2.546875 -0.015625 C 2.265625 1.125 2.21875 1.265625 2.21875 1.3125 C 2.21875 1.4375 2.328125 1.546875 2.453125 1.546875 C 2.71875 1.546875 2.75 1.359375 2.84375 1.015625 L 3.0625 0.125 C 3.125 0.125 3.1875 0.125 3.25 0.125 C 3.46875 0.125 4.046875 0.03125 4.046875 -0.125 Z M 4.046875 -0.125 "/>
</g>
<g id="glyph-1-13">
<path d="M 4.703125 -4.1875 C 4.703125 -4.765625 4.25 -5.28125 3.453125 -5.28125 C 2.4375 -5.28125 1.625 -4.453125 1.625 -3.796875 C 1.625 -3.53125 1.78125 -3.265625 2.109375 -3.265625 C 2.453125 -3.265625 2.8125 -3.5625 2.8125 -3.9375 C 2.8125 -4.140625 2.703125 -4.359375 2.609375 -4.359375 C 2.546875 -4.359375 2.484375 -4.3125 2.484375 -4.25 C 2.484375 -4.25 2.484375 -4.21875 2.53125 -4.15625 C 2.5625 -4.09375 2.59375 -4.015625 2.59375 -3.9375 C 2.59375 -3.671875 2.328125 -3.5 2.125 -3.5 C 1.96875 -3.5 1.921875 -3.625 1.921875 -3.78125 C 1.921875 -4.359375 2.640625 -5.0625 3.4375 -5.0625 C 3.84375 -5.0625 4.1875 -4.84375 4.1875 -4.34375 C 4.1875 -4.1875 4.09375 -2.78125 2.734375 -2.78125 L 2.515625 -2.78125 C 2.390625 -2.78125 2.296875 -2.78125 2.296875 -2.625 C 2.296875 -2.53125 2.390625 -2.53125 2.53125 -2.53125 L 2.78125 -2.53125 C 3.046875 -2.53125 3.4375 -2.421875 3.4375 -1.84375 C 3.4375 -1.109375 3 -0.0625 1.9375 -0.0625 C 1.5625 -0.0625 1.125 -0.265625 1.09375 -0.8125 C 1.453125 -0.84375 1.5 -1.140625 1.5 -1.203125 C 1.5 -1.328125 1.40625 -1.46875 1.203125 -1.46875 C 0.84375 -1.46875 0.78125 -1.078125 0.78125 -0.859375 C 0.78125 -0.3125 1.21875 0.171875 1.9375 0.171875 C 2.953125 0.171875 4.046875 -0.59375 4.046875 -1.59375 C 4.046875 -2.234375 3.625 -2.53125 3.421875 -2.625 C 4.21875 -2.890625 4.703125 -3.59375 4.703125 -4.1875 Z M 4.703125 -4.1875 "/>
</g>
<g id="glyph-1-14">
<path d="M 4.5625 -1.140625 C 4.5625 -1.234375 4.453125 -1.234375 4.40625 -1.234375 C 4.28125 -1.234375 4.28125 -1.21875 4.234375 -1.015625 C 4.078125 -0.40625 3.90625 -0.140625 3.703125 -0.140625 C 3.484375 -0.140625 3.484375 -0.390625 3.484375 -0.484375 C 3.484375 -0.546875 3.484375 -0.625 3.5 -0.71875 L 4.640625 -5.28125 C 4.640625 -5.3125 4.65625 -5.359375 4.65625 -5.390625 C 4.65625 -5.515625 4.53125 -5.515625 4.4375 -5.5 L 3.625 -5.421875 C 3.515625 -5.421875 3.421875 -5.40625 3.421875 -5.265625 C 3.421875 -5.15625 3.515625 -5.15625 3.625 -5.15625 C 4.015625 -5.15625 4.015625 -5.109375 4.015625 -5.046875 C 4.015625 -5 3.984375 -4.90625 3.984375 -4.859375 L 3.53125 -3.0625 C 3.359375 -3.328125 3.125 -3.5 2.796875 -3.5 C 1.859375 -3.5 0.890625 -2.328125 0.890625 -1.1875 C 0.890625 -0.421875 1.34375 0.078125 1.9375 0.078125 C 2.40625 0.078125 2.796875 -0.265625 2.96875 -0.453125 C 3.046875 -0.171875 3.296875 0.078125 3.6875 0.078125 C 3.96875 0.078125 4.15625 -0.09375 4.296875 -0.34375 C 4.453125 -0.65625 4.5625 -1.140625 4.5625 -1.140625 Z M 3.03125 -1.0625 C 2.953125 -0.78125 2.4375 -0.140625 1.96875 -0.140625 C 1.59375 -0.140625 1.46875 -0.546875 1.46875 -0.859375 C 1.46875 -1.234375 1.703125 -2.171875 1.90625 -2.546875 C 2.21875 -3.125 2.578125 -3.28125 2.796875 -3.28125 C 3.296875 -3.28125 3.375 -2.609375 3.375 -2.53125 L 3.359375 -2.40625 Z M 3.03125 -1.0625 "/>
</g>
<g id="glyph-1-15">
<path d="M 3.328125 -1.234375 C 3.328125 -1.9375 2.625 -2.09375 2.359375 -2.140625 C 2.015625 -2.21875 1.75 -2.265625 1.75 -2.59375 C 1.75 -2.8125 1.9375 -3.28125 2.5625 -3.28125 C 2.8125 -3.28125 3.09375 -3.1875 3.1875 -2.9375 C 2.90625 -2.875 2.90625 -2.625 2.90625 -2.625 C 2.90625 -2.46875 3.015625 -2.375 3.15625 -2.375 C 3.1875 -2.375 3.5 -2.375 3.5 -2.8125 C 3.5 -3.28125 3.03125 -3.5 2.578125 -3.5 C 1.515625 -3.5 1.25 -2.640625 1.25 -2.328125 C 1.25 -2.125 1.34375 -1.90625 1.515625 -1.765625 C 1.6875 -1.625 1.765625 -1.609375 2.234375 -1.5 C 2.40625 -1.46875 2.828125 -1.375 2.828125 -0.96875 C 2.828125 -0.734375 2.625 -0.140625 1.75 -0.140625 C 1.59375 -0.140625 1.125 -0.171875 0.953125 -0.53125 C 1.3125 -0.59375 1.3125 -0.890625 1.3125 -0.921875 C 1.3125 -1.078125 1.203125 -1.1875 1.03125 -1.1875 C 0.8125 -1.1875 0.625 -1.03125 0.625 -0.6875 C 0.625 -0.25 1.0625 0.078125 1.75 0.078125 C 3 0.078125 3.328125 -0.859375 3.328125 -1.234375 Z M 3.328125 -1.234375 "/>
</g>
<g id="glyph-1-16">
<path d="M 4.296875 -2.234375 C 4.296875 -3.09375 3.765625 -3.5 3.25 -3.5 C 2.8125 -3.5 2.421875 -3.1875 2.21875 -2.953125 C 2.125 -3.34375 1.796875 -3.5 1.515625 -3.5 C 1.25 -3.5 1.0625 -3.34375 0.890625 -3.078125 C 0.75 -2.796875 0.640625 -2.328125 0.640625 -2.28125 C 0.640625 -2.1875 0.734375 -2.1875 0.78125 -2.1875 C 0.90625 -2.1875 0.921875 -2.203125 0.96875 -2.390625 C 1.09375 -2.859375 1.234375 -3.28125 1.5 -3.28125 C 1.71875 -3.28125 1.71875 -3 1.71875 -2.921875 C 1.71875 -2.8125 1.703125 -2.75 1.703125 -2.71875 L 0.78125 0.96875 C 0.71875 1.234375 0.671875 1.28125 0.375 1.28125 C 0.28125 1.28125 0.1875 1.28125 0.1875 1.421875 C 0.1875 1.453125 0.203125 1.546875 0.296875 1.546875 C 0.359375 1.546875 0.40625 1.515625 0.96875 1.515625 C 1.546875 1.515625 1.671875 1.546875 1.734375 1.546875 C 1.78125 1.546875 1.890625 1.546875 1.890625 1.390625 C 1.890625 1.28125 1.78125 1.28125 1.6875 1.28125 C 1.46875 1.28125 1.296875 1.28125 1.296875 1.171875 C 1.296875 1.125 1.359375 0.90625 1.390625 0.78125 L 1.671875 -0.359375 C 1.84375 -0.0625 2.109375 0.078125 2.40625 0.078125 C 3.296875 0.078125 4.296875 -1.03125 4.296875 -2.234375 Z M 3.328125 -0.9375 C 3.078125 -0.421875 2.703125 -0.140625 2.40625 -0.140625 C 1.890625 -0.140625 1.8125 -0.84375 1.8125 -0.890625 C 1.8125 -0.921875 1.828125 -0.953125 1.828125 -1 L 2.171875 -2.359375 C 2.203125 -2.5 2.21875 -2.515625 2.328125 -2.671875 C 2.6875 -3.140625 3.015625 -3.28125 3.234375 -3.28125 C 3.46875 -3.28125 3.71875 -3.09375 3.71875 -2.546875 C 3.71875 -2.125 3.484375 -1.28125 3.328125 -0.9375 Z M 3.328125 -0.9375 "/>
</g>
<g id="glyph-1-17">
<path d="M 2.375 -1.140625 C 2.375 -1.234375 2.265625 -1.234375 2.234375 -1.234375 C 2.109375 -1.234375 2.09375 -1.203125 2.0625 -1.078125 C 1.953125 -0.671875 1.8125 -0.140625 1.53125 -0.140625 C 1.3125 -0.140625 1.3125 -0.390625 1.3125 -0.484375 C 1.3125 -0.546875 1.3125 -0.625 1.328125 -0.71875 L 2.46875 -5.28125 C 2.46875 -5.3125 2.5 -5.359375 2.5 -5.390625 C 2.5 -5.515625 2.359375 -5.515625 2.28125 -5.5 L 1.453125 -5.421875 C 1.34375 -5.421875 1.25 -5.40625 1.25 -5.265625 C 1.25 -5.15625 1.34375 -5.15625 1.453125 -5.15625 C 1.84375 -5.15625 1.84375 -5.109375 1.84375 -5.046875 C 1.84375 -5 1.8125 -4.90625 1.8125 -4.859375 L 0.828125 -0.9375 C 0.78125 -0.78125 0.78125 -0.734375 0.78125 -0.65625 C 0.78125 -0.171875 1.15625 0.078125 1.515625 0.078125 C 1.6875 0.078125 1.921875 0.03125 2.125 -0.359375 C 2.265625 -0.640625 2.375 -1.109375 2.375 -1.140625 Z M 2.375 -1.140625 "/>
</g>
<g id="glyph-1-18">
<path d="M 3.6875 -1.15625 C 3.6875 -1.25 3.59375 -1.25 3.546875 -1.25 C 3.421875 -1.25 3.40625 -1.21875 3.375 -1.125 C 3.25 -0.734375 2.84375 -0.46875 2.46875 -0.46875 C 2.3125 -0.46875 2.171875 -0.53125 1.9375 -0.609375 C 1.671875 -0.703125 1.59375 -0.703125 1.34375 -0.703125 L 1.953125 -1.3125 L 2.84375 -2.109375 C 3.296875 -2.578125 3.3125 -2.59375 3.4375 -2.75 C 3.59375 -2.921875 3.890625 -3.3125 3.890625 -3.40625 C 3.890625 -3.5 3.796875 -3.5 3.734375 -3.5 C 3.640625 -3.5 3.625 -3.5 3.578125 -3.421875 C 3.328125 -3.015625 3.234375 -2.9375 3.078125 -2.9375 C 2.90625 -2.9375 2.796875 -3.0625 2.6875 -3.203125 C 2.46875 -3.421875 2.328125 -3.5 2.140625 -3.5 C 1.53125 -3.5 1.140625 -2.78125 1.140625 -2.578125 C 1.140625 -2.46875 1.25 -2.46875 1.296875 -2.46875 C 1.390625 -2.46875 1.40625 -2.484375 1.4375 -2.5625 C 1.609375 -2.953125 2.03125 -2.953125 2.078125 -2.953125 C 2.234375 -2.953125 2.40625 -2.890625 2.53125 -2.84375 C 2.828125 -2.734375 2.890625 -2.71875 3.046875 -2.71875 C 2.828125 -2.4375 2.375 -2.046875 2.015625 -1.734375 C 1.75 -1.5 1.5 -1.265625 1.25 -1.015625 C 0.8125 -0.5625 0.515625 -0.09375 0.515625 -0.015625 C 0.515625 0.078125 0.609375 0.078125 0.65625 0.078125 C 0.765625 0.078125 0.765625 0.078125 0.828125 -0.03125 C 0.9375 -0.1875 1.171875 -0.484375 1.4375 -0.484375 C 1.59375 -0.484375 1.671875 -0.4375 1.875 -0.21875 C 2.03125 -0.03125 2.171875 0.078125 2.390625 0.078125 C 3.203125 0.078125 3.6875 -0.90625 3.6875 -1.15625 Z M 3.6875 -1.15625 "/>
</g>
<g id="glyph-1-19">
<path d="M 2.8125 -1.140625 C 2.8125 -1.234375 2.703125 -1.234375 2.671875 -1.234375 C 2.546875 -1.234375 2.53125 -1.203125 2.5 -1.078125 C 2.34375 -0.5625 2.09375 -0.140625 1.75 -0.140625 C 1.609375 -0.140625 1.578125 -0.25 1.578125 -0.390625 C 1.578125 -0.578125 1.625 -0.71875 1.75 -1.046875 L 2.28125 -2.421875 C 2.34375 -2.609375 2.375 -2.6875 2.375 -2.84375 C 2.375 -3.28125 2.046875 -3.5 1.71875 -3.5 C 0.953125 -3.5 0.640625 -2.390625 0.640625 -2.28125 C 0.640625 -2.1875 0.734375 -2.1875 0.78125 -2.1875 C 0.90625 -2.1875 0.921875 -2.203125 0.953125 -2.34375 C 1.078125 -2.765625 1.3125 -3.28125 1.703125 -3.28125 C 1.84375 -3.28125 1.875 -3.171875 1.875 -3.03125 C 1.875 -2.84375 1.8125 -2.703125 1.71875 -2.421875 L 1.15625 -0.9375 C 1.125 -0.859375 1.078125 -0.71875 1.078125 -0.578125 C 1.078125 -0.21875 1.328125 0.078125 1.734375 0.078125 C 2.5 0.078125 2.8125 -1.046875 2.8125 -1.140625 Z M 2.9375 -4.828125 C 2.9375 -5.109375 2.71875 -5.1875 2.578125 -5.1875 C 2.3125 -5.1875 2.046875 -4.9375 2.046875 -4.671875 C 2.046875 -4.4375 2.234375 -4.3125 2.40625 -4.3125 C 2.671875 -4.3125 2.9375 -4.546875 2.9375 -4.828125 Z M 2.9375 -4.828125 "/>
</g>
<g id="glyph-1-20">
<path d="M 5 -1.140625 C 5 -1.234375 4.875 -1.234375 4.84375 -1.234375 C 4.71875 -1.234375 4.703125 -1.203125 4.671875 -1.078125 C 4.53125 -0.5625 4.265625 -0.140625 3.921875 -0.140625 C 3.765625 -0.140625 3.75 -0.25 3.75 -0.390625 C 3.75 -0.578125 3.8125 -0.75 3.859375 -0.90625 C 4.03125 -1.328125 4.34375 -2.1875 4.34375 -2.640625 C 4.34375 -3.328125 3.875 -3.5 3.4375 -3.5 C 2.765625 -3.5 2.390625 -3.046875 2.25 -2.859375 C 2.203125 -3.234375 1.90625 -3.5 1.515625 -3.5 C 1.25 -3.5 1.0625 -3.34375 0.890625 -3.078125 C 0.75 -2.796875 0.640625 -2.328125 0.640625 -2.28125 C 0.640625 -2.1875 0.734375 -2.1875 0.78125 -2.1875 C 0.90625 -2.1875 0.921875 -2.203125 0.96875 -2.390625 C 1.09375 -2.859375 1.234375 -3.28125 1.5 -3.28125 C 1.71875 -3.28125 1.71875 -3 1.71875 -2.921875 C 1.71875 -2.8125 1.703125 -2.6875 1.671875 -2.578125 L 1.09375 -0.265625 C 1.078125 -0.1875 1.078125 -0.171875 1.078125 -0.140625 C 1.078125 -0.015625 1.171875 0.078125 1.3125 0.078125 C 1.5625 0.078125 1.609375 -0.109375 1.6875 -0.40625 L 1.859375 -1.09375 C 1.890625 -1.265625 1.890625 -1.28125 1.984375 -1.609375 L 2.109375 -2.125 C 2.15625 -2.25 2.390625 -2.71875 2.640625 -2.953125 C 2.890625 -3.171875 3.140625 -3.28125 3.421875 -3.28125 C 3.734375 -3.28125 3.828125 -3.0625 3.828125 -2.75 C 3.828125 -2.296875 3.5 -1.390625 3.34375 -0.984375 C 3.28125 -0.84375 3.234375 -0.71875 3.234375 -0.578125 C 3.234375 -0.21875 3.5 0.078125 3.90625 0.078125 C 4.65625 0.078125 5 -1.03125 5 -1.140625 Z M 5 -1.140625 "/>
</g>
<g id="glyph-1-21">
<path d="M 3.03125 -1.140625 C 3.03125 -1.234375 2.921875 -1.234375 2.890625 -1.234375 C 2.765625 -1.234375 2.765625 -1.21875 2.71875 -1.109375 C 2.375 -0.296875 2 -0.140625 1.75 -0.140625 C 1.5625 -0.140625 1.53125 -0.3125 1.53125 -0.484375 C 1.53125 -0.546875 1.53125 -0.625 1.546875 -0.71875 L 2.15625 -3.15625 L 2.875 -3.15625 C 3.015625 -3.15625 3.109375 -3.15625 3.109375 -3.3125 C 3.109375 -3.421875 3.015625 -3.421875 2.875 -3.421875 L 2.21875 -3.421875 L 2.5 -4.5625 C 2.53125 -4.6875 2.53125 -4.703125 2.53125 -4.734375 C 2.53125 -4.921875 2.375 -4.953125 2.296875 -4.953125 C 2.046875 -4.953125 1.984375 -4.71875 1.96875 -4.65625 L 1.65625 -3.421875 L 0.9375 -3.421875 C 0.796875 -3.421875 0.703125 -3.421875 0.703125 -3.265625 C 0.703125 -3.15625 0.8125 -3.15625 0.921875 -3.15625 L 1.59375 -3.15625 L 1.046875 -0.9375 C 1 -0.78125 1 -0.734375 1 -0.65625 C 1 -0.1875 1.34375 0.078125 1.734375 0.078125 C 2.578125 0.078125 3.03125 -1.03125 3.03125 -1.140625 Z M 3.03125 -1.140625 "/>
</g>
<g id="glyph-1-22">
<path d="M 3.859375 -2.234375 C 3.859375 -3.09375 3.328125 -3.5 2.8125 -3.5 C 2.4375 -3.5 2.140625 -3.28125 1.921875 -3.09375 L 2.46875 -5.28125 C 2.46875 -5.3125 2.5 -5.359375 2.5 -5.390625 C 2.5 -5.515625 2.359375 -5.515625 2.28125 -5.5 L 1.453125 -5.421875 C 1.34375 -5.421875 1.25 -5.40625 1.25 -5.265625 C 1.25 -5.15625 1.34375 -5.15625 1.453125 -5.15625 C 1.84375 -5.15625 1.84375 -5.109375 1.84375 -5.046875 C 1.84375 -5 1.8125 -4.90625 1.8125 -4.859375 L 1.03125 -1.765625 C 1.03125 -1.75 0.953125 -1.453125 0.953125 -1.171875 C 0.953125 -0.421875 1.359375 0.078125 1.953125 0.078125 C 2.875 0.078125 3.859375 -1.046875 3.859375 -2.234375 Z M 2.890625 -0.9375 C 2.640625 -0.421875 2.265625 -0.140625 1.96875 -0.140625 C 1.59375 -0.140625 1.4375 -0.546875 1.4375 -0.921875 C 1.4375 -1.234375 1.53125 -1.578125 1.734375 -2.34375 C 1.796875 -2.59375 1.953125 -2.78125 2.140625 -2.953125 C 2.234375 -3.046875 2.5 -3.28125 2.796875 -3.28125 C 3.03125 -3.28125 3.28125 -3.09375 3.28125 -2.546875 C 3.28125 -2.125 3.046875 -1.28125 2.890625 -0.9375 Z M 2.890625 -0.9375 "/>
</g>
<g id="glyph-1-23">
<path d="M 3.515625 0.078125 L 4.28125 -3.046875 C 4.3125 -3.15625 4.3125 -3.15625 4.3125 -3.1875 C 4.3125 -3.34375 4.203125 -3.421875 4.078125 -3.421875 C 3.828125 -3.421875 3.765625 -3.171875 3.75 -3.109375 L 3.203125 -0.921875 C 3.171875 -0.765625 2.828125 -0.140625 2.296875 -0.140625 C 1.828125 -0.140625 1.828125 -0.625 1.828125 -0.765625 C 1.828125 -1.203125 2.03125 -1.75 2.28125 -2.4375 C 2.34375 -2.609375 2.375 -2.6875 2.375 -2.84375 C 2.375 -3.28125 2.0625 -3.5 1.71875 -3.5 C 0.953125 -3.5 0.640625 -2.390625 0.640625 -2.28125 C 0.640625 -2.1875 0.734375 -2.1875 0.78125 -2.1875 C 0.90625 -2.1875 0.921875 -2.203125 0.953125 -2.34375 C 1.09375 -2.84375 1.359375 -3.28125 1.703125 -3.28125 C 1.84375 -3.28125 1.875 -3.171875 1.875 -3.03125 C 1.875 -2.84375 1.8125 -2.6875 1.75 -2.5 C 1.53125 -1.890625 1.296875 -1.3125 1.296875 -0.875 C 1.296875 -0.15625 1.8125 0.078125 2.265625 0.078125 C 2.625 0.078125 2.890625 -0.09375 3.03125 -0.21875 C 2.953125 0.09375 2.84375 0.5 2.546875 0.890625 C 2.34375 1.15625 2.046875 1.390625 1.6875 1.390625 C 1.484375 1.390625 1.28125 1.3125 1.203125 1.109375 C 1.421875 1.0625 1.5625 0.875 1.5625 0.703125 C 1.5625 0.5625 1.453125 0.4375 1.265625 0.4375 C 1.140625 0.4375 0.859375 0.53125 0.859375 0.921875 C 0.859375 1.328125 1.203125 1.625 1.6875 1.625 C 2.578125 1.625 3.328125 0.78125 3.515625 0.078125 Z M 3.515625 0.078125 "/>
</g>
<g id="glyph-1-24">
<path d="M 2.34375 1.890625 C 2.34375 1.859375 2.328125 1.84375 2.28125 1.78125 C 1.921875 1.296875 1.703125 0.671875 1.703125 -0.21875 C 1.703125 -1.46875 2.28125 -4.203125 4.125 -5.6875 C 4.25 -5.78125 4.25 -5.796875 4.265625 -5.8125 C 4.28125 -5.8125 4.28125 -5.859375 4.28125 -5.859375 C 4.28125 -5.921875 4.21875 -5.953125 4.171875 -5.953125 C 4.078125 -5.953125 2.984375 -5.25 2.21875 -3.875 C 1.453125 -2.546875 1.265625 -1.21875 1.265625 -0.46875 C 1.265625 0.09375 1.359375 0.59375 1.515625 0.96875 C 1.71875 1.5 2.109375 1.984375 2.234375 1.984375 C 2.28125 1.984375 2.34375 1.953125 2.34375 1.890625 Z M 2.34375 1.890625 "/>
</g>
<g id="glyph-1-25">
<path d="M 3.203125 -3.5 C 3.203125 -4.0625 3.09375 -4.5625 2.953125 -4.9375 C 2.734375 -5.46875 2.359375 -5.953125 2.234375 -5.953125 C 2.15625 -5.953125 2.125 -5.921875 2.125 -5.859375 C 2.125 -5.8125 2.125 -5.8125 2.15625 -5.765625 C 2.34375 -5.515625 2.75 -4.9375 2.75 -3.75 C 2.75 -2.5 2.1875 0.234375 0.34375 1.71875 L 0.203125 1.84375 C 0.1875 1.859375 0.1875 1.890625 0.1875 1.890625 C 0.1875 1.953125 0.21875 1.984375 0.296875 1.984375 C 0.375 1.984375 1.46875 1.28125 2.25 -0.09375 C 3.015625 -1.421875 3.203125 -2.75 3.203125 -3.5 Z M 3.203125 -3.5 "/>
</g>
<g id="glyph-2-0">
<path d="M 3.375 0.421875 C 3.375 0.3125 3.296875 0.265625 3.265625 0.25 C 3.0625 0.078125 2.421875 -0.40625 2.421875 -1.578125 C 2.421875 -2.71875 3.109375 -4.1875 4.609375 -5.046875 C 4.71875 -5.125 4.796875 -5.15625 4.796875 -5.28125 C 4.796875 -5.34375 4.765625 -5.515625 4.5625 -5.515625 C 4.203125 -5.515625 1.875 -3.984375 1.875 -1.609375 C 1.875 -1.140625 2 -0.625 2.265625 -0.15625 C 2.46875 0.171875 2.890625 0.65625 3.125 0.65625 C 3.328125 0.65625 3.375 0.484375 3.375 0.421875 Z M 3.375 0.421875 "/>
</g>
<g id="glyph-2-1">
<path d="M 4.53125 -1.296875 C 4.53125 -1.453125 4.390625 -1.53125 4.25 -1.53125 C 4.109375 -1.53125 4.03125 -1.46875 3.984375 -1.328125 C 3.8125 -0.78125 3.421875 -0.4375 3.046875 -0.4375 C 2.78125 -0.4375 2.515625 -0.546875 2.328125 -0.59375 C 1.765625 -0.78125 1.671875 -0.796875 1.390625 -0.8125 C 1.765625 -1.265625 2.25 -1.46875 2.578125 -1.609375 C 3.515625 -2 4.5625 -2.484375 4.5625 -3.5625 C 4.5625 -4.375 3.90625 -4.9375 3.03125 -4.9375 C 1.78125 -4.9375 1.046875 -3.828125 1.046875 -3.421875 C 1.046875 -3.3125 1.109375 -3.203125 1.3125 -3.203125 C 1.40625 -3.203125 1.53125 -3.203125 1.59375 -3.359375 C 1.890625 -4.28125 2.703125 -4.453125 3.03125 -4.453125 C 3.5625 -4.453125 4.015625 -4.140625 4.015625 -3.5625 C 4.015625 -2.859375 3.390625 -2.53125 2.296875 -2.078125 C 1.828125 -1.875 1.46875 -1.6875 1.015625 -1.203125 C 0.65625 -0.8125 0.453125 -0.265625 0.453125 -0.140625 C 0.453125 -0.0625 0.484375 0.09375 0.734375 0.09375 C 0.8125 0.09375 0.9375 0.09375 1 -0.078125 C 1.09375 -0.328125 1.265625 -0.328125 1.34375 -0.328125 C 1.59375 -0.328125 1.875 -0.21875 2.09375 -0.140625 C 2.390625 -0.015625 2.703125 0.09375 3.03125 0.09375 C 4.015625 0.09375 4.53125 -1.03125 4.53125 -1.296875 Z M 4.53125 -1.296875 "/>
</g>
<g id="glyph-2-2">
<path d="M 2.8125 -0.375 C 2.8125 -0.828125 2.515625 -0.984375 2.28125 -0.984375 C 1.90625 -0.984375 1.703125 -0.671875 1.703125 -0.421875 C 1.703125 -0.25 1.8125 0 2.140625 0 C 2.171875 0 2.1875 0 2.21875 -0.015625 C 2 0.40625 1.640625 0.5625 1.40625 0.625 C 1.359375 0.640625 1.21875 0.6875 1.21875 0.859375 C 1.21875 0.921875 1.28125 1.109375 1.46875 1.109375 C 1.828125 1.109375 2.8125 0.453125 2.8125 -0.375 Z M 2.8125 -0.375 "/>
</g>
<g id="glyph-2-3">
<path d="M 4.640625 -3.8125 C 4.640625 -4.421875 4.125 -4.9375 3.25 -4.9375 C 2.015625 -4.9375 1.40625 -4.171875 1.40625 -3.796875 C 1.40625 -3.6875 1.484375 -3.578125 1.6875 -3.578125 C 1.890625 -3.578125 1.921875 -3.65625 1.96875 -3.78125 C 2.15625 -4.296875 2.859375 -4.453125 3.234375 -4.453125 C 3.78125 -4.453125 4.09375 -4.171875 4.09375 -3.8125 C 4.09375 -3.390625 3.5625 -2.765625 2.65625 -2.765625 L 2.34375 -2.765625 C 2.234375 -2.765625 2.03125 -2.765625 2.03125 -2.515625 C 2.03125 -2.28125 2.25 -2.28125 2.359375 -2.28125 L 2.671875 -2.28125 C 3.34375 -2.28125 3.5 -1.8125 3.5 -1.53125 C 3.5 -0.703125 2.484375 -0.390625 1.90625 -0.390625 C 1.328125 -0.390625 1.171875 -0.75 1.171875 -0.828125 C 1.171875 -0.828125 1.171875 -0.859375 1.203125 -0.875 C 1.34375 -1 1.34375 -1.171875 1.34375 -1.171875 C 1.34375 -1.3125 1.25 -1.5 1.015625 -1.5 C 0.671875 -1.5 0.609375 -1.15625 0.609375 -0.9375 C 0.609375 -0.296875 1.171875 0.09375 1.90625 0.09375 C 2.765625 0.09375 4.046875 -0.40625 4.046875 -1.515625 C 4.046875 -2.078125 3.734375 -2.34375 3.609375 -2.46875 C 4.296875 -2.796875 4.640625 -3.34375 4.640625 -3.8125 Z M 4.640625 -3.8125 "/>
</g>
<g id="glyph-2-4">
<path d="M 3.515625 -3.25 C 3.515625 -3.71875 3.390625 -4.234375 3.125 -4.703125 C 2.921875 -5.03125 2.5 -5.515625 2.265625 -5.515625 C 2.109375 -5.515625 2.03125 -5.390625 2.03125 -5.28125 C 2.03125 -5.1875 2.0625 -5.15625 2.1875 -5.046875 C 2.75 -4.59375 2.953125 -3.9375 2.953125 -3.28125 C 2.953125 -2.15625 2.296875 -0.6875 0.78125 0.1875 C 0.671875 0.265625 0.59375 0.296875 0.59375 0.421875 C 0.59375 0.546875 0.671875 0.65625 0.828125 0.65625 C 1.1875 0.65625 3.515625 -0.875 3.515625 -3.25 Z M 3.515625 -3.25 "/>
</g>
<g id="glyph-3-0">
<path d="M 6.078125 -1.984375 C 6.078125 -2.171875 5.90625 -2.171875 5.796875 -2.171875 L 3.453125 -2.171875 L 3.453125 -4.515625 C 3.453125 -4.625 3.453125 -4.796875 3.28125 -4.796875 C 3.09375 -4.796875 3.09375 -4.625 3.09375 -4.515625 L 3.09375 -2.171875 L 0.75 -2.171875 C 0.640625 -2.171875 0.46875 -2.171875 0.46875 -1.984375 C 0.46875 -1.796875 0.640625 -1.796875 0.75 -1.796875 L 3.09375 -1.796875 L 3.09375 0.546875 C 3.09375 0.65625 3.09375 0.828125 3.28125 0.828125 C 3.453125 0.828125 3.453125 0.65625 3.453125 0.546875 L 3.453125 -1.796875 L 5.796875 -1.796875 C 5.90625 -1.796875 6.078125 -1.796875 6.078125 -1.984375 Z M 6.078125 -1.984375 "/>
</g>
<g id="glyph-3-1">
<path d="M 3.859375 -1.328125 C 3.859375 -1.828125 3.59375 -2.171875 3.453125 -2.296875 C 3.328125 -2.421875 3.3125 -2.4375 2.640625 -2.859375 C 3.078125 -3.078125 3.625 -3.484375 3.625 -4.09375 C 3.625 -4.84375 2.84375 -5.28125 2.109375 -5.28125 C 1.265625 -5.28125 0.59375 -4.703125 0.59375 -3.953125 C 0.59375 -3.65625 0.6875 -3.390625 0.890625 -3.15625 C 1.03125 -3 1.0625 -2.96875 1.546875 -2.671875 C 0.5625 -2.234375 0.34375 -1.65625 0.34375 -1.203125 C 0.34375 -0.328125 1.234375 0.171875 2.09375 0.171875 C 3.078125 0.171875 3.859375 -0.484375 3.859375 -1.328125 Z M 3.21875 -4.09375 C 3.21875 -3.640625 2.859375 -3.25 2.390625 -3.015625 L 1.40625 -3.609375 C 1.171875 -3.75 0.984375 -3.984375 0.984375 -4.25 C 0.984375 -4.75 1.53125 -5.078125 2.09375 -5.078125 C 2.71875 -5.078125 3.21875 -4.65625 3.21875 -4.09375 Z M 3.40625 -1.0625 C 3.40625 -0.453125 2.765625 -0.078125 2.109375 -0.078125 C 1.40625 -0.078125 0.796875 -0.5625 0.796875 -1.203125 C 0.796875 -1.796875 1.25 -2.265625 1.796875 -2.53125 L 2.859375 -1.859375 C 3 -1.796875 3.40625 -1.546875 3.40625 -1.0625 Z M 3.40625 -1.0625 "/>
</g>
<g id="glyph-3-2">
<path d="M 3.78125 -1.421875 L 3.546875 -1.421875 C 3.515625 -1.265625 3.453125 -0.859375 3.359375 -0.71875 C 3.3125 -0.65625 2.703125 -0.65625 2.578125 -0.65625 L 1.171875 -0.65625 L 2.234375 -1.625 C 2.359375 -1.734375 2.703125 -2 2.828125 -2.109375 C 3.3125 -2.5625 3.78125 -3 3.78125 -3.71875 C 3.78125 -4.671875 3 -5.28125 2 -5.28125 C 1.046875 -5.28125 0.421875 -4.5625 0.421875 -3.84375 C 0.421875 -3.453125 0.734375 -3.40625 0.84375 -3.40625 C 1.015625 -3.40625 1.25 -3.53125 1.25 -3.828125 C 1.25 -4.234375 0.859375 -4.234375 0.765625 -4.234375 C 0.984375 -4.8125 1.53125 -5.015625 1.90625 -5.015625 C 2.65625 -5.015625 3.03125 -4.390625 3.03125 -3.71875 C 3.03125 -2.890625 2.453125 -2.296875 1.515625 -1.328125 L 0.515625 -0.296875 C 0.421875 -0.21875 0.421875 -0.203125 0.421875 0 L 3.5625 0 Z M 3.78125 -1.421875 "/>
</g>
<g id="glyph-3-3">
<path d="M 3.96875 -1.296875 L 3.96875 -1.5625 L 3.125 -1.5625 L 3.125 -5.140625 C 3.125 -5.296875 3.125 -5.359375 2.953125 -5.359375 C 2.859375 -5.359375 2.84375 -5.34375 2.765625 -5.234375 L 0.234375 -1.5625 L 0.234375 -1.296875 L 2.46875 -1.296875 L 2.46875 -0.640625 C 2.46875 -0.34375 2.453125 -0.265625 1.84375 -0.265625 L 1.65625 -0.265625 L 1.65625 0 L 2.796875 -0.03125 L 3.9375 0 L 3.9375 -0.265625 L 3.765625 -0.265625 C 3.15625 -0.265625 3.125 -0.34375 3.125 -0.640625 L 3.125 -1.296875 Z M 2.53125 -1.5625 L 0.515625 -1.5625 L 2.53125 -4.5 Z M 2.53125 -1.5625 "/>
</g>
</g>
</defs>
<path fill-rule="nonzero" fill="rgb(87.998962%, 93.363953%, 96.374512%)" fill-opacity="1" stroke-width="0.3985" stroke-linecap="butt" stroke-linejoin="miter" stroke="rgb(39.99939%, 66.822815%, 81.881714%)" stroke-opacity="1" stroke-miterlimit="10" d="M 12.179681 107.718404 L -12.180163 107.718404 C -13.281904 107.718404 -14.171922 106.824465 -14.171922 105.726645 L -14.171922 92.701794 C -14.171922 91.600053 -13.281904 90.710035 -12.180163 90.710035 L 12.179681 90.710035 C 13.281422 90.710035 14.17144 91.600053 14.17144 92.701794 L 14.17144 105.726645 C 14.17144 106.824465 13.281422 107.718404 12.179681 107.718404 Z M 12.179681 107.718404 " transform="matrix(0.996293, 0, 0, -0.996293, 85.076412, 132.862015)"/>
<g fill="rgb(0%, 0%, 0%)" fill-opacity="1">
<use xlink:href="#glyph-0-0" x="79.539018" y="36.103077"/>
<use xlink:href="#glyph-0-1" x="83.230461" y="36.103077"/>
<use xlink:href="#glyph-0-2" x="86.921904" y="36.103077"/>
</g>
<path fill-rule="nonzero" fill="rgb(87.998962%, 93.363953%, 96.374512%)" fill-opacity="1" stroke-width="0.3985" stroke-linecap="butt" stroke-linejoin="miter" stroke="rgb(39.99939%, 66.822815%, 81.881714%)" stroke-opacity="1" stroke-miterlimit="10" d="M 44.781016 107.718404 L 20.417252 107.718404 C 19.315511 107.718404 18.425493 106.824465 18.425493 105.726645 L 18.425493 92.701794 C 18.425493 91.600053 19.315511 90.710035 20.417252 90.710035 L 44.781016 90.710035 C 45.878837 90.710035 46.772776 91.600053 46.772776 92.701794 L 46.772776 105.726645 C 46.772776 106.824465 45.878837 107.718404 44.781016 107.718404 Z M 44.781016 107.718404 " transform="matrix(0.996293, 0, 0, -0.996293, 85.076412, 132.862015)"/>
<g fill="rgb(0%, 0%, 0%)" fill-opacity="1">
<use xlink:href="#glyph-0-3" x="112.016163" y="36.103077"/>
<use xlink:href="#glyph-0-1" x="115.707607" y="36.103077"/>
<use xlink:href="#glyph-0-2" x="119.39905" y="36.103077"/>
</g>
<path fill-rule="nonzero" fill="rgb(87.998962%, 93.363953%, 96.374512%)" fill-opacity="1" stroke-width="0.3985" stroke-linecap="butt" stroke-linejoin="miter" stroke="rgb(39.99939%, 66.822815%, 81.881714%)" stroke-opacity="1" stroke-miterlimit="10" d="M 77.378431 107.718404 L 53.014667 107.718404 C 51.916847 107.718404 51.022908 106.824465 51.022908 105.726645 L 51.022908 92.701794 C 51.022908 91.600053 51.916847 90.710035 53.014667 90.710035 L 77.378431 90.710035 C 78.480172 90.710035 79.370191 91.600053 79.370191 92.701794 L 79.370191 105.726645 C 79.370191 106.824465 78.480172 107.718404 77.378431 107.718404 Z M 77.378431 107.718404 " transform="matrix(0.996293, 0, 0, -0.996293, 85.076412, 132.862015)"/>
<g fill="rgb(0%, 0%, 0%)" fill-opacity="1">
<use xlink:href="#glyph-0-4" x="144.494305" y="36.103077"/>
<use xlink:href="#glyph-0-1" x="148.185748" y="36.103077"/>
<use xlink:href="#glyph-0-2" x="151.877191" y="36.103077"/>
</g>
<path fill-rule="nonzero" fill="rgb(97.033691%, 88.633728%, 81.999207%)" fill-opacity="1" stroke-width="0.3985" stroke-linecap="butt" stroke-linejoin="miter" stroke="rgb(88.468933%, 55.802917%, 29.998779%)" stroke-opacity="1" stroke-miterlimit="10" d="M 12.179681 87.875306 L -12.180163 87.875306 C -13.281904 87.875306 -14.171922 86.981367 -14.171922 85.883547 L -14.171922 72.858696 C -14.171922 71.760876 -13.281904 70.866937 -12.180163 70.866937 L 12.179681 70.866937 C 13.281422 70.866937 14.17144 71.760876 14.17144 72.858696 L 14.17144 85.883547 C 14.17144 86.981367 13.281422 87.875306 12.179681 87.875306 Z M 12.179681 87.875306 " transform="matrix(0.996293, 0, 0, -0.996293, 85.076412, 132.862015)"/>
<g fill="rgb(0%, 0%, 0%)" fill-opacity="1">
<use xlink:href="#glyph-0-5" x="79.539018" y="55.87251"/>
<use xlink:href="#glyph-0-1" x="83.230461" y="55.87251"/>
<use xlink:href="#glyph-0-2" x="86.921904" y="55.87251"/>
</g>
<path fill-rule="nonzero" fill="rgb(97.033691%, 88.633728%, 81.999207%)" fill-opacity="1" stroke-width="0.3985" stroke-linecap="butt" stroke-linejoin="miter" stroke="rgb(88.468933%, 55.802917%, 29.998779%)" stroke-opacity="1" stroke-miterlimit="10" d="M 44.781016 87.875306 L 20.417252 87.875306 C 19.315511 87.875306 18.425493 86.981367 18.425493 85.883547 L 18.425493 72.858696 C 18.425493 71.760876 19.315511 70.866937 20.417252 70.866937 L 44.781016 70.866937 C 45.878837 70.866937 46.772776 71.760876 46.772776 72.858696 L 46.772776 85.883547 C 46.772776 86.981367 45.878837 87.875306 44.781016 87.875306 Z M 44.781016 87.875306 " transform="matrix(0.996293, 0, 0, -0.996293, 85.076412, 132.862015)"/>
<g fill="rgb(0%, 0%, 0%)" fill-opacity="1">
<use xlink:href="#glyph-0-6" x="112.016163" y="55.87251"/>
<use xlink:href="#glyph-0-1" x="115.707607" y="55.87251"/>
<use xlink:href="#glyph-0-2" x="119.39905" y="55.87251"/>
</g>
<path fill-rule="nonzero" fill="rgb(97.033691%, 88.633728%, 81.999207%)" fill-opacity="1" stroke-width="0.3985" stroke-linecap="butt" stroke-linejoin="miter" stroke="rgb(88.468933%, 55.802917%, 29.998779%)" stroke-opacity="1" stroke-miterlimit="10" d="M 77.378431 87.875306 L 53.014667 87.875306 C 51.916847 87.875306 51.022908 86.981367 51.022908 85.883547 L 51.022908 72.858696 C 51.022908 71.760876 51.916847 70.866937 53.014667 70.866937 L 77.378431 70.866937 C 78.480172 70.866937 79.370191 71.760876 79.370191 72.858696 L 79.370191 85.883547 C 79.370191 86.981367 78.480172 87.875306 77.378431 87.875306 Z M 77.378431 87.875306 " transform="matrix(0.996293, 0, 0, -0.996293, 85.076412, 132.862015)"/>
<g fill="rgb(0%, 0%, 0%)" fill-opacity="1">
<use xlink:href="#glyph-0-7" x="144.495301" y="55.87251"/>
<use xlink:href="#glyph-0-1" x="148.18466" y="55.87251"/>
<use xlink:href="#glyph-0-2" x="151.876103" y="55.87251"/>
</g>
<g fill="rgb(0%, 0%, 0%)" fill-opacity="1">
<use xlink:href="#glyph-1-0" x="92.577499" y="11.996781"/>
<use xlink:href="#glyph-1-1" x="95.191528" y="11.996781"/>
<use xlink:href="#glyph-1-2" x="99.547715" y="11.996781"/>
<use xlink:href="#glyph-1-3" x="103.141608" y="11.996781"/>
<use xlink:href="#glyph-1-4" x="110.111825" y="11.996781"/>
</g>
<g fill="rgb(0%, 0%, 0%)" fill-opacity="1">
<use xlink:href="#glyph-2-0" x="117.516695" y="11.996781"/>
<use xlink:href="#glyph-2-1" x="121.685484" y="11.996781"/>
<use xlink:href="#glyph-2-2" x="125.854274" y="11.996781"/>
</g>
<g fill="rgb(0%, 0%, 0%)" fill-opacity="1">
<use xlink:href="#glyph-2-3" x="134.191853" y="11.996781"/>
<use xlink:href="#glyph-2-4" x="138.360642" y="11.996781"/>
</g>
<path fill="none" stroke-width="0.79701" stroke-linecap="butt" stroke-linejoin="miter" stroke="rgb(0%, 0%, 0%)" stroke-opacity="1" stroke-miterlimit="10" d="M -31.180292 104.883676 L -31.180292 78.155678 " transform="matrix(0.996293, 0, 0, -0.996293, 85.076412, 132.862015)"/>
<path fill-rule="nonzero" fill="rgb(0%, 0%, 0%)" fill-opacity="1" stroke-width="0.79701" stroke-linecap="butt" stroke-linejoin="miter" stroke="rgb(0%, 0%, 0%)" stroke-opacity="1" stroke-miterlimit="10" d="M 5.949847 0.00136822 L 1.288033 1.761801 L 2.828902 0.00136822 L 1.288033 -1.762985 Z M 5.949847 0.00136822 " transform="matrix(0, 0.996293, 0.996293, 0, 54.010356, 52.372993)"/>
<g fill="rgb(0%, 0%, 0%)" fill-opacity="1">
<use xlink:href="#glyph-1-5" x="45.080246" y="68.147831"/>
<use xlink:href="#glyph-1-6" x="49.000497" y="68.147831"/>
<use xlink:href="#glyph-1-5" x="51.614526" y="68.147831"/>
</g>
<g fill="rgb(0%, 0%, 0%)" fill-opacity="1">
<use xlink:href="#glyph-1-7" x="58.583948" y="68.147831"/>
</g>
<path fill="none" stroke-width="0.79701" stroke-linecap="butt" stroke-linejoin="miter" stroke="rgb(0%, 0%, 0%)" stroke-opacity="1" stroke-miterlimit="10" d="M 83.624244 113.387861 L 110.348321 113.387861 " transform="matrix(0.996293, 0, 0, -0.996293, 85.076412, 132.862015)"/>
<path fill-rule="nonzero" fill="rgb(0%, 0%, 0%)" fill-opacity="1" stroke-width="0.79701" stroke-linecap="butt" stroke-linejoin="miter" stroke="rgb(0%, 0%, 0%)" stroke-opacity="1" stroke-miterlimit="10" d="M 5.951267 0.000620902 L 1.285531 1.761054 L 2.830321 0.000620902 L 1.285531 -1.763733 Z M 5.951267 0.000620902 " transform="matrix(0.996293, 0, 0, -0.996293, 192.395016, 19.89515)"/>
<g fill="rgb(0%, 0%, 0%)" fill-opacity="1">
<use xlink:href="#glyph-1-5" x="203.159001" y="21.628938"/>
<use xlink:href="#glyph-1-6" x="207.079251" y="21.628938"/>
<use xlink:href="#glyph-1-5" x="209.693281" y="21.628938"/>
</g>
<g fill="rgb(0%, 0%, 0%)" fill-opacity="1">
<use xlink:href="#glyph-1-8" x="216.662703" y="21.628938"/>
</g>
<path fill-rule="nonzero" fill="rgb(87.998962%, 93.363953%, 96.374512%)" fill-opacity="1" stroke-width="0.3985" stroke-linecap="butt" stroke-linejoin="miter" stroke="rgb(39.99939%, 66.822815%, 81.881714%)" stroke-opacity="1" stroke-miterlimit="10" d="M -55.849877 17.007099 L -80.213642 17.007099 C -81.315383 17.007099 -82.205401 16.117081 -82.205401 15.01534 L -82.205401 1.994409 C -82.205401 0.892669 -81.315383 -0.00127064 -80.213642 -0.00127064 L -55.849877 -0.00127064 C -54.752057 -0.00127064 -53.858118 0.892669 -53.858118 1.994409 L -53.858118 15.01534 C -53.858118 16.117081 -54.752057 17.007099 -55.849877 17.007099 Z M -55.849877 17.007099 " transform="matrix(0.996293, 0, 0, -0.996293, 85.076412, 132.862015)"/>
<g fill="rgb(0%, 0%, 0%)" fill-opacity="1">
<use xlink:href="#glyph-0-0" x="11.760238" y="126.47578"/>
<use xlink:href="#glyph-0-1" x="15.451681" y="126.47578"/>
<use xlink:href="#glyph-0-2" x="19.143124" y="126.47578"/>
</g>
<g fill="rgb(0%, 0%, 0%)" fill-opacity="1">
<use xlink:href="#glyph-1-7" x="15.11874" y="144.399083"/>
</g>
<path fill-rule="nonzero" fill="rgb(87.998962%, 93.363953%, 96.374512%)" fill-opacity="1" stroke-width="0.3985" stroke-linecap="butt" stroke-linejoin="miter" stroke="rgb(39.99939%, 66.822815%, 81.881714%)" stroke-opacity="1" stroke-miterlimit="10" d="M -23.252462 17.007099 L -47.616227 17.007099 C -48.714047 17.007099 -49.607986 16.117081 -49.607986 15.01534 L -49.607986 1.994409 C -49.607986 0.892669 -48.714047 -0.00127064 -47.616227 -0.00127064 L -23.252462 -0.00127064 C -22.150722 -0.00127064 -21.260703 0.892669 -21.260703 1.994409 L -21.260703 15.01534 C -21.260703 16.117081 -22.150722 17.007099 -23.252462 17.007099 Z M -23.252462 17.007099 " transform="matrix(0.996293, 0, 0, -0.996293, 85.076412, 132.862015)"/>
<g fill="rgb(0%, 0%, 0%)" fill-opacity="1">
<use xlink:href="#glyph-0-3" x="44.237383" y="126.47578"/>
<use xlink:href="#glyph-0-1" x="47.928826" y="126.47578"/>
<use xlink:href="#glyph-0-2" x="51.62027" y="126.47578"/>
</g>
<g fill="rgb(0%, 0%, 0%)" fill-opacity="1">
<use xlink:href="#glyph-1-9" x="47.595885" y="144.399083"/>
</g>
<path fill-rule="nonzero" fill="rgb(87.998962%, 93.363953%, 96.374512%)" fill-opacity="1" stroke-width="0.3985" stroke-linecap="butt" stroke-linejoin="miter" stroke="rgb(39.99939%, 66.822815%, 81.881714%)" stroke-opacity="1" stroke-miterlimit="10" d="M 9.344952 17.007099 L -15.014891 17.007099 C -16.116632 17.007099 -17.00665 16.117081 -17.00665 15.01534 L -17.00665 1.994409 C -17.00665 0.892669 -16.116632 -0.00127064 -15.014891 -0.00127064 L 9.344952 -0.00127064 C 10.446693 -0.00127064 11.336712 0.892669 11.336712 1.994409 L 11.336712 15.01534 C 11.336712 16.117081 10.446693 17.007099 9.344952 17.007099 Z M 9.344952 17.007099 " transform="matrix(0.996293, 0, 0, -0.996293, 85.076412, 132.862015)"/>
<g fill="rgb(0%, 0%, 0%)" fill-opacity="1">
<use xlink:href="#glyph-0-4" x="76.714528" y="126.47578"/>
<use xlink:href="#glyph-0-1" x="80.405972" y="126.47578"/>
<use xlink:href="#glyph-0-2" x="84.097415" y="126.47578"/>
</g>
<g fill="rgb(0%, 0%, 0%)" fill-opacity="1">
<use xlink:href="#glyph-1-8" x="77.895135" y="144.399083"/>
<use xlink:href="#glyph-1-10" x="82.251322" y="144.399083"/>
</g>
<path fill-rule="nonzero" fill="rgb(97.033691%, 88.633728%, 81.999207%)" fill-opacity="1" stroke-width="0.3985" stroke-linecap="butt" stroke-linejoin="miter" stroke="rgb(88.468933%, 55.802917%, 29.998779%)" stroke-opacity="1" stroke-miterlimit="10" d="M 41.946288 17.007099 L 17.582524 17.007099 C 16.480783 17.007099 15.590765 16.117081 15.590765 15.01534 L 15.590765 1.994409 C 15.590765 0.892669 16.480783 -0.00127064 17.582524 -0.00127064 L 41.946288 -0.00127064 C 43.044108 -0.00127064 43.938047 0.892669 43.938047 1.994409 L 43.938047 15.01534 C 43.938047 16.117081 43.044108 17.007099 41.946288 17.007099 Z M 41.946288 17.007099 " transform="matrix(0.996293, 0, 0, -0.996293, 85.076412, 132.862015)"/>
<g fill="rgb(0%, 0%, 0%)" fill-opacity="1">
<use xlink:href="#glyph-0-5" x="109.19267" y="126.47578"/>
<use xlink:href="#glyph-0-1" x="112.884113" y="126.47578"/>
<use xlink:href="#glyph-0-2" x="116.575557" y="126.47578"/>
</g>
<g fill="rgb(0%, 0%, 0%)" fill-opacity="1">
<use xlink:href="#glyph-1-11" x="110.37228" y="144.399083"/>
<use xlink:href="#glyph-1-12" x="114.728467" y="144.399083"/>
</g>
<path fill-rule="nonzero" fill="rgb(97.033691%, 88.633728%, 81.999207%)" fill-opacity="1" stroke-width="0.3985" stroke-linecap="butt" stroke-linejoin="miter" stroke="rgb(88.468933%, 55.802917%, 29.998779%)" stroke-opacity="1" stroke-miterlimit="10" d="M 74.543703 17.007099 L 50.179939 17.007099 C 49.082119 17.007099 48.18818 16.117081 48.18818 15.01534 L 48.18818 1.994409 C 48.18818 0.892669 49.082119 -0.00127064 50.179939 -0.00127064 L 74.543703 -0.00127064 C 75.645444 -0.00127064 76.535462 0.892669 76.535462 1.994409 L 76.535462 15.01534 C 76.535462 16.117081 75.645444 17.007099 74.543703 17.007099 Z M 74.543703 17.007099 " transform="matrix(0.996293, 0, 0, -0.996293, 85.076412, 132.862015)"/>
<g fill="rgb(0%, 0%, 0%)" fill-opacity="1">
<use xlink:href="#glyph-0-6" x="141.669815" y="126.47578"/>
<use xlink:href="#glyph-0-1" x="145.361259" y="126.47578"/>
<use xlink:href="#glyph-0-2" x="149.052702" y="126.47578"/>
</g>
<g fill="rgb(0%, 0%, 0%)" fill-opacity="1">
<use xlink:href="#glyph-1-13" x="142.850422" y="144.399083"/>
<use xlink:href="#glyph-1-11" x="147.206609" y="144.399083"/>
</g>
<path fill-rule="nonzero" fill="rgb(97.033691%, 88.633728%, 81.999207%)" fill-opacity="1" stroke-width="0.3985" stroke-linecap="butt" stroke-linejoin="miter" stroke="rgb(88.468933%, 55.802917%, 29.998779%)" stroke-opacity="1" stroke-miterlimit="10" d="M 107.141118 17.007099 L 82.781275 17.007099 C 81.679534 17.007099 80.789515 16.117081 80.789515 15.01534 L 80.789515 1.994409 C 80.789515 0.892669 81.679534 -0.00127064 82.781275 -0.00127064 L 107.141118 -0.00127064 C 108.242859 -0.00127064 109.132877 0.892669 109.132877 1.994409 L 109.132877 15.01534 C 109.132877 16.117081 108.242859 17.007099 107.141118 17.007099 Z M 107.141118 17.007099 " transform="matrix(0.996293, 0, 0, -0.996293, 85.076412, 132.862015)"/>
<g fill="rgb(0%, 0%, 0%)" fill-opacity="1">
<use xlink:href="#glyph-0-7" x="174.147957" y="126.47578"/>
<use xlink:href="#glyph-0-1" x="177.837316" y="126.47578"/>
<use xlink:href="#glyph-0-2" x="181.528759" y="126.47578"/>
</g>
<g fill="rgb(0%, 0%, 0%)" fill-opacity="1">
<use xlink:href="#glyph-1-12" x="175.327568" y="144.399083"/>
<use xlink:href="#glyph-1-7" x="179.683754" y="144.399083"/>
</g>
<g fill="rgb(0%, 0%, 0%)" fill-opacity="1">
<use xlink:href="#glyph-1-14" x="54.653622" y="164.478364"/>
<use xlink:href="#glyph-1-5" x="59.009808" y="164.478364"/>
<use xlink:href="#glyph-1-15" x="62.930059" y="164.478364"/>
<use xlink:href="#glyph-1-16" x="66.415167" y="164.478364"/>
<use xlink:href="#glyph-1-17" x="70.771353" y="164.478364"/>
<use xlink:href="#glyph-1-4" x="72.949446" y="164.478364"/>
<use xlink:href="#glyph-1-18" x="77.305633" y="164.478364"/>
<use xlink:href="#glyph-1-4" x="80.790741" y="164.478364"/>
<use xlink:href="#glyph-1-3" x="85.146928" y="164.478364"/>
<use xlink:href="#glyph-1-19" x="92.117144" y="164.478364"/>
<use xlink:href="#glyph-1-5" x="94.731173" y="164.478364"/>
<use xlink:href="#glyph-1-20" x="98.651423" y="164.478364"/>
<use xlink:href="#glyph-1-21" x="103.443546" y="164.478364"/>
<use xlink:href="#glyph-1-1" x="106.275147" y="164.478364"/>
</g>
<g fill="rgb(0%, 0%, 0%)" fill-opacity="1">
<use xlink:href="#glyph-1-5" x="113.680505" y="164.478364"/>
<use xlink:href="#glyph-1-20" x="117.600755" y="164.478364"/>
</g>
<g fill="rgb(0%, 0%, 0%)" fill-opacity="1">
<use xlink:href="#glyph-1-22" x="125.44205" y="164.478364"/>
<use xlink:href="#glyph-1-23" x="129.3623" y="164.478364"/>
<use xlink:href="#glyph-1-21" x="133.500916" y="164.478364"/>
<use xlink:href="#glyph-1-5" x="136.332516" y="164.478364"/>
<use xlink:href="#glyph-1-15" x="140.252767" y="164.478364"/>
</g>
<path fill="none" stroke-width="0.79701" stroke-linecap="butt" stroke-linejoin="miter" stroke="rgb(0%, 0%, 0%)" stroke-opacity="1" stroke-miterlimit="10" d="M -68.03176 17.207059 C -56.806549 23.174495 -46.659555 23.174495 -39.366893 19.300759 " transform="matrix(0.996293, 0, 0, -0.996293, 85.076412, 132.862015)"/>
<path fill-rule="nonzero" fill="rgb(0%, 0%, 0%)" fill-opacity="1" stroke-width="0.79701" stroke-linecap="butt" stroke-linejoin="miter" stroke="rgb(0%, 0%, 0%)" stroke-opacity="1" stroke-miterlimit="10" d="M 5.952982 0.000763002 L 1.287063 1.760738 L 2.830802 0.00151767 L 1.285798 -1.761373 Z M 5.952982 0.000763002 " transform="matrix(0.879657, 0.46771, 0.46771, -0.879657, 43.540407, 112.403904)"/>
<g fill="rgb(0%, 0%, 0%)" fill-opacity="1">
<use xlink:href="#glyph-3-0" x="14.20514" y="105.56858"/>
<use xlink:href="#glyph-3-1" x="20.767211" y="105.56858"/>
</g>
<g fill="rgb(0%, 0%, 0%)" fill-opacity="1">
<use xlink:href="#glyph-1-24" x="28.034677" y="105.56858"/>
<use xlink:href="#glyph-1-5" x="31.519785" y="105.56858"/>
<use xlink:href="#glyph-1-6" x="35.440035" y="105.56858"/>
<use xlink:href="#glyph-1-5" x="38.054065" y="105.56858"/>
</g>
<g fill="rgb(0%, 0%, 0%)" fill-opacity="1">
<use xlink:href="#glyph-1-8" x="45.023487" y="105.56858"/>
<use xlink:href="#glyph-1-25" x="49.379673" y="105.56858"/>
</g>
<path fill="none" stroke-width="0.79701" stroke-linecap="butt" stroke-linejoin="miter" stroke="rgb(0%, 0%, 0%)" stroke-opacity="1" stroke-miterlimit="10" d="M -68.03176 17.207059 C -35.689196 37.418711 -2.578158 37.418711 25.984768 19.567372 " transform="matrix(0.996293, 0, 0, -0.996293, 85.076412, 132.862015)"/>
<path fill-rule="nonzero" fill="rgb(0%, 0%, 0%)" fill-opacity="1" stroke-width="0.79701" stroke-linecap="butt" stroke-linejoin="miter" stroke="rgb(0%, 0%, 0%)" stroke-opacity="1" stroke-miterlimit="10" d="M 5.951524 -0.00239168 L 1.288571 1.762781 L 2.830296 -0.00164521 L 1.285704 -1.762004 Z M 5.951524 -0.00239168 " transform="matrix(0.844896, 0.527935, 0.527935, -0.844896, 108.742376, 111.977053)"/>
<g fill="rgb(0%, 0%, 0%)" fill-opacity="1">
<use xlink:href="#glyph-3-0" x="54.353738" y="95.530932"/>
<use xlink:href="#glyph-3-2" x="60.91581" y="95.530932"/>
<use xlink:href="#glyph-3-3" x="65.134625" y="95.530932"/>
</g>
<g fill="rgb(0%, 0%, 0%)" fill-opacity="1">
<use xlink:href="#glyph-1-24" x="72.402574" y="95.530932"/>
<use xlink:href="#glyph-1-5" x="75.887682" y="95.530932"/>
<use xlink:href="#glyph-1-6" x="79.807932" y="95.530932"/>
<use xlink:href="#glyph-1-5" x="82.421962" y="95.530932"/>
</g>
<g fill="rgb(0%, 0%, 0%)" fill-opacity="1">
<use xlink:href="#glyph-1-7" x="89.391384" y="95.530932"/>
<use xlink:href="#glyph-1-25" x="93.747571" y="95.530932"/>
</g>
</svg>
